<?xml version="1.0" encoding="utf-8"?>
<!-- Generator: Adobe Illustrator 24.1.2, SVG Export Plug-In . SVG Version: 6.00 Build 0)  -->
<svg version="1.1" id="Layer_1" xmlns="http://www.w3.org/2000/svg" xmlns:xlink="http://www.w3.org/1999/xlink" x="0px" y="0px"
	 viewBox="0 0 14400 14400" style="enable-background:new 0 0 14400 14400;" xml:space="preserve">
<style type="text/css">
	.st0{fill:#F1F1F2;}
</style>
<g>
	<path class="st0" d="M7360.99,7169.54h-83.21c-7.79,0-14.11-6.32-14.11-14.11v-103.17c0-10.59,11.25-17.44,20.62-12.52
		c43.72,22.96,76.91,63.36,90.29,111.88C7377.06,7160.63,7370.33,7169.54,7360.99,7169.54z"/>
</g>
<g>
	<path class="st0" d="M7263.67,7346.73v-103.17c0-7.79,6.32-14.11,14.11-14.11h83.21c9.34,0,16.07,8.9,13.59,17.91
		c-13.38,48.53-46.56,88.92-90.29,111.88C7274.92,7364.17,7263.67,7357.32,7263.67,7346.73z"/>
</g>
<g>
	<path class="st0" d="M7020.46,7199.5c0-69.29,39.28-129.57,96.75-159.75c9.38-4.93,20.64,1.92,20.64,12.51v139.33v155.14
		c0,10.59-11.26,17.44-20.64,12.51C7059.74,7329.07,7020.46,7268.79,7020.46,7199.5z"/>
</g>
</svg>
