<?xml version="1.0" encoding="utf-8"?>
<!-- Generator: Adobe Illustrator 24.1.2, SVG Export Plug-In . SVG Version: 6.00 Build 0)  -->
<svg version="1.1" id="Layer_1" xmlns="http://www.w3.org/2000/svg" xmlns:xlink="http://www.w3.org/1999/xlink" x="0px" y="0px"
	 viewBox="0 0 1920 1080" style="enable-background:new 0 0 1920 1080;" xml:space="preserve">
<style type="text/css">
	.st0{fill:#FFFFFF;}
</style>
<path class="st0" d="M1213.04,563.83l-0.23-0.82l-0.33-0.79c-2.36-5.65-5.22-10.08-8.75-13.51c-1.56-1.63-3.21-3.06-4.93-4.31
	l0.93-7.54c1.84-14.91,3.8-22.16,5.12-25.61l5.77-15.07l-15.73-3.58c-4.21-0.96-8.53-1.46-12.85-1.54c1.07-1.16,2.03-2.33,2.9-3.41
	l0.44-0.54l0.38-0.58c2.49-3.78,4.93-6.98,7.23-9.51l8.34-9.2l-8.13-9.38c-5.91-6.81-12.87-14.55-20.7-23l-0.15-0.17
	c0,0-0.49-0.5-0.65-0.66c2.36-2.61,5.34-5.87,8.9-9.75l7.99-8.7l-28.84-37.22l-2.66,3.19c-0.05-0.77-0.1-1.58-0.16-2.42l-1.23-18.17
	l-17.24,5.85c-6.67,2.26-14.61,5.44-23.59,9.43l-0.42,0.19c-0.51-0.33-1.04-0.65-1.6-0.97c-5.16-2.9-10.83-4.37-16.84-4.37
	c-0.73,0-1.47,0.02-2.21,0.07c-4.16,0.13-8.83,1.34-14.67,3.78c-4.36,1.74-8.3,3.75-11.81,6l-1.19-6.78l-15.54,5.38
	c-5.05,1.75-9.59,3.21-13.6,4.37c-1.8-7.09-6.16-11.92-9.1-14.49l-0.94-0.82l-1.07-0.64c-7.27-4.36-15.18-6.57-23.52-6.57
	c-2.85,0-5.77,0.26-8.7,0.78l-0.5,0.09l-0.49,0.12c-15.02,3.81-26.41,9.19-34.82,16.47l-5.53,4.79l0.77,7.27
	c0.16,1.47,0.53,3.78,3.42,15.73c3.1,14.71,7.37,33.75,12.68,56.6l4.21,18.11l16.24-9.06c1.71-0.95,5.49-3.24,19.63-12.53l0.58-0.38
	c4.36,6.28,5.26,8.34,5.36,8.61l3.54,8.76h9.45c1.43,0,2.81-0.21,4.11-0.61l2.34,21.33l24.85-15.95c5.82-2.82,9.95-5.28,12.93-7.69
	l3.42-2.76c1.27,0.73,2.49,1.45,3.6,2.13l12.76,7.74l4.38,9.5l14.16-13.97l0.99,15.4l12.16,0.9c2.82,0.21,4.4,0.38,5.25,0.49
	c1.77,0.24,3.96,0.55,6.55,0.92c5.53,0.8,7.69,1.14,8.52,1.29c0.23,0.04,0.44,0.08,0.62,0.11l1.8,0.7
	c-6.54,2.17-12.38,4.89-17.54,8.21l-0.34,0.22l-0.33,0.24c-10.05,7.32-16.8,14.71-20.61,22.58c-1.12,1.93-2.26,4.22-3.43,6.88
	c-6.15-4.71-12.92-7.64-20.17-8.75l-0.55-0.08l-0.56-0.04c-2.13-0.15-4.23-0.23-6.24-0.23c-8.08,0-15.31,1.25-21.49,3.72l-0.54,0.21
	l-0.52,0.26c-10.24,5.1-18.68,11.05-25.14,17.73c-5.44,5.68-7.79,8.66-9.14,10.9c-1.05,1.48-2.1,3.13-3.16,4.92
	c-0.04-0.34-0.08-0.69-0.12-1l-0.83-6.32l-1.95-17.64c-0.64-6.17-1.49-12.29-2.52-18.19l-2.83-16.2l-15.54,5.38
	c-13.82,4.78-25.41,8.28-34.45,10.4l-7.29,1.71l-10.7,28.55c2.63-20.49,5.79-43.41,9.46-68.69l3.3-22.69l3.03-2.99l-6.97-9.72
	c-4.11-5.73-7.64-11.27-10.54-16.51c0.72-0.77,1.45-1.56,2.18-2.36l0.53-0.59l0.46-0.64c8.27-11.51,11.23-22.68,8.8-33.22
	l-0.14-0.61l-0.2-0.6c-1.47-4.49-4.97-10.85-13.4-15.67c-5.16-2.9-10.83-4.37-16.84-4.37c-0.73,0-1.47,0.02-2.21,0.07
	c-4.16,0.13-8.83,1.34-14.67,3.78c-4.36,1.74-8.3,3.75-11.81,6l-1.19-6.78l-15.54,5.38c-8.44,2.92-15.49,5.05-20.95,6.33l-0.4,0.09
	l-5.8-0.46c-0.73-0.06-1.51-0.09-2.32-0.09c-4.54,0-12.7,0.77-35.74,6.77c-15.53,3.66-33.63,11.15-53.79,22.28l-0.28,0.16
	c-24.03,14-45.92,30.68-65.1,49.65c-14.97,14.98-26.77,29.89-35.07,44.38c-17.85,31.4-26.16,62.13-24.72,91.33l0.01,0.18
	c0.66,10.62,3.64,22.22,8.84,34.48l0.21,0.5l0.25,0.49c3.98,7.65,8.98,14.59,14.87,20.64l0.26,0.27l0.27,0.25
	c18.05,16.67,39.83,27.12,64.74,31.06l0.34,0.05l0.34,0.04c5.05,0.55,10.2,0.83,15.31,0.83c15.84,0,32.15-2.67,48.48-7.92
	c10.92-2.66,22.85-7.24,35.61-13.65l-0.21,1.87l4.04-1.47c-2.23,16.7,2.97,41.22,37.07,67.69c1.59,1.24,3.14,2.44,4.66,3.63
	c25.14,19.62,43.31,33.8,99.46,44.42c3.13,0.66,37.78,7.82,73.74,7.82c22.62,0,41.21-2.88,55.25-8.57l10.28-4.16l-13.46-86.72
	c6.96-0.26,13.05-0.82,18.33-1.53c0.4,0.01,0.8,0.02,1.21,0.02c3.08,0,6.48-0.27,10.4-0.82l0.29-0.04
	c5.49-0.89,11.51-2.6,17.81-5.03c6.29-2.38,11.87-4.83,16.59-7.28c2.77-1.29,7.36-3.86,17.71-11.48l0.42-0.31l0.4-0.34
	c8.8-7.55,15.84-15.55,20.91-23.78l0.14-0.23c7.97-13.49,10.55-19.89,11.55-23.88c2.18-5.31,4.05-11.35,5.57-17.98l0.06-0.26
	l0.05-0.26C1215.34,584.18,1215.51,572.65,1213.04,563.83z M900.2,478.11c0.16-1.21,0.33-2.41,0.5-3.62l0.32-2.31
	c0.94,0.55,1.86,1.09,2.71,1.61l3.61,2.19C903.71,477.22,901.5,477.82,900.2,478.11z M791.15,577.63
	c-14.85,9.97-27.4,15.03-37.31,15.03c-0.54,0-1.07-0.02-1.59-0.05c-2.34-0.54-4.39-1.08-6.15-1.59c-3.59-3.75-8.39-12.74,2.49-35.7
	l0.19-0.4l0.16-0.41c0.57-1.42,4.77-9.41,32.21-28.53c12.55-5.83,24.36-8.78,35.13-8.78c1.79,0,3.58,0.08,5.33,0.24l12.2,1.13
	l0.12-0.54c-1.56,24.04-3.51,48.74-5.83,73.96l-4.63-17.25l-5.31-25.66c-3.16,5.34-20.18,22.34-20.11,22.25
	C797.92,571.51,796.6,573.07,791.15,577.63z M981.61,709.39c-39.4,0-69.04-12.15-82.45-22.55c-3.63-2.81-6.34-5.3-8.36-7.38
	c13.77-4.07,25.24-6.58,39.66-6.58c18.79,0,43.18,4.17,81.62,11.85c19.84,3.97,38.49,6.41,55.64,7.3
	C1038.24,703.56,1009.3,709.39,981.61,709.39z M1150.73,604.13l-0.08,0.09c-5.8,6.27-12.01,11.25-18.47,14.79l-0.56,0.31l-0.53,0.35
	c-4.54,3.07-9.81,5.33-15.64,6.73l-0.23,0.05l-0.23,0.06c-1.3,0.36-2.5,0.68-3.61,0.96l-0.11-0.26c0.02-0.01,0.1-0.04,0.27-0.1
	c-0.06,0.02-3.46,1.21-10.61,2.15c7.68-6.93,13.1-13.68,16.44-20.47c1.14-2.22,2.1-4.37,2.93-6.47c3.88,1.87,7.53,3.01,11.03,3.41
	c1.19,0.14,2.45,0.21,3.74,0.21c3.82,0,8.11-0.59,13.13-1.81l0.65-0.16l0.64-0.22c0.64-0.22,1.41-0.51,2.41-0.94
	C1151.54,603.24,1151.15,603.68,1150.73,604.13z"/>
<path d="M846.62,400.03L822.9,503.51c-15.11-1.39-31.36,2.04-48.76,10.31c-22.14,15.33-34.87,27.16-38.2,35.51
	c-11.73,24.76-10.72,42.8,3.05,54.12c2.89,1,6.61,2.01,11.15,3.04c13.72,1.27,30.2-4.62,49.44-17.65
	c6.8-5.65,10.26-9.14,10.38-10.47l18.5,68.99c-17.72,10.37-33.59,17.22-47.61,20.56c-19.98,6.5-39.48,8.73-58.48,6.67
	c-22.23-3.52-41.37-12.69-57.43-27.52c-4.95-5.09-9.11-10.86-12.48-17.33c-4.61-10.85-7.19-20.81-7.75-29.88
	c-1.32-26.63,6.32-54.54,22.91-83.72c7.7-13.43,18.63-27.23,32.8-41.4c18.38-18.17,39.12-33.99,62.25-47.45
	c19.2-10.6,35.99-17.58,50.38-20.94C830.65,401.75,841.84,399.65,846.62,400.03z"/>
<g>
	<path d="M879.46,393.34c0.61,3.49,1.11,7.07,1.49,10.74l1.23,11.14l0.52,3.89c0.13,1.15,0.32,2.6,0.57,4.35
		c0.42,3.21,0.7,5.25,0.83,6.13c0.29,1.36,0.62,3.99,1,7.9l1.03,9.6l0.77,6.04c0.21,1.76,0.35,3.38,0.43,4.87
		c0.38,2.54,0.57,4.38,0.57,5.53c-2.2,1.78-5.85,3.89-10.97,6.33l-6.56,4.21c-1.11-10.08-1.74-15.5-1.89-16.24l-0.46-3.55
		c-1.91-0.57-5.27-1.49-10.08-2.75c-2.08,6.05-3.84,9.91-5.27,11.57c0,0.15-0.07,0.23-0.2,0.23c-1.39-3.46-5.61-9.93-12.66-19.42
		c0.99-1.78,2.4-5.08,4.21-9.91c1.53-2.79,3.7-8.27,6.53-16.44l6.56-17.5C863.07,398.68,870.52,396.43,879.46,393.34z
		 M865.51,425.13c-2.54,6.7-4.11,11.65-4.7,14.84c2.04,0.86,4.39,1.38,7.05,1.58C867.27,435.13,866.48,429.66,865.51,425.13z"/>
	<path d="M918.7,385.72c4.22-0.29,8.08,0.55,11.57,2.52c3.61,2.06,5.93,4.67,6.96,7.82c1.49,6.47-0.69,13.78-6.53,21.91
		c-3.11,3.44-6.06,6.45-8.85,9.05l2,4.15c3.63,7.33,8.36,15.08,14.21,23.23l-12.83,12.66l-13.46-29.19
		c-0.17,8.59-0.25,14.05-0.23,16.37c0.02,2.32-0.16,4.84-0.54,7.58c-3.21-1.95-6.95-4.09-11.23-6.42c-1.93-1.07-5.23-2.63-9.91-4.67
		c0.53-3.68,1.17-9.3,1.92-16.84c0.52-5.23,1.19-13.15,2.03-23.74c0.15-2.06,0.48-6.6,0.97-13.61c3.61-3.13,8.25-5.82,13.92-8.08
		C912.98,386.68,916.31,385.76,918.7,385.72z M911.94,408.26c-0.13,2.6-0.2,4.5-0.2,5.7l0.11,5.07l1.98-1.29
		c4.64-3.65,6.96-6.81,6.96-9.48c0-2.2-0.92-3.18-2.75-2.95C916.78,405.31,914.74,406.3,911.94,408.26z"/>
	<path d="M1018.66,380.54c7.26,6.34,6.76,15.33-1.49,26.98c-4.11,6.23-8.54,10.72-13.29,13.49c-4.79,3.02-8.02,4.92-9.68,5.7
		c1.55,5.65,3.87,12.47,6.96,20.45l0.4,1.49c-10.35,6.8-16.6,10.8-18.76,12c-5.35-22.99-9.57-41.83-12.66-56.51
		c-1.97-8.15-3.02-12.86-3.15-14.12c6.66-5.77,16.36-10.26,29.1-13.49C1004.26,375.08,1011.78,376.41,1018.66,380.54z
		 M990.62,414.28c8.69-4.49,12.9-8.5,12.63-12.03c-0.61-2.39-2.08-3.65-4.41-3.78c-4.22,0.13-8.09,1.6-11.6,4.41
		C987.83,407.1,988.96,410.9,990.62,414.28z"/>
	<path d="M1055.15,393.34c0.61,3.49,1.11,7.07,1.49,10.74l1.23,11.14l0.52,3.89c0.13,1.15,0.32,2.6,0.57,4.35
		c0.42,3.21,0.7,5.25,0.83,6.13c0.29,1.36,0.62,3.99,1,7.9l1.03,9.6l0.77,6.04c0.21,1.76,0.35,3.38,0.43,4.87
		c0.38,2.54,0.57,4.38,0.57,5.53c-2.2,1.78-5.85,3.89-10.97,6.33l-6.56,4.21c-1.11-10.08-1.74-15.5-1.89-16.24l-0.46-3.55
		c-1.91-0.57-5.27-1.49-10.08-2.75c-2.08,6.05-3.84,9.91-5.27,11.57c0,0.15-0.07,0.23-0.2,0.23c-1.39-3.46-5.61-9.93-12.66-19.42
		c0.99-1.78,2.4-5.08,4.21-9.91c1.53-2.79,3.7-8.27,6.53-16.44l6.56-17.5C1038.76,398.68,1046.21,396.43,1055.15,393.34z
		 M1041.2,425.13c-2.54,6.7-4.11,11.65-4.7,14.84c2.04,0.86,4.39,1.38,7.05,1.58C1042.96,435.13,1042.17,429.66,1041.2,425.13z"/>
	<path d="M1094.39,385.72c4.22-0.29,8.08,0.55,11.57,2.52c3.61,2.06,5.93,4.67,6.96,7.82c1.49,6.47-0.69,13.78-6.53,21.91
		c-3.11,3.44-6.06,6.45-8.85,9.05l2,4.15c3.63,7.33,8.36,15.08,14.21,23.23l-12.83,12.66l-13.46-29.19
		c-0.17,8.59-0.25,14.05-0.23,16.37c0.02,2.32-0.16,4.84-0.54,7.58c-3.21-1.95-6.95-4.09-11.23-6.42c-1.93-1.07-5.23-2.63-9.91-4.67
		c0.53-3.68,1.17-9.3,1.92-16.84c0.52-5.23,1.19-13.15,2.03-23.74c0.15-2.06,0.48-6.6,0.97-13.61c3.61-3.13,8.25-5.82,13.92-8.08
		C1088.67,386.68,1092,385.76,1094.39,385.72z M1087.63,408.26c-0.13,2.6-0.2,4.5-0.2,5.7l0.11,5.07l1.98-1.29
		c4.64-3.65,6.96-6.81,6.96-9.48c0-2.2-0.92-3.18-2.75-2.95C1092.47,405.31,1090.43,406.3,1087.63,408.26z"/>
	<path d="M1143.48,394.29l0.11,2.49v8.54c0.31,5.35,0.46,8.34,0.46,8.97v2.46c5.37-4.54,10.45-9.7,15.27-15.47l10.94,14.12
		c-6.21,6.76-10.61,11.61-13.2,14.55c-1.2,1.24-2.63,2.82-4.27,4.73c1.43,1.95,4.57,5.38,9.42,10.28
		c7.75,8.36,14.55,15.92,20.39,22.66c-2.79,3.07-5.63,6.81-8.54,11.2c-2.67,3.28-4.38,4.93-5.13,4.93
		c-3.07-3.82-6.51-8.53-10.31-14.12c-1.16-1.18-3.33-4.03-6.5-8.54l-4.93-6.7c0.19,5.84,0.41,9.05,0.66,9.62
		c0,1.83,0.15,4.01,0.46,6.53c0,2.29,0.17,5.02,0.52,8.19l0.23,4.1c-0.34-0.13-1.18-0.32-2.51-0.54c-1.33-0.23-4.29-0.68-8.89-1.35
		c-2.67-0.38-4.91-0.7-6.7-0.95c-1.47-0.19-3.49-0.38-6.07-0.57l-1.43-22.34c0-2.44-0.3-8.68-0.9-18.7
		c-0.6-10.02-1.09-20.32-1.46-30.89c-0.37-10.57-0.56-16.52-0.56-17.86c8.63-3.84,16.1-6.83,22.4-8.96
		C1143.37,387.16,1143.55,391.71,1143.48,394.29z"/>
</g>
<path d="M886.83,472.56c-4.04,29.01-6.97,58.32-8.78,87.94c5.15-2.48,7.86-3.72,8.13-3.72c2.82-1.19,5.97-2.66,9.46-4.41
	c1.44-14.09,2.89-34.11,4.37-60.05c5.54-0.52,17.61-4.75,36.21-12.68c-10.94,75.23-17.25,129.08-18.93,161.55l-2.71,1.15
	c-6.25,2.94-10.98,5.42-14.2,7.44c-4.87,2.6-9.6,5.42-14.2,8.45c-0.03-13.2,1.65-35.85,5.05-67.95l-18.06,6.8
	c-0.37,3.8-1.42,16.66-3.17,38.59c-6.8,2.88-10.39,10.3-15.39,12.32c-6.89,2.48-13.7,26.08-17.41,27.43
	c6.4-58.11,10.13-140,12.76-192.38C859.38,481.26,871.67,477.77,886.83,472.56z"/>
<path d="M997.63,522.93c0.98,5.61,1.78,11.35,2.39,17.23l1.98,17.87l0.83,6.25c0.21,1.84,0.52,4.17,0.92,6.98
	c0.67,5.15,1.12,8.42,1.33,9.83c0.46,2.17,1,6.4,1.61,12.68l1.65,15.39l1.24,9.7c0.34,2.82,0.57,5.42,0.69,7.81
	c0.61,4.07,0.92,7.03,0.92,8.87c-3.52,2.85-9.39,6.23-17.6,10.15l-10.52,6.75c-1.78-16.17-2.79-24.86-3.03-26.05l-0.74-5.7
	c-3.06-0.92-8.45-2.39-16.17-4.41c-3.34,9.71-6.16,15.9-8.45,18.56c0,0.24-0.11,0.37-0.32,0.37c-2.24-5.54-21.17,6.37-32.47-8.86
	c1.59-2.85,16-30.44,18.91-38.19c2.45-4.47,5.94-13.26,10.48-26.37l10.52-28.07C971.35,531.49,983.29,527.89,997.63,522.93z
	 M975.25,573.93c-4.07,10.75-6.58,18.68-7.54,23.8c3.28,1.38,7.05,2.22,11.3,2.53C978.07,589.96,976.82,581.19,975.25,573.93z"/>
<path d="M1082.08,540.11c5.64,0.86,10.86,3.38,15.67,7.58c5.67,6.31,9.5,13.98,11.49,23.02c0.95,5.54,1.12,11.09,0.51,16.63
	c-0.34,4.44-1.96,9.5-4.87,15.16c-3.49,7.14-10.6,14.79-21.32,22.97c-7.69,5.61-15.13,9.79-22.33,12.54
	c-3.77,1.81-9.85,3.05-18.24,3.72c-8.73-0.8-15.62-5.19-20.68-13.19c-3.37-6.07-5.05-12.84-5.05-20.31
	c0.06-8.06,1.87-16.51,5.42-25.36c3.28-7.17,6.33-12.7,9.14-16.59c0.77-1.47,3.25-4.39,7.44-8.77c5.33-5.51,12.42-10.48,21.27-14.89
	C1066.29,540.34,1073.47,539.5,1082.08,540.11z M1044.91,603.15c-0.49,6.86,3.14,10.31,10.89,10.34c8.03-2.05,13.97-5.3,17.83-9.74
	c6.49-7.54,9.74-14.63,9.74-21.27c-1.07-5.79-3.55-9.04-7.44-9.74c-9.46,1.04-17.89,6.59-25.27,16.63
	C1047.41,594.45,1045.49,599.05,1044.91,603.15z"/>
<path d="M1179.28,505.05c4.22-0.13,8.39,0.26,12.49,1.2c-2.34,6.11-4.32,15.74-5.94,28.9c-4.35-0.71-10.69-0.44-19.02,0.8
	c-9.64,1.63-16.8,4.59-21.48,8.88c-3.37,3.79-6.01,7.73-7.94,11.83c-0.75,2.22-1.01,4.12-0.77,5.69c0.66,1.73,1.88,2.34,3.66,1.82
	c2.84-0.3,6.77-2.14,11.81-5.53c5.61-2.88,9.58-4.5,11.91-4.85c1.81-0.7,4.4-1.2,7.77-1.49c4.65-0.57,8.83-0.38,12.54,0.59
	c3.49,0.78,6.66,2.67,9.49,5.69c2.2,2.09,4.12,5.1,5.77,9.03c1.86,6.63,1.59,16.24-0.8,28.83c-1.46,6.38-3.24,12.01-5.33,16.87
	c-0.59,3.5-3.99,10.49-10.19,20.99c-4.34,7.03-10.38,13.86-18.12,20.5c-7.39,5.44-12.59,8.84-15.57,10.18
	c-4.31,2.25-9.44,4.51-15.39,6.76c-5.5,2.13-10.54,3.56-15.1,4.31c-7.46,1.06-12.69,0.89-15.68-0.49l-5.83-32.11
	c4.1,0.47,11.16-0.68,21.18-3.45c7.5-1.8,14.24-4.71,20.2-8.74c7.81-4.3,15.14-10.15,22-17.55c7.3-7.75,10.41-16.52,9.35-26.3
	c-1.44-6.1-5.57-7.31-12.39-3.63c-6.3,3.67-10.62,5.91-12.98,6.73c-4.99,1.21-8.98,1.65-11.95,1.3c-2.98-0.34-6.55-1.81-10.72-4.41
	c-1.08-0.58-2.29-1.78-3.65-3.59c-2.16-2.25-3.89-5.39-5.18-9.45c-2.1-6.99-1.9-15.57,0.61-25.73c2.25-6.25,4.3-10.9,6.14-13.93
	c2.69-5.85,8.18-11.8,16.47-17.84C1146.86,510.29,1161.07,506.35,1179.28,505.05z"/>
<path d="M968.04,770.16c-56.24-10.61-70.98-24.19-98.3-45.38c-24.06-18.67-34.94-38.28-31.47-56.72
	c2.1-11.15,10.49-26.19,38.56-34.5c45.06-13.35,69.14-10.97,144.66,4.13c66.92,13.38,94.72,2.64,94.99,2.53
	c-0.21,0.08-0.31,0.13-0.31,0.13l13.95,31.01c-3.58,1.61-37.22,15.28-115.3-0.33c-74.31-14.86-92.3-15.55-128.33-4.87
	c-11.67,3.46-14.65,7.34-14.81,8.19c-0.48,2.54,3.51,11.64,18.9,23.58c22.83,17.71,91.78,44.66,187.97,4.86l10.46,67.38
	C1047.09,787.14,968.04,770.16,968.04,770.16z"/>
<path class="st0" d="M1003.88,746.75c-1.45,0-2.89-0.01-4.32-0.03l0.04-3c3.93,0.06,7.96,0.03,11.94-0.07l0.08,3
	C1009.05,746.72,1006.45,746.75,1003.88,746.75L1003.88,746.75z M987.51,746.29c-4.02-0.23-8.07-0.54-12.03-0.93l0.3-2.98
	c3.92,0.39,7.92,0.7,11.9,0.92L987.51,746.29L987.51,746.29z M1023.67,746.1l-0.19-2.99c3.93-0.25,7.93-0.59,11.9-1l0.31,2.98
	C1031.68,745.51,1027.64,745.85,1023.67,746.1L1023.67,746.1z M963.51,743.9c-4-0.58-8.01-1.26-11.9-2.01l0.57-2.95
	c3.85,0.74,7.81,1.41,11.76,1.98L963.51,743.9L963.51,743.9z M1047.65,743.64l-0.42-2.97c3.92-0.55,7.89-1.18,11.8-1.87l0.52,2.95
	C1055.61,742.45,1051.6,743.09,1047.65,743.64L1047.65,743.64z M1071.38,739.45l-0.63-2.93c3.83-0.82,7.71-1.71,11.53-2.66
	l0.72,2.91C1079.16,737.72,1075.25,738.63,1071.38,739.45L1071.38,739.45z M939.81,739.31c-3.94-0.97-7.86-2.04-11.65-3.19
	l0.87-2.87c3.74,1.13,7.61,2.19,11.5,3.14L939.81,739.31L939.81,739.31z M916.7,732.29c-3.86-1.42-7.63-2.95-11.21-4.54l1.22-2.74
	c3.52,1.57,7.23,3.07,11.03,4.47L916.7,732.29L916.7,732.29z M894.61,722.41c-3.72-2.01-7.22-4.13-10.39-6.28l1.68-2.48
	c3.1,2.1,6.51,4.16,10.14,6.13L894.61,722.41L894.61,722.41z M874.57,708.72c-3.27-2.79-6.23-5.63-8.79-8.43l2.21-2.03
	c2.48,2.71,5.35,5.46,8.53,8.17L874.57,708.72L874.57,708.72z M858.31,690.56c-2.43-3.97-4.02-7.86-4.73-11.54l2.95-0.56
	c0.64,3.33,2.1,6.87,4.34,10.54L858.31,690.56L858.31,690.56z M857.67,667.63l-2.73-1.25c1.63-3.55,4.38-6.78,8.18-9.59l1.78,2.41
	C861.52,661.71,859.09,664.55,857.67,667.63L857.67,667.63z M1087.77,662.85l-0.08-3c4.12-0.11,8.11-0.35,11.87-0.71l0.28,2.99
	C1096.02,662.49,1091.96,662.73,1087.77,662.85L1087.77,662.85z M1075.7,662.84c-3.9-0.1-7.96-0.31-12.05-0.6l0.22-2.99
	c4.05,0.29,8.06,0.49,11.92,0.59L1075.7,662.84L1075.7,662.84z M1051.64,661.14c-3.9-0.43-7.92-0.95-11.95-1.54l0.43-2.97
	c4,0.58,7.99,1.09,11.85,1.52L1051.64,661.14L1051.64,661.14z M1111.87,660.46l-0.56-2.95c7.6-1.44,11.19-3.02,11.23-3.04l1.23,2.74
	C1123.61,657.28,1119.87,658.94,1111.87,660.46L1111.87,660.46z M1027.79,657.69c-3.26-0.57-6.6-1.2-9.93-1.87l-1.88-0.38l0.58-2.94
	l1.89,0.38c3.31,0.66,6.63,1.29,9.87,1.86L1027.79,657.69L1027.79,657.69z M875.11,653.7l-1.12-2.78c2.23-0.9,4.67-1.74,7.25-2.51
	c1.46-0.43,2.9-0.85,4.31-1.25l0.81,2.89c-1.4,0.4-2.82,0.81-4.27,1.24C879.59,652.02,877.24,652.83,875.11,653.7L875.11,653.7z
	 M1004.21,653.12c-4.1-0.79-8.02-1.54-11.77-2.24l0.55-2.95c3.77,0.7,7.69,1.45,11.8,2.24L1004.21,653.12L1004.21,653.12z
	 M980.65,648.76c-4.25-0.74-8.11-1.37-11.81-1.94l0.45-2.96c3.72,0.57,7.6,1.21,11.87,1.94L980.65,648.76L980.65,648.76z
	 M897.9,647.1l-0.66-2.93c4.15-0.94,8.04-1.67,11.89-2.25l0.44,2.97C905.8,645.45,901.98,646.17,897.9,647.1L897.9,647.1z
	 M957,645.18c-4.23-0.52-8.12-0.92-11.87-1.22l0.24-2.99c3.79,0.3,7.72,0.7,12,1.23L957,645.18L957,645.18z M921.38,643.63
	l-0.19-2.99c3.92-0.25,7.96-0.34,12.11-0.27l-0.05,3C929.18,643.3,925.22,643.39,921.38,643.63L921.38,643.63z"/>
</svg>
