<?xml version="1.0" encoding="utf-8"?>
<!-- Generator: Adobe Illustrator 24.1.2, SVG Export Plug-In . SVG Version: 6.00 Build 0)  -->
<svg version="1.1" id="Layer_1" xmlns="http://www.w3.org/2000/svg" xmlns:xlink="http://www.w3.org/1999/xlink" x="0px" y="0px"
	 viewBox="0 0 1920 1080" style="enable-background:new 0 0 1920 1080;" xml:space="preserve">
<style type="text/css">
	.st0{fill:#FFFFFF;}
</style>
<g>
	<g>
		<path class="st0" d="M801.66,341.24c9.77,9.7,18.85,21.51,18.85,44.14v293.05c0,13.77-1.61,24.32-5.19,31
			c-4.39,8.2-12.16,12.57-21.45,7.85c-3.42-1.73-7.22-4.74-11.4-9.28l-6.97,6.12l36,46.03c21.58-0.59,33.96-16.36,40.74-37.65
			c1.8,23.19,11.82,45.26,30.91,59.56c42.6,31.91,106.15,12.25,138.25-25.2c39.65-46.24,51.88-122.36,44.08-176.88
			c-35.26,15.29-42.54-20.83-59.95-41.63c-13.65-16.32-42.61-31.95-64.78-34.93v10.59c34.93,5.59,66.48,39.5,73.98,75.56
			c10.95,52.58,4.5,145.26-38.94,181.12c-24.22,19.99-61.25,22.77-86.82,3.6c-21-15.74-28.65-41.28-27.12-66.47
			c1.14-18.6,8.88-37.41,21.25-51.08c11-12.17,25.69-20.22,42.55-20.25c17.86-0.03,34.83,7.14,43.85,23.23
			c10.3,18.38,7.33,41.36-1.79,59.54l8.69,4.35c10.57-21.07,13.48-47.46,1.6-68.65c-10.75-19.15-30.99-28.22-52.35-28.19
			c-19.86,0.04-37.01,9.36-49.76,23.45c-6.91,7.64-12.53,16.7-16.58,26.44c0.18-4.36,0.25-8.71,0.24-12.96l-0.09-33.62
			c-0.09-40.44,4.94-80.87,34.51-101.12v-15.09c-14.55,11.1-27.06,24.35-34.48,43.3l0.03-162.77c0-21.85,2.62-39.14,7.45-53.26"/>
		<path class="st0" d="M1015.38,649.86c0.11-3.1,0.18-6.18,0.19-9.24c-19.11-2.8-37.64-12.66-46.22-29.41
			c-14.54-28.37-9.98-48.57,10.81-73.1c-3.37-3.03-6.91-5.79-10.58-8.25c-21.22,24.95-22.24,64.72-7.39,86.14
			C974.56,633.84,994.01,646.52,1015.38,649.86z"/>
	</g>
	<path class="st0" d="M1007.53,387.56c2.74-28.48-7.36-61.63-27.38-82.12c3.79-2.91,7.92-5.32,12.28-7.27
		c32.89,26.01,55.99,68.97,65.43,91.68c-25.12,56.6-71.49,86.06-116.82,109.85v-16.23C970.62,461.38,1003.85,425.74,1007.53,387.56
		L1007.53,387.56z M966.52,293.48c2.9-2.56,6.2-4.93,9.7-7.19c-22.97-11.2-51.31-11.3-71.97-2.55
		c-11.17,4.73-21.64,11.91-31.74,20.96c-20.18,18.09-37.38,38.8-70.86,36.54c9.77,9.7,18.85,21.51,18.85,44.14v293.05
		c0,13.77-1.61,24.32-5.19,31c-4.39,8.2-12.16,12.57-21.45,7.85c-3.42-1.73-7.22-4.74-11.4-9.28l-6.97,6.12l36,46.03
		c21.58-0.59,33.96-16.36,40.74-37.65c1.8,23.19,11.82,45.26,30.91,59.56c42.6,31.91,106.15,12.25,138.25-25.2
		c39.65-46.24,51.88-122.36,44.08-176.88c-35.26,15.29-42.54-20.83-59.95-41.63c-13.65-16.32-42.61-31.95-64.78-34.93v10.59
		c34.93,5.59,66.48,39.5,73.98,75.56c10.95,52.58,4.5,145.26-38.94,181.12c-24.22,19.99-61.25,22.77-86.82,3.6
		c-21-15.74-28.65-41.28-27.12-66.47c1.14-18.6,8.88-37.41,21.25-51.08c11-12.17,25.69-20.22,42.55-20.25
		c17.86-0.03,34.83,7.14,43.85,23.23c10.3,18.38,7.33,41.36-1.79,59.54l8.69,4.35c10.57-21.07,13.48-47.46,1.6-68.65
		c-10.75-19.15-30.99-28.22-52.35-28.19c-19.86,0.04-37.01,9.36-49.76,23.45c-6.91,7.64-12.53,16.7-16.58,26.44
		c0.18-4.36,0.25-8.71,0.24-12.96l-0.09-33.62c-0.09-40.44,4.94-80.87,34.51-101.12v-15.09c-14.55,11.1-27.06,24.35-34.48,43.3
		l0.03-162.77c0-21.85,2.62-39.14,7.45-53.26c10.13-29.58,33.52-52.59,66.28-53.65C941.52,287.23,953.56,288.05,966.52,293.48z"/>
</g>
<path class="st0" d="M1081.77,563.74c-5.12-8.65-13.63-16.77-24.22-17.33c-7.5-0.4-14.42,3.73-16.8,10.99
	c-3.05,9.32,3.37,19.81,13.16,20.95c6.65,0.78,12.88-2.97,15.46-9.09c0.76-1.77,1.19-3.71,1.17-5.68c1.25,1.51,2.36,3.14,3.35,4.79
	c8.46,14.25,8.4,29.2,2.92,42.01c-1.56,3.65-3.41,6.99-5.51,10.02c-0.14,4.74-0.37,9.53-0.77,14.39c5.21-5.02,9.75-11.04,13.27-18.2
	C1091.63,600.71,1092.4,581.65,1081.77,563.74z"/>
<g>
	<path class="st0" d="M1131.01,541.88c-16.59-3.29-25.62-7.6-48.74-20.7c-25.47-14.45-52.21-19.96-80.18-10.77
		c46.45-38.46,89.9-23.93,104.89-21.96c12.92-31.45,20.66-62.69,18.65-98.32c-2.12-37.61-18.32-74.16-46.55-95.2
		c-32.97-24.55-75.57-23.39-109.2-0.42c-6.9,4.71-13.57,10.08-20.28,15.74c-25,21.1-42.17,24.01-71.33,13.22l-3.48,7.33
		c19.26,14.66,24.87,30.09,24.87,62.53V517.7h-0.13v32.24h0.13v63.15c-6.28-18.25-16.68-32.34-29.71-42.41
		c-1.63,5.38-2.91,10.98-3.86,16.74c3.11,2.17,6.07,4.6,8.86,7.31c9.57,9.31,16.61,21.75,21.01,35.35c0.06-0.03,0.13-0.06,0.19-0.09
		c0.94-0.46,1.88-0.9,2.83-1.32c0.3-0.13,0.6-0.27,0.9-0.39c0.79-0.33,1.58-0.65,2.38-0.95c0.44-0.17,0.87-0.34,1.31-0.49
		c0.67-0.24,1.35-0.46,2.02-0.68c0.55-0.18,1.1-0.36,1.65-0.52c0.59-0.17,1.19-0.33,1.78-0.48c0.62-0.16,1.24-0.33,1.87-0.48
		c0.56-0.13,1.12-0.24,1.68-0.35c0.66-0.14,1.31-0.28,1.97-0.39c0.57-0.1,1.15-0.17,1.73-0.26c0.65-0.09,1.29-0.2,1.94-0.28
		c0.7-0.08,1.4-0.13,2.1-0.19c0.53-0.04,1.06-0.11,1.59-0.14c1.24-0.07,2.49-0.11,3.74-0.12c0.04,0,0.08,0,0.12,0
		c3.68,0,7.24,0.28,10.71,0.76v-82.6h-0.01V419.43c0-37.5-2.09-73.04,24.91-102.42c24.5-26.64,61.49-36.51,91.61-24.62
		c45.07,17.8,59.83,73.15,41.1,115.18c-9.21,20.66-25.75,38.79-45.57,54.03c-20.93,16.11-45.47,33.45-64.95,54.06
		c4.3,2.58,8.39,5.35,12.14,8.25c9.11-5.2,19.41-8.25,30.53-8.04c48.37,0.9,80.82,35.53,84.49,82.76
		c3,38.44-14.33,80.21-50.47,95.29c36.56,3.61,63.02,34.59,62.96,102.59l7.79-0.24L1131.01,541.88z"/>
	<path class="st0" d="M816.68,551.98c-10.23-0.48-20.8,0.36-31.44,2.68v28.87c10.35-4.9,20.99-7.77,31.44-8.69V551.98z"/>
</g>
<g>
	<path class="st0" d="M956.6,713.29c-12.81-11.14-20.12-21.67-20.12-42.02v-29.89c-1.67-0.32-3.37-0.57-5.12-0.75
		c-1.82-0.17-3.66-0.3-5.57-0.3c-0.02,0-0.03,0-0.04,0c-10.22,0.02-18.79,3.16-25.69,7.32c2.48,16.58,1.27,33.66-3.95,48.21
		c-5.49,15.27-15.59,26.54-29.1,34.48c0.69,3.64,1.59,7.16,2.74,10.53C903.54,726.2,908.68,709.67,956.6,713.29z"/>
</g>
</svg>
