<?xml version="1.0" encoding="utf-8"?>
<!-- Generator: Adobe Illustrator 24.1.2, SVG Export Plug-In . SVG Version: 6.00 Build 0)  -->
<svg version="1.1" id="Layer_1" xmlns="http://www.w3.org/2000/svg" xmlns:xlink="http://www.w3.org/1999/xlink" x="0px" y="0px"
	 viewBox="0 0 1920 1080" style="enable-background:new 0 0 1920 1080;" xml:space="preserve">
<style type="text/css">
	.st0{fill:#FFFFFF;}
	.st1{font-family:'AGBook-Stencil';}
	.st2{font-size:126.6361px;}
</style>
<text transform="matrix(1 0 0 1 940.7124 637.8398)" class="st0 st1 st2"> </text>
<path class="st0" d="M1239.35,544.91l23.64-21.05l41.88,33.46c0,0,11.23,11.01-1.94,25.69c-13.17,14.68-70.39,58.94-70.39,58.94
	s-3.67-0.43-6.05-3.02c-2.37-2.59-4.53-7.34-4.53-7.34l55.27-45.34c0,0,2.81-3.24-0.22-6.05c-3.02-2.81-39.3-29.79-39.3-29.79
	S1234.92,549.12,1239.35,544.91"/>
<path class="st0" d="M1255.86,464.49l43.18,31.95c0,0,4.97,5.18,0.43,9.5c-4.54,4.32-20.73,17.7-20.73,17.7s-4.32,4.53-11.23-0.86
	c-6.91-5.4-26.99-24.61-26.99-24.61s-5.18-4.75-8.85-1.73c-3.67,3.02-8.85,6.05-8.85,6.05s-2.37,0.43-4.1-2.37
	c-1.73-2.81,0.86-5.83,4.32-8.85c3.45-3.02,27.63-24.61,27.63-24.61S1253.49,463.84,1255.86,464.49"/>
<path class="st0" d="M1145.97,447.22l38-33.47c0,0,4.54-0.65,4.97,2.37c0.43,3.02,0.43,49.23,0.43,49.23s-0.22,4.97,1.94,4.97
	c2.16,0,20.94-0.43,20.94-0.43s6.69,1.94,7.34,7.12c0.65,5.18-0.86,9.93-5.61,10.58c-4.75,0.65-21.81,0.43-21.81,0.43
	s-0.86,1.3-0.86,6.91V561c0,0,0.21,4.53,3.67,5.4c3.46,0.86,4.32,3.02,3.46,4.53c-0.86,1.51-22.45,20.08-22.45,20.08
	s-0.86,3.67-8.64-1.94c-7.77-5.61-18.78-13.6-18.78-14.25s-4.75-3.46-0.65-7.99c4.1-4.53,6.26-2.38,6.48-9.07
	c0.22-6.69-1.51-102.99-1.51-102.99s-7.56-0.22-7.99-3.24C1144.46,448.51,1145.97,447.22,1145.97,447.22"/>
<path class="st0" d="M1149.21,484.79c0,4.53-5.18,5.18-5.18,5.18h-9.07c0,0-7.56-0.86-7.56-9.28v-0.43c0-8.42,7.56-9.28,7.56-9.28
	h9.07c0,0,5.18,0.65,5.18,5.18v5.61V484.79z"/>
<path class="st0" d="M1079.58,484.46l36.15-31.02c0,0,5.13-2.93,5.13,4.4v102.36c0,0,0.24,7.08,3.91,7.82
	c3.67,0.73,4.64,1.95,3.67,3.91c-0.98,1.95-26.14,21.74-26.14,21.74s-3.91,2.45-7.57-1.71c-3.67-4.15-10.26-9.04-10.26-23.45v-75.73
	C1084.46,492.76,1073.47,490.56,1079.58,484.46"/>
<path class="st0" d="M1007.27,404.82l-36.89,29.31c0,0-6.84,8.55,2.69,14.9c9.53,6.35,47.15,38.35,49.1,40.06
	c1.95,1.71,0.73,66.69,0.73,66.69s-0.98,15.63,17.59,15.63c14.43,0,20.75-3.34,21.25-15.88c0.49-12.21,0.98-72.55-0.73-75.24
	c-1.71-2.69-1.46-2.2-9.28-9.53c-7.82-7.33-50.08-42.02-50.08-42.02s-5.13-2.44-0.49-7.33c4.64-4.89,12.46-11.73,12.46-11.73
	S1014.84,401.64,1007.27,404.82"/>
<path class="st0" d="M999.7,481.04l-0.49,67.18c0,0,0.73,4.16,3.18,5.38c2.44,1.22,19.05,17.1,19.05,17.1s3.42,2.69-2.69,8.8
	c-6.11,6.11-17.83,14.41-17.83,14.41s-0.24,3.42-9.04-3.66c-8.8-7.09-25.65-21.25-25.65-21.25s-3.42-0.24-3.42-13.19
	c0-12.95,0.49-52.03,0.49-52.03s-0.98-4.15,6.35-10.51c7.33-6.35,21.99-17.34,21.99-17.34S998.72,471.26,999.7,481.04"/>
<path class="st0" d="M898.6,438.74l35.46-29.15c0,0,5.67-2.27,5.99,5.18c0.33,7.45,0,146.22,0,146.22s0.33,4.53,3.4,6.48
	c3.08,1.94,7.29,3.24,6.48,5.83c-0.81,2.59-23.16,19.59-23.16,19.59s-5.34,8.1-13.44,0c-8.1-8.1-14.65-14.65-14.65-14.65
	s-4.29-3.48,0.08-8.18c4.37-4.7,5.18-5.02,5.02-12.15c-0.16-7.12,0-105.9,0-105.9S888.96,448.38,898.6,438.74"/>
<path class="st0" d="M823.49,471.52l19.16-16.66c0,0,1.96-2.2,4.79-1.36c1.93,0.57,3.25,1.51,4.37,2.37
	c2.25,1.73,23.99,19.16,23.99,19.16s4,2.17,4.33,6.66c0.33,4.5-0.5,72.8-0.5,72.8s-2.33,18.85-14.99,19.09
	c-9.76,0.18-16.49,0-16.49,0s-6-0.93-6.16-11.43c-0.17-10.5,0-67.63,0-67.63l-16.48-15.28c0,0-3.39-2.57-3.56-3.8
	C821.77,474.21,821.76,473.57,823.49,471.52"/>
<path class="st0" d="M790.93,473.93h20.85c0,0,7.63-0.39,7.63,7.63v67.11c0,0-0.48,4.63,3,7.14c3.47,2.51,19.31,17.19,19.31,17.19
	s2.12,2.71-1.54,6.57c-3.67,3.86-18.35,15.64-18.35,15.64s-4.06,4.25-10.23-2.13c-6.18-6.37-30.7-26.84-30.7-26.84
	s-4.06-2.32-1.35-6.37c2.71-4.06,4.83-5.79,4.83-5.79l-0.58-75.32C783.78,478.75,782.82,474.51,790.93,473.93"/>
<path class="st0" d="M702.1,452.11l72.8,62.37c0,0,3.09,2.9,0.77,5.6c-2.32,2.71-55.81,47.12-55.81,47.12s-3.86,1.16-6.95-2.7
	c-3.09-3.86-1.16-4.44,0.39-6.37c1.54-1.93,21.82-20.28,21.82-20.28s3.28-1.54,0.39-5.21c-2.9-3.67-48.31-39.81-48.31-39.81
	s-13.88-17.55-3.06-30.68C694.95,449.02,700.16,452.88,702.1,452.11"/>
<path class="st0" d="M743.21,414.73h39.15c0,0,6.22,0.6,2.81,4.02c-3.41,3.41-29.72,28.11-29.72,28.11s-2.81,2.41-11.85,2.81
	c-9.03,0.4-33.13,0-33.13,0s-9.44,1.01-6.22-3.81c3.21-4.82,31.52-27.71,31.52-27.71S737.39,415.13,743.21,414.73"/>
<path class="st0" d="M703.58,420.88c0,0-25.26,28.28-27.85,56.13c-2.59,27.85,2.16,59.38,19.43,76.43
	c17.27,17.06,23.1,23.32,46.64,26.99c23.53,3.67,28.07,2.38,28.71,2.59c0.65,0.22,0.65,4.75-9.72,9.07
	c-10.36,4.32-46.2,18.79-79.02,2.16c-32.82-16.63-53.19-40.5-56.57-81.83c-2.81-34.33,9.07-55.05,20.08-67.79
	c11.01-12.74,31.95-27.63,44.91-32.6c12.96-4.97,17.27-3.89,19.43-1.51C711.79,412.89,710.49,413.75,703.58,420.88"/>
</svg>
