<?xml version="1.0" encoding="utf-8"?>
<!-- Generator: Adobe Illustrator 24.1.2, SVG Export Plug-In . SVG Version: 6.00 Build 0)  -->
<svg version="1.1" id="Layer_1" xmlns="http://www.w3.org/2000/svg" xmlns:xlink="http://www.w3.org/1999/xlink" x="0px" y="0px"
	 viewBox="0 0 1920 1080" style="enable-background:new 0 0 1920 1080;" xml:space="preserve">
<style type="text/css">
	.st0{fill:none;stroke:#FFE319;stroke-width:19.1171;stroke-miterlimit:10;}
	.st1{fill:#001522;}
	.st2{fill:#FFE0B2;}
	.st3{fill:#C8C8C8;}
	.st4{fill:url(#SVGID_1_);}
	.st5{fill:none;}
	.st6{fill:none;stroke:#000000;stroke-width:0.6372;stroke-miterlimit:10;}
	.st7{fill:none;stroke:#000000;stroke-width:0.6372;stroke-linecap:round;stroke-linejoin:round;stroke-miterlimit:10;}
	.st8{fill:#5D5D5D;stroke:#000000;stroke-width:0.6372;stroke-miterlimit:10;}
	.st9{fill:url(#SVGID_2_);}
	.st10{fill:url(#SVGID_3_);}
	.st11{fill:url(#SVGID_4_);}
	.st12{fill:#5D5D5D;}
	.st13{opacity:0.71;fill:#EFEFED;}
	.st14{fill:url(#SVGID_5_);}
	.st15{fill:#F69334;stroke:#001522;stroke-width:3.1862;stroke-miterlimit:10;}
	.st16{fill:#9A9A9A;}
	.st17{fill:#BFA986;}
	.st18{fill:#EEEEEE;}
	.st19{fill:url(#SVGID_6_);}
	.st20{fill:url(#SVGID_7_);}
	.st21{fill:url(#SVGID_8_);}
	.st22{fill:url(#SVGID_9_);}
	.st23{fill:#9E9E9E;}
	.st24{fill:url(#SVGID_10_);}
	.st25{fill:url(#SVGID_11_);}
	.st26{fill:url(#SVGID_12_);}
	.st27{fill:url(#SVGID_13_);}
	.st28{fill:url(#SVGID_14_);}
	.st29{fill:url(#SVGID_15_);}
	.st30{fill:url(#SVGID_16_);}
	.st31{fill:url(#SVGID_17_);}
	.st32{fill:url(#SVGID_18_);}
	.st33{fill:url(#SVGID_19_);}
	.st34{fill:url(#SVGID_20_);}
	.st35{fill:url(#SVGID_21_);}
	.st36{fill:url(#SVGID_22_);}
	.st37{fill:url(#SVGID_23_);}
	.st38{fill:url(#SVGID_24_);}
	.st39{fill:#FFFFFF;}
	.st40{fill:#9464A9;}
	.st41{fill:#474747;}
	.st42{fill:url(#SVGID_25_);}
	.st43{fill:url(#SVGID_26_);}
	.st44{fill:url(#SVGID_27_);}
	.st45{fill:url(#SVGID_28_);}
	.st46{fill:url(#SVGID_29_);}
	.st47{fill:url(#SVGID_30_);}
	.st48{fill:url(#SVGID_31_);}
	.st49{fill:url(#SVGID_32_);}
	.st50{fill:url(#SVGID_33_);}
</style>
<path class="st0" d="M1241.33,594.2c3.67-16.37,7.34-32.73,11.04-49.09c1.35-4.93,1.64-9.96,0.86-14.95
	c-2.57-16.65-14.66-29.07-31.54-32.41l-0.09-0.02c-34.99-6.81-70.68-12.42-106.1-16.69l-0.09-0.01c-1.64-0.19-3.3-0.29-4.93-0.29
	c-5.4,0-10.65,1.08-15.53,3.13c-20.1-16.9-43.38-30.13-68.84-38.64c-0.93-7.65-1.61-12.98-1.77-14.22c-0.03-1.01,0.26-3.31,3.4-4.63
	c7.88-3.32,16.87-6.11,18.51-6.5c0.39-0.09,0.77-0.21,1.17-0.33c0.61-0.19,0.94-0.29,2.02-0.29c0.93,0,2.13,0.1,3.57,0.28
	c0.08,0.04,0.33,0.17,0.75,0.53c1.1,0.94,2.38,2.57,3.62,4.15c3.06,3.88,6.52,8.29,11.99,9.38c0.97,0.19,1.96,0.29,2.96,0.29
	c6.77,0,12.09-4.47,14.82-7.66c5.42,3.95,13.9,5.51,21.7,5.51c14.58,0,23.82-5.48,24.73-14.67c0.02-0.2,0.03-0.41,0.03-0.61
	l0.08-28.57c4.31-0.77,8.01-3.19,10.63-6.99c3.73-5.43,2.99-11.97,1.38-17.08c5.73-2.25,9.29-6.94,9.58-13.19
	c0.26-5.61-0.84-10.42-2.06-13.92c2.92-2.46,5.96-6.52,7.11-13.09c2.15-12.38-2.32-22.34-12.6-28.05
	c-6.41-3.56-11.72-5.73-13.75-6.51l0.04-15.49c0,0,0-0.01,0-0.01l0-0.03c0-0.02,0-0.05,0-0.08c0-0.01,0-0.01,0-0.02l0.01-0.13
	c0-0.01,0.01-0.06,0.01-0.07l0.01-0.08c0-0.01,0-0.03,0-0.05c0-0.02,0-0.04,0-0.06l0.01-0.1c0-0.03,0.01-0.08,0.01-0.12l0.01-0.13
	c0-0.01,0.01-0.06,0.01-0.06c0-0.03,0.01-0.05,0.01-0.08l0.02-0.16c0-0.01,0.01-0.07,0.01-0.07c0-0.02,0.01-0.1,0.01-0.12l0.14-1.1
	c0-0.01,0.01-0.1,0.01-0.1c0.01-0.04,0.01-0.08,0.02-0.11l0.44-2.19c0-0.01,0.02-0.06,0.02-0.07l0.31-1.07
	c0.01-0.03,0.04-0.11,0.05-0.14l0.18-0.51c0.01-0.03,0.04-0.1,0.05-0.13l0.19-0.45c0.01-0.02,0.02-0.04,0.03-0.05
	c0.03-0.06,0.06-0.11,0.08-0.15c0.01-0.02,0.02-0.04,0.03-0.06c0.11-0.21,0.2-0.34,0.26-0.42c1.1-0.97,2.12-2.02,3.04-3.14
	l0.15-0.18c0.2-0.25,0.4-0.5,0.58-0.74l0.24-0.33c0.17-0.24,0.34-0.48,0.52-0.74l0.2-0.3c0-0.01,0.04-0.07,0.05-0.07
	c0.15-0.24,0.31-0.48,0.44-0.7c0.07-0.12,0.14-0.25,0.21-0.37l0.06-0.1c0.13-0.23,0.26-0.47,0.37-0.66
	c0.07-0.14,0.14-0.28,0.22-0.45c0.21-0.43,0.41-0.86,0.58-1.27l0.03-0.08c0.08-0.19,0.16-0.38,0.24-0.6
	c0.06-0.16,0.12-0.33,0.17-0.49l0.03-0.1c0.08-0.24,0.16-0.48,0.24-0.71c0.06-0.2,0.12-0.4,0.17-0.59c0.07-0.25,0.13-0.5,0.2-0.77
	c0.04-0.18,0.08-0.37,0.13-0.57c0.05-0.26,0.1-0.53,0.15-0.82l0.01-0.08c0.03-0.15,0.05-0.31,0.07-0.46c0.04-0.3,0.07-0.6,0.1-0.9
	c0-0.01,0.01-0.06,0.01-0.08c0.01-0.13,0.03-0.26,0.03-0.39c0.03-0.49,0.05-0.95,0.05-1.41c0-14.81-15.56-26.42-35.41-26.42
	s-35.41,11.6-35.41,26.42c0,0.42,0.02,0.86,0.05,1.35c0.01,0.12,0.02,0.23,0.03,0.35l0.01,0.08c0.03,0.32,0.06,0.63,0.1,0.94
	c0.02,0.15,0.04,0.3,0.07,0.46c0.05,0.34,0.12,0.67,0.18,0.99c0.02,0.1,0.04,0.2,0.07,0.32c0.09,0.41,0.2,0.81,0.32,1.25
	c0.04,0.13,0.08,0.26,0.12,0.39l0.03,0.08c0.08,0.25,0.16,0.49,0.25,0.74c0.06,0.18,0.13,0.35,0.21,0.58
	c0.08,0.21,0.17,0.43,0.25,0.62l0.03,0.07c0.07,0.17,0.14,0.34,0.22,0.5c0.16,0.34,0.32,0.68,0.5,1.02c0.1,0.2,0.21,0.39,0.32,0.59
	l0.08,0.15c0.07,0.13,0.14,0.25,0.2,0.35c0.13,0.23,0.27,0.45,0.42,0.69l0.22,0.34c0.53,0.8,1.12,1.58,1.73,2.31
	c0.06,0.07,0.11,0.14,0.14,0.16c0.2,0.24,0.41,0.47,0.63,0.71l0.17,0.18c0.11,0.12,0.22,0.24,0.33,0.35
	c0.03,0.04,0.06,0.09,0.09,0.14c0.02,0.02,0.03,0.05,0.04,0.07c0.03,0.05,0.05,0.09,0.08,0.14c0.01,0.02,0.03,0.05,0.04,0.08
	c0.03,0.06,0.06,0.12,0.08,0.15l0.05,0.1c0.04,0.08,0.07,0.16,0.1,0.21l0.03,0.07c0.03,0.08,0.07,0.16,0.1,0.24
	c0.01,0.01,0.03,0.07,0.03,0.08c0.03,0.09,0.07,0.17,0.1,0.28c0,0.01,0.02,0.05,0.03,0.08c0.03,0.09,0.06,0.19,0.09,0.29
	c0.01,0.03,0.02,0.06,0.03,0.08c0.03,0.1,0.06,0.19,0.09,0.33l0.02,0.06c0.03,0.11,0.06,0.21,0.08,0.31
	c0.01,0.03,0.02,0.08,0.03,0.11c0.03,0.11,0.05,0.23,0.08,0.34c0.01,0.03,0.01,0.06,0.02,0.09c0.02,0.11,0.05,0.22,0.07,0.34
	c0,0.01,0.01,0.08,0.02,0.09l0.08,0.47c-0.34,0.44-0.61,0.92-0.81,1.4c-1.2,0.35-2.41,0.85-3.63,1.49
	c-9.92,5.25-10.59,9.04-11.07,19.22l-0.01,0.23c-0.47,9.9,2.87,17.58,5.37,21.26c-4.04,2.49-9.22,6.1-13.06,10.2
	c-5.03,5.37-10.72,13.11-13.28,16.68c-2.02,0.84-4.75,2.52-8.79,5.86l-1.14,0.94c-0.72,0.59-1.4,1.15-2.04,1.69
	c-0.72-4.22-2.38-7.27-3.59-9.5c-0.18-0.34-0.4-0.73-0.58-1.09c0.63-0.52,1.53-1.17,2.25-1.69c3.22-2.32,7.64-5.49,10.2-10.95
	l0.38-0.8c1.9-4.03,3.05-6.46,2.89-9.37c-0.25-4.57-3.59-6.91-5.81-8.46c-2-1.4-4.25-2.32-6.6-2.71l-0.95-7.76
	c4.13-2.94,10.12-7.95,12.38-13.6c1.44-3.59,2.68-6.69,2.47-9.93c-0.27-4.26-2.84-7.44-7.65-9.44c-2.75-1.15-6.08-1.73-9.89-1.73
	c-0.3,0-0.6,0-0.89,0.01l-1.62-3.86c-0.16-0.38-0.36-0.75-0.59-1.09c-0.02-0.03-1.57-2.35-3.32-5.89c1.22-3.1,1.36-6.33,1.36-9.24
	v-0.3c0-3.76-0.86-7.26-2.41-10.29c0.78-0.79,1.35-1.78,1.64-2.88c2.82-0.73,5.31-2.08,6.25-5.26c0.77-2.61-0.09-5.39-2.24-7.27
	c-1.95-1.71-8.35-6.4-14.4-7.64c-0.22-0.04-0.43-0.08-0.65-0.12c-1.39-1.45-3.4-2.18-5.43-1.91c-0.15,0.02-0.84,0.12-1.91,0.36
	c-2.48-4.58-11.72-19.38-28.68-21.62c-6.14-0.81-11.38-1.2-16.02-1.2c-9.1,0-15.82,1.59-20.53,4.85
	c-4.07,2.82-10.07,7.14-13.14,9.36c-4.31-1.17-11.76-2.77-20.22-2.77c-5,0-9.77,0.56-14.18,1.66c-17.32,4.33-25.18,7.53-32.34,13.15
	c-4.8,3.77-7.85,7.05-8.82,9.49c-0.91,2.27-0.44,4.85,1.2,6.65c1.36,1.49,3.31,2.23,5.28,2.06c-1.03,1.23-1.82,2.42-2.42,3.47
	c-3.22,1-7.82,3.26-12.91,8.36c-8.71,8.71-9.49,16.87-9.55,17.77c-0.15,2.33,0.97,4.55,2.94,5.8c1.7,1.08,3.78,1.28,5.63,0.6
	c-1.28,2.81-1.93,5.47-2.7,8.63c-0.28,1.16-0.59,2.44-0.97,3.88c-2.55,9.7-0.62,14.72,0.03,16.02c1.08,2.16,3.29,3.52,5.7,3.52
	c0.01,0,0.03,0,0.04,0c1.81-0.01,3.5-0.79,4.68-2.09c-0.71,3.68-0.63,6.49-0.58,8.39c0.01,0.28,0.02,0.62,0.02,0.88
	c-0.58,1.82-0.36,3.76,0.63,5.37c1.16,1.88,3.22,3.03,5.43,3.03c0.84,0,1.53-0.09,2.18-0.32c0.23,4.17,1.39,6.39,2.17,7.44
	c1.4,1.86,3.7,2.82,6,2.48c0.17-0.02,0.35-0.06,0.51-0.1c0.97,0.82,2.15,1.33,3.42,1.47c-0.03,0.29-0.06,0.57-0.07,0.85
	c-0.54,7.59,3.67,15.79,4.15,16.7c1.26,2.38,3.89,3.71,6.55,3.32c0.46-0.07,0.91-0.18,1.34-0.35c2.09,5.04,5.67,8.03,6.17,8.43
	c1.16,0.93,2.57,1.4,3.98,1.4c0.01,0,0.02,0,0.03,0c2.11-0.01,3.98-1.04,5.13-2.62c0.54,0.07,1.09,0.07,1.65,0
	c1.18-0.16,2.26-0.63,3.14-1.34c1.02,0.19,2.05,0.12,3-0.16c-2.85,3.37-4.81,7.43-6.03,10.53c-9.69,0.38-32.27,2.07-46.32,9.64
	c-5.78,3.11-11.39,5.8-16.35,8.17c-9.88,4.73-17.68,8.46-22.09,13.21c-2.72,2.93-4.55,4.97-5.73,6.31
	c-4.82,0.41-14.33,1.45-20.08,3.61c-9.55,3.58-11.53,9.39-12.2,14.05c-0.37,2.6,0.06,4.68,0.74,6.27c-0.82,3.57-1.97,9.9-1.65,16.34
	c0.24,4.89,0.62,8.97,0.92,11.65c-2.56,2.36-6.43,6.28-9.64,10.94c-5.01,7.28-5.38,10.88-5.7,17.69c-0.03,0.7-0.07,1.44-0.11,2.25
	c-0.17,3.09,0.2,5.83,0.84,8.23c-17.93,2.64-35.86,5.59-53.57,8.84c-13.33,2.4-25.04,9.74-32.99,20.69
	c-8.29,11.42-11.36,24.61-8.86,38.18c4.88,26.35,9.75,52.39,13.44,72.13l0.18,0.86c1.21,5.48,3.24,10.65,6.04,15.36
	c5.13,8.63,12.71,15.47,21.92,19.76c4.79,2.24,9.79,3.67,14.91,4.29c-10.48,8.23-19.36,17.5-26.53,27.76
	c-0.02,0.03-0.04,0.06-0.06,0.08c-11.11,16.02-18.08,32.97-20.72,50.36c-3,18.97-0.61,36.97,7.11,53.51
	c7.25,15.52,15.82,27.21,28.45,36.21c22.56,16.08,42.83,16.21,53.68,15.98c7.75-0.17,15.55-1.73,23.13-4.65
	c2.5-0.96,5.07-2.07,7.75-3.35c22.19-8.26,40.28-13.56,54.93-17.17c32.36,20.16,70.56,31.81,111.5,31.81
	c33.62,0,65.4-7.87,93.61-21.84c10.88,1.63,21.78,3.41,31.64,5.35c6.08,1.19,13.33,1.68,22.17,1.49c0.4-0.01,40.95-1.13,58.31-10.28
	c0.45-0.24,0.88-0.48,1.32-0.73c5.5-2.12,10.62-4.4,15.43-6.87c17.65-8.88,28.89-19.67,34.33-32.95
	c6.32-15.36,4.67-31.43-4.63-45.52c2.63-0.19,5.5-0.35,8.65-0.46c13.54-0.46,24.82-10.51,26.82-23.91c0.29-1.94,0.58-3.88,0.86-5.83
	c0.78-5.37-0.01-10.85-2.27-15.77c0.34-2.19,0.42-4.4,0.24-6.59c-0.05-2.73-0.5-5.47-1.36-8.14c-0.57-1.77-1.42-3.93-3.67-8.62
	c-2.34-9.46-9.48-17.03-18.7-19.98c4.84-5.13,8.18-11.5,9.66-18.6c1.38-6.06,2.16-9.46,3.45-15.12l0.4-1.76l0.2-0.93
	c0.82-4.28,0.95-8.6,0.37-12.82c0,0,0-0.01,0-0.01c2.4-3.69,4.19-7.79,5.27-12.18L1241.33,594.2z M1012.47,372.61
	c0.49,0,0.95-0.03,1.4-0.08c-3.63,2.36-7.7,5.17-10.92,7.44l-0.37-0.66c-0.01-0.03-0.03-0.05-0.04-0.07
	c-0.01-0.03-0.03-0.09-0.06-0.16c0-0.01,0-0.01-0.01-0.02c-0.23-0.64-0.79-2.61-0.79-6.47c0-0.86-0.06-1.69-0.17-2.49
	C1005.58,371.52,1009.63,372.61,1012.47,372.61z M850.77,455.59c1.3-2.43,2.6-4.53,3.67-6.15c4.54-0.17,7.92-3.64,10.04-10.32
	c0.95-2.97,1.69-4,2.23-4.75c3.36-4.65,1.67-8.02-0.11-11.58c-1.06-2.11-2.19-3.83-3.3-5.22c4.29-1.62,13.09-3.18,18.04-4.05
	c0.24-0.04,0.49-0.06,0.75-0.06c1.82,0,3.82,0.99,5.37,2c-0.97,5.97-2.96,18.41-5.2,33.32c-13.16,5.14-25.68,11.57-37.41,19.12
	C846.55,463.51,849.31,458.34,850.77,455.59z"/>
<circle class="st1" cx="959.09" cy="645.58" r="211.21"/>
<path class="st1" d="M1241.33,594.2c3.67-16.37,7.34-32.73,11.04-49.09c1.35-4.93,1.64-9.96,0.86-14.95
	c-2.57-16.65-14.66-29.07-31.54-32.41l-0.09-0.02c-34.99-6.81-70.68-12.42-106.1-16.69l-0.09-0.01c-1.64-0.19-3.3-0.29-4.93-0.29
	c-5.67,0-11.18,1.18-16.27,3.43c-6.92-4.3-14.81-6.91-23.16-7.61l-0.09-0.01c-27.25-2.21-54.94-3.71-82.31-4.44
	c-9.05-0.29-17.87,1.74-25.71,5.78c-6.18-3.92-13.56-6.08-21.56-6.08l-0.53,0c-6.99,0.08-14.07,0.21-21.04,0.4
	c-11.92,0.23-23.18,4.39-32.23,11.83c-0.85-0.57-1.72-1.11-2.61-1.64c-7.98-4.69-16.76-7.07-26.1-7.07c-1.34,0-2.71,0.05-4.07,0.15
	c-6.97,0.52-14.08,1.1-21.1,1.74c-7.95,0.71-15.18,3.55-21.24,8.26c-6.03-2.41-12.4-3.64-19-3.64c-2.22,0-4.48,0.14-6.73,0.42
	l-0.09,0.01c-27.14,3.48-54.54,7.75-81.45,12.69c-13.33,2.4-25.04,9.74-32.99,20.69c-8.29,11.42-11.36,24.61-8.86,38.18
	c4.88,26.35,9.75,52.39,13.44,72.13l0.18,0.86c1.21,5.48,3.24,10.65,6.04,15.36c5.13,8.63,12.71,15.47,21.92,19.76
	c4.79,2.24,9.79,3.67,14.91,4.29c-10.48,8.23-19.36,17.5-26.53,27.76c-0.02,0.03-0.04,0.06-0.06,0.08
	c-11.11,16.02-18.08,32.97-20.72,50.36c-3,18.97-0.61,36.97,7.11,53.51c7.25,15.52,15.82,27.21,28.45,36.21
	c22.56,16.08,42.83,16.21,53.68,15.98c7.75-0.17,15.55-1.73,23.13-4.65c2.5-0.96,5.07-2.07,7.75-3.35
	c49.94-18.58,79.17-22.2,94.95-25.3c2.42-0.48,11.88,6.83,36.14,6.31c29.42-0.63,55.31,0.79,60.64,1.71
	c6.9,1.55,17.54,3.02,35.58,5.46c19.7,2.67,44.22,6,64.37,9.95c6.08,1.19,13.33,1.68,22.17,1.49c0.4-0.01,40.95-1.13,58.31-10.28
	c0.45-0.24,0.88-0.48,1.32-0.73c5.5-2.12,10.62-4.4,15.43-6.87c17.65-8.88,28.89-19.67,34.33-32.95
	c6.32-15.36,4.67-31.43-4.63-45.52c2.63-0.19,5.5-0.35,8.65-0.46c13.54-0.46,24.82-10.51,26.82-23.91c0.29-1.94,0.58-3.88,0.86-5.83
	c0.78-5.37-0.01-10.85-2.27-15.77c0.34-2.19,0.42-4.4,0.24-6.59c-0.05-2.73-0.5-5.47-1.36-8.14c-0.57-1.77-1.42-3.93-3.67-8.62
	c-2.34-9.46-9.48-17.03-18.7-19.98c4.84-5.13,8.18-11.5,9.66-18.6c1.38-6.06,2.16-9.46,3.45-15.12l0.4-1.76l0.2-0.93
	c0.82-4.28,0.95-8.6,0.37-12.82c0,0,0-0.01,0-0.01c2.4-3.69,4.19-7.79,5.27-12.18L1241.33,594.2z"/>
<path class="st1" d="M931.53,592.18c-13.25,0-23.85-1.61-31.5-4.78c-11.9-4.94-19.63-9.47-23.9-18.01
	c-4.03-8.06-4.19-18.89-3.99-33.32c0.39-27.02,12.41-102.62,15.31-120.47c-1.55-1.01-3.55-2-5.37-2c-0.26,0-0.51,0.02-0.75,0.06
	c-4.94,0.87-13.75,2.43-18.04,4.05c1.11,1.39,2.24,3.11,3.3,5.22c1.78,3.56,3.47,6.93,0.11,11.58c-0.54,0.75-1.28,1.78-2.23,4.75
	c-2.12,6.67-5.5,10.14-10.04,10.32c-1.07,1.62-2.37,3.72-3.67,6.15c-2.21,4.14-7.38,13.83-7.38,17.96c0,2.4,0.76,4.69,1.91,8.14
	c0.81,2.44,1.73,5.21,2.61,8.71c2.07,8.27,0.26,16.27-5.36,23.76c-2.99,3.99-6.46,4.83-8.84,4.83c-6.32,0-10.67-5.93-12.09-7.88
	c-0.81-1.11-1.49-2.35-2.06-3.66c-2.08,1.42-4.26,2.48-6.07,3.37c-0.91,0.44-1.76,0.86-2.5,1.26c-2.02,1.1-4.14,1.66-6.31,1.66
	c-2.45,0-4.5-0.71-6.07-1.55c-0.28,0.13-0.57,0.28-0.83,0.46c-1.89,1.26-4.31,1.93-6.99,1.93c-4.01,0-9.47-1.57-12.77-5.97
	c-1.44-1.92-2.86-4.06-3.9-5.68c-3.02-0.67-7.03-2.18-9.45-5.57l-0.43-0.6c-2.39-3.29-6.83-9.42-6.31-18.86
	c0.04-0.81,0.08-1.56,0.11-2.25c0.32-6.81,0.7-10.41,5.7-17.69c3.21-4.67,7.09-8.59,9.64-10.95c-0.29-2.68-0.67-6.76-0.92-11.65
	c-0.32-6.44,0.83-12.77,1.65-16.34c-0.68-1.59-1.11-3.67-0.74-6.27c0.67-4.66,2.65-10.47,12.2-14.05c5.75-2.16,15.25-3.2,20.08-3.61
	c1.18-1.34,3.01-3.38,5.73-6.31c4.42-4.76,12.22-8.49,22.09-13.21c4.96-2.37,10.57-5.06,16.35-8.17
	c14.06-7.57,36.64-9.26,46.32-9.64c1.21-3.09,3.17-7.16,6.03-10.53c-0.95,0.29-1.98,0.35-3,0.16c-0.88,0.71-1.96,1.18-3.14,1.34
	c-0.56,0.07-1.12,0.07-1.65,0c-1.16,1.58-3.02,2.61-5.13,2.62c-0.01,0-0.02,0-0.03,0c-1.42,0-2.83-0.47-3.98-1.4
	c-0.5-0.4-4.08-3.38-6.17-8.43c-0.43,0.16-0.87,0.28-1.34,0.35c-2.66,0.39-5.29-0.94-6.55-3.32c-0.48-0.91-4.69-9.11-4.15-16.7
	c0.02-0.27,0.04-0.55,0.07-0.85c-1.27-0.14-2.46-0.66-3.42-1.47c-0.17,0.04-0.34,0.07-0.51,0.1c-2.3,0.33-4.61-0.62-6-2.48
	c-0.79-1.05-1.94-3.27-2.17-7.44c-0.65,0.23-1.35,0.32-2.18,0.32c-2.21,0-4.27-1.15-5.43-3.03c-0.99-1.61-1.21-3.56-0.63-5.37
	c0-0.26-0.01-0.6-0.02-0.88c-0.05-1.89-0.14-4.71,0.58-8.39c-1.18,1.3-2.87,2.08-4.68,2.09c-0.01,0-0.03,0-0.04,0
	c-2.41,0-4.62-1.36-5.7-3.52c-0.65-1.31-2.59-6.32-0.03-16.02c0.38-1.44,0.69-2.72,0.97-3.88c0.77-3.16,1.42-5.82,2.7-8.63
	c-1.85,0.68-3.94,0.48-5.63-0.6c-1.97-1.25-3.09-3.47-2.94-5.8c0.06-0.9,0.84-9.06,9.55-17.77c5.09-5.09,9.7-7.35,12.91-8.35
	c0.6-1.05,1.39-2.24,2.42-3.47c-1.96,0.17-3.92-0.57-5.28-2.06c-1.64-1.8-2.11-4.39-1.2-6.65c0.98-2.44,4.03-5.72,8.82-9.49
	c7.16-5.62,15.01-8.82,32.34-13.15c4.41-1.1,9.18-1.66,14.18-1.66c8.46,0,15.91,1.6,20.22,2.77c3.07-2.22,9.07-6.54,13.14-9.36
	c4.71-3.26,11.42-4.85,20.53-4.85c4.64,0,9.88,0.39,16.02,1.2c16.96,2.23,26.21,17.04,28.68,21.62c1.08-0.24,1.76-0.34,1.91-0.36
	c2.03-0.27,4.04,0.46,5.43,1.91c0.22,0.03,0.43,0.07,0.65,0.12c6.05,1.24,12.45,5.94,14.4,7.64c2.15,1.88,3.01,4.66,2.24,7.27
	c-0.94,3.18-3.43,4.53-6.25,5.26c-0.29,1.11-0.86,2.1-1.64,2.88c1.55,3.03,2.41,6.53,2.41,10.29v0.3c0,2.91-0.13,6.14-1.36,9.24
	c1.74,3.54,3.3,5.87,3.32,5.89c0.23,0.34,0.43,0.71,0.59,1.09l1.62,3.86c0.29-0.01,0.59-0.01,0.89-0.01c3.81,0,7.14,0.58,9.89,1.73
	c4.81,2.01,7.39,5.18,7.65,9.44c0.2,3.24-1.04,6.34-2.47,9.93c-2.26,5.66-8.25,10.67-12.38,13.6l0.95,7.76
	c2.35,0.39,4.6,1.31,6.6,2.71c2.21,1.55,5.56,3.89,5.81,8.46c0.16,2.91-0.99,5.34-2.89,9.37l-0.38,0.8
	c-2.57,5.46-6.98,8.63-10.2,10.95c-0.72,0.52-1.62,1.17-2.25,1.69c0.18,0.36,0.4,0.75,0.58,1.09c1.21,2.23,2.86,5.27,3.59,9.5
	c0.64-0.53,1.32-1.09,2.04-1.69l1.14-0.94c4.05-3.33,6.78-5.02,8.79-5.86c2.56-3.58,8.25-11.31,13.28-16.68
	c3.84-4.1,9.03-7.7,13.06-10.2c-2.5-3.68-5.84-11.36-5.37-21.26l0.01-0.23c0.48-10.18,1.16-13.97,11.07-19.22
	c1.22-0.65,2.44-1.15,3.63-1.49c0.2-0.48,0.47-0.95,0.81-1.4l-0.08-0.47c0-0.01-0.01-0.08-0.02-0.09c-0.02-0.11-0.04-0.22-0.07-0.34
	c-0.01-0.03-0.01-0.06-0.02-0.09c-0.03-0.11-0.05-0.22-0.08-0.34c-0.01-0.03-0.02-0.08-0.03-0.11c-0.03-0.11-0.05-0.21-0.08-0.31
	l-0.02-0.06c-0.04-0.13-0.07-0.23-0.09-0.33c-0.01-0.03-0.02-0.06-0.03-0.08c-0.03-0.1-0.06-0.19-0.09-0.29
	c-0.01-0.03-0.02-0.07-0.03-0.08c-0.04-0.11-0.07-0.2-0.1-0.28c0-0.01-0.03-0.07-0.03-0.08c-0.03-0.08-0.07-0.16-0.1-0.24
	l-0.03-0.07c-0.03-0.06-0.06-0.14-0.1-0.21l-0.05-0.1c-0.01-0.03-0.04-0.09-0.08-0.15c-0.01-0.03-0.03-0.05-0.04-0.08
	c-0.03-0.05-0.05-0.09-0.08-0.14c-0.01-0.02-0.03-0.04-0.04-0.07c-0.03-0.05-0.06-0.09-0.09-0.14c-0.11-0.12-0.22-0.23-0.33-0.35
	l-0.17-0.18c-0.22-0.24-0.43-0.48-0.63-0.71c-0.02-0.03-0.08-0.09-0.14-0.16c-0.61-0.73-1.2-1.51-1.73-2.31l-0.22-0.34
	c-0.15-0.24-0.29-0.46-0.42-0.69c-0.06-0.1-0.13-0.23-0.2-0.35l-0.08-0.15c-0.11-0.2-0.22-0.39-0.32-0.59
	c-0.18-0.34-0.34-0.68-0.5-1.02c-0.07-0.16-0.15-0.33-0.22-0.5l-0.03-0.07c-0.08-0.19-0.17-0.4-0.25-0.62
	c-0.09-0.22-0.15-0.4-0.21-0.58c-0.09-0.25-0.17-0.5-0.25-0.74l-0.03-0.08c-0.04-0.13-0.08-0.26-0.12-0.39
	c-0.13-0.44-0.23-0.84-0.32-1.25c-0.03-0.12-0.05-0.22-0.07-0.32c-0.07-0.31-0.13-0.65-0.18-0.99c-0.02-0.16-0.05-0.31-0.07-0.46
	c-0.04-0.31-0.08-0.62-0.1-0.94l-0.01-0.08c-0.01-0.12-0.02-0.23-0.03-0.35c-0.03-0.48-0.05-0.92-0.05-1.35
	c0-14.81,15.56-26.42,35.41-26.42c19.86,0,35.41,11.6,35.41,26.42c0,0.46-0.02,0.92-0.05,1.41c-0.01,0.13-0.02,0.26-0.03,0.39
	c0,0.01-0.01,0.07-0.01,0.08c-0.03,0.3-0.06,0.6-0.1,0.9c-0.02,0.15-0.05,0.31-0.07,0.46l-0.01,0.08c-0.05,0.29-0.1,0.55-0.15,0.82
	c-0.04,0.2-0.08,0.39-0.13,0.57c-0.07,0.28-0.13,0.53-0.2,0.77c-0.05,0.19-0.11,0.39-0.17,0.59c-0.07,0.23-0.15,0.47-0.24,0.71
	l-0.03,0.1c-0.06,0.16-0.11,0.33-0.17,0.49c-0.08,0.22-0.16,0.41-0.24,0.6l-0.03,0.08c-0.17,0.41-0.37,0.84-0.58,1.27
	c-0.08,0.17-0.15,0.31-0.22,0.45c-0.1,0.2-0.23,0.43-0.37,0.66l-0.06,0.1c-0.07,0.13-0.14,0.25-0.21,0.37
	c-0.13,0.22-0.29,0.46-0.44,0.7c0,0.01-0.04,0.07-0.05,0.07l-0.2,0.3c-0.18,0.26-0.34,0.5-0.52,0.74l-0.24,0.33
	c-0.18,0.24-0.37,0.49-0.58,0.74l-0.15,0.18c-0.92,1.11-1.94,2.16-3.04,3.14c-0.06,0.08-0.15,0.21-0.26,0.42
	c-0.01,0.02-0.02,0.04-0.03,0.06c-0.02,0.04-0.05,0.1-0.08,0.15c-0.01,0.01-0.02,0.03-0.03,0.05l-0.19,0.45
	c-0.01,0.03-0.04,0.1-0.05,0.13l-0.18,0.51c-0.01,0.03-0.04,0.11-0.05,0.14l-0.31,1.07c0,0.01-0.02,0.06-0.02,0.07l-0.44,2.19
	c-0.01,0.04-0.01,0.08-0.02,0.11c0,0.01-0.01,0.1-0.02,0.1l-0.15,1.1c0,0.02-0.01,0.1-0.01,0.12c0,0.01-0.01,0.07-0.01,0.07
	l-0.02,0.16c0,0.03,0,0.05-0.01,0.08c0,0.01-0.01,0.06-0.01,0.06l-0.01,0.13c0,0.04-0.01,0.09-0.01,0.12l-0.01,0.1
	c0,0.02,0,0.04,0,0.06c0,0.02,0,0.04,0,0.05l-0.01,0.08c0,0.01,0,0.06-0.01,0.07l-0.01,0.13c0,0.01,0,0.01,0,0.02
	c0,0.03,0,0.05-0.01,0.08l0,0.03c0,0,0,0.01,0,0.01l-0.04,15.49c2.04,0.79,7.34,2.95,13.75,6.51c10.28,5.71,14.75,15.67,12.6,28.05
	c-1.14,6.57-4.18,10.63-7.11,13.09c1.22,3.5,2.31,8.31,2.06,13.92c-0.28,6.25-3.85,10.94-9.58,13.19
	c1.61,5.11,2.35,11.66-1.38,17.08c-2.62,3.8-6.32,6.22-10.63,6.99l-0.08,28.57c0,0.2-0.01,0.41-0.03,0.61
	c-0.91,9.18-10.15,14.67-24.73,14.67c-7.8,0-16.28-1.56-21.7-5.51c-2.73,3.18-8.05,7.66-14.82,7.66c-0.99,0-1.99-0.1-2.96-0.29
	c-5.47-1.09-8.93-5.5-11.99-9.38c-1.24-1.58-2.53-3.21-3.62-4.15c-0.42-0.36-0.67-0.49-0.75-0.53c-1.43-0.19-2.63-0.28-3.57-0.28
	c-1.08,0-1.41,0.1-2.02,0.29c-0.4,0.12-0.78,0.24-1.17,0.33c-1.65,0.39-10.63,3.18-18.51,6.5c-3.14,1.32-3.44,3.62-3.4,4.63
	c0.57,4.39,7.75,60.39,9,88.04c1.67,36.66-17.62,53.33-34.09,60.85C984.07,586.96,954.96,592.18,931.53,592.18z M1002.54,379.38
	c0.01,0.02,0.02,0.04,0.04,0.07l0.37,0.66c3.22-2.27,7.29-5.08,10.92-7.44c-0.45,0.05-0.91,0.08-1.4,0.08
	c-2.84,0-6.88-1.09-10.95-2.51c0.11,0.8,0.17,1.63,0.17,2.49c0,3.86,0.56,5.83,0.79,6.47c0.01,0.01,0.01,0.02,0.01,0.02
	C1002.5,379.3,1002.52,379.35,1002.54,379.38z M1081.6,269.2c-0.06,0.12-0.11,0.25-0.17,0.38c0.01,0,0.01,0,0.02,0
	c0.05-0.12,0.1-0.23,0.15-0.35c0,0,0,0,0-0.01C1081.6,269.21,1081.6,269.21,1081.6,269.2z M1090.02,267.49l-2.18,0.35
	L1090.02,267.49z"/>
<path class="st2" d="M1035.96,267.78c-5.13-2.14-12.41-0.86-12.41-0.86l-0.38-0.9l-3.05-7.23c0,0-3.42-7.82-7.51-17.36
	c-6.23,0.04-12.42,0.22-15.19,0.7c-3.45,0.6-6.65,4.02-9.75,6.65c1.95,3.19,3.61,6.52,4.68,9.6c2.22,6.38,2.22,9.15,1.94,12.48
	c-0.28,3.33-1.66,4.16-1.66,4.16s-2.95,0.27-6.92-0.55c-0.03,0.68-0.07,1.06-0.07,1.06s0.04,0.28,0.12,0.78
	c-3.63-0.25-9.73-0.93-12.09-2.7c-3.46-2.59-10.49-11.97-10.49-11.97l-0.12-1.85c0,0-4.07,0.86-11.35,4.57
	c-7.28,3.7-12.71,7.28-12.71,7.28s13.08,1.23,16.41,2.84c3.33,1.6,6.17,4.2,8.64,5.43c2.47,1.23,10.98,3.21,12.71,3.21
	c1.38,0,7.83,2.38,10.35,3.32c0.03,0.28,0.06,0.56,0.1,0.85c0.3,0.09,0.6,0.17,0.9,0.25c4.73,1.25,10.96,4.23,16.69,2.49
	c5.73-1.74,12.45,0.5,15.44,1c1.55,0.26,3.01,0.5,4.27,0.65c1.05-0.64,10.74-6.71,13.16-12.77
	C1040.24,272.48,1041.09,269.92,1035.96,267.78z"/>
<path class="st2" d="M999.61,209.41c-1-3.21-3.92-6.49-6.03-8.97c-7.98-9.4-19.05-11.79-30.89-12.09
	c-6.76-0.18-13.39,0.23-19.44,3.55c-3.94,2.16-7.27,5.24-10.87,7.91c-2.66,1.97-3.43,2.3-3.43,2.3s-1.39,0.78-1.66,1.14
	c-0.58,1.63-1.37,3.71-2.1,6.97c-0.57,2.55-1.57,4.9-2.21,6.95c1.94,0.92,4.47,2.15,5.9,3.87c3.91,4.69,8.68,14.96,8.68,14.96
	s12.81,0.89,17.59-2.01c2.03-1.23,4.49-3.88,6.65-6.56c2.44,1.02,4.65,1.74,6.43,2.09c3.64,0.72,7.52,0.8,10.72,0.66
	c-0.09-0.34-0.18-0.69-0.28-1.06c0.01,0.02,0.01,0.04,0.02,0.06c0.2-0.24,0.38-0.44,0.52-0.58c1.44-1.48,9.49-5.91,22.43-7.98
	c0.73-0.12,1.44-0.22,2.12-0.31C1001.75,215.36,1000.22,211.36,999.61,209.41z"/>
<path class="st3" d="M923.1,322.79c-2.24-3.24-2.49-4.48-3.99-13.2s0.75-30.39,0.75-30.39s-2.99,2.49-6.97,2.24
	c-3.98-0.25-4.48-3.74-8.47-7.22c-3.99-3.49-2.99-12.2-2.49-17.19c0.5-4.98,1-6.72,5.98-9.71c4.98-2.99,10.46,1.99,10.46,1.99
	s0.5-7.47,1-15.94c0.5-8.47,3.74-13.45,5.98-23.16c0.73-3.16,1.4-5.39,1.98-6.97c-2.66-0.9-18.63-5.91-34.26-2
	c-17.11,4.28-23.96,7.27-29.95,11.98c-5.99,4.71-6.84,6.84-6.84,6.84s7.27-2.14,13.26-2.99c5.99-0.86,11.98,3.42,11.98,3.42
	s-10.27,2.57-15.83,6.42s-6.84,8.56-6.84,8.56s-5.56,0-12.83,7.27c-7.27,7.27-7.7,13.69-7.7,13.69s12.41-6.84,16.68-8.13
	c4.28-1.28,8.98-0.86,8.98-0.86s-9.41,5.99-14.12,11.98c-4.71,5.99-4.71,8.98-6.85,17.11c-2.14,8.13-0.43,11.55-0.43,11.55
	s6.84-14.12,9.84-17.11c3-3,0,6.84-1.28,11.12c-1.28,4.28,8.73-8.67,9.41-9.84c0.73-1.25,4.71-4.28,4.71-4.28l-4.71,8.98l6.84-6.42
	c0,0-10.27,11.55-12.83,19.25c-2.57,7.7-0.86,11.98-1.71,13.69c-0.86,1.71,8.13-9.84,8.13-9.84s0.86,6.85,0.43,12.41
	c-0.43,5.56,0.86,7.27,0.86,7.27s3.85-10.27,5.56-13.69c1.71-3.42,0.86,10.7,0,14.12c-0.86,3.42,3.42-3.42,6.84-7.7
	c3.42-4.28-0.86,10.27-1.28,16.26c-0.43,5.99,3.42,13.26,3.42,13.26l3.42-17.11c0,0,2.99,11.98,3.85,17.54
	c0.86,5.56,5.13,8.98,5.13,8.98s-2.14-12.83-1.71-19.68c0.43-6.85,5.13-11.55,5.13-11.55s1.71,13.69,1.28,18.82
	c-0.43,5.13,1.28,9.84,1.28,9.84s1.28-14.55,2.57-16.68c1.28-2.14,2.04,14.88,2.04,14.88l6.85-12.83c0,0,2.66,12.93,2.66,14.64
	c0,1.71,5.56-11.12,5.56-11.12l1.71,10.7l5.13-9.84l2.9,7.1l1.97-4.33l1.62-3.02l2.01-3.76
	C930.23,328.15,925.34,326.03,923.1,322.79z"/>
<g>
	<linearGradient id="SVGID_1_" gradientUnits="userSpaceOnUse" x1="1019.2353" y1="301.5682" x2="947.8649" y2="296.8954">
		<stop  offset="0.0909" style="stop-color:#FFFFFF"/>
		<stop  offset="1" style="stop-color:#929497"/>
	</linearGradient>
	<path class="st4" d="M1004.79,290.02c-5.73,1.74-11.96-1.25-16.69-2.49c-4.73-1.25-9.71-3.74-14.45-2.24
		c-4.73,1.49-9.96-1-15.19-4.48c-5.23-3.49-8.97-4.23-13.95-4.98l-5.98,1l-0.25,24.78c0,0,2.05-0.11,5.54,2.39
		c3.49,2.49,3.92,4.96,6.91,4.71s9.46,0.5,12.2,2.24c2.74,1.74,1.99,5.23,7.22,4.98c5.23-0.25,6.97-1,10.46,0.5
		c3.49,1.49,3.74,4.98,7.72,3.49c3.99-1.49,5.23-2.24,8.47-1c3.24,1.25,10.71-0.75,13.95-1.74c3.24-1,3.24,2.74,5.23,2.24
		c1.66-0.41,6.92-5.47,10.51-10.45l-2.1-17.23c0,0,0.04-0.02,0.1-0.06c-1.27-0.15-2.73-0.4-4.27-0.65
		C1017.25,290.52,1010.52,288.28,1004.79,290.02z"/>
	<g>
		<g>
			<path class="st5" d="M1000.86,224.71c8.21-0.62,13.66-0.03,15.88,0.32c-1.25-0.79-3.23-1.64-6.22-2
				C1006.2,222.51,1003.2,223.07,1000.86,224.71z"/>
			<polygon class="st2" points="1016.74,225.03 1016.74,225.03 1016.74,225.03 			"/>
		</g>
	</g>
</g>
<path class="st1" d="M918.37,249.32c-1.21-0.39-2.43-0.76-3.66-1.03c-1.23-0.28-2.46-0.49-3.69-0.54c-1.22-0.05-2.44,0.05-3.53,0.41
	c-1.09,0.36-2.03,1-2.72,1.86c-1.41,1.72-1.93,4.13-2.11,6.52c-0.16,2.41-0.08,4.89,0.23,7.32c0.31,2.43,0.82,4.82,1.57,7.09
	c0.76,2.26,1.81,4.41,3.25,6.08c0.72,0.82,1.53,1.55,2.42,2.06c0.74,0.42,1.75,0.68,2.75,0.69c2.03,0.05,4.21-0.74,5.76-2.04
	l2.44,2.93c0.24-0.23,0.13-0.16,0.1-0.04c-0.05,0.13-0.11,0.32-0.16,0.53c-0.1,0.43-0.18,0.93-0.25,1.44
	c-0.12,1.03-0.19,2.12-0.23,3.21c-0.09,2.21-0.08,4.4-0.15,6.74l-0.02,0.46l-0.04,0.46l-0.08,0.84l-0.14,1.66
	c-0.09,1.11-0.16,2.21-0.21,3.32c-0.11,2.21-0.13,4.41-0.03,6.59c0.14,4.35,0.9,8.69,2.56,12.65c0.84,1.97,1.98,3.81,3.39,5.43
	c1.41,1.62,3.15,2.95,5.09,3.98l0.06,0.03c0.24,0.13,0.33,0.42,0.2,0.65l-0.01,0.01c-1.22,2.16-2.46,4.31-3.74,6.43
	c0.91-2.31,1.87-4.6,2.81-6.88l0.25,0.7c-2.17-0.81-4.2-2.08-5.93-3.69c-1.74-1.6-3.13-3.57-4.24-5.64
	c-1.11-2.08-1.92-4.31-2.49-6.58c-0.58-2.27-0.95-4.57-1.17-6.88c-0.2-2.31-0.25-4.61-0.22-6.91c0.01-1.15,0.05-2.29,0.1-3.43
	l0.17-3.32c0.03-2.15-0.03-4.47,0.04-6.76c0.04-1.15,0.1-2.32,0.24-3.52c0.07-0.61,0.16-1.22,0.32-1.89
	c0.08-0.34,0.17-0.68,0.33-1.08c0.18-0.4,0.33-0.85,1-1.45l2.44,2.93c-1.18,0.97-2.51,1.68-3.91,2.16c-1.4,0.48-2.89,0.73-4.42,0.68
	c-1.53-0.06-3.06-0.41-4.53-1.26c-1.3-0.77-2.4-1.8-3.29-2.92c-1.8-2.25-2.89-4.81-3.66-7.38c-0.77-2.57-1.17-5.2-1.34-7.82
	c-0.16-2.62-0.14-5.25,0.26-7.88c0.21-1.32,0.51-2.64,1-3.92c0.49-1.28,1.18-2.54,2.2-3.57c1.01-1.02,2.35-1.73,3.71-2.02
	c1.36-0.3,2.73-0.26,4.02-0.04C913.73,247.15,916.11,248.15,918.37,249.32z"/>
<path class="st2" d="M1035.1,311.83c-4.28-3-7.97-2.39-7.97-2.39l-0.62,0.79c-3.59,4.98-8.85,10.04-10.51,10.45
	c-1.99,0.5-1.99-3.24-5.23-2.24c-3.24,1-10.71,2.99-13.95,1.74c-3.22-1.24-4.47-0.5-8.42,0.98c-0.03,0-0.06,0.01-0.1,0.01
	c0.02-0.21,0.03-0.42,0.05-0.63c0.02-0.22,0.03-0.44,0.05-0.66c-0.02,0.01-0.03,0.01-0.05,0.02c-3.99,1.49-4.23-1.99-7.72-3.49
	c-3.49-1.49-5.23-0.75-10.46-0.5c-5.23,0.25-4.48-3.24-7.22-4.98c-2.74-1.74-9.22-2.49-12.2-2.24s-3.56-2.24-7.05-4.73
	c-2.41-1.72-4.28-2.11-5.1-2.28c0.07,0.98,0.42,1.73,0.56,3.14c1.78,2.51,5.09,6.71,9.09,9.66c6.05,4.46,19.12,10.51,25.81,14.02
	c2.59,1.36,4.6,3.05,6.1,4.61c3.06,0.26,5.42-0.03,7.13-0.47c0.02,0.45,0.04,0.88,0.05,1.29c7.76-1.52,24.99-0.46,31.91-0.24
	c1.91,0.06,3.53-0.03,4.9-0.18c3.06-2.84,8.74-5.39,11.38-11C1038.95,315.25,1039.38,314.83,1035.1,311.83z"/>
<path class="st6" d="M1026.51,309.6"/>
<path class="st7" d="M1013.97,290.39c-0.19,0.33-0.03,0.65-0.02,1.08c0.01,1.79,0,3.59,0.02,5.38c0.04,3.46-0.22,6.85-0.22,10.31
	c0,3.26,0.12,7.29-0.66,10.34"/>
<path class="st7" d="M1000.15,291.05c-0.01,2.27-0.83,5.23-1.11,7.77c-0.39,3.56-0.62,7.21-0.9,10.78
	c-0.26,3.28-1.05,6.59-1.07,9.87"/>
<path class="st7" d="M985.12,287.21c-0.51,0.37-0.64,0.97-0.77,1.57c-0.52,2.37-0.41,4.9-0.68,7.31c-0.46,4.11-1.05,8.15-1.32,12.28
	c-0.14,2.19-0.35,4.49-0.83,6.61c-0.18,0.78-0.52,1.63-0.46,2.41"/>
<path class="st7" d="M967.35,285.89c-0.24,3.34-1.17,7.71-1.67,11.33c-0.4,2.92-0.82,5.8-1.05,8.72c-0.14,1.8,0.69,5.62-0.46,7.04"
	/>
<path class="st7" d="M951.33,277.66c0.11,0.24-0.34,1.46-0.44,2.07c-0.32,2.05-0.43,4.12-0.77,6.16c-0.65,3.93-1.19,7.88-1.67,11.83
	c-0.26,2.18-0.7,4.34-1.1,6.49c-0.18,0.96-0.01,2.09-0.3,2.96"/>
<g>
	<path class="st8" d="M1089.86,414.95c0.56,1.15-5.56,3.85-6.42,5.56c-0.03,0.07-0.08,0.14-0.12,0.22c-2.38-2.63-4.31-5.85-6.16-8.5
		c-2.71-3.88-5.04-7.49-7.13-11.67c-2.96-5.92-6.25-11.55-9.35-17.42c-3.5-6.63-5.81-13.95-8.73-20.84
		c-1.41-3.31-2.73-7.23-3.08-10.75c-0.2-2.04,0.04-4.08,0.04-6.18c0-0.29-0.02-0.69-0.04-1.14c0.85-1.22,8.01-11.42,14.03-17.85
		c6.42-6.85,17.54-12.41,17.54-12.41s-1.71-2.99-3.42-5.13c-1.71-2.14-5.13-8.98-4.71-17.97c0.43-8.98,0.43-10.27,7.7-14.12
		c7.27-3.85,9.84,1.71,9.84,1.71s10.58,8.9,13.09,16.89c2.51,7.99,4.34,11.86,1.83,16.66c-2.51,4.79-6.84,6.84-9.36,6.84
		c-2.51,0-5.7-2.28-5.7-2.28l-0.68,94.69C1089.04,411.27,1089.32,413.83,1089.86,414.95z"/>
</g>
<linearGradient id="SVGID_2_" gradientUnits="userSpaceOnUse" x1="1108.8402" y1="284.9898" x2="1108.8402" y2="232.7903">
	<stop  offset="0.0909" style="stop-color:#FFFFFF"/>
	<stop  offset="1" style="stop-color:#C6C7C9"/>
</linearGradient>
<path class="st9" d="M1137.88,248.54c0-11.07-13-20.04-29.04-20.04s-29.04,8.97-29.04,20.04c0,4.23,1.91,8.16,5.15,11.4
	c3.87,4.85,3.18,14.09,3.18,14.09l-0.23,142.42c0.57,5.74,10.43,8.92,20.94,8.92s17.82-3.19,18.39-8.92l0.41-143.06
	c0,0,0.35-8.74,3.83-12.29C1135.48,257.67,1137.88,253.3,1137.88,248.54z"/>
<path class="st1" d="M1118.66,233.49c3.66,0.85,7.27,2.48,10.05,5.29c1.36,1.41,2.47,3.17,2.96,5.17c0.51,2,0.29,4.18-0.5,6.09
	c-0.79,1.92-2.08,3.56-3.58,4.89c-1.5,1.34-3.19,2.41-4.97,3.27c-3.57,1.7-7.45,2.57-11.33,2.86c-3.87,0.23-7.83-0.11-11.59-1.17
	c-1.88-0.54-3.72-1.26-5.46-2.18c-1.74-0.92-3.38-2.08-4.79-3.51c-1.39-1.43-2.58-3.15-3.16-5.13c-0.59-1.97-0.53-4.11,0.16-6
	c0.7-1.89,1.91-3.5,3.36-4.77c1.44-1.28,3.1-2.27,4.83-3.01c-1.6,1-3.09,2.15-4.33,3.52c-1.23,1.36-2.22,2.94-2.66,4.65
	c-0.46,1.7-0.38,3.5,0.24,5.1c0.6,1.61,1.66,3.04,2.96,4.23c2.63,2.36,5.99,3.91,9.49,4.79c3.51,0.91,7.16,1.21,10.79,0.96
	c3.62-0.22,7.21-1.02,10.48-2.49c1.63-0.73,3.18-1.64,4.53-2.77c1.34-1.13,2.49-2.47,3.23-4c0.74-1.53,0.98-3.26,0.69-4.95
	c-0.28-1.69-1.12-3.3-2.26-4.69c-1.13-1.4-2.57-2.59-4.12-3.6C1122.1,235,1120.42,234.17,1118.66,233.49z"/>
<path class="st6" d="M1087.82,273.88l0.08,142.58c0.57,5.74,10.43,8.92,20.94,8.92s17.82-3.19,18.39-8.92l0.41-143.06
	c0,0,0.33-8.88,4.56-12.44"/>
<linearGradient id="SVGID_3_" gradientUnits="userSpaceOnUse" x1="1107.5913" y1="281.3597" x2="1107.5913" y2="319.6785">
	<stop  offset="0.0909" style="stop-color:#FFFFFF"/>
	<stop  offset="0.7636" style="stop-color:#9464A9"/>
</linearGradient>
<path class="st10" d="M1122.22,278.38v0.09l-0.25,137.63c-0.43,2.08-5.34,4.17-13.21,4.17c-10.28,0-15.39-3.11-15.8-4.22
	l0.09-136.75L1122.22,278.38z"/>
<linearGradient id="SVGID_4_" gradientUnits="userSpaceOnUse" x1="1108.0088" y1="269.2838" x2="1108.0088" y2="286.5103">
	<stop  offset="0.0909" style="stop-color:#FFFFFF"/>
	<stop  offset="0.7636" style="stop-color:#9464A9"/>
</linearGradient>
<ellipse class="st11" cx="1108.01" cy="279.86" rx="15.06" ry="8.96"/>
<g>
	<g>
		<path class="st12" d="M1121.11,347.33c-1.74-0.26-9.98-1.21-12.22,3.47c-2.51,5.25-2.28,11.87-0.23,15.06s17.99,15.28,17.99,15.28
			s7.7,2.99,12.41-3.85s-2.57-18.4-2.57-18.4s0.04,0,0.09,0.01c-4.31-3.05-7.47-4.99-10.31-7.2
			C1124.7,350.48,1124.36,349.23,1121.11,347.33z"/>
		<path class="st1" d="M1121.11,347.33c-1.1-0.08-2.2-0.08-3.29-0.01c-1.09,0.06-2.17,0.18-3.21,0.42c-1.04,0.25-2.05,0.58-2.92,1.1
			c-0.87,0.51-1.58,1.22-1.98,2.06c-0.83,1.85-1.34,3.97-1.49,6.04c-0.15,2.07-0.02,4.19,0.56,6.1c0.29,0.93,0.71,1.85,1.24,2.45
			c0.63,0.71,1.43,1.46,2.22,2.16c1.61,1.43,3.3,2.81,5.01,4.17c3.41,2.73,6.86,5.44,10.36,8.07l-0.38-0.22
			c0.19,0.06,0.52,0.17,0.8,0.24c0.29,0.07,0.59,0.13,0.9,0.18c0.6,0.1,1.22,0.15,1.82,0.14c1.21-0.01,2.39-0.24,3.46-0.71
			c1.07-0.47,2.02-1.19,2.83-2.09c0.2-0.22,0.4-0.46,0.59-0.7c0.09-0.12,0.2-0.26,0.26-0.36l0.15-0.22l0.1-0.16
			c0.29-0.47,0.53-1.02,0.71-1.58c0.72-2.28,0.42-4.95-0.21-7.51c-0.65-2.57-1.74-5.12-3-7.46l-0.05-0.09
			c-0.27-0.49-0.08-1.1,0.41-1.37c0.19-0.1,0.39-0.14,0.58-0.12l0.07,0.01l-0.64,1.86c-1.27-0.98-2.56-1.94-3.86-2.9
			c-1.3-0.95-2.59-1.94-3.88-2.93c-0.64-0.5-1.28-1.01-1.9-1.54c-0.3-0.26-0.63-0.54-0.92-0.85c-0.29-0.31-0.55-0.63-0.81-0.94
			c-0.51-0.63-1.03-1.21-1.62-1.76C1122.42,348.28,1121.78,347.79,1121.11,347.33z M1121.11,347.33c1.45,0.7,2.86,1.61,4.01,2.79
			c0.29,0.28,0.58,0.55,0.88,0.8c0.29,0.25,0.61,0.45,0.95,0.68c0.67,0.45,1.33,0.89,2.01,1.32c1.35,0.86,2.75,1.68,4.12,2.54
			c1.37,0.86,2.75,1.72,4.11,2.61c0.47,0.31,0.6,0.93,0.3,1.4c-0.2,0.3-0.53,0.47-0.87,0.46l-0.06,0l-0.12,0l0.94-1.58
			c0.83,1.24,1.49,2.49,2.12,3.8c0.62,1.3,1.17,2.65,1.61,4.05c0.44,1.4,0.77,2.86,0.9,4.37c0.12,1.51,0.06,3.09-0.37,4.65
			c-0.22,0.78-0.51,1.53-0.93,2.27l-0.17,0.29l-0.14,0.22c-0.12,0.2-0.22,0.33-0.34,0.5c-0.23,0.32-0.47,0.63-0.73,0.93
			c-1.04,1.2-2.35,2.22-3.84,2.89c-1.48,0.68-3.1,1-4.68,1.03c-0.79,0.02-1.58-0.04-2.35-0.16c-0.39-0.06-0.77-0.13-1.16-0.22
			c-0.4-0.1-0.74-0.18-1.21-0.36c-0.14-0.05-0.27-0.13-0.38-0.22c-3.5-2.71-6.96-5.43-10.35-8.28c-1.68-1.44-3.35-2.89-4.98-4.44
			c-0.81-0.79-1.62-1.55-2.4-2.53c-0.85-1.12-1.26-2.29-1.56-3.47c-0.56-2.35-0.58-4.7-0.24-6.99c0.36-2.29,1.03-4.48,2.19-6.56
			c0.66-1.09,1.69-1.89,2.76-2.39c1.08-0.5,2.22-0.76,3.34-0.88C1116.72,346.64,1118.96,346.87,1121.11,347.33z"/>
	</g>
	<g>
		<path class="st12" d="M1125.48,323.87c-0.76-0.2-8.97-2.26-11.8,2.53c-2.97,5.02-2.05,8.67-1.37,11.86
			c0.68,3.19,9.13,9.13,9.13,9.13s-0.12-0.02-0.33-0.05c3.25,1.9,3.59,3.14,5.17,4.37c2.84,2.21,6,4.15,10.31,7.2
			c1.08,0.06,11.91,0.38,12.31-8.56c0.43-9.41-3.85-16.26-3.85-16.26s0.05-0.01,0.13-0.04c-4.25-0.84-9.2-3.43-12.69-5.44
			C1130.06,327.22,1127.21,325.16,1125.48,323.87z"/>
		<path class="st1" d="M1125.48,323.87c-1.57-0.29-3.17-0.38-4.73-0.3c-1.56,0.08-3.11,0.41-4.4,1.12
			c-0.64,0.36-1.19,0.82-1.62,1.38c-0.22,0.29-0.38,0.56-0.55,0.91c-0.19,0.36-0.33,0.68-0.49,1.04c-0.61,1.39-1,2.85-1.07,4.32
			c-0.08,1.47,0.17,2.93,0.52,4.44l0.28,1.15l0.02,0.07c-0.01-0.05,0.01,0.03,0.01,0.04c0.01,0.05,0.03,0.1,0.03,0.11l0.06,0.15
			c0.06,0.12,0.13,0.26,0.21,0.4c0.34,0.55,0.82,1.12,1.33,1.65c1.03,1.08,2.23,2.08,3.43,3.06c1.21,0.97,2.48,1.92,3.74,2.79
			c0.65,0.45,0.81,1.34,0.36,1.99c-0.32,0.46-0.86,0.68-1.37,0.6l-0.07-0.01l-0.29-0.04l0.94-2.66c0.75,0.42,1.49,0.89,2.2,1.44
			c0.71,0.54,1.39,1.2,1.95,1.79c0.28,0.29,0.53,0.56,0.78,0.78c0.25,0.23,0.48,0.41,0.82,0.67c0.62,0.47,1.26,0.93,1.91,1.38
			c2.61,1.81,5.36,3.57,8.01,5.46l-0.84-0.29c2.51,0.09,5.25-0.31,7.33-1.46c2.11-1.13,3.33-3.15,3.45-5.61
			c0.17-2.69-0.08-5.37-0.63-8.02c-0.28-1.32-0.64-2.63-1.09-3.91c-0.44-1.26-0.99-2.56-1.6-3.67l-0.84-1.53
			c-0.22-0.4-0.07-0.91,0.33-1.13c0.4-0.22,0.91-0.07,1.13,0.33c0.12,0.22,0.13,0.48,0.04,0.71c0,0,0.02,0,0.04-0.01l0.05-0.01
			l0.09,2.09c-1.92-0.46-3.71-1.16-5.44-1.95c-1.73-0.79-3.38-1.7-4.99-2.67c-0.81-0.48-1.6-0.98-2.39-1.48
			c-0.79-0.52-1.56-1.06-2.31-1.62C1128.34,326.28,1126.9,325.08,1125.48,323.87z M1125.48,323.87c1.57,1.01,3.16,1.99,4.75,2.93
			c1.6,0.94,3.24,1.76,4.91,2.57c1.67,0.8,3.36,1.53,5.06,2.18c1.71,0.64,3.45,1.17,5.18,1.45c0.58,0.09,0.98,0.64,0.88,1.22
			c-0.07,0.42-0.37,0.74-0.74,0.85l-0.05,0.01l-0.17,0.05l0.66-1.62c0.83,1.32,1.43,2.6,2,3.96c0.55,1.35,1.02,2.74,1.39,4.16
			c0.75,2.83,1.08,5.8,1,8.73c-0.04,1.59-0.41,3.26-1.27,4.75c-0.85,1.48-2.17,2.65-3.57,3.44c-1.42,0.8-2.93,1.28-4.43,1.58
			c-1.52,0.29-3,0.42-4.58,0.36c-0.3-0.01-0.58-0.11-0.81-0.27l-0.03-0.02c-1.31-0.92-2.62-1.84-3.95-2.75
			c-1.33-0.91-2.67-1.82-4.01-2.77c-0.67-0.48-1.33-0.96-2-1.48c-0.3-0.23-0.71-0.54-1.05-0.87c-0.35-0.32-0.64-0.66-0.91-0.95
			c-0.53-0.6-1-1.08-1.56-1.54c-0.55-0.46-1.17-0.87-1.82-1.27l-0.05-0.03c-0.67-0.41-0.89-1.29-0.48-1.97
			c0.31-0.52,0.91-0.76,1.47-0.67l0.37,0.06l-1.08,2.58c-2.63-1.98-5.13-3.99-7.37-6.54c-0.55-0.65-1.09-1.32-1.54-2.16
			c-0.11-0.21-0.22-0.43-0.31-0.68c-0.05-0.13-0.09-0.24-0.14-0.41c-0.03-0.09-0.03-0.13-0.04-0.18l-0.04-0.18l-0.22-1.19
			c-0.3-1.61-0.45-3.35-0.23-5.06c0.21-1.71,0.78-3.35,1.57-4.83c0.2-0.36,0.42-0.75,0.63-1.08c0.21-0.34,0.49-0.74,0.79-1.06
			c0.6-0.66,1.35-1.17,2.14-1.52c1.59-0.71,3.29-0.81,4.9-0.73C1122.38,323.04,1123.96,323.38,1125.48,323.87z"/>
	</g>
	<g>
		<path class="st12" d="M1144.63,301.15c-7.7-4.28-13.69-6.42-13.69-6.42s-10.18-5.3-12.01,1.09c-1.83,6.39-1.37,12.55,0.46,18.25
			c1.83,5.7,6.16,9.81,6.16,9.81s-0.03-0.01-0.06-0.02c1.73,1.29,4.58,3.35,7.01,4.75c3.49,2.01,8.43,4.59,12.69,5.44
			c0.97-0.28,7.28-2.44,8.86-11.52C1155.75,312.7,1152.33,305.42,1144.63,301.15z"/>
		<path class="st1" d="M1144.63,301.15c-1.1-0.61-2.24-1.16-3.41-1.64c-1.17-0.49-2.37-0.89-3.58-1.26
			c-1.21-0.37-2.44-0.7-3.65-1.03c-1.21-0.32-2.43-0.68-3.59-0.97l-0.2-0.09c-0.74-0.28-1.53-0.71-2.33-0.99
			c-0.8-0.29-1.62-0.53-2.42-0.69c-1.59-0.34-3.24-0.29-4.06,0.35c-0.42,0.3-0.72,0.76-0.91,1.41l-0.17,0.63l-0.15,0.62
			c-0.1,0.42-0.19,0.85-0.27,1.27c-0.33,1.71-0.5,3.44-0.51,5.18c-0.02,3.47,0.61,6.97,1.75,10.27c0.56,1.55,1.37,3.11,2.31,4.54
			c0.47,0.72,0.99,1.42,1.53,2.1c0.53,0.66,1.14,1.35,1.69,1.89l0.02,0.02c0.63,0.62,0.64,1.62,0.02,2.25
			c-0.42,0.43-1.01,0.57-1.55,0.42l-0.07-0.02l1.37-2.81c1.47,1.1,2.96,2.17,4.48,3.17c0.76,0.5,1.52,0.98,2.29,1.43
			c0.79,0.46,1.59,0.9,2.39,1.33c1.61,0.86,3.24,1.66,4.89,2.36c1.65,0.69,3.34,1.27,5,1.61l-0.75,0.03c0.6-0.18,1.3-0.51,1.91-0.88
			c0.63-0.38,1.22-0.82,1.76-1.32c1.09-1,1.97-2.22,2.64-3.58c0.67-1.35,1.12-2.84,1.4-4.37c0.28-1.57,0.44-3.16,0.43-4.74
			c-0.01-0.79-0.05-1.57-0.14-2.34c-0.09-0.77-0.32-1.51-0.41-2.28c-0.22-1.53-0.62-3.06-1.21-4.55c-0.6-1.49-1.45-2.93-2.55-4.19
			C1147.45,303.02,1146.1,301.96,1144.63,301.15z M1144.63,301.15c1.47,0.82,2.9,1.71,4.28,2.73c1.38,1.02,2.71,2.19,3.84,3.59
			c1.14,1.39,2.03,3.03,2.64,4.76c0.32,0.86,0.4,1.79,0.51,2.68c0.11,0.9,0.16,1.8,0.17,2.7c0.01,1.8-0.17,3.57-0.48,5.32
			c-0.32,1.78-0.85,3.55-1.68,5.22c-0.82,1.67-1.94,3.22-3.33,4.51c-0.7,0.64-1.46,1.22-2.27,1.71c-0.83,0.49-1.66,0.9-2.68,1.21
			c-0.25,0.07-0.5,0.08-0.73,0.04l-0.02,0c-1.99-0.4-3.83-1.05-5.61-1.8c-1.78-0.75-3.49-1.59-5.17-2.49
			c-0.84-0.45-1.66-0.91-2.48-1.39c-0.84-0.49-1.65-1-2.45-1.53c-1.59-1.05-3.12-2.15-4.63-3.28c-0.71-0.53-0.85-1.52-0.32-2.23
			c0.4-0.54,1.08-0.75,1.69-0.58l0.06,0.02l-1.51,2.7c-0.76-0.75-1.36-1.44-1.98-2.21c-0.61-0.75-1.18-1.54-1.71-2.35
			c-1.07-1.63-1.97-3.35-2.66-5.25c-1.25-3.63-1.94-7.46-1.92-11.33c0.01-1.93,0.2-3.87,0.56-5.76c0.09-0.47,0.19-0.95,0.3-1.42
			l0.18-0.72l0.19-0.69c0.17-0.56,0.41-1.13,0.75-1.67c0.35-0.54,0.81-1.03,1.34-1.42c1.07-0.78,2.31-1.07,3.41-1.15
			c1.11-0.07,2.16,0.05,3.15,0.25c1,0.2,1.95,0.48,2.87,0.81c0.93,0.34,1.83,0.61,2.73,1.15l-0.2-0.09
			c1.21,0.58,2.32,1.18,3.43,1.85c1.1,0.67,2.18,1.37,3.25,2.08c1.07,0.7,2.13,1.42,3.21,2.08
			C1142.43,299.9,1143.52,300.53,1144.63,301.15z"/>
	</g>
</g>
<path class="st13" d="M1114.68,416.02c-9.07,0-13.58-2.74-13.94-3.72l0.08-118.53c0,0-2.36-0.53-3.29-0.87
	c-0.77-0.29-2.89-1.65-2.89-1.65l-0.08,122.74c0.36,0.98,4.87,3.72,13.94,3.72c4.59,0,8.03-0.81,9.95-1.89
	C1117.3,415.95,1116.04,416.02,1114.68,416.02z"/>
<g>
	<g>
		<radialGradient id="SVGID_5_" cx="965.4625" cy="347.9993" r="165.7377" gradientUnits="userSpaceOnUse">
			<stop  offset="0.6667" style="stop-color:#58595B"/>
			<stop  offset="0.9212" style="stop-color:#231F20"/>
		</radialGradient>
		<path class="st14" d="M931.53,586.62c-12.54,0-22.43-1.47-29.42-4.37c-23.2-9.63-24.98-15.82-24.55-46.25
			c0.41-28.54,14.54-115.39,15.76-122.85c-1.3-1.18-6.06-5.12-11.24-5.12c-0.57,0-1.14,0.05-1.69,0.15
			c-6.13,1.08-16.39,2.89-20.7,5.05c-3.75,1.88-4.35,4.86-4.37,4.98l-0.23,1.25l-1.14-0.57c-0.48-0.24-0.83-0.49-0.94-0.56
			c-0.24-0.15-2.01-1.3-5.13-3.6c-3.4-2.5-13.44-7.43-22.06-9.77c-6.36-1.73-13.53-2.47-17.24-2.75l0.01-1.12l-0.55-0.44
			c0.07-0.09,1.8-2.24,7.32-8.18c3.72-4,11.11-7.54,20.46-12.01c5.01-2.4,10.69-5.11,16.58-8.29c15.49-8.34,42.74-9.04,47.65-9.09
			c0.71-2.4,3.33-10.17,8.23-14.32c5-4.23,15.98-6.44,18.4-6.79l0.37,1.86c0.35,0.8-0.36,1.05-0.12,2.24
			c0.16,0.82,0.22,2.17,0.28,3.89c0.16,4.17,0.4,10.47,2.46,15.2c2.51,5.77,20.72,13.71,31.42,13.71c0.63,0,1.23-0.03,1.79-0.08
			l1.21-0.12c9.56-0.96,14.82-1.49,18.78-7.35c3.7-5.47,4.72-8.7,4.91-9.4l-0.09-0.06l0.13-0.3c0.05-0.21,0.14-0.45,0.33-0.69
			l4.84-6.34l-2.9,6.6c1.76,1.29,6.18,5.15,6.18,11.47c0,6.79,1.54,9.29,1.56,9.32l3.36,5.96c2.5-1.81,9.93-7.12,15.86-10.95
			c7.05-4.56,15.44-10.42,15.79-10.67l0.86-0.6l0.52,0.91c0.29,0.52,0.37,0.99,0.39,1.2c0.14,0.65,1.64,7.47,6.71,18.19
			c3.86,8.17,9.08,15.87,12.2,20.47c1.29,1.91,2.23,3.29,2.68,4.11c0.44,0.81,1.26,2.18,2.51,4.2l3.26,5.25l-4.69-4.02
			c-1.22-1.05-2.36-1.63-3.48-1.78c-1.73-0.23-3.16-0.34-4.36-0.34c-1.9,0-2.81,0.28-3.62,0.53c-0.28,0.09-0.55,0.17-0.82,0.23
			c-2.24,0.53-11.53,3.48-19.36,6.78c-7.34,3.09-6.72,9.85-6.69,10.14c0.07,0.57,7.72,59.81,8.99,87.76
			c1.21,26.63-9.49,45.88-30.93,55.67C984.45,580.69,956.53,586.62,931.53,586.62z"/>
	</g>
</g>
<g>
	<path class="st1" d="M903.64,352.09c-2.05,6.27-2.39,12.06-1.64,16.94c0.43,2.41,1.07,4.62,1.97,6.52
		c0.45,0.95,0.93,1.85,1.49,2.65c0.37,0.55,0.55,0.82,0.94,1.35c0.4,0.57,0.61,0.86,1.03,1.41c0.68,0.95,1.38,1.86,2.08,2.76
		c0.7,0.91,1.42,1.76,2.13,2.59c1.43,1.65,2.86,3.05,4.34,4.17c0.74,0.57,1.53,0.98,2.33,1.41c0.81,0.42,1.66,0.74,2.54,1
		c1.76,0.58,3.62,0.83,5.55,1.07c0.03,0.13,0.05,0.2,0.08,0.33c-1.79,0.41-3.62,0.67-5.51,0.61c-1.89-0.07-3.83-0.5-5.69-1.43
		c-1.86-0.92-3.6-2.28-5.23-3.82c-1.62-1.54-3.15-3.25-4.61-5.02c-0.73-0.9-1.43-1.8-2.12-2.77c-0.68-0.99-1.3-2.08-1.84-3.26
		c-1.07-2.37-1.78-5.11-2.05-8.06c-0.54-6.44,0.89-12.92,3.95-18.61C903.48,352,903.53,352.03,903.64,352.09z"/>
</g>
<path class="st1" d="M995.68,378.07c0.39,3.27-0.84,6.56-2.76,9.28c-0.97,1.37-2.17,2.58-3.48,3.62c-0.17,0.14-0.3,0.24-0.53,0.4
	c-0.16,0.11-0.28,0.21-0.49,0.34c-0.39,0.27-0.73,0.47-1.11,0.7c-0.74,0.41-1.49,0.78-2.24,1.11c-3.02,1.28-6.12,1.92-9.21,2.19
	c-3.1,0.22-6.22,0.14-9.32-0.7l-0.03-0.32c1.48-0.16,2.95-0.38,4.42-0.64c1.47-0.24,2.93-0.51,4.39-0.84
	c2.9-0.65,5.78-1.46,8.5-2.63c2.74-1.11,5.21-2.82,7.22-4.98c1.01-1.08,1.89-2.27,2.62-3.55c0.74-1.27,1.36-2.64,1.71-4.06
	L995.68,378.07z"/>
<path class="st1" d="M991.12,399.25c-2.62,2.22-5.62,3.9-8.65,5.47c-3.04,1.55-6.14,2.97-9.31,4.26c-3.17,1.3-6.42,2.39-9.73,3.32
	c-3.31,0.92-6.67,1.72-10.1,2.22c-1.72,0.25-3.45,0.44-5.22,0.53c-0.88,0.04-1.77,0.06-2.67,0.04c-0.45-0.01-0.9-0.03-1.36-0.06
	l-0.69-0.06l-0.63-0.06c-3.3-0.29-6.62-0.48-9.85-0.32c-1.61,0.08-3.21,0.25-4.73,0.56c-1.51,0.31-2.96,0.77-4.15,1.45
	c-0.16,0.09-0.28,0.16-0.44,0.27c-0.09,0.06-0.22,0.16-0.33,0.25c-0.23,0.19-0.45,0.39-0.65,0.62c-0.41,0.45-0.76,0.99-1.07,1.6
	c-0.61,1.22-1,2.7-1.29,4.25c-0.28,1.56-0.47,3.19-0.63,4.86l-0.51,5.02c-0.13,1.56-0.15,3.21-0.15,4.87c0,1.66,0.03,3.33,0.07,5.01
	c0.18,6.73,0.6,13.51,0.6,20.36c0,1.71-0.02,3.43-0.08,5.15c-0.06,1.66-0.05,3.26,0.02,4.92c0.15,3.29,0.51,6.6,0.95,9.92
	c0.45,3.32,1.01,6.63,1.59,9.98c0.29,1.68,0.57,3.34,0.76,5.12c0.04,0.45,0.08,0.9,0.09,1.42l-0.03,1.31l-0.04,1.27l-0.02,0.63
	l-0.01,0.32l-0.01,0.16l0,0.08l0,0.04c-1.23,0.01,2.74,0.03-2.75,0.04l2.78-0.01l-0.07-0.33c0.53,2.58,0.93,5.09,1.2,7.65
	c0.28,2.56,0.47,5.12,0.55,7.68c0.09,2.56,0.07,5.13-0.08,7.69c-0.14,2.56-0.48,5.1-0.96,7.61l-0.25-0.03
	c0.69-5.03,0.69-10.13,0.32-15.19c-0.19-2.53-0.48-5.05-0.86-7.56c-0.38-2.51-0.84-5.01-1.42-7.47l0.41-0.04
	c-0.67-0.01-0.25-0.03-0.25-0.04v-0.04v-0.08v-0.16v-0.32l-0.09-0.63l-0.04-1.27l-0.02-1.27c-0.01-0.41-0.07-0.83-0.12-1.25
	c-0.23-1.67-0.57-3.33-0.89-4.99c-0.65-3.32-1.3-6.65-1.83-10c-0.53-3.35-0.95-6.72-1.15-10.11c-0.1-1.69-0.14-3.4-0.09-5.1
	c0.03-1.69,0.03-3.38,0.01-5.07c-0.1-6.77-0.51-13.53-0.74-20.31c-0.1-3.39-0.21-6.78,0.08-10.19c0.42-3.37,0.62-6.75,1.23-10.11
	c0.32-1.67,0.76-3.35,1.53-4.89c0.76-1.54,1.97-2.93,3.52-3.74c1.52-0.83,3.19-1.31,4.86-1.64c1.68-0.32,3.38-0.47,5.08-0.53
	c3.4-0.11,6.8,0.12,10.17,0.51c3.34,0.45,6.74,0.24,10.09-0.16c6.71-0.86,13.29-2.58,19.66-4.83c3.18-1.14,6.32-2.42,9.39-3.83
	c1.54-0.71,3.05-1.46,4.54-2.26c1.47-0.82,2.95-1.67,4.27-2.7L991.12,399.25z"/>
<path class="st15" d="M1070.03,400.56c-2.96-5.92-6.25-11.55-9.35-17.42c-3.5-6.63-5.81-13.95-8.73-20.84
	c-1.41-3.31-2.73-7.23-3.08-10.75c-0.2-2.04,0.04-4.08,0.04-6.18c0-0.29-0.02-0.69-0.04-1.14c-0.06,0.08-0.08,0.12-0.08,0.12
	s-1.28-0.86-8.56,5.13c-7.27,5.99-8.56,6.85-8.56,10.27c0,3.42,1.71,7.27,1.71,7.27s0,0,0,0c0.26,0.47,0.27,0.86,0.27,0.86
	s1.36,6.97,6.79,18.47c5.43,11.49,13.39,21.85,14.9,24.63c0.53,0.96,1.49,2.55,2.54,4.24c4.29,3.68,7.73,11.12,12.71,12.12
	c6.17,1.23,11.54-4.64,12.71-6.62c-2.38-2.63-4.31-5.85-6.16-8.5C1074.45,408.35,1072.13,404.74,1070.03,400.56z"/>
<path class="st1" d="M922.81,262.25c-0.69,0.14-1.42,0.03-2.1-0.12c-0.69-0.15-1.33-0.37-1.96-0.52c-0.62-0.16-1.22-0.26-1.72-0.24
	c-0.5,0.03-0.92,0.18-1.25,0.43c-0.71,0.52-1.39,1.55-1.92,2.6c-0.54,1.07-0.99,2.24-1.33,3.4c-0.17,0.58-0.31,1.17-0.38,1.69
	l-0.01,0.1c0-0.01-0.01,0.05,0-0.01l0,0.03l-0.01,0.06l-0.02,0.25c-0.02,0.18-0.02,0.3-0.03,0.43c-0.02,0.27-0.01,0.57-0.01,0.85
	c0.03,1.14,0.28,2.2,0.8,3.16c0.52,0.95,1.35,1.77,2.41,2.4c1.06,0.64,2.31,1.07,3.65,1.42c-1.34,0.34-2.78,0.38-4.22,0.04
	c-1.43-0.34-2.86-1.16-3.88-2.41c-1.03-1.24-1.59-2.83-1.77-4.36c-0.05-0.39-0.07-0.76-0.07-1.16c0-0.2,0-0.42,0.01-0.57l0.01-0.25
	l0.02-0.32c0.08-0.81,0.25-1.53,0.45-2.24c0.42-1.41,0.99-2.74,1.76-4c0.39-0.63,0.83-1.25,1.37-1.82c0.53-0.57,1.17-1.12,2-1.5
	c0.85-0.39,1.81-0.47,2.64-0.3c0.83,0.16,1.51,0.52,2.12,0.88C920.57,260.93,921.5,261.79,922.81,262.25z"/>
<path class="st16" d="M892.35,369.46c0,0-9.58,1.85-17.91,3.09c-8.34,1.24-16.68,6.49-16.68,6.49l-10.19,7.41
	c0,0-26.54,9.67-27.77,9.67c-1.24,0,11.09,3.3,12.02,3.61c0.93,0.31-3.71-0.62,0.93,0.31c4.63,0.93,16.06-0.62,18.53-3.71
	c2.47-3.09,2.16-6.49,7.1-8.34c4.94-1.85,11.12-1.24,14.52-2.78c3.4-1.54,19.15-3.09,21.62-8.34S894.82,369.46,892.35,369.46z"/>
<path class="st16" d="M920.39,349.91c0,0-4.08,10.53-1.02,16.65c3.06,6.12,11.9,13.26,14.27,14.27s12.91,7.14,12.91,7.14
	s-21.41-4.08-23.79-5.1c-2.38-1.02-3.4-1.36-3.4-1.36s-7.82-4.76-9.52-9.52c-1.7-4.76-2.38-10.88-1.36-13.59
	C909.51,355.68,914.61,351.26,920.39,349.91z"/>
<path class="st16" d="M989.38,371.32c0,0,1.02,4.76-5.78,7.82s-17.33,7.48-17.33,7.48s10.2,1.7,16.99-1.36
	c6.8-3.06,7.82-5.78,8.16-8.5S989.38,371.32,989.38,371.32z"/>
<path class="st16" d="M934.66,424.67c0,0-3.74,2.38-2.38,6.12c1.36,3.74,6.46,5.78,6.46,5.78s-3.74-6.8-1.02-8.84
	c2.72-2.04,5.78-0.68,5.78-0.68S940.78,422.63,934.66,424.67z"/>
<path class="st16" d="M1029.48,374.71c0,0-25.49,16.99-26.51,17.33c-1.02,0.34,5.78,3.74,8.16,4.42c2.38,0.68,11.9-4.08,17.33-4.76
	C1033.9,391.03,1029.48,374.71,1029.48,374.71z"/>
<path class="st16" d="M991.76,401.9c0,0-13.25,7.82-20.39,10.2s-17.33,6.12-22.77,5.78c-5.44-0.34-11.89,0.68-15.29,1.02
	c-3.4,0.34-7.48,4.08-7.48,4.08s17.33-3.06,20.39-3.4s10.2,1.7,13.59,0.68c3.4-1.02,11.22-0.34,15.97-3.4
	c4.76-3.06,9.86-4.08,11.9-6.12C989.72,408.7,991.76,401.9,991.76,401.9z"/>
<path class="st17" d="M999.84,339.92c3.68,0,18.33,0.25,24.33,1.46c-1.34-2.49-1.63-4.36-1.01-6.43c0.29-0.98,1.61-1.87,2.52-2.71
	c-1.38,0.16-4.52,0.25-6.43,0.19c-3.34-0.1-6.68-0.29-10.02-0.41c-4.23-0.16-8.49-0.25-12.72-0.14c-4.34,0.11-8.5-0.02-12.68,1.12
	c-1.38,0.38-2.69,0.08-3.79-0.58c-0.86-0.51-4.18-2.95-6.42-4.14c-1.94-1.03-3.92-1.99-5.88-2.97c-4.53-2.25-9.06-4.53-13.47-7.03
	c-2.06-1.17-4.11-2.38-6.01-3.79c-4-2.95-7.31-7.15-9.09-9.66c0.02,0.22-0.23-2.01-0.3-3.14c-0.37-0.07-0.55-0.07-0.55-0.07
	l0.22-24.8l5.98-1c4.98,0.75,8.72,1.49,13.95,4.98c5.23,3.49,10.46,5.98,15.19,4.48c4.43-1.4,9.08,0.7,13.54,1.99
	c-0.77-6.98-1.56-11.75-1.56-11.75s0.05-0.45,0.08-1.24c0,0.06,0,0.13-0.01,0.18c3.97,0.82,6.92,0.55,6.92,0.55s1.39-0.83,1.66-4.16
	c0.28-3.33,0.28-6.1-1.94-12.48c-1.07-3.08-2.73-6.41-4.68-9.6c0,0,0,0,0,0c3.1-2.63,6.31-6.05,9.75-6.65
	c2.78-0.48,8.96-0.66,15.19-0.7c-3.14-7.3-6.67-15.61-9.36-22.18c-0.68,0.09-1.38,0.19-2.11,0.3c-12.86,2-20.87,6.29-22.3,7.72
	c-0.14,0.14-0.31,0.33-0.52,0.56c0.1,0.33,0.18,0.65,0.26,0.96c-3.17,0.13-7.04,0.05-10.65-0.64c-1.76-0.34-3.96-1.03-6.39-2.02
	c-2.15,2.59-4.59,5.15-6.61,6.34c-4.75,2.81-17.48,1.94-17.48,1.94s-4.75-9.93-8.63-14.46c-1.42-1.66-3.4-2.88-5.32-3.77
	c-1.87,5.85-3.77,10.23-4.14,16.56c-0.5,8.47-1,15.94-1,15.94s-5.48-4.98-10.46-1.99c-4.98,2.99-5.48,4.73-5.98,9.71
	c-0.5,4.98-0.27,12.67,2.49,17.19c2.46,4.04,4.48,6.97,8.47,7.22c3.98,0.25,6.97-2.24,6.97-2.24s-2.24,21.67-0.75,30.39
	s2.07,9.76,3.99,13.2c2.01,3.6,8.43,6.52,8.43,6.52s-1.34,2.59-2.72,5.65c-1.84,4.08-2.53,7.74-2.81,11.94
	c-0.18,2.68,0.46,12.71,4.1,19.22c4.46,7.97,22.54,15.31,32.88,14.26c10.34-1.05,16.3-1.4,20.68-7.89c4.38-6.48,5.73-8.97,5.73-8.97
	s0.79-1.6,1.03-1.91l0.93-1.81c0,0,9.31,4.29,16.55,6.27c-3.71-1.65-14.55-6.97-18.03-13.93c-2.43-4.87-3.06-7.95-2.87-13.41
	C991.04,339.48,997.38,339.92,999.84,339.92z"/>
<g>
	<path class="st5" d="M983.48,334.65c-0.41,1.53,1.17,2.64,3.52,3.44c0.06-1.57,0.18-3.35,0.35-5.42
		C985.16,333.1,983.72,333.74,983.48,334.65z"/>
	<path class="st2" d="M986.28,337.59c-0.2,5.57,0.44,8.69,2.92,13.65c3.54,7.08,14.58,12.49,18.35,14.18
		c2.28,0.62,4.25,0.96,5.49,0.75c5.23-0.87,13.5-3.92,13.93-13.93c0.22-5.17-1.41-8.6-2.86-11.3c-6.11-1.23-21.01-1.48-24.76-1.48
		C996.86,339.45,990.4,339,986.28,337.59z"/>
</g>
<path class="st18" d="M925.15,210.84c0,0-8.96-2.5-22.16-3.04c-13.2-0.54-19.91,0.89-24.05,2.2c-4.26,1.36-15,6.39-15.02,6.42
	c-0.47,0.71,16.44-11.85,32.06-13.2c15.63-1.35,30.42,3.43,30.42,3.43L925.15,210.84z"/>
<path class="st18" d="M864.46,232.87c0,0,12.39-8.35,19.13-10.24c6.74-1.89,16.17-2.43,22.36-2.16c6.2,0.27,15.18,3.06,15.18,3.06
	l-1.03,4.62c0,0-11.18-0.68-21.42-1.75c-10.24-1.08-21.82,2.42-24.52,2.96S864.46,232.87,864.46,232.87z"/>
<path class="st18" d="M846.14,246.61c0,0,11.85-8.35,20.75-11.32c8.89-2.96,22.63-2.96,24.52-3.23c1.89-0.27,27.76,0.89,27.76,0.89
	l-0.11,5.53c0,0-21.73,0.04-31.16-0.76c-9.43-0.81-15.9,0-19.4,0.27C865,238.25,846.14,246.61,846.14,246.61z"/>
<path class="st18" d="M845.87,271.13c0,0,4.31-11.59,14.82-18.32c10.51-6.74,19.4-8.35,21.82-9.43c2.42-1.08,15.09-1.08,16.43-1.35
	c1.35-0.27,9.16,1.35,9.16,1.35l-4.85,3.23c0,0-2.43-0.27-9.16-0.54c-6.74-0.27-15.9,1.89-19.13,2.96s-11.32,4.04-15.36,7.01
	C855.57,259,845.87,271.13,845.87,271.13z"/>
<g>
	<path class="st5" d="M979.5,238.58c-0.15-3.93,0.19-6.05-1.17-10.74c-1.87,2.14-6.06,7.73-6.06,7.73s1.43,12.29,7.15,15.72
		c2.72,1.63,5.44-0.1,8.26-2.49c-2.09-3.42-4.53-6.67-6.97-9.26C980.45,239.26,980.04,238.94,979.5,238.58z"/>
</g>
<linearGradient id="SVGID_6_" gradientUnits="userSpaceOnUse" x1="1111.649" y1="192.6196" x2="1103.1871" y2="266.2386">
	<stop  offset="0.0909" style="stop-color:#FFFFFF"/>
	<stop  offset="0.7636" style="stop-color:#9464A9"/>
</linearGradient>
<path class="st19" d="M1106.6,273.33c0,2.34-1.89,4.23-4.23,4.23c-2.34,0-4.23-1.89-4.23-4.23s1.89-4.23,4.23-4.23
	C1104.71,269.1,1106.6,271,1106.6,273.33z"/>
<linearGradient id="SVGID_7_" gradientUnits="userSpaceOnUse" x1="1116.391" y1="239.5733" x2="1116.391" y2="246.8574">
	<stop  offset="0.0909" style="stop-color:#FFFFFF"/>
	<stop  offset="0.7636" style="stop-color:#9464A9"/>
</linearGradient>
<path class="st20" d="M1120.62,244.02c0,2.34-1.89,4.23-4.23,4.23c-2.34,0-4.23-1.89-4.23-4.23c0-2.34,1.89-4.23,4.23-4.23
	C1118.73,239.79,1120.62,241.68,1120.62,244.02z"/>
<linearGradient id="SVGID_8_" gradientUnits="userSpaceOnUse" x1="1101.9896" y1="249.1232" x2="1101.9896" y2="258.9948">
	<stop  offset="0.0909" style="stop-color:#FFFFFF"/>
	<stop  offset="0.7636" style="stop-color:#9464A9"/>
</linearGradient>
<path class="st21" d="M1105.8,252.76c0,2.1-1.7,3.81-3.81,3.81c-2.1,0-3.81-1.71-3.81-3.81c0-2.1,1.7-3.81,3.81-3.81
	C1104.09,248.95,1105.8,250.66,1105.8,252.76z"/>
<linearGradient id="SVGID_9_" gradientUnits="userSpaceOnUse" x1="1112.754" y1="254.8322" x2="1117.3806" y2="273.9997">
	<stop  offset="0.0909" style="stop-color:#FFFFFF"/>
	<stop  offset="0.7576" style="stop-color:#9464A9"/>
</linearGradient>
<path class="st22" d="M1119.52,265.35c0,2.34-1.89,4.23-4.23,4.23c-2.34,0-4.23-1.89-4.23-4.23c0-2.34,1.89-4.23,4.23-4.23
	C1117.63,261.12,1119.52,263.02,1119.52,265.35z"/>
<path class="st2" d="M919.06,251.88c-0.56-0.61-1.37-1.09-2.04-1.44c-1.01-0.52-2.11-0.91-3.25-1.03c-1.46-0.15-3.33-0.19-4.73,0.31
	c-1.87,0.67-2.64,2.34-3.24,4.09c-0.91,2.69-1.57,5.36-1.45,8.22c0.1,2.34,0.19,4.54,1.06,6.74c0.25,0.63,0.72,1.42,0.68,2.12
	c0.08-1.28,0.22-2.58,0.43-3.84c0.38-2.26,0.84-4.79,1.84-6.87c0.54-1.12,1.53-2.44,2.61-3.09c1.48-0.89,3.3-1.27,4.99-1.51
	c0.54-0.08,1.1-0.15,1.64-0.1c0.21,0.02,0.48,0.14,0.69,0.13c0.65-0.05,1.13-0.9,1.32-1.45
	C919.94,253.26,919.62,252.5,919.06,251.88z"/>
<path class="st2" d="M978.12,240.54c0,0,5.55,6.17,8.51,10c2.96,3.83,3.95,7.16,4.07,9.01c0.12,1.85-2.1,4.44-4.32,3.08
	c-2.22-1.36-7.4-7.4-7.9-9.13c-0.49-1.73-3.33-8.02-4.07-10.98c-0.74-2.96-0.86-4.32-0.86-4.32l2.71,0.37L978.12,240.54z"/>
<path class="st2" d="M947.3,258.74c0,0-7.97-0.32-10.83-3.19c-2.87-2.87-7.01-8.28-7.01-8.28s-5.42,9.24-2.23,13.38
	c3.19,4.14,10.51,3.5,12.74,2.55C942.2,262.24,947.3,258.74,947.3,258.74z"/>
<g>
	<g>
		<path class="st12" d="M852.82,441.82c0.31,0,1.75,0.41,0.72-2.27c-1.03-2.68-3.81-3.6-8.13-7.52
			c-4.32-3.91-15.75-10.29-21.41-13.38c-5.66-3.09-25.94-4.02-33.36-3.19c-4.55,0.51-7.89,1.59-9.8,2.36
			c0.08,0.08,0.14,0.12,0.14,0.12s-2.57,8.56-2.14,17.11c0.43,8.56,1.28,14.55,1.28,14.55s-6.42,5.13-11.12,11.98
			c-4.71,6.84-4.28,8.98-4.71,16.68c-0.43,7.7,3.42,12.41,5.56,15.4c2.14,2.99,7.81,2,7.81,2s0.87,4.43,3.89,7.45
			c3.06,3.06,9.75,4.09,12.75,3.4c3.23-0.75,4.06-2.32,4.06-2.32s2.4,4.8,9.56,2.3c5.06-1.77,11.02-5.24,13.62-10.78
			c2.84-6.05,3.98-5.94,3.98-5.94s13.74-2.18,13.75-2.29c0.32-5.45-2.25-8.36-2.25-13.93c0-5.56,4.71-14.55,8.13-20.96
			c3.42-6.42,6.84-10.7,6.84-10.7s0.01,0.02,0.03,0.05C852.29,441.75,852.63,441.82,852.82,441.82z"/>
	</g>
	<path class="st1" d="M799.17,506.49c-1.87-1.85-3.24-4.19-4.02-6.81c-0.38-1.31-0.57-2.71-0.48-4.14c0.07-1.3,0.21-2.61,0.4-3.9
		c0.39-2.59,1-5.13,1.91-7.61c0.92-2.39,1.88-4.79,3.1-7.11c-0.19,2.61-0.64,5.15-1.18,7.68c-0.51,2.45-0.93,4.94-1.31,7.42
		c-0.19,1.25-0.36,2.48-0.52,3.74c-0.15,1.13-0.12,2.31,0.04,3.51C797.41,501.66,798.19,504.08,799.17,506.49z"/>
	<path class="st1" d="M824.48,468.63c0.83,1.71,1.32,3.51,1.69,5.32c0.36,1.82,0.57,3.65,0.66,5.49c0.04,0.92,0.05,1.85,0.01,2.8
		c-0.05,0.94-0.16,1.95-0.45,2.9c-0.28,0.93-0.65,1.79-1.04,2.63c-0.42,0.83-0.83,1.66-1.36,2.46c0-1.88,0.28-3.74,0.44-5.46
		c0.13-1.63-0.07-3.4-0.13-5.2c-0.08-1.8-0.11-3.6-0.1-5.41C824.2,472.33,824.26,470.51,824.48,468.63z"/>
	<path class="st23" d="M784.17,421.99c0,0-0.86,9.8-0.29,17.3c0.58,7.5,0.58,8.65-1.44,11.82c-2.02,3.17-4.33,5.19-3.75,7.5
		c0.58,2.31,5.48,2.88,7.5,0.87c2.02-2.02,5.19-2.31,5.19-0.87s-4.04,5.19-3.17,6.92c0.86,1.73,4.9,3.46,6.92,0.86
		c2.02-2.6,0.58-4.33,4.04-4.9c3.46-0.58,6.06,5.19,6.06,5.19s0.86,6.63,3.75,4.61c2.88-2.02,4.33-5.48,5.48-7.5
		c1.15-2.02,2.6-3.17,6.06-4.04c3.46-0.87,2.02-4.33,7.79-12.98c5.77-8.65,2.6-16.44,2.02-17.3c-0.58-0.86-6.63-5.77-16.73-8.36
		C803.49,418.53,784.17,421.99,784.17,421.99z"/>
</g>
<path class="st23" d="M1124.62,296.6c0,0,14.55,4.24,21.21,8.48c6.67,4.24,6.97,8.48,6.36,11.21c-0.61,2.73-11.21,1.82-14.54,0
	c-3.33-1.82-14.85-7.88-15.15-11.82C1122.19,300.54,1124.62,296.6,1124.62,296.6z"/>
<path class="st23" d="M1120.38,328.12c0,0,4.85,1.82,11.82,5.45c6.97,3.64,9.7,3.64,11.82,8.79c2.12,5.15,1.52,9.39,0,9.7
	c-1.52,0.3-18.18-6.97-21.21-11.21c-3.03-4.24-6.36-4.85-5.76-8.79C1117.65,328.12,1120.38,328.12,1120.38,328.12z"/>
<path class="st23" d="M1114.92,350.84c0,0,3.33,1.21,8.18,4.55c4.85,3.33,9.39,7.27,11.52,9.7c2.12,2.42,5.15,4.85,4.55,7.58
	c-0.61,2.73-5.76,4.24-10,1.21c-4.24-3.03-9.7-7.27-11.82-11.21c-2.12-3.94-3.94-7.27-3.64-8.79
	C1114.01,352.36,1114.92,350.84,1114.92,350.84z"/>
<path class="st23" d="M1052.2,345.09c0.91-1.21,14.55-18.79,17.88-21.21c3.33-2.42,7.88-3.64,7.88-3.64s0.3,10.3-0.3,14.55
	c-0.61,4.24-6.36,15.76-8.48,16.36c-2.12,0.61-13.64,4.55-14.55,3.33C1053.71,353.27,1052.2,345.09,1052.2,345.09z"/>
<path class="st23" d="M1077.04,281.45c-0.6,0.68-2.42,4.55-2.42,8.79c0,4.24,2.42,11.21,3.33,11.21s3.03,2.73,4.24-0.3
	c1.21-3.03,5.45-16.06,3.33-19.7C1083.41,277.81,1079.47,278.72,1077.04,281.45z"/>
<linearGradient id="SVGID_10_" gradientUnits="userSpaceOnUse" x1="1099.394" y1="358.3974" x2="1109.5909" y2="434.0248">
	<stop  offset="0.0909" style="stop-color:#FFFFFF"/>
	<stop  offset="0.7636" style="stop-color:#9464A9"/>
</linearGradient>
<path class="st24" d="M1107.09,407.06c0,0.63-0.51,1.13-1.14,1.13c-0.63,0-1.13-0.51-1.13-1.13c0-0.63,0.51-1.14,1.13-1.14
	C1106.58,405.93,1107.09,406.44,1107.09,407.06z"/>
<linearGradient id="SVGID_11_" gradientUnits="userSpaceOnUse" x1="1108.5698" y1="357.1613" x2="1118.7668" y2="432.7893">
	<stop  offset="0.0909" style="stop-color:#FFFFFF"/>
	<stop  offset="0.7636" style="stop-color:#9464A9"/>
</linearGradient>
<path class="st25" d="M1114.66,394.69c0,0.57-0.46,1.03-1.03,1.03c-0.57,0-1.03-0.46-1.03-1.03c0-0.57,0.46-1.03,1.03-1.03
	C1114.2,393.66,1114.66,394.12,1114.66,394.69z"/>
<linearGradient id="SVGID_12_" gradientUnits="userSpaceOnUse" x1="1107.6337" y1="357.347" x2="1117.8174" y2="432.8769">
	<stop  offset="0.0909" style="stop-color:#FFFFFF"/>
	<stop  offset="0.7636" style="stop-color:#9464A9"/>
</linearGradient>
<path class="st26" d="M1114.01,402.82c0,0.13-0.11,0.24-0.24,0.24c-0.13,0-0.24-0.11-0.24-0.24c0-0.13,0.11-0.24,0.24-0.24
	C1113.9,402.58,1114.01,402.69,1114.01,402.82z"/>
<linearGradient id="SVGID_13_" gradientUnits="userSpaceOnUse" x1="1102.2434" y1="358.0229" x2="1112.438" y2="433.6327">
	<stop  offset="0.0909" style="stop-color:#FFFFFF"/>
	<stop  offset="0.7636" style="stop-color:#9464A9"/>
</linearGradient>
<path class="st27" d="M1107.74,388.36c0,0.78-0.63,1.41-1.41,1.41s-1.41-0.63-1.41-1.41c0-0.78,0.63-1.41,1.41-1.41
	S1107.74,387.59,1107.74,388.36z"/>
<linearGradient id="SVGID_14_" gradientUnits="userSpaceOnUse" x1="1109.9512" y1="356.9831" x2="1120.1453" y2="432.5906">
	<stop  offset="0.0909" style="stop-color:#FFFFFF"/>
	<stop  offset="0.7636" style="stop-color:#9464A9"/>
</linearGradient>
<path class="st28" d="M1114.12,379.26c0,0.64-0.52,1.16-1.16,1.16c-0.64,0-1.16-0.52-1.16-1.16c0-0.64,0.52-1.16,1.16-1.16
	C1113.6,378.09,1114.12,378.62,1114.12,379.26z"/>
<linearGradient id="SVGID_15_" gradientUnits="userSpaceOnUse" x1="1111.7712" y1="356.7288" x2="1121.9689" y2="432.3616">
	<stop  offset="0.0909" style="stop-color:#FFFFFF"/>
	<stop  offset="0.7636" style="stop-color:#9464A9"/>
</linearGradient>
<path class="st29" d="M1116.17,387.15c0,0.16-0.13,0.3-0.3,0.3c-0.16,0-0.3-0.13-0.3-0.3c0-0.16,0.13-0.3,0.3-0.3
	C1116.04,386.85,1116.17,386.98,1116.17,387.15z"/>
<linearGradient id="SVGID_16_" gradientUnits="userSpaceOnUse" x1="1103.3657" y1="357.8656" x2="1113.5626" y2="433.4935">
	<stop  offset="0.0909" style="stop-color:#FFFFFF"/>
	<stop  offset="0.7636" style="stop-color:#9464A9"/>
</linearGradient>
<path class="st30" d="M1106.23,375.07c0,0.3-0.24,0.54-0.54,0.54s-0.54-0.24-0.54-0.54c0-0.3,0.24-0.54,0.54-0.54
	S1106.23,374.77,1106.23,375.07z"/>
<linearGradient id="SVGID_17_" gradientUnits="userSpaceOnUse" x1="1114.0651" y1="356.4186" x2="1124.2592" y2="432.0254">
	<stop  offset="0.0909" style="stop-color:#FFFFFF"/>
	<stop  offset="0.7636" style="stop-color:#F69334"/>
</linearGradient>
<circle class="st31" cx="1108.63" cy="316.09" r="3.4"/>
<linearGradient id="SVGID_18_" gradientUnits="userSpaceOnUse" x1="1109.8649" y1="356.9942" x2="1120.0618" y2="432.6214">
	<stop  offset="0.0909" style="stop-color:#FFFFFF"/>
	<stop  offset="0.7636" style="stop-color:#9464A9"/>
</linearGradient>
<path class="st32" d="M1108.42,331.28c0,1.11-0.9,2.02-2.02,2.02c-1.11,0-2.02-0.9-2.02-2.02c0-1.11,0.9-2.02,2.02-2.02
	C1107.51,329.26,1108.42,330.16,1108.42,331.28z"/>
<linearGradient id="SVGID_19_" gradientUnits="userSpaceOnUse" x1="1118.4746" y1="355.825" x2="1128.6694" y2="431.4368">
	<stop  offset="0.0909" style="stop-color:#FFFFFF"/>
	<stop  offset="0.7636" style="stop-color:#F69334"/>
</linearGradient>
<path class="st33" d="M1112.03,296.97c0,0.82-0.67,1.49-1.49,1.49c-0.82,0-1.49-0.67-1.49-1.49c0-0.82,0.67-1.49,1.49-1.49
	C1111.36,295.49,1112.03,296.15,1112.03,296.97z"/>
<linearGradient id="SVGID_20_" gradientUnits="userSpaceOnUse" x1="1110.3577" y1="356.9312" x2="1120.5544" y2="432.5579">
	<stop  offset="0.0909" style="stop-color:#FFFFFF"/>
	<stop  offset="0.7636" style="stop-color:#F69334"/>
</linearGradient>
<path class="st34" d="M1103.32,299.2c0,0.41-0.33,0.74-0.74,0.74c-0.41,0-0.74-0.33-0.74-0.74c0-0.41,0.33-0.74,0.74-0.74
	C1102.98,298.46,1103.32,298.79,1103.32,299.2z"/>
<linearGradient id="SVGID_21_" gradientUnits="userSpaceOnUse" x1="1112.3461" y1="356.6435" x2="1122.54" y2="432.2488">
	<stop  offset="0.0909" style="stop-color:#FFFFFF"/>
	<stop  offset="0.7636" style="stop-color:#F69334"/>
</linearGradient>
<path class="st35" d="M1103.53,283.38c0,0.59-0.48,1.06-1.06,1.06c-0.59,0-1.06-0.48-1.06-1.06c0-0.59,0.48-1.06,1.06-1.06
	C1103.05,282.32,1103.53,282.79,1103.53,283.38z"/>
<linearGradient id="SVGID_22_" gradientUnits="userSpaceOnUse" x1="1105.951" y1="357.5204" x2="1116.1482" y2="433.1497">
	<stop  offset="0.0909" style="stop-color:#FFFFFF"/>
	<stop  offset="0.7636" style="stop-color:#9464A9"/>
</linearGradient>
<circle class="st36" cx="1104.8" cy="349.01" r="0.64"/>
<linearGradient id="SVGID_23_" gradientUnits="userSpaceOnUse" x1="1102.8755" y1="357.9321" x2="1113.0702" y2="433.5439">
	<stop  offset="0.0909" style="stop-color:#FFFFFF"/>
	<stop  offset="0.7636" style="stop-color:#9464A9"/>
</linearGradient>
<path class="st37" d="M1102.04,340.73c0,0.82-0.67,1.49-1.49,1.49c-0.82,0-1.49-0.67-1.49-1.49c0-0.82,0.67-1.49,1.49-1.49
	C1101.38,339.24,1102.04,339.91,1102.04,340.73z"/>
<linearGradient id="SVGID_24_" gradientUnits="userSpaceOnUse" x1="1099.1898" y1="358.4299" x2="1109.3868" y2="434.0584">
	<stop  offset="0.0909" style="stop-color:#FFFFFF"/>
	<stop  offset="0.7636" style="stop-color:#9464A9"/>
</linearGradient>
<path class="st38" d="M1100.56,364.62c0,0.29-0.24,0.53-0.53,0.53c-0.29,0-0.53-0.24-0.53-0.53c0-0.29,0.24-0.53,0.53-0.53
	C1100.32,364.09,1100.56,364.33,1100.56,364.62z"/>
<path class="st18" d="M853.1,278.04c-0.36,0.56,2.4-8.11,10.33-15.12c7.93-7.01,19.92-10.51,21.21-11.07
	c1.29-0.55,10.7,0,11.25-0.18c0.55-0.18,4.79,1.11,4.79,1.11l-2.95,3.32c0,0-2.95-1.47-11.07,0.18c-8.11,1.66-16.04,3.5-19.18,6.27
	C864.35,265.32,856.05,273.43,853.1,278.04z"/>
<path class="st18" d="M898.75,264.31c0,0-18.74,5.31-24.61,8.95c-5.87,3.64-19.58,19.02-19.58,19.02s6.43-14.55,11.75-18.46
	c5.32-3.92,16.78-6.99,18.46-7.83c1.68-0.84,14.54-4.2,14.54-4.2L898.75,264.31z"/>
<path class="st18" d="M861.99,305.28c-0.49,1.34,1.46-9.29,7.61-16.29c6.15-6.99,13.18-11.78,14.86-13.46
	c1.68-1.68,11.92-5.89,11.92-5.89l4.09-1.14v3.61c0,0-9.83,3.66-15.14,7.3c-5.31,3.64-7.83,6.71-12.31,10.35
	C868.54,293.4,863.26,301.77,861.99,305.28z"/>
<path class="st18" d="M898.75,274.66c0,0-8.67,5.87-13.71,12.87c-5.03,6.99-7.27,12.31-8.11,14.54c-0.84,2.24-3.92,13.43-3.64,21.26
	c0.28,7.83,3.08-13.43,7.27-21.82C884.76,293.12,894.83,278.86,898.75,274.66z"/>
<path class="st1" d="M777.98,497.72c-0.8-0.88-1.29-2.01-1.66-3.16c-0.36-1.16-0.52-2.38-0.55-3.59c-0.04-1.2,0.13-2.47,0.32-3.58
	c0.19-1.15,0.42-2.29,0.7-3.42c0.57-2.27,1.28-4.51,2.4-6.65c0.27-0.52,0.63-1.09,0.93-1.52l0.91-1.43c0.62-0.96,1.2-1.96,1.87-2.93
	c-0.14,1.18-0.42,2.31-0.73,3.44c-0.17,0.56-0.35,1.12-0.56,1.68c-0.23,0.58-0.41,1.03-0.59,1.56c-0.69,2.08-1.22,4.28-1.76,6.46
	l-0.81,3.3c-0.28,1.13-0.53,2.13-0.69,3.22C777.46,493.24,777.41,495.46,777.98,497.72z"/>
<path class="st1" d="M948.26,335.63c1.76,0.94,3.51,1.88,5.29,2.77l5.29,2.75c3.53,1.83,7.04,3.7,10.55,5.58
	c3.5,1.89,7,3.79,10.46,5.74c3.48,1.94,6.92,3.94,10.33,6c-3.64-1.62-7.24-3.33-10.8-5.12c-3.56-1.77-7.09-3.62-10.6-5.5
	c-3.5-1.9-6.99-3.82-10.42-5.83C954.92,340.02,951.51,337.95,948.26,335.63z"/>
<g>
	<path class="st3" d="M938.79,232.13c0,0-2.74-1.74-5.23-1.74c-2.49,0-8.97,1-7.47-1c1.49-1.99,5.98-6.72,9.96-8.47
		c3.98-1.74,6.23,0.5,6.23,0.5l-2.74-3.24c0,0,6.23-0.5,13.7,2.49c7.47,2.99,11.71,6.72,11.71,6.72s-9.04,0.83-12.99,2.02
		C948.01,230.61,938.79,232.13,938.79,232.13z"/>
	<path class="st39" d="M964.19,240.72c0,8.19-6.64,14.83-14.83,14.83h-0.3c-8.19,0-14.83-6.64-14.83-14.83v-0.3
		c0-8.19,6.64-14.83,14.83-14.83h0.3c8.19,0,14.83,6.64,14.83,14.83V240.72z"/>
	<path class="st40" d="M964.51,240.41c0.02,3.94-1.53,7.86-4.3,10.74c-2.72,2.92-6.69,4.75-10.84,4.88
		c-2.05,0.11-4.18-0.19-6.16-0.92c-1.98-0.74-3.84-1.88-5.39-3.36c-1.56-1.48-2.81-3.3-3.64-5.3c-0.84-2-1.24-4.2-1.21-6.35
		c0-2.13,0.45-4.34,1.33-6.32c0.87-1.99,2.16-3.78,3.75-5.23c1.58-1.46,3.46-2.55,5.46-3.25c2-0.7,4.14-0.94,6.18-0.8
		c4.15,0.2,8.08,2.13,10.74,5.1C963.13,232.52,964.6,236.47,964.51,240.41z M964.51,240.41c0.03-1.97-0.33-3.94-1.09-5.74
		c-0.76-1.81-1.89-3.45-3.3-4.78c-1.41-1.33-3.09-2.35-4.87-3c-1.79-0.65-3.7-0.9-5.56-0.8c-3.77,0.14-7.27,1.8-9.71,4.42
		c-2.46,2.61-3.84,6.06-3.82,9.62c-0.08,3.54,1.21,7.04,3.63,9.69c2.38,2.67,5.87,4.41,9.62,4.62c1.87,0.14,3.77-0.08,5.58-0.69
		c1.8-0.62,3.5-1.6,4.93-2.91C962.8,248.24,964.53,244.35,964.51,240.41z"/>
</g>
<path class="st1" d="M958.45,247.75c0,3.96-3.21,7.17-7.17,7.17h-0.32c-3.96,0-7.17-3.21-7.17-7.17v-0.32
	c0-3.96,3.21-7.17,7.17-7.17h0.32c3.96,0,7.17,3.21,7.17,7.17V247.75z"/>
<path class="st39" d="M950.81,242.81c0,1.41-1.14,2.55-2.55,2.55l0,0c-1.41,0-2.55-1.14-2.55-2.55l0,0c0-1.41,1.14-2.55,2.55-2.55
	l0,0C949.66,240.26,950.81,241.4,950.81,242.81L950.81,242.81z"/>
<path class="st3" d="M1010.68,224.23c0,0,2.32-2.28,4.75-2.8c2.44-0.52,8.98-0.9,7.1-2.53c-1.88-1.64-7.25-5.33-11.51-6.2
	c-4.26-0.87-5.99,1.79-5.99,1.79l2-3.74c0,0-6.19,0.81-12.88,5.29c-6.68,4.48-10.05,9.02-10.05,9.02s9.01-1.07,13.12-0.73
	C1001.36,224.66,1010.68,224.23,1010.68,224.23z"/>
<g>
	<path class="st39" d="M1016.44,240.72c0,8.19-6.64,14.83-14.83,14.83h-0.3c-8.19,0-14.83-6.64-14.83-14.83v-0.3
		c0-8.19,6.64-14.83,14.83-14.83h0.3c8.19,0,14.83,6.64,14.83,14.83V240.72z"/>
	<path class="st40" d="M1016.76,240.41c0.02,3.94-1.53,7.86-4.3,10.74c-2.72,2.92-6.69,4.75-10.84,4.88
		c-2.05,0.11-4.18-0.19-6.16-0.92c-1.98-0.74-3.84-1.88-5.39-3.36c-1.56-1.48-2.81-3.3-3.64-5.3c-0.84-2-1.24-4.2-1.21-6.35
		c0-2.13,0.45-4.34,1.33-6.32c0.87-1.99,2.16-3.78,3.75-5.23c1.58-1.46,3.46-2.55,5.46-3.25c2-0.7,4.14-0.94,6.18-0.8
		c4.15,0.2,8.08,2.13,10.74,5.1C1015.38,232.52,1016.85,236.47,1016.76,240.41z M1016.76,240.41c0.03-1.97-0.33-3.94-1.09-5.74
		c-0.76-1.81-1.89-3.45-3.3-4.78c-1.41-1.33-3.09-2.35-4.87-3c-1.79-0.65-3.7-0.9-5.56-0.8c-3.77,0.14-7.27,1.8-9.71,4.42
		c-2.46,2.61-3.84,6.06-3.82,9.62c-0.08,3.54,1.21,7.04,3.63,9.69c2.38,2.67,5.87,4.41,9.62,4.62c1.87,0.14,3.77-0.08,5.58-0.69
		c1.8-0.62,3.5-1.6,4.93-2.91C1015.05,248.24,1016.78,244.35,1016.76,240.41z"/>
</g>
<path class="st1" d="M1012.62,247.11c0,3.96-3.21,7.17-7.17,7.17h-0.32c-3.96,0-7.17-3.21-7.17-7.17v-0.32
	c0-3.96,3.21-7.17,7.17-7.17h0.32c3.96,0,7.17,3.21,7.17,7.17V247.11z"/>
<path class="st39" d="M1005.61,241.53c0,1.41-1.14,2.55-2.55,2.55l0,0c-1.41,0-2.55-1.14-2.55-2.55l0,0c0-1.41,1.14-2.55,2.55-2.55
	l0,0C1004.47,238.98,1005.61,240.12,1005.61,241.53L1005.61,241.53z"/>
<path class="st41" d="M976.2,237.41c3.16,2,6.25,4.28,8.98,6.93c2.73,2.66,5.16,5.69,6.93,9.13c0.88,1.72,1.61,3.53,2.11,5.42
	c0.25,0.94,0.43,1.91,0.59,2.83c0.17,0.94,0.32,1.88,0.46,2.82c0.27,1.89,0.51,3.79,0.58,5.73c0.03,0.97,0.03,1.95-0.08,2.96
	c-0.06,0.51-0.14,1.02-0.3,1.56c-0.08,0.27-0.18,0.55-0.35,0.85c-0.09,0.15-0.19,0.3-0.34,0.46c-0.08,0.08-0.16,0.16-0.28,0.24
	c-0.06,0.04-0.12,0.08-0.2,0.12c-0.04,0.02-0.09,0.04-0.14,0.06l-0.09,0.03c-0.04,0.01-0.06,0.02-0.17,0.03
	c-0.08,0.01-0.15,0.01-0.23-0.01l-0.02,0c-4.49-0.79-8.88-1.86-13.2-3.4c-2.15-0.79-4.29-1.69-6.23-3.14
	c-1.82-1.39-3.55-2.92-5.09-4.63c-1.52-1.72-2.97-3.57-3.83-5.83c-0.21-0.57-0.36-1.17-0.4-1.81c-0.02-0.32-0.01-0.64,0.05-0.99
	c0.05-0.26,0.11-0.59,0.2-0.88c0.17-0.59,0.41-1.17,0.78-1.69c0.36-0.53,0.87-0.98,1.46-1.26c1.2-0.58,2.5-0.42,3.61-0.12
	c1.12,0.32,2.18,0.81,3.15,1.44c1.92,1.26,3.49,2.98,4.61,4.93c-0.64-0.92-1.4-1.75-2.22-2.51c-0.82-0.76-1.71-1.43-2.67-1.96
	c-0.96-0.53-1.99-0.92-3.05-1.15c-1.04-0.22-2.14-0.21-2.98,0.25c-0.84,0.45-1.34,1.36-1.56,2.36c-0.06,0.26-0.09,0.48-0.13,0.78
	c-0.02,0.21-0.02,0.46,0.01,0.69c0.05,0.48,0.2,0.97,0.4,1.45c0.81,1.93,2.23,3.66,3.73,5.23c1.53,1.57,3.2,3.02,4.98,4.31
	c1.69,1.21,3.76,2.04,5.82,2.79c4.16,1.46,8.54,2.46,12.89,3.29l-0.24-0.01c-0.1,0.01-0.11,0.02-0.13,0.02l-0.05,0.01l-0.06,0.02
	c-0.03,0.01-0.04,0.02-0.05,0.03c-0.02,0.01-0.02,0.02-0.02,0.01c0.01-0.01,0.04-0.05,0.08-0.11c0.07-0.11,0.13-0.28,0.19-0.46
	c0.11-0.36,0.19-0.79,0.24-1.22c0.1-0.87,0.11-1.78,0.09-2.7c-0.06-1.83-0.22-3.69-0.46-5.55c-0.12-0.93-0.25-1.85-0.39-2.78
	c-0.14-0.94-0.29-1.83-0.5-2.72c-0.41-1.78-1.03-3.52-1.81-5.18c-1.58-3.33-3.76-6.39-6.28-9.16c-1.25-1.39-2.6-2.7-4.01-3.95
	C979.16,239.74,977.63,238.6,976.2,237.41z"/>
<path class="st1" d="M938.29,301.62c1.06,0.03,2.09,0.38,3.06,0.79c0.98,0.43,1.9,0.96,2.8,1.54c0.9,0.59,1.72,1.33,2.46,2.1
	c0.75,0.76,1.42,1.6,2.17,2.12c0.37,0.26,0.75,0.42,1.16,0.47c0.2,0.03,0.42,0.03,0.63,0.01c0.23-0.02,0.52-0.05,0.8-0.07
	c1.09-0.07,2.17-0.05,3.24,0.01c2.15,0.13,4.28,0.44,6.41,1.06c1.06,0.34,2.15,0.71,3.18,1.55c1,0.83,1.57,1.93,2.11,2.68
	c0.54,0.77,1.06,1.17,1.84,1.37c0.39,0.1,0.82,0.14,1.28,0.15c0.23,0,0.46-0.01,0.69-0.02l0.78-0.05l3.11-0.27
	c1.05-0.09,2.16-0.19,3.34-0.1c1.18,0.08,2.36,0.39,3.42,0.81c0.53,0.2,1.11,0.48,1.62,0.82c0.52,0.33,0.98,0.72,1.4,1.1
	c0.83,0.78,1.5,1.55,2.07,1.81c0.28,0.13,0.55,0.18,0.9,0.16c0.35-0.02,0.75-0.13,1.18-0.29c0.98-0.36,1.94-0.75,3-1.1
	c0.53-0.17,1.09-0.34,1.69-0.45c0.61-0.11,1.26-0.14,1.89-0.08c0.63,0.06,1.23,0.21,1.78,0.38c0.28,0.09,0.55,0.19,0.81,0.29
	l0.34,0.12c0.11,0.04,0.17,0.05,0.26,0.08c0.83,0.2,1.82,0.23,2.8,0.18c1.99-0.1,4.03-0.45,6.04-0.88c1.01-0.22,2.02-0.46,3.02-0.73
	c0.52-0.12,0.93-0.3,1.65-0.4c0.65-0.1,1.44,0.01,2.05,0.39c0.62,0.37,1.02,0.87,1.35,1.28c0.32,0.42,0.62,0.78,0.82,0.86
	c0.29,0.26,1.34-0.42,2.12-1c1.65-1.21,3.18-2.65,4.67-4.11c1.48-1.47,2.91-3.01,4.25-4.63c-1.12,1.78-2.37,3.48-3.73,5.11
	c-1.36,1.63-2.79,3.18-4.41,4.61c-0.41,0.35-0.84,0.69-1.33,1c-0.25,0.15-0.5,0.31-0.9,0.42c-0.35,0.1-0.81,0.11-1.2-0.04
	c-0.79-0.32-1.14-0.85-1.49-1.22c-0.34-0.39-0.65-0.69-0.96-0.83c-0.3-0.15-0.61-0.17-1-0.1c-0.32,0.05-0.89,0.27-1.39,0.42
	c-1.01,0.32-2.04,0.62-3.07,0.89c-2.07,0.54-4.16,1-6.37,1.17c-1.11,0.08-2.24,0.11-3.46-0.15c-0.16-0.04-0.36-0.09-0.49-0.13
	l-0.41-0.14c-0.23-0.08-0.45-0.15-0.68-0.22c-0.45-0.13-0.88-0.21-1.3-0.24c-0.82-0.06-1.65,0.12-2.59,0.45
	c-0.93,0.32-1.92,0.72-2.9,1.1c-0.55,0.21-1.17,0.4-1.87,0.45c-0.69,0.06-1.49-0.06-2.16-0.38c-0.67-0.31-1.18-0.75-1.6-1.13
	l-1.13-1.09c-0.71-0.67-1.36-1.12-2.23-1.46c-0.89-0.36-1.76-0.6-2.67-0.67c-1.83-0.14-3.99,0.22-6.12,0.29l-0.8,0.03
	c-0.29,0.01-0.58,0.01-0.88,0c-0.59-0.02-1.21-0.1-1.83-0.28c-0.62-0.18-1.26-0.48-1.79-0.91c-0.54-0.43-0.95-0.95-1.27-1.43
	c-0.63-0.98-1.06-1.79-1.67-2.33c-0.57-0.53-1.48-0.94-2.4-1.27c-1.87-0.65-3.91-1.03-5.94-1.29c-1.02-0.12-2.04-0.21-3.05-0.21
	c-0.24,0-0.48,0.01-0.78,0.02c-0.31,0.01-0.62-0.01-0.94-0.08c-0.63-0.12-1.23-0.43-1.68-0.81c-0.91-0.78-1.48-1.66-2.15-2.45
	c-0.65-0.8-1.35-1.53-2.14-2.19c-0.8-0.65-1.65-1.25-2.55-1.77C940.29,302.24,939.34,301.77,938.29,301.62z"/>
<path class="st1" d="M1024.41,291.73l0.09-0.06l0,0.01c-1.74-0.13-3.46-0.32-5.19-0.58c-1.72-0.29-3.41-0.65-5.12-0.86
	c-1.7-0.22-1.8-1-3.49-0.91c-0.84,0.04-3.28,0.79-4.09,0.95c-0.41,0.08-0.81,0.18-1.21,0.29c-0.37,0.11-0.83,0.26-1.28,0.37
	c-1.79,0.44-3.65,0.48-5.44,0.28c-1.79-0.21-3.53-0.63-5.22-1.12l-4.97-1.5c-0.79-0.21-1.7-0.45-2.52-0.71l-2.49-0.78
	c-3.27-1-6.57-1.91-9.66-0.9c-1.81,0.56-3.78,0.55-5.58,0.16c-1.81-0.37-3.5-1.06-5.09-1.86c-1.6-0.8-3.09-1.75-4.54-2.73
	c-0.74-0.51-1.41-0.98-2.14-1.43c-0.72-0.45-1.46-0.95-2.21-1.34c-3.01-1.58-6.37-2.44-9.78-3.07h0.09
	c-2.01,0.64-4.01,0.57-6.02,0.8c1.97-0.44,3.95-0.82,5.93-1.24c0.02,0,0.04,0.01,0.07,0.02l0.02,0.01c1.73,0.19,3.46,0.42,5.19,0.79
	c1.72,0.38,3.42,0.93,5.04,1.66c1.62,0.71,3.18,1.65,4.62,2.57c1.45,0.91,2.94,1.75,4.47,2.48c3.02,1.44,6.38,2.35,9.43,1.4
	c0.85-0.27,1.83-0.47,2.76-0.51c0.94-0.06,1.87-0.01,2.78,0.11c1.82,0.24,3.54,0.75,5.2,1.28l2.47,0.79
	c0.83,0.27,1.6,0.47,2.48,0.72c1.71,0.49,3.33,1.09,4.97,1.6c1.63,0.51,3.27,0.95,4.92,1.18c1.65,0.24,3.31,0.27,4.92-0.06
	c0.4-0.08,0.77-0.19,1.24-0.31c0.44-0.11,0.89-0.2,1.34-0.27c0.89-0.14,1.79-0.19,2.69-0.19c1.79,0.01,3.55,0.23,5.27,0.58
	c1.72,0.34,3.41,0.81,5.08,1.25c0.83,0.21,1.69,0.37,2.53,0.56c0.85,0.18,1.7,0.36,2.55,0.51c0,0,0.01,0,0.01,0.01l0,0
	L1024.41,291.73z"/>
<g>
	<path class="st1" d="M1083.66,609.87l-20.08-133.89c-24.86-1.89-50.02-3.2-74.92-3.86c-9.05-0.29-17.87,1.74-25.71,5.78
		c-6.18-3.92-13.56-6.08-21.56-6.08l-0.53,0c-6.99,0.08-14.07,0.21-21.04,0.4c-11.92,0.23-23.18,4.39-32.23,11.83
		c-0.85-0.57-1.72-1.11-2.61-1.64c-7.98-4.69-16.76-7.07-26.1-7.07c-1.34,0-2.71,0.05-4.07,0.15c-6.97,0.52-14.08,1.1-21.1,1.74
		c-3.02,0.27-5.93,0.85-8.71,1.72c0.09,1.22-0.16,6.98-1.75,11.97c-2.95,9.22-7.62,14.04-7.62,14.04l13.57,120.19L1083.66,609.87z"
		/>
</g>
<path class="st15" d="M848.53,413.84c-0.84-0.52-1.68-1.02-2.51-1.51c-9.48-5.61-20.11-8.74-30.92-10.38
	c-8.23-1.25-35.39-1.9-35.74,11.32c-0.14,5.44,6.38,3.38,9.67,2.72c9.39-1.88,20.79-1.14,30.13,0.96c5.33,1.2,10,4.3,14.57,7.15
	c3.97,2.48,8.2,4.79,11.68,7.94c4.32,3.91,7.1,4.84,8.13,7.52c1.03,2.68,0.23,2.17-0.07,2.17l-0.97,1.4
	c0.5,0.41,3.62,1.09,5.91-5.93c1.24-3.78,4.74-6.68,3.03-10.54C858.91,420.91,853.75,417.06,848.53,413.84z"/>
<g>
	<path d="M990.87,360.59c-1.85,3.5-3.91,6.87-5.97,10.25l-0.79,1.25l-0.87,1.25c-0.64,0.8-1.32,1.57-2.1,2.25
		c-1.56,1.36-3.46,2.32-5.4,2.95c-1.95,0.63-3.94,1-5.91,1.28c-1.98,0.29-3.95,0.49-5.91,0.72c-0.96,0.12-2.04,0.2-3.05,0.2
		c-1.03-0.01-2.05-0.07-3.06-0.19c-2.02-0.22-4-0.63-5.95-1.15c-3.88-1.07-7.63-2.56-11.17-4.46c-1.77-0.96-3.48-2.03-5.1-3.23
		c-1.63-1.2-3.14-2.58-4.44-4.18c-0.64-0.8-1.21-1.72-1.65-2.64c-0.44-0.9-0.83-1.82-1.21-2.75c-0.74-1.86-1.37-3.77-1.81-5.72
		c-0.87-3.9-1.06-7.97-0.31-11.86c-0.35,3.94,0.04,7.9,1.17,11.64c0.56,1.87,1.24,3.7,2.05,5.47c0.41,0.88,0.85,1.75,1.3,2.62
		c0.44,0.85,0.95,1.6,1.57,2.32c1.24,1.43,2.73,2.65,4.3,3.77c1.57,1.11,3.24,2.1,4.97,2.99c3.45,1.77,7.09,3.22,10.83,4.2
		c3.74,1,7.57,1.65,11.38,1.18c3.93-0.37,7.87-0.63,11.56-1.62c1.83-0.52,3.55-1.34,5.04-2.49c0.75-0.57,1.41-1.25,2.05-1.97
		l0.88-1.14l0.86-1.2C986.44,367.13,988.65,363.86,990.87,360.59z"/>
</g>
<g>
	<path d="M948.09,430.53c-0.03,2.36-0.6,4.85-2.19,6.93c-0.8,1.01-1.85,1.88-3.06,2.42c-1.21,0.55-2.56,0.78-3.87,0.7
		c-2.67-0.16-5-1.62-6.65-3.4c-1.67-1.8-2.8-4.11-3.04-6.65c-0.11-1.26,0.01-2.59,0.44-3.83c0.42-1.25,1.13-2.4,2.04-3.38
		c1.8-1.97,4.49-3.18,7.21-3.14c2.71,0.02,5.4,1.29,6.95,3.4C947.51,425.67,948.09,428.17,948.09,430.53z M947.84,430.53
		c0-1.16-0.32-2.31-0.88-3.31c-0.55-1-1.35-1.82-2.22-2.46c-1.78-1.24-3.75-1.9-5.76-1.87c-2,0.02-3.98,0.75-5.5,2.12
		c-1.49,1.39-2.54,3.33-2.79,5.5c-0.26,2.17,0.56,4.54,2.23,6.06c1.67,1.57,4.02,2.04,6.06,1.86c2.07-0.19,4.03-0.87,5.78-2.15
		c0.87-0.64,1.67-1.46,2.22-2.47C947.55,432.85,947.84,431.69,947.84,430.53z"/>
</g>
<g>
	
		<radialGradient id="SVGID_25_" cx="955.9039" cy="741.7616" r="180.9656" gradientTransform="matrix(6.123234e-17 -1 4 2.449294e-16 -2011.1425 1697.6654)" gradientUnits="userSpaceOnUse">
		<stop  offset="0" style="stop-color:#808080"/>
		<stop  offset="1" style="stop-color:#FFFFFF"/>
	</radialGradient>
	<path class="st42" d="M1228.31,550.15c-1.26,6.51-2.53,13.02-3.8,19.53c-0.67,3.06-2.37,5.41-5.07,7.06
		c-2.71,1.65-5.61,2.17-8.72,1.56c-6.68-1.32-13.38-2.59-20.08-3.8c-4.99-0.9-9.26-3.04-12.84-6.45c-3.59-3.4-5.89-7.36-6.89-11.91
		c-0.55-2.5-0.67-5.09-0.35-7.75c0.63-4.35,1.27-8.7,1.9-13.05c-5.14-0.83-10.27-1.63-15.42-2.4c-1.54,10.99-3.09,21.98-4.64,32.98
		c8.93,1.34,17.85,2.77,26.76,4.3c-0.87,5.22-1.74,10.43-2.61,15.65c-8.8-1.51-17.61-2.92-26.43-4.25
		c-1.55,10.99-3.11,21.98-4.66,32.97c4.82,0.72,9.64,1.48,14.46,2.26c0.71-4.34,1.43-8.67,2.14-13.01
		c0.95-6.03,3.99-10.87,9.19-14.45c5.2-3.58,11-4.82,17.33-3.67c6.64,1.2,13.27,2.46,19.9,3.76c5.39,1.07,8.54,4.22,9.42,9.42
		c0.21,1.26,0.21,2.55-0.01,3.88c-1.35,6.49-2.69,12.98-4.04,19.48c-1.21,5.99-4.44,10.68-9.62,14.12
		c-5.18,3.44-10.77,4.58-16.83,3.44c-24.84-4.67-49.78-8.57-74.8-11.69c-4.76-0.59-8.91-2.47-12.46-5.65
		c-3.55-3.18-5.92-6.99-7.08-11.46c-0.64-2.46-0.87-5.04-0.69-7.72c2.44-24.39,4.86-48.78,7.28-73.17c0.61-6.07,3.49-11.06,8.7-14.9
		c5.21-3.84,11.28-5.36,18.14-4.5c27.43,3.41,54.79,7.67,82.02,12.78c5.19,0.97,9.62,3.24,13.25,6.77c3.63,3.53,5.87,7.6,6.72,12.19
		C1228.97,544.96,1228.9,547.53,1228.31,550.15z"/>
	
		<radialGradient id="SVGID_26_" cx="955.9038" cy="741.7626" r="180.9667" gradientTransform="matrix(6.123234e-17 -1 4 2.449294e-16 -2011.1465 1697.6664)" gradientUnits="userSpaceOnUse">
		<stop  offset="0" style="stop-color:#808080"/>
		<stop  offset="1" style="stop-color:#FFFFFF"/>
	</radialGradient>
	<path class="st43" d="M1019.78,560.9c0.55-14.01,1.11-28.02,1.65-42.03c5.08,0.23,10.16,0.49,15.23,0.78c-0.71,14-1.42,28-2.14,42
		C1029.62,561.38,1024.7,561.12,1019.78,560.9z M1089.54,559.39c0.97-10.94,1.94-21.87,2.91-32.81c0-1.96-0.28-3.43-0.74-5.01
		c-1.29-4.39-3.88-8.31-7.77-11.39c-3.89-3.08-8.43-5.01-13.58-5.43c-27.03-2.21-54.11-3.6-81.2-4.17
		c-6.77-0.14-12.55,2.2-17.25,6.48c-3.98,3.62-6.23,7.72-6.83,12.91c-0.01,0.32-0.02,0.63-0.03,0.95
		c0.1,32.58,0.19,65.16,0.26,97.74c3.7,0.07,7.41,0.15,11.11,0.25c9.96,0.13,19.92,0.37,29.87,0.74c3.08,0.11,5.73-0.96,7.98-2.98
		c2.24-2.02,3.39-4.62,3.42-7.69c0.25-5.77,0.5-11.54,0.75-17.31c0.01-1.23,0.62-13.81,0.69-15.38
		c5.05,10.98,9.96,21.98,14.72,33.02c1.19,3.13,3.31,5.9,6.35,8.21c3.04,2.31,6.02,3.63,8.95,3.84c9.96,0.72,19.92,1.56,29.87,2.53
		c3.51,0.34,5.88-0.71,7.12-3.22c0.97-1.95,0.97-4.2,0-6.94c-4.32-11.24-8.78-22.46-13.39-33.65c-0.16-0.42-0.32-0.83-0.48-1.25
		c4.54-1.18,8.47-3.53,11.66-7.02c3.19-3.49,5.1-7.57,5.57-12.23C1089.53,559.52,1089.53,559.45,1089.54,559.39z"/>
	<g>
		
			<radialGradient id="SVGID_27_" cx="955.9036" cy="741.7607" r="180.9655" gradientTransform="matrix(6.123234e-17 -1 4 2.449294e-16 -2011.1393 1697.6643)" gradientUnits="userSpaceOnUse">
			<stop  offset="0" style="stop-color:#808080"/>
			<stop  offset="1" style="stop-color:#FFFFFF"/>
		</radialGradient>
		<path class="st44" d="M820.76,530.62c0.73,6.54,1.45,13.09,2.18,19.64c0.27,3.1-0.63,5.84-2.7,8.22c-2.07,2.39-4.73,3.76-8,4.14
			c-6.7,0.78-13.4,1.61-20.09,2.49c-4.98,0.66-9.65-0.08-14.05-2.22c-4.4-2.14-7.75-5.19-10.04-9.19c-1.26-2.2-2.06-4.63-2.39-7.27
			c-0.69-4.31-1.37-8.62-2.06-12.93c-5.11,0.77-10.21,1.57-15.31,2.39c4.39,26.95,8.78,53.9,13.17,80.85
			c4.78-0.78,9.57-1.53,14.36-2.25c-0.68-4.31-1.37-8.62-2.05-12.93c-0.89-6,0.56-11.5,4.42-16.47c3.86-4.97,9.06-7.91,15.54-8.76
			c6.63-0.87,13.27-1.7,19.91-2.47c5.41-0.63,9.31,1.41,11.68,6.07c0.57,1.13,0.95,2.35,1.13,3.67c0.65,6.55,1.3,13.11,1.95,19.66
			c0.63,6.04-1.03,11.46-4.9,16.28c-3.87,4.83-8.81,7.6-14.87,8.36c-24.85,3.11-49.64,6.98-74.31,11.62
			c-4.7,0.88-9.19,0.37-13.51-1.57c-4.32-1.93-7.7-4.82-10.13-8.71c-1.34-2.14-2.32-4.51-2.94-7.1
			c-4.91-23.84-9.81-47.69-14.72-71.53c-1.21-5.94,0.05-11.54,3.87-16.76c3.82-5.22,9.05-8.48,15.66-9.72
			c27.04-5.09,54.2-9.33,81.43-12.74c5.19-0.65,10.04,0.16,14.51,2.4c4.47,2.25,7.78,5.42,9.93,9.5
			C819.61,525.53,820.39,527.98,820.76,530.62z"/>
	</g>
	
		<radialGradient id="SVGID_28_" cx="955.9038" cy="741.7621" r="180.9659" gradientTransform="matrix(6.123234e-17 -1 4 2.449294e-16 -2011.1444 1697.6659)" gradientUnits="userSpaceOnUse">
		<stop  offset="0" style="stop-color:#808080"/>
		<stop  offset="1" style="stop-color:#FFFFFF"/>
	</radialGradient>
	<path class="st45" d="M957.34,511.66c0.33,35.65,0.64,71.29,0.93,106.94c-32.62,0.07-65.24,1.44-97.78,4.11
		c-4.78,0.39-9.2-0.6-13.33-2.98c-4.12-2.38-7.21-5.63-9.25-9.76c-1.13-2.28-1.88-4.75-2.25-7.4c-2.98-28.05-5.97-56.09-8.97-84.14
		c-0.28-3.11,0.67-5.87,2.84-8.25c2.18-2.38,4.99-3.74,8.43-4.05c7.03-0.65,14.07-1.24,21.11-1.77c5.24-0.4,10.08,0.65,14.47,3.12
		c4.4,2.47,7.59,5.83,9.57,10.03c1.1,2.32,1.69,4.82,1.79,7.5c1.64,25.92,3.28,51.84,4.91,77.77c4.85-0.28,9.71-0.53,14.56-0.75
		c-1.32-25.94-2.65-51.88-3.99-77.82c-0.3-6.09,1.79-11.45,6.37-16.03c4.57-4.58,10.33-6.99,17.23-7.18
		c7.05-0.19,14.11-0.33,21.16-0.41c5.74-0.07,9.63,2.38,11.64,7.28C957.26,509.06,957.44,510.32,957.34,511.66z"/>
</g>
<linearGradient id="SVGID_29_" gradientUnits="userSpaceOnUse" x1="797.0568" y1="760.1539" x2="761.1557" y2="685.2751" gradientTransform="matrix(0.9998 -0.0215 0.0215 0.9998 -26.5775 60.2285)">
	<stop  offset="0" style="stop-color:#ED2426"/>
	<stop  offset="0.7636" style="stop-color:#F69334"/>
</linearGradient>
<path class="st46" d="M808.51,710.31c0.28,2.71,0.57,5.42,0.87,8.12c-3.65,2.44-7.25,4.92-10.82,7.44
	c4.26,14.35,7.8,24.89,10.6,31.62c0.29,1.01,1.35,3.2,3.14,6.57c1.31,2.66,2.23,4.9,2.75,6.69c0.2,0.68,0.3,1.74,0.33,3.19
	c1.2,2.33,3.11,5.73,5.68,10.23c-0.94,0.75-2.25,1.8-3.91,3.14c-1.42-0.43-3.55-0.9-6.42-1.36c-1.35,3.23-2.27,5.79-2.82,7.69
	c-0.98-0.05-1.97-0.1-2.96-0.15c-0.83,1.01-1.66,2.02-2.49,3.04c-2.2-2.72-4.74-6.18-7.65-10.37
	c-13.51,10.59-24.29,18.08-33.31,22.02c-10.36,4.54-20.75,4.35-31.85-0.63c-9.85-4.54-17.58-11.44-22.79-21.13
	c-5.8-10.81-8.4-23.06-7.08-36.88c1.12-12.91,5.54-26.08,13.62-39.19c9.26-14.91,23.78-28.2,43.31-38.71
	c0.64,2.13,1.29,4.26,1.93,6.38c-0.72,2.72-1.41,5.43-2.09,8.15c0.99,0.96,1.97,1.91,2.95,2.87c-0.4,0.26-0.79,0.52-1.18,0.78
	c-0.76,1.07-1.51,2.14-2.26,3.21c-0.48,0.24-0.96,0.47-1.45,0.7c-0.1,0.84-0.2,1.69-0.3,2.53c1.65-0.78,3.31-1.56,4.97-2.33
	c0.57-1.13,1.14-2.26,1.72-3.38c0.76,0.79,1.51,1.58,2.26,2.38c-0.88,2.1-1.75,4.19-2.61,6.29c2.09,1.87,4.17,3.75,6.23,5.64
	c-17.23,13.36-26.96,28.68-29.68,44.63c-1.73,9.82-1.2,17.37,1.21,22.69c1.98,4.37,5.39,7.05,10.14,8.15
	c4.76,1.1,9.63,0.6,14.73-1.47c4.98-2.02,10.69-6.03,17.4-11.92c-1.75-1.73-5.12-6.79-10.23-15.13
	c-5.37,5.97-11.13,13.05-17.08,21.28c-0.28-2.04-0.58-5.15-0.85-9.35c0.58-0.37,1.17-0.74,1.75-1.1c0.62-0.82,1.24-1.64,1.86-2.47
	c0.29-0.18,0.59-0.36,0.88-0.55c0.16-0.69,0.32-1.39,0.49-2.08c-1.27,0.51-2.54,1.02-3.8,1.54c-0.43,0.94-0.86,1.87-1.28,2.81
	c-1.35-0.58-2.7-1.16-4.06-1.73c0.22-1.24,0.75-3.17,1.61-5.81c-1.16-0.28-2.33-0.55-3.5-0.82c-0.08-1.99-0.04-3.53,0.12-4.61
	c2.69-3.39,6.98-8.31,13.09-14.62c-0.42-0.72-0.84-1.43-1.27-2.15c2.29-1.99,5.91-4.97,10.94-8.85c-0.09-0.46-0.18-0.93-0.26-1.39
	c9.74-7.87,21.7-15.83,36.01-23.44c0.06,1.92,0.44,4.73,1.15,8.41c-0.63,0.72-1.25,1.43-1.87,2.15c-1.52,0.42-3.05,0.85-4.57,1.28
	c-1.67,2.79-3.31,5.58-4.92,8.38c1.8-0.91,3.62-1.8,5.44-2.69c1.06-1.22,2.12-2.43,3.19-3.64c0.54-0.21,1.07-0.42,1.61-0.63
	c0.11-0.15,0.22-0.3,0.32-0.45C806.47,710.98,807.49,710.64,808.51,710.31z M727.28,796.39c-1.82-1.7-3.64-3.4-5.48-5.09
	c0.13,1.44,0.27,2.88,0.41,4.32c0.74,1,1.48,2,2.21,3.01c0.01,0.45,0.02,0.91,0.03,1.36c0.79,0.38,1.58,0.77,2.36,1.16
	C726.96,799.56,727.12,797.98,727.28,796.39z M746.99,705.2c-0.95,0.68-1.9,1.35-2.84,2.03c-0.51,0.76-1.02,1.52-1.52,2.29
	c-0.26,0.16-0.51,0.33-0.77,0.49c-0.09,0.6-0.17,1.2-0.26,1.8c1.07-0.55,2.14-1.1,3.21-1.64
	C745.53,708.51,746.26,706.85,746.99,705.2z M753.43,688.42c-1.78,1.19-3.54,2.4-5.3,3.61c-1.02,1.44-2.04,2.88-3.04,4.32
	c-0.55,0.27-1.1,0.54-1.65,0.81c-0.14,1.12-0.29,2.24-0.43,3.36c2.12-1.06,4.23-2.12,6.36-3.15
	C750.7,694.38,752.05,691.4,753.43,688.42z M786.4,718.04c-1.37,0.43-2.73,0.87-4.09,1.31c-0.98,1.85-1.95,3.71-2.9,5.57
	c1.14-0.63,2.28-1.25,3.43-1.87c0.63-0.82,1.27-1.64,1.9-2.46c0.41-0.13,0.81-0.26,1.22-0.39
	C786.1,719.48,786.25,718.76,786.4,718.04z"/>
<linearGradient id="SVGID_30_" gradientUnits="userSpaceOnUse" x1="878.6896" y1="735.121" x2="867.4063" y2="630.4975" gradientTransform="matrix(0.9998 -0.0215 0.0215 0.9998 -26.5775 60.2285)">
	<stop  offset="0" style="stop-color:#ED2426"/>
	<stop  offset="0.7636" style="stop-color:#F69334"/>
</linearGradient>
<path class="st47" d="M908.18,740.69c-0.81,0.31-1.61,0.63-2.42,0.94c-1,2.81-1.64,4.52-1.96,5.14c-0.85,1.62-2.09,2.99-3.73,4.12
	c0.28,0.21,0.23,0.39-0.13,0.55c-0.37,0.04-1.1-0.23-2.18-0.8c-1.09-0.58-1.82-0.84-2.19-0.79c-0.24,0.15-0.29,0.27-0.14,0.37
	c-2.28,1.11-5.66,2.9-10.1,5.44c-4.21-8.84-8.54-18.28-13.03-28.33c-6.32,3.29-14.78,8.42-24.93,15.69
	c0.31,8.07,0.93,16.03,1.83,23.86c-0.22,0.17-0.45,0.28-0.69,0.34c-0.37,0.08-0.97-0.2-1.82-0.84c-0.86-0.64-1.4-0.93-1.65-0.88
	c-0.85,0.2-1.33,1.31-1.42,3.31c-0.09,2.01-0.33,3.24-0.73,3.7c-0.06-0.23-0.15-0.33-0.26-0.3c-0.24,0.06-1.01,0.94-2.29,2.65
	c-1.28,1.71-2.02,2.65-2.22,2.83c0.74-1.52,0.74-3.81-0.04-6.87c0.18-0.53,0.37-1.06,0.56-1.59c-0.65-0.8-1.3-1.6-1.96-2.4
	c-0.86,1.97-1.7,3.94-2.52,5.91c0.81,2.08,1.61,4.17,2.41,6.26c-0.97,0.86-1.88,1.4-2.74,1.63c-0.99,0.27-1.79-0.12-2.41-1.16
	c-0.62-1.04-0.99-1.55-1.11-1.51c-0.5,0.14-0.94,1.47-1.29,4c-1.75-8.49-4.06-18.02-7-28.6c-6.55-23.62-11.42-52.67-12.68-87.45
	c3.04-1.63,7.53-4.09,13.56-7.28c1.12-0.61,3.29-2.43,6.58-5.42c2.11-1.89,5-3.22,8.63-3.95c2.43-0.48,7.18-2.63,14.43-6.27
	c-0.44,2.92-0.71,5.82-0.82,8.69c1.44-0.61,3.6-1.59,6.5-2.9c0.62-0.93,1.83-2.14,3.62-3.61c0.44-0.19,1.02-0.46,1.75-0.81
	c-0.46,1.55-0.92,3.1-1.37,4.65c2.38,2.29,4.74,4.58,7.07,6.9c0.16-2.03,0.31-4.07,0.48-6.1c-0.83-1.41-1.65-2.83-2.49-4.24
	c0.07-0.54,0.15-1.09,0.22-1.63c-0.42-0.23-0.85-0.46-1.28-0.69c2.88-1.62,7.41-3.82,13.66-6.5c2.58,17.95,7.42,37.54,13.83,58.93
	c2.3-0.85,5.34-2.01,9.16-3.44c-0.03,1.18-0.06,3-0.1,5.47c-0.06,0.83-0.7,1.77-1.91,2.84c-1.21,1.07-1.75,2.24-1.61,3.52
	c0.05,0.47,0.54,1.15,1.46,2.05c0.92,0.9,1.42,1.76,1.5,2.58c0.06,0.58,0.05,1.49-0.03,2.73c-0.08,1.24-0.08,2.16-0.02,2.74
	c-0.85,0.32-1.7,0.65-2.54,0.97C902.34,723.99,905.2,732.51,908.18,740.69z M832.58,749.95c-0.29-0.35-0.58-0.7-0.87-1.05
	c-0.44,0.9-0.88,1.8-1.32,2.69c0.48,1.33,0.96,2.65,1.43,3.98c0.23-0.9,0.46-1.81,0.7-2.72c-0.11-0.7-0.22-1.39-0.33-2.09
	C832.32,750.5,832.45,750.22,832.58,749.95z M840.04,755.15c-0.41-0.62-0.83-1.24-1.24-1.87c-0.65,1.42-1.29,2.84-1.92,4.27
	c0.74,1.92,1.48,3.85,2.22,5.77c1.02-2.66,1.24-5.06,0.59-7.19C839.81,755.8,839.92,755.47,840.04,755.15z M863.13,707.35
	c-4.83-10.67-9.43-21.41-13.75-32.26c-1.92,19.06-2.51,33.46-2.41,43.24C852.74,713.89,858.16,710.25,863.13,707.35z M868.68,663.96
	c-0.51-0.87-1.02-1.74-1.53-2.6c0.02-0.36,0.04-0.72,0.06-1.07c-0.67-0.37-1.33-0.74-2-1.11c-0.39,1.42-0.77,2.85-1.14,4.27
	c1.44,1.43,2.87,2.86,4.29,4.3C868.47,666.48,868.57,665.22,868.68,663.96z"/>
<linearGradient id="SVGID_31_" gradientUnits="userSpaceOnUse" x1="982.5746" y1="719.3825" x2="986.6775" y2="626.0421" gradientTransform="matrix(0.9998 -0.0215 0.0215 0.9998 -26.5775 60.2285)">
	<stop  offset="0" style="stop-color:#ED2426"/>
	<stop  offset="0.7636" style="stop-color:#F69334"/>
</linearGradient>
<path class="st48" d="M1036.95,740.97c-1.91,1.24-4.77,3.17-8.51,5.84c-1.32-1.72-2.9-3.94-4.78-6.66c-1.1,1.39-2.73,3.48-4.87,6.29
	c0.66,1.97,1.62,4.15,2.85,6.54c-2.47,0.39-6.11,0.95-10.87,1.74c-7.75-21.28-14.54-39.74-19.18-55.59
	c-7.85,14.65-13.1,29.63-16.26,44.74c-0.38-0.01-0.58,0.22-0.6,0.69c-0.01,0.47,0.09,1.14,0.32,2.03c0.22,0.89,0.33,1.5,0.32,1.85
	c-0.02,0.47-0.21,0.64-0.59,0.51c0.1,0.71-0.35,1.04-1.35,1.01c-0.38-0.07-0.75-0.14-1.13-0.21c-0.1-1.11-0.2-2.23-0.3-3.34
	c0.2-0.46,0.4-0.93,0.61-1.39c-0.61-0.95-1.23-1.9-1.85-2.85c-1.06,1.67-2.11,3.35-3.16,5.03c0.49,1.35,0.97,2.71,1.45,4.06
	c-2.14,0.72-4.27,1.45-6.38,2.2c-7.9-10.45-14.99-19.54-20.92-27.4c-0.35,5.04-0.84,15.24-1.33,30.59
	c-0.26,0.01-0.52,0.02-0.77,0.03c-0.64,0.03-1.49-0.14-2.54-0.5c-1.05-0.36-1.83-0.52-2.35-0.5c-0.75,0.04-1.54,0.5-2.36,1.36
	c0.05-0.18,0.1-0.36,0.16-0.54c-0.49-1.03-0.99-2.05-1.49-3.08c0.04-0.41,0.08-0.82,0.11-1.24c-0.66-0.49-1.32-0.98-1.98-1.46
	c-0.36,1.37-0.71,2.74-1.06,4.11c1.02,1.28,2.04,2.57,3.05,3.85c-0.8,0.05-1.61,0.1-2.41,0.15c-0.09,1.47-0.18,2.94-0.27,4.41
	c-0.6,0.16-4.3,1.32-10.96,3.67c-4.3-24.62-7.35-43.71-8.65-57.33c-1.73-17.92-1.72-34.38,0.44-49.36c3.06-0.27,6.12-0.51,9.18-0.73
	c-0.74,1.22-1.47,2.45-2.2,3.68c1.41,2.83,2.8,5.66,4.17,8.49c0.61-1.74,1.23-3.48,1.86-5.22c-0.39-1.5-0.79-2.99-1.19-4.49
	c0.27-0.49,0.53-0.97,0.8-1.46c-0.4-0.38-0.8-0.77-1.2-1.15c0.45-0.03,1.15-0.14,2.12-0.31c0.96-0.18,1.67-0.28,2.12-0.31
	c1.04-0.06,2.06,0.56,3.03,1.85c0.97,1.29,2.04,1.91,3.23,1.85c1.19-0.06,4.17-1.32,9.03-3.71c2.46-2.42,5.25-5.08,8.38-7.94
	c0.17,1.28,0.35,2.57,0.52,3.85c1.65-0.61,3.23-0.93,4.74-0.94c-2.35,6.23-3.45,10.63-3.41,13.2c0.11,6.55,1.45,14.18,3.88,22.93
	c2.42,8.75,5.24,15.87,8.47,21.38c0.39-17.18,4.67-38.43,14.55-63.42c3.04,0.33,6.91,1.05,11.57,2.21c0.09-1.87,0.19-3.74,0.28-5.61
	c3.44-1.17,6.9-2.32,10.39-3.44c-0.36,0.79-0.73,1.59-1.08,2.39c1.41,2.02,2.81,4.05,4.19,6.09c0.25-1.33,0.5-2.66,0.75-3.99
	c-0.46-1.09-0.92-2.18-1.38-3.27c0.1-0.34,0.2-0.69,0.31-1.03c-0.29-0.31-0.58-0.63-0.87-0.94c1.91-0.56,8.23-2.62,19.26-5.75
	c-0.03,1.88,0.18,5.25,0.61,10.11c1.62-0.65,4.05-1.63,7.33-2.9C1026.73,675.67,1030.36,708.71,1036.95,740.97z M930.94,677.71
	c-0.56-1.02-1.12-2.05-1.69-3.07c0.05-0.35,0.11-0.71,0.16-1.06c-0.76-0.54-1.52-1.09-2.29-1.63c-0.36,1.37-0.72,2.74-1.07,4.1
	c1.64,1.89,3.27,3.79,4.88,5.7C930.93,680.4,930.93,679.05,930.94,677.71z M965.82,738.74c-0.44-1.06-0.88-2.11-1.32-3.17
	c0.07-0.35,0.14-0.7,0.2-1.05c-0.64-0.59-1.29-1.18-1.94-1.77c-0.4,1.4-0.8,2.8-1.19,4.2c1.29,1.93,2.56,3.87,3.82,5.82
	C965.53,741.43,965.67,740.09,965.82,738.74z"/>
<linearGradient id="SVGID_32_" gradientUnits="userSpaceOnUse" x1="1096.4771" y1="719.3118" x2="1102.6313" y2="652.6399" gradientTransform="matrix(0.9998 -0.0215 0.0215 0.9998 -26.5775 60.2285)">
	<stop  offset="0" style="stop-color:#ED2426"/>
	<stop  offset="0.7636" style="stop-color:#F69334"/>
</linearGradient>
<path class="st49" d="M1149.3,653.58c-2.09,2.41-3.81,5.06-5.19,7.94c-0.67-0.21-1.34-0.41-2.01-0.62c-1.25,0.11-2.5,0.22-3.76,0.33
	c-0.35-0.17-0.71-0.33-1.06-0.5c-0.84,0.36-1.67,0.73-2.5,1.09c1.36,0.58,2.72,1.17,4.08,1.76c1.64-0.36,3.29-0.71,4.95-1.06
	c-0.39,0.74-0.99,1.9-1.8,3.48c-3.35,0.38-6.68,0.78-10,1.21c3.19,1.11,6.37,2.25,9.54,3.42c-1.32,1.67-3.26,4.32-5.78,7.95
	c-19.49-2.25-36.25-2.39-50.18-1.17c-1.31,3.31-2.43,6.54-3.39,9.68c10.02-0.64,21.42-0.8,34.21-0.22c-0.39,0.87-0.95,2.1-1.7,3.72
	c2.69,0.13,6.76,0.46,12.24,1.1c-1.47,1.88-3.39,4.79-5.73,8.74c-1.79-0.03-3.55-0.16-5.27-0.4c0.26,0.68,0.78,1.74,1.57,3.17
	c-0.67,0.78-1.33,1.81-1.98,3.08c-11.4-0.4-18.05-0.34-20.07-0.37c-7.41,0.13-13.86,0.81-19.33,1.95
	c-1.45,4.95-2.8,10.53-4.08,16.71c-0.73,3.55-1.53,7.74-2.39,12.58c4.52-1.21,9.72-2.48,15.62-3.73c0.66,0.7,1.31,1.39,1.96,2.09
	c5.73-1.14,13.83-2.19,24.43-2.79c-0.26,0.41-2.47,3.85-6.5,10.37c1.97-0.17,3.45-0.29,4.44-0.37c-1.58,3.08-2.57,5.35-2.99,6.8
	c-22.68,2.22-44.79,8.83-65.27,19.54c-0.09-2.5-0.11-3.92-0.06-4.27c0.11-0.69,0.48-1.67,1.12-2.93c0.64-1.26,1.01-2.24,1.12-2.93
	c-1.19-1.97-2.21-3.54-3.03-4.74c0.46-0.52,1.06-1.55,1.81-3.09c-0.76-0.06-1.51-0.11-2.26-0.17c-0.03-0.24-0.05-0.48-0.08-0.72
	c0.71-0.48,2.03-1.23,3.98-2.23c0.2-9.44,0.78-20.53,1.75-33.28c-1.6,0.59-4.09,1.34-7.48,2.29c-0.42-2.89-0.81-5.07-1.17-6.53
	c0.92-1.76,1.81-3.23,2.66-4.42c-0.95-0.66-1.9-1.32-2.85-1.98c0.73-2.38,1.8-5.25,3.24-8.59c3.52-0.94,6.11-1.68,7.76-2.27
	c0.5-3.35,1-6.71,1.5-10.06c-3.59,0.77-9.06,2.05-16.29,4.01c0.57-1.11,3.06-4.82,7.67-11.06c-0.6-1.02-1.49-2.55-2.71-4.59
	c2.55-1.56,4.58-2.95,6.08-4.16c-0.52-0.54-0.91-1.77-1.18-3.7c-0.27-1.92-0.59-3.2-0.96-3.84c1.74-1.78,3.05-3.14,3.94-4.08
	c15.88-3.04,30.73-4.89,44.33-5.86c0.51-0.91,1.02-1.82,1.53-2.73C1111.04,647.43,1130.33,649.57,1149.3,653.58z M1049.64,751.1
	c-1.13-0.14-2.26-0.27-3.39-0.4c-0.94,0.26-1.88,0.52-2.81,0.79c-0.37-0.06-0.75-0.12-1.12-0.18c-0.58,0.44-1.16,0.88-1.73,1.33
	c1.08,0.4,2.16,0.81,3.23,1.22C1045.75,752.93,1047.69,752.01,1049.64,751.1z M1058.33,745.9c-0.69-0.13-1.38-0.26-2.07-0.39
	c-0.68,0.17-1.37,0.34-2.05,0.52c-0.19-0.04-0.38-0.07-0.57-0.1c-0.38,0.29-0.75,0.58-1.13,0.87c0.73,0.25,1.47,0.5,2.2,0.75
	C1055.92,747,1057.12,746.45,1058.33,745.9z M1109.56,690.64c-1.28-0.28-2.57-0.55-3.85-0.82c-1.09,0.14-2.17,0.29-3.26,0.44
	c-0.42-0.1-0.84-0.21-1.27-0.32c-0.69,0.37-1.38,0.74-2.07,1.12c1.28,0.55,2.56,1.11,3.83,1.68
	C1105.14,692.03,1107.35,691.33,1109.56,690.64z M1125.36,664.22c-0.96-0.27-1.92-0.53-2.88-0.8c-0.91,0.12-1.81,0.23-2.72,0.35
	c-0.28-0.14-0.56-0.27-0.84-0.41c-0.55,0.28-1.1,0.55-1.65,0.83c0.99,0.44,1.97,0.89,2.96,1.34
	C1121.93,665.09,1123.64,664.65,1125.36,664.22z"/>
<linearGradient id="SVGID_33_" gradientUnits="userSpaceOnUse" x1="1004.4768" y1="752.314" x2="1032.746" y2="661.0284">
	<stop  offset="0" style="stop-color:#ED2426"/>
	<stop  offset="0.7636" style="stop-color:#F69334"/>
</linearGradient>
<path class="st50" d="M1222.37,708.91c-1.96,0.49-3.91,0.99-5.86,1.5c-1.42-0.79-2.84-1.58-4.27-2.36c1.07-0.48,2.14-0.95,3.21-1.42
	c0.45,0.14,0.89,0.29,1.34,0.43c1.54-0.19,3.09-0.37,4.64-0.54c0.07,0.03,0.14,0.07,0.21,0.1c-1.63-2.39-3.29-4.77-4.96-7.15
	c3.04-2.85,4.72-4.58,5.02-5.22c-3.34,0.97-6.65,1.96-9.95,2.98c-1.93-1.06-3.87-2.1-5.82-3.14c1.45-0.77,2.9-1.54,4.36-2.3
	c0.6,0.2,1.2,0.4,1.81,0.6c2.11-0.28,4.23-0.54,6.35-0.79c1.09,0.3,2.17,0.61,3.26,0.91c-0.19-0.73-0.85-2.52-2.03-5.37
	c-1.07-2.28-1.61-4.06-1.57-5.32c-21.38-1.97-41.76,0.24-60.55,6.2c-23.46,7.42-36.09,18.42-39.66,30.87
	c-2.09,7.35,0.79,14.87,8.13,22.82c1.89,2.1,9.23,8.25,21.06,19.13c7.47,6.8,10.33,12.01,8.98,15.36
	c-2.08,5.25-12.59,9.31-30.42,13.81c-5.59,0.24-35.26,0.89-84.16-8.75c-5.75-1.13-11.05-2-16-2.66c1.29,0.48,2.58,0.97,3.87,1.47
	c-2.75,0.34-5.48,0.7-8.21,1.08c-1.19-0.73-2.38-1.46-3.57-2.18c0.91-0.28,1.81-0.56,2.72-0.84c0.38,0.13,0.75,0.26,1.13,0.39
	c1.12-0.01,2.25-0.01,3.37-0.01c-25.27-3.33-41.03-1.37-58.68-2.84c-21.23-1.77-73.5,1.9-91.33,6.42
	c-12.93,3.28-27.39,9.06-41.22,15.5c0.62-0.05,1.23-0.11,1.85-0.15c1.41,0.4,2.81,0.81,4.22,1.23c-2.71,0.55-5.41,1.13-8.09,1.73
	c-0.63-0.32-1.26-0.64-1.89-0.96c-29.6,14.14-55.32,30.54-55.34,30.55c17.3-9,37.71-14.77,56-21.48c24.63-9.04,50.09-16.79,76.47-18
	c32.77-1.5,65-0.92,97.43,3.89c28.95,4.29,58.07,7.63,86.81,13.28c14.64,2.87,50.1-1.42,56.96-4.89c7.06-2.16,13.62-4.62,19.64-7.47
	c10.99-5.07,18.39-10.75,21.66-17.62c3.22-6.74,2.84-13.57-1.44-20.4c-1.47-2.2-6.05-7.33-14.16-15.11
	c-5.26-5.06-7.41-9.01-6.26-11.96c3.34-8.45,20.81-14.75,54.34-14.19c0.4-1.88,0.79-3.77,1.18-5.66
	C1222.77,709.87,1222.57,709.39,1222.37,708.91z M912.15,789.27c-1.22-0.67-2.45-1.33-3.68-1.99c0.89-0.33,1.78-0.65,2.68-0.98
	c0.38,0.11,0.76,0.22,1.15,0.33c1.27-0.08,2.54-0.15,3.81-0.21c1.4,0.44,2.79,0.88,4.19,1.34
	C917.57,788.24,914.85,788.75,912.15,789.27z M1103.85,802.57c-1.33-0.41-2.66-0.82-4-1.23c0.81-0.5,1.62-0.99,2.43-1.49
	c0.4,0.03,0.79,0.07,1.19,0.1c1.23-0.33,2.46-0.65,3.69-0.96c1.45,0.15,2.91,0.32,4.37,0.49
	C1108.95,800.49,1106.39,801.52,1103.85,802.57z M1137.16,793.89c-1.6-0.66-3.17-1.27-4.6-1.81c3.4-1.64,7.15-2.01,11.21-1.06
	C1141.55,791.96,1139.35,792.92,1137.16,793.89z M1150.03,794.27c-1.33-0.41-2.66-0.82-4-1.23c0.81-0.5,1.62-0.99,2.43-1.49
	c0.4,0.03,0.79,0.07,1.19,0.1c1.23-0.33,2.46-0.65,3.69-0.96c1.45,0.15,2.91,0.32,4.37,0.49
	C1155.13,792.19,1152.57,793.21,1150.03,794.27z M1200.55,703.04c-1.25-0.6-2.5-1.2-3.75-1.8c0.91-0.57,1.82-1.13,2.73-1.7
	c0.36,0.15,0.71,0.3,1.07,0.46c1.29-0.27,2.59-0.54,3.89-0.8c1.35,0.4,2.71,0.8,4.06,1.21
	C1205.86,701.27,1203.2,702.14,1200.55,703.04z"/>
</svg>
