<?xml version="1.0" encoding="utf-8"?>
<!-- Generator: Adobe Illustrator 24.1.2, SVG Export Plug-In . SVG Version: 6.00 Build 0)  -->
<svg version="1.1" id="Layer_1" xmlns="http://www.w3.org/2000/svg" xmlns:xlink="http://www.w3.org/1999/xlink" x="0px" y="0px"
	 viewBox="0 0 1920 1080" style="enable-background:new 0 0 1920 1080;" xml:space="preserve">
<style type="text/css">
	.st0{fill:#FFFFFF;}
	.st1{fill-rule:evenodd;clip-rule:evenodd;fill:#FFFFFF;}
</style>
<g>
	<path class="st0" d="M1043.95,429.75h-11.45l-20.84,51.76h-40.08l38.25-94.59c2.59-6.41,5.65-12.03,9.16-16.83
		c3.51-4.81,7.75-8.78,12.71-11.91c4.96-3.13,10.76-5.5,17.41-7.1c6.64-1.6,14.39-2.4,23.25-2.4h105.13l-12.14,30.23h-87.49
		c-9.62,0-16.87,1.83-21.76,5.5c-4.89,3.66-8.63,8.7-11.22,15.12h112.23l-12.37,30.23H1043.95z"/>
</g>
<path class="st0" d="M1055.93,517.93h39.94l-53.72,133.15h-39.94L1055.93,517.93z M1258.16,517.93h-152.43l-12.17,30.3h55.1
	l-41.55,102.84h39.95l41.55-102.84h57.39L1258.16,517.93z M1304.74,553.74c4.9-3.67,12.17-5.51,21.81-5.51h87.69l12.17-30.3h-105.37
	c-8.88,0-16.64,0.8-23.3,2.41c-6.66,1.61-12.47,3.98-17.45,7.12c-4.98,3.14-9.22,7.12-12.74,11.94c-3.52,4.82-6.58,10.44-9.18,16.87
	l-22.96,56.47c-2.6,6.43-4.06,12.05-4.36,16.87c-0.31,4.82,0.73,8.8,3.1,11.94c2.37,3.14,6.27,5.51,11.71,7.11
	c5.43,1.61,12.59,2.41,21.46,2.41h105.37l12.17-30.3h-87.69c-9.64,0-15.42-1.84-17.33-5.51c-1.92-3.67-1.49-9.03,1.26-16.07h11.48
	h101.01l12.4-30.3h-112.49C1296.09,562.46,1299.84,557.41,1304.74,553.74z"/>
<path class="st0" d="M592.76,481.51h-39.85l53.59-132.84h39.85l-20.38,50.84h71.92l20.38-50.84h40.31l-53.59,132.84h-40.31
	l20.84-51.76h-71.92L592.76,481.51z"/>
<path class="st0" d="M846.94,429.75h-60.69l-20.84,51.76h-40.08l38.25-94.59c2.59-6.41,5.65-12.03,9.16-16.83
	c3.51-4.81,7.75-8.78,12.71-11.91c4.96-3.13,10.76-5.5,17.41-7.1c6.64-1.6,14.39-2.4,23.25-2.4h57.95c8.85,0,15.95,0.77,21.3,2.29
	c5.34,1.53,9.24,3.86,11.68,6.98c2.44,3.13,3.51,7.07,3.21,11.8c-0.31,4.74-1.76,10.23-4.35,16.49l-38.48,95.28h-39.85l20.84-51.76
	H846.94z M850.37,399.52h20.38c1.22-3.21,1.95-6.07,2.18-8.59c0.23-2.52-0.23-4.7-1.37-6.53c-1.14-1.83-3.13-3.21-5.96-4.12
	c-2.83-0.91-6.61-1.37-11.34-1.37h-22.67c-9.62,0-16.87,1.83-21.76,5.5c-4.89,3.66-8.63,8.7-11.22,15.12H850.37z"/>
<path class="st0" d="M1043.16,429.75h-11.45l-20.84,51.76h-40.08l38.25-94.59c2.59-6.41,5.65-12.03,9.16-16.83
	c3.51-4.81,7.75-8.78,12.71-11.91c4.96-3.13,10.76-5.5,17.41-7.1c6.64-1.6,14.39-2.4,23.25-2.4h105.13l-12.14,30.23h-87.49
	c-9.62,0-16.87,1.83-21.76,5.5c-4.89,3.66-8.63,8.7-11.22,15.12h112.23l-12.37,30.23H1043.16z"/>
<path class="st1" d="M1019.09,313.55l-81.23,188.93l98.23-0.99l-72.83,168.36l79.53-1.37L930.84,869.67l51.86-155.9l-82.75,0.98
	l76.9-169.04l-103.04-0.42l92.43-232.92L1019.09,313.55z"/>
</svg>
