<?xml version="1.0" encoding="utf-8"?>
<!-- Generator: Adobe Illustrator 24.1.2, SVG Export Plug-In . SVG Version: 6.00 Build 0)  -->
<svg version="1.1" id="Layer_1" xmlns="http://www.w3.org/2000/svg" xmlns:xlink="http://www.w3.org/1999/xlink" x="0px" y="0px"
	 viewBox="0 0 1920 1080" style="enable-background:new 0 0 1920 1080;" xml:space="preserve">
<style type="text/css">
	.st0{fill:url(#SVGID_1_);}
	.st1{fill:url(#SVGID_2_);}
	.st2{fill:url(#SVGID_3_);}
	.st3{fill:url(#SVGID_4_);}
	.st4{fill:url(#SVGID_5_);}
	.st5{fill:url(#SVGID_6_);}
	.st6{fill:url(#SVGID_7_);}
	.st7{fill:url(#SVGID_8_);}
	.st8{fill:url(#SVGID_9_);}
	.st9{fill:url(#SVGID_10_);}
	.st10{fill:url(#SVGID_11_);}
	.st11{fill:url(#SVGID_12_);}
	.st12{fill:url(#SVGID_13_);}
	.st13{fill:url(#SVGID_14_);}
	.st14{fill:url(#SVGID_15_);}
	.st15{fill:url(#SVGID_16_);}
</style>
<radialGradient id="SVGID_1_" cx="1074.3229" cy="564.0511" r="117.0884" gradientUnits="userSpaceOnUse">
	<stop  offset="4.975124e-03" style="stop-color:#EE3E24"/>
	<stop  offset="1" style="stop-color:#931B33"/>
</radialGradient>
<path class="st0" d="M1111,569.68c0,0,1.55-1.86,3.63-5.04c1.23-3.09,2.27-6.24,3.16-9.45c-3.87-7.47-8.76-13.94-14.42-19.63
	c-77.24,57.09-216.58,10.7-242.66,112.11c-4.79,18.62-3.62,34.47-2.42,42.6c4.53-13.29,11.47-25.95,19.87-34.14
	c5.9-5.75,12.64-10.46,20.03-14.37c27.95-14.79,65.27-18.24,102.36-24.07c29.31-4.61,58.47-10.71,82.78-25.07
	C1093.52,586.6,1102.86,579.11,1111,569.68z"/>
<linearGradient id="SVGID_2_" gradientUnits="userSpaceOnUse" x1="1002.3656" y1="428.8625" x2="977.981" y2="384.9702">
	<stop  offset="0" style="stop-color:#F17123"/>
	<stop  offset="1" style="stop-color:#F8B218"/>
</linearGradient>
<path class="st1" d="M1011.26,418.58c-7.05-6.01-12.67-12.96-15.55-21.99c-3.83-11.98,5.61-27.5-3.85-37.29
	c-1.66-1.72-3.36-2.85-4.72-3.59c0.79,2.04,1.28,4.15,1.1,6.15c-0.53,5.94-6.79,18.13-10.43,30.04c-0.16,0.52-0.32,1.04-0.47,1.56
	c-0.82,2.88-1.47,5.72-1.82,8.44c-1.56,12.02-2.28,30.8,10.72,48.65c1.42-0.68,2.84-1.4,4.27-2.1c6.26-3.07,12.46-6.26,18.59-9.58
	c4.7-2.55,14.49-4.95,16.75-10.15c-3.88-3.25-8.81-5.46-12.83-8.7C1012.41,419.55,1011.83,419.07,1011.26,418.58z"/>
<g>
	<linearGradient id="SVGID_3_" gradientUnits="userSpaceOnUse" x1="961.2265" y1="522.429" x2="1120.6245" y2="522.429">
		<stop  offset="0" style="stop-color:#F17123"/>
		<stop  offset="1" style="stop-color:#F8B218"/>
	</linearGradient>
	<path class="st2" d="M1068.17,510.96c0.66-0.55,1.31-1.11,1.97-1.66c-0.81,0.68-1.62,1.38-2.43,2.05
		c13.26,6.53,25.64,14.16,35.66,24.22c0.11-0.08,0.22-0.17,0.32-0.25C1093.74,525.2,1081.4,517.52,1068.17,510.96z"/>
	<linearGradient id="SVGID_4_" gradientUnits="userSpaceOnUse" x1="1068.1703" y1="521.0972" x2="1122.1102" y2="521.0972">
		<stop  offset="0" style="stop-color:#F17123"/>
		<stop  offset="1" style="stop-color:#F8B218"/>
	</linearGradient>
	<path class="st3" d="M1103.68,535.31c1.73-1.29,3.41-2.63,5.08-4.03c-10.07-10.09-22.47-17.8-35.76-24.41
		c-0.95,0.81-1.91,1.61-2.86,2.41c-0.66,0.55-1.31,1.12-1.97,1.66C1081.4,517.52,1093.74,525.2,1103.68,535.31z"/>
	<linearGradient id="SVGID_5_" gradientUnits="userSpaceOnUse" x1="961.2265" y1="521.0972" x2="1120.6245" y2="521.0972">
		<stop  offset="0" style="stop-color:#F17123"/>
		<stop  offset="1" style="stop-color:#F8B218"/>
	</linearGradient>
	<path class="st4" d="M1103.68,535.31c1.73-1.29,3.41-2.63,5.08-4.03c-10.07-10.09-22.47-17.8-35.76-24.41
		c-0.95,0.81-1.91,1.61-2.86,2.41c-0.66,0.55-1.31,1.12-1.97,1.66C1081.4,517.52,1093.74,525.2,1103.68,535.31z"/>
</g>
<linearGradient id="SVGID_6_" gradientUnits="userSpaceOnUse" x1="1103.3589" y1="543.2386" x2="1119.9548" y2="543.2386">
	<stop  offset="0" style="stop-color:#F17123"/>
	<stop  offset="1" style="stop-color:#F8B218"/>
</linearGradient>
<path class="st5" d="M1117.88,554.84c0.42-1.54,0.8-3.1,1.14-4.66c0.02-0.07,0.03-0.14,0.05-0.22c0.34-1.59,0.64-3.19,0.89-4.8
	c-3.27-5.09-7.02-9.69-11.2-13.88c-1.66,1.39-3.35,2.74-5.08,4.03c-0.11,0.08-0.21,0.17-0.32,0.25
	c5.66,5.68,10.55,12.15,14.42,19.63C1117.81,555.07,1117.85,554.96,1117.88,554.84L1117.88,554.84z"/>
<g>
	<linearGradient id="SVGID_7_" gradientUnits="userSpaceOnUse" x1="885.6385" y1="604.3771" x2="1062.3716" y2="442.2905">
		<stop  offset="0.0103" style="stop-color:#EB1D25"/>
		<stop  offset="1" style="stop-color:#F07E21"/>
	</linearGradient>
	<path class="st6" d="M1079.67,501.04c28.57-31.93,62.75-87.86,14.69-161.23c0.97,117.02-269.6,144.32-253.87,295.94
		c2.67,25.73,12.41,43.33,17.27,53.06C873.57,607.13,988.5,582.86,1079.67,501.04z"/>
</g>
<radialGradient id="SVGID_8_" cx="888.1769" cy="644.8192" r="334.2112" gradientUnits="userSpaceOnUse">
	<stop  offset="4.975124e-03" style="stop-color:#EE3E24"/>
	<stop  offset="1" style="stop-color:#931B33"/>
</radialGradient>
<path class="st7" d="M1068.95,615.65c2.44-1.26,4.85-2.63,7.24-4.11c17.47-11.72,31-28.16,38.43-46.9
	c-2.08,3.18-3.63,5.04-3.63,5.04c-8.14,9.44-17.48,16.92-27.67,22.94c-24.3,14.36-53.47,20.46-82.78,25.07
	c-37.1,5.83-74.41,9.28-102.36,24.07c-7.39,3.91-14.13,8.62-20.03,14.37c-8.4,8.19-15.34,20.85-19.87,34.14
	c0,0.03,0.01,0.06,0.01,0.09c31.8-53.4,111.12-45.8,177.94-63.21C1036.14,627.08,1059.62,620.01,1068.95,615.65z"/>
<g>
	
		<linearGradient id="SVGID_9_" gradientUnits="userSpaceOnUse" x1="1248.8643" y1="893.9395" x2="1151.6226" y2="938.1403" gradientTransform="matrix(1.0395 -0.3631 -0.3447 -0.987 46.2295 1657.1337)">
		<stop  offset="0" style="stop-color:#F17123"/>
		<stop  offset="1" style="stop-color:#F8B218"/>
	</linearGradient>
	<path class="st8" d="M1052.81,312.79c-0.03,0.02-0.07,0.04-0.1,0.06c0.41,0.08,0.83,0.16,1.26,0.25c3.56,0.98,7,2.18,10.26,3.7
		c10.13,5.26,22.13,12.84,17.55,35.29c-24.83-28.8-80.39-8.11-90.25-46.46c-1.68-6.52-1.26-12.07-0.84-14.9
		C1001.79,309.36,1029.48,306.71,1052.81,312.79z"/>
</g>
<linearGradient id="SVGID_10_" gradientUnits="userSpaceOnUse" x1="824.9805" y1="493.4034" x2="1096.3501" y2="493.4034">
	<stop  offset="5.347593e-03" style="stop-color:#F17123"/>
	<stop  offset="1" style="stop-color:#F8B218"/>
</linearGradient>
<path class="st9" d="M842.72,633.69c-14.71-154.51,257.9-130.65,253.58-290.37c-0.25-0.44-0.48-0.89-0.74-1.33
	c-0.03-0.05-0.06-0.1-0.09-0.15c-0.83-1.42-1.7-2.82-2.58-4.21c-0.23-0.36-0.46-0.72-0.69-1.07c-0.93-1.43-1.87-2.85-2.85-4.23
	c-2.43-3.45-6.09-7.49-9.85-10.22c-8.74-6.35-31.87-13.19-60.49-15.24c30.99,5.06,51.47,12.74,56.99,20.99
	c2.53,3.79,4.44,7.37,4.98,10.53c9.19,53.02-63.46,97.77-122.42,124.1c-50.34,22.48-112.33,52.91-130.43,111.5
	c-0.52,2.21-0.97,4.44-1.36,6.68c-0.02,0.1-0.04,0.21-0.06,0.31c-0.37,2.17-0.68,4.34-0.93,6.53c-0.02,0.18-0.05,0.36-0.07,0.53
	c-0.24,2.14-0.41,4.28-0.53,6.43c-0.01,0.22-0.03,0.45-0.04,0.67c-0.11,2.12-0.16,4.25-0.16,6.37c0,0.25,0,0.5,0,0.74
	c0.01,2.11,0.08,4.23,0.2,6.34c0.01,0.26,0.03,0.51,0.04,0.77c0.13,2.11,0.32,4.22,0.57,6.32c0.03,0.25,0.06,0.5,0.09,0.75
	c0.26,2.11,0.57,4.22,0.93,6.31c0.04,0.23,0.08,0.46,0.12,0.68c0.38,2.12,0.81,4.22,1.3,6.31c0.05,0.2,0.09,0.39,0.14,0.59
	c0.51,2.12,1.07,4.23,1.69,6.33c0.04,0.15,0.09,0.29,0.13,0.44c0.64,2.14,1.34,4.26,2.1,6.35c0.03,0.09,0.07,0.18,0.1,0.26
	c0.78,2.15,1.63,4.28,2.53,6.38c0.01,0.02,0.01,0.03,0.02,0.05c4.66,10.79,10.93,20.85,18.75,29.68c0.03,0.04,0.07,0.07,0.1,0.11
	C849.43,669.1,844.57,653.14,842.72,633.69z"/>
<g>
	<linearGradient id="SVGID_11_" gradientUnits="userSpaceOnUse" x1="947.0983" y1="426.2389" x2="965.798" y2="449.3651">
		<stop  offset="0" style="stop-color:#F17123"/>
		<stop  offset="1" style="stop-color:#F8B218"/>
	</linearGradient>
	<path class="st10" d="M971.43,456.55c0.08-0.04,0.17-0.08,0.25-0.12C971.6,456.46,971.51,456.5,971.43,456.55L971.43,456.55z"/>
	<linearGradient id="SVGID_12_" gradientUnits="userSpaceOnUse" x1="961.2265" y1="455.2453" x2="1120.6245" y2="455.2453">
		<stop  offset="0" style="stop-color:#F17123"/>
		<stop  offset="1" style="stop-color:#F8B218"/>
	</linearGradient>
	<path class="st11" d="M976.06,454.27c-1.32,0.65-2.65,1.32-3.97,1.95c0,0,0,0,0,0c1.33-0.64,2.66-1.28,3.99-1.93
		C976.07,454.28,976.06,454.28,976.06,454.27z"/>
	<linearGradient id="SVGID_13_" gradientUnits="userSpaceOnUse" x1="961.2265" y1="456.3209" x2="1120.6245" y2="456.3209">
		<stop  offset="0" style="stop-color:#F17123"/>
		<stop  offset="1" style="stop-color:#F8B218"/>
	</linearGradient>
	<path class="st12" d="M971.68,456.42c0.14-0.07,0.27-0.13,0.41-0.2c0,0,0,0,0,0C971.95,456.29,971.82,456.36,971.68,456.42z"/>
</g>
<linearGradient id="SVGID_14_" gradientUnits="userSpaceOnUse" x1="1068.2146" y1="505.1845" x2="1120.9408" y2="505.1845">
	<stop  offset="0" style="stop-color:#F17123"/>
	<stop  offset="1" style="stop-color:#F8B218"/>
</linearGradient>
<path class="st13" d="M1108.76,531.29c3.95-3.31,7.71-6.94,11.26-10.91c-2.66-15.39-10.7-29.7-23.28-41.3
	c-5.34,8.13-11.24,15.45-17.07,21.96c-3.15,2.82-6.33,5.56-9.53,8.25c0.95-0.8,1.91-1.6,2.86-2.41
	C1086.29,513.48,1098.69,521.2,1108.76,531.29z"/>
<linearGradient id="SVGID_15_" gradientUnits="userSpaceOnUse" x1="1118.3555" y1="531.249" x2="1129.4282" y2="546.3675">
	<stop  offset="0" style="stop-color:#F17123"/>
	<stop  offset="1" style="stop-color:#F8B218"/>
</linearGradient>
<path class="st14" d="M1120.02,520.38c-3.55,3.97-7.31,7.59-11.26,10.91c4.17,4.18,7.93,8.79,11.2,13.88
	c0.68-4.39,1.05-8.85,1.05-13.36C1121,527.95,1120.67,524.13,1120.02,520.38z"/>
<radialGradient id="SVGID_16_" cx="1074.5011" cy="479.6084" r="187.3978" gradientUnits="userSpaceOnUse">
	<stop  offset="0" style="stop-color:#EE3E24"/>
	<stop  offset="1" style="stop-color:#CB203B"/>
</radialGradient>
<path class="st15" d="M1082.53,475.41c-91.12,88.98-205.79,77.37-226.85,208.99c0.73,1.63,1.42,3.11,2.07,4.41
	c15.82-81.68,130.75-105.95,221.91-187.76c19.45-21.74,40.89-52.12,38.47-93.05C1113,435.79,1097.6,457.08,1082.53,475.41z"/>
</svg>
