<?xml version="1.0" encoding="utf-8"?>
<!-- Generator: Adobe Illustrator 24.1.2, SVG Export Plug-In . SVG Version: 6.00 Build 0)  -->
<svg version="1.1" id="Layer_1" xmlns="http://www.w3.org/2000/svg" xmlns:xlink="http://www.w3.org/1999/xlink" x="0px" y="0px"
	 viewBox="0 0 1920 1080" style="enable-background:new 0 0 1920 1080;" xml:space="preserve">
<style type="text/css">
	.st0{fill:#FFFFFF;}
	.st1{opacity:0.53;}
</style>
<g>
	<path class="st0" d="M1031.07,656.32h3.98v27.83h-3.98v-12.11h-15.64v12.11h-3.98v-27.83h3.98v12.03h15.64V656.32z"/>
	<path class="st0" d="M1103.81,655.92c4.3,0,7.88,1.36,10.74,4.08s4.29,6.14,4.29,10.24c0,4.1-1.44,7.5-4.33,10.19
		c-2.89,2.69-6.53,4.03-10.92,4.03c-4.19,0-7.69-1.34-10.48-4.03c-2.79-2.69-4.19-6.06-4.19-10.11c0-4.16,1.41-7.6,4.22-10.32
		C1095.96,657.29,1099.51,655.92,1103.81,655.92z M1103.97,659.71c-3.19,0-5.8,1-7.85,2.99c-2.05,1.99-3.08,4.54-3.08,7.63
		c0,3,1.03,5.5,3.09,7.49c2.06,1.99,4.63,2.99,7.72,2.99c3.11,0,5.7-1.02,7.77-3.05s3.12-4.56,3.12-7.59c0-2.95-1.04-5.43-3.12-7.44
		C1109.55,660.72,1107,659.71,1103.97,659.71z"/>
	<path class="st0" d="M1194.85,656.32h3.73v27.83h-4V662.5l-8.56,10.76h-0.74l-8.66-10.76v21.66h-3.99v-27.83h3.77l9.25,11.43
		L1194.85,656.32z"/>
	<path class="st0" d="M1253.54,656.32h15.78v3.55h-11.79v8.49h11.4v3.57h-11.4v8.65h12.17v3.55h-16.16V656.32z"/>
	<path class="st0" d="M1329.8,672.49l-3.03-1.84c-1.9-1.16-3.25-2.3-4.05-3.42c-0.8-1.12-1.21-2.41-1.21-3.88
		c0-2.19,0.76-3.97,2.28-5.34c1.52-1.37,3.5-2.05,5.93-2.05c2.32,0,4.46,0.65,6.4,1.96v4.52c-2-1.93-4.16-2.89-6.47-2.89
		c-1.3,0-2.37,0.3-3.21,0.9c-0.84,0.6-1.25,1.37-1.25,2.31c0,0.83,0.31,1.61,0.92,2.34c0.62,0.73,1.61,1.49,2.97,2.29l3.04,1.8
		c3.39,2.03,5.09,4.61,5.09,7.74c0,2.23-0.75,4.04-2.24,5.44s-3.44,2.09-5.83,2.09c-2.75,0-5.25-0.84-7.51-2.54v-5.06
		c2.15,2.73,4.64,4.09,7.47,4.09c1.25,0,2.29-0.35,3.12-1.04c0.83-0.69,1.25-1.56,1.25-2.61
		C1333.46,675.62,1332.24,674.02,1329.8,672.49z"/>
</g>
<g>
	<path class="st0" d="M656,532.05v23.88l-2.04-5.83c-0.2-0.38-0.36-0.82-0.51-1.31c-0.15-0.48-0.31-0.92-0.51-1.31
		c-0.49-1.36-0.99-2.54-1.53-3.57c-0.53-1.02-1.38-1.92-2.55-2.7c-0.97-0.58-1.99-0.99-3.06-1.23c-1.07-0.25-2.18-0.41-3.35-0.51
		c-0.39-0.1-0.8-0.15-1.24-0.15c-0.43,0-0.9,0-1.38,0l-15-0.15c-0.2,0.1-0.39,0.15-0.58,0.15c-0.2,0-0.44,0-0.73,0
		c-1.16,0-2.31,0.05-3.42,0.15c-1.12,0.1-1.97,0.44-2.55,1.02c-0.39,0.38-0.66,0.85-0.8,1.38c-0.15,0.54-0.22,1.05-0.22,1.53
		c0,0.19,0,0.41,0,0.66c0,0.24,0.05,0.51,0.15,0.8c0,0.09,0,0.19,0,0.29c0,0.09,0,0.19,0,0.28c0,0.2,0,0.36,0,0.51
		c0,0.15,0,0.32,0,0.51v34.8h19.36c0.58,0,1.16,0,1.75,0s1.11,0,1.6,0c1.17,0,2.28-0.07,3.35-0.22c1.07-0.15,2.04-0.56,2.91-1.24
		c0.2-0.19,0.39-0.36,0.58-0.51s0.34-0.31,0.44-0.51c0.29-0.29,0.56-0.58,0.8-0.87c0.24-0.29,0.46-0.68,0.65-1.16
		c0-0.1,0.02-0.2,0.07-0.29c0.05-0.1,0.12-0.19,0.22-0.29l3.06-6.41v34.36l-1.31-3.35c-0.2-0.28-0.36-0.65-0.51-1.09
		c-0.15-0.44-0.27-0.9-0.36-1.39c0-0.09-0.03-0.22-0.07-0.36c-0.05-0.15-0.07-0.27-0.07-0.36c-0.58-1.55-1.17-3.03-1.75-4.44
		c-0.58-1.4-1.46-2.4-2.62-2.98c-0.58-0.29-1.12-0.54-1.6-0.73c-0.49-0.19-1.02-0.34-1.6-0.44c-0.58-0.19-1.21-0.29-1.89-0.29
		c-0.68,0-1.41,0-2.18,0c-0.1,0-0.22,0-0.36,0s-0.27,0-0.36,0h-20.09v36.98c0,1.65,0.07,3.08,0.22,4.29s0.7,2.41,1.67,3.57
		c0.58,0.78,1.62,1.44,3.13,1.97c1.5,0.54,3.08,0.99,4.73,1.39c0.29,0.09,0.56,0.19,0.8,0.29c0.24,0.09,0.51,0.15,0.8,0.15
		c0.78,0.19,1.5,0.41,2.18,0.65c0.68,0.25,1.31,0.46,1.89,0.66l3.2,1.17h-49.36l3.35-1.02c0.78-0.09,1.67-0.29,2.69-0.58
		c1.02-0.29,2.06-0.58,3.13-0.87c0.97-0.39,1.94-0.76,2.91-1.09c0.97-0.34,1.84-0.7,2.62-1.09c0.48-0.19,0.92-0.44,1.31-0.73
		c0.39-0.29,0.68-0.53,0.87-0.73c0.29-0.48,0.56-0.94,0.8-1.38c0.24-0.44,0.41-0.9,0.51-1.39c0.1-0.48,0.17-0.97,0.22-1.46
		c0.05-0.48,0.07-0.92,0.07-1.31c0-0.29,0-0.56,0-0.8c0-0.25,0-0.46,0-0.66c-0.1-0.29-0.15-0.56-0.15-0.8c0-0.24,0-0.46,0-0.66
		v-78.91c0-0.38,0-0.85,0-1.38c0-0.54,0-0.99,0-1.39c0-0.97-0.07-1.87-0.22-2.7c-0.14-0.82-0.56-1.62-1.24-2.4
		c-0.2-0.19-0.49-0.44-0.87-0.73c-0.39-0.29-0.83-0.53-1.31-0.73c-0.78-0.38-1.65-0.75-2.62-1.09c-0.97-0.34-1.94-0.71-2.91-1.09
		c-1.07-0.29-2.11-0.58-3.13-0.87c-1.02-0.29-1.92-0.53-2.69-0.73l-3.35-1.17H656z"/>
	<path class="st0" d="M737.09,532.05l-0.15,23.88l-2.04-5.83c-0.2-0.38-0.36-0.82-0.51-1.31c-0.15-0.48-0.32-0.92-0.51-1.31
		c-0.49-1.36-1-2.54-1.53-3.57c-0.54-1.02-1.39-1.92-2.55-2.7c-0.78-0.48-1.65-0.87-2.62-1.16c-0.97-0.29-1.94-0.48-2.91-0.58
		c-0.58,0-1.14-0.03-1.67-0.07c-0.53-0.05-1.09-0.07-1.67-0.07l-17.91-0.15c-0.2,0.1-0.39,0.15-0.58,0.15c-0.2,0-0.44,0-0.73,0
		c-1.16,0-2.31,0.05-3.42,0.15c-1.12,0.1-1.97,0.44-2.55,1.02c-0.39,0.38-0.63,1.04-0.73,1.96c-0.1,0.92-0.15,1.92-0.15,2.98
		c0,0.1,0,0.2,0,0.29c0,0.1,0,0.22,0,0.36s0,0.27,0,0.36v34.8h20.67c0.58,0,1.17,0,1.75,0c0.58,0,1.17,0,1.75,0
		c1.16,0,2.26-0.07,3.27-0.22c1.02-0.15,1.96-0.56,2.84-1.24c0.19-0.19,0.39-0.36,0.58-0.51c0.19-0.15,0.34-0.31,0.43-0.51
		c0.49-0.38,0.85-0.78,1.09-1.17c0.24-0.38,0.51-0.87,0.8-1.45l3.06-6.41v34.36l-1.31-3.35c-0.1-0.28-0.22-0.63-0.36-1.01
		c-0.15-0.39-0.27-0.78-0.36-1.17c-0.1-0.19-0.17-0.36-0.22-0.51c-0.05-0.15-0.12-0.31-0.22-0.51c-0.49-1.55-1.04-3.03-1.67-4.44
		c-0.63-1.4-1.48-2.4-2.55-2.98c-0.58-0.39-1.16-0.68-1.75-0.87s-1.17-0.34-1.75-0.44c-0.58-0.09-1.19-0.15-1.82-0.15
		c-0.63,0-1.34,0-2.11,0c-0.1,0-0.22,0-0.36,0s-0.27,0-0.36,0h-21.4v35.69c0,0.49,0.02,1.02,0.07,1.6c0.05,0.58,0.12,1.12,0.22,1.6
		c0.19,1.07,0.46,2.01,0.8,2.83c0.34,0.83,0.8,1.38,1.38,1.67c0.78,0.38,1.48,0.63,2.11,0.73c0.63,0.09,1.29,0.14,1.96,0.14
		c0.29,0,0.56,0,0.8,0c0.24,0,0.51-0.05,0.8-0.14c0.2,0,0.44,0,0.73,0c0.29,0,0.58,0,0.87,0l23.87-0.15
		c0.29,0.09,0.58,0.15,0.87,0.15c0.29,0,0.58,0,0.87,0c0.19,0.09,0.43,0.14,0.73,0.14c0.29,0,0.58,0,0.87,0
		c0.48,0,0.97-0.05,1.45-0.14c0.49-0.1,0.97-0.25,1.46-0.44c0.78-0.39,1.43-1.17,1.96-2.33c0.53-1.17,1.04-2.47,1.53-3.93
		c0.1-0.29,0.2-0.6,0.29-0.95c0.1-0.34,0.19-0.66,0.29-0.95c0.19-0.58,0.41-1.16,0.66-1.74c0.24-0.58,0.46-1.11,0.65-1.6l1.9-4.66
		l-0.73,23.59h-77.16l3.35-1.02c0.78-0.09,1.67-0.29,2.69-0.58c1.02-0.29,2.06-0.58,3.13-0.87c0.97-0.39,1.94-0.76,2.91-1.09
		c0.97-0.34,1.84-0.7,2.62-1.09c0.48-0.19,0.92-0.44,1.31-0.73c0.39-0.29,0.68-0.53,0.87-0.73c0.48-0.58,0.83-1.23,1.02-1.96
		c0.19-0.73,0.34-1.48,0.43-2.26c0-0.29,0-0.58,0-0.87c0-0.29,0-0.58,0-0.87c0-0.48,0-0.92,0-1.31c0-0.38,0-0.78,0-1.17v-78.91
		c0-0.38,0-0.85,0-1.38c0-0.54,0-0.99,0-1.39c0-0.97-0.07-1.87-0.22-2.7c-0.14-0.82-0.56-1.62-1.24-2.4
		c-0.2-0.19-0.49-0.44-0.87-0.73c-0.39-0.29-0.83-0.53-1.31-0.73c-0.78-0.38-1.65-0.75-2.62-1.09c-0.97-0.34-1.94-0.71-2.91-1.09
		c-1.07-0.29-2.11-0.58-3.13-0.87c-1.02-0.29-1.92-0.53-2.69-0.73l-3.35-1.17H737.09z"/>
	<path class="st0" d="M823.49,632.07c-3.84-3.88-7.79-8.06-11.87-12.53c-0.1-0.09-0.2-0.17-0.29-0.22c-0.1-0.05-0.15-0.12-0.15-0.22
		c-0.87-0.87-1.7-1.74-2.48-2.62c-0.78-0.87-1.55-1.75-2.33-2.62l-21.26-22.71h-3.93v34.5c0,1.65,0.07,3.08,0.22,4.29
		s0.7,2.41,1.67,3.57c0.58,0.78,1.62,1.44,3.13,1.97c1.5,0.54,3.08,0.99,4.73,1.39c0.29,0.09,0.56,0.19,0.8,0.29
		c0.24,0.09,0.51,0.15,0.8,0.15c0.78,0.19,1.5,0.41,2.18,0.65c0.68,0.25,1.31,0.46,1.89,0.66l3.2,1.17h-49.36l3.35-1.02
		c0.78-0.09,1.67-0.29,2.69-0.58c1.02-0.29,2.06-0.58,3.13-0.87c1.07-0.39,2.09-0.76,3.06-1.09c0.97-0.34,1.8-0.7,2.48-1.09
		c0.58-0.19,1.04-0.44,1.38-0.73c0.34-0.29,0.61-0.53,0.8-0.73c0.48-0.58,0.83-1.23,1.02-1.96c0.19-0.73,0.34-1.48,0.43-2.26
		c0-0.58,0-1.14,0-1.67c0-0.54,0-1.09,0-1.68c0-0.09,0-0.24,0-0.44c0-0.19,0-0.34,0-0.44v-78.91c0-1.26-0.07-2.43-0.22-3.49
		c-0.14-1.07-0.61-2.09-1.38-3.06c-0.68-0.78-1.77-1.53-3.27-2.26c-1.51-0.73-3.08-1.43-4.73-2.11c-0.97-0.39-1.92-0.76-2.84-1.09
		c-0.92-0.34-1.77-0.66-2.55-0.95l-3.2-1.31h26.5c1.45,0.1,2.81,0.13,4.08,0.07c1.26-0.05,2.52-0.12,3.78-0.22c0.2,0,0.39,0,0.58,0
		c0.19,0,0.39,0,0.58,0c1.07,0,2.13-0.02,3.2-0.07c1.07-0.05,2.19-0.07,3.35-0.07c1.07,0,2.16,0.03,3.28,0.07
		c1.11,0.05,2.3,0.13,3.57,0.22c0.78,0.1,1.53,0.2,2.26,0.29c0.73,0.1,1.48,0.2,2.26,0.29c5.83,1.27,11.21,4.32,16.16,9.17
		c4.95,4.86,7.43,11.6,7.43,20.24c0,6.6-1.63,11.79-4.88,15.57c-3.25,3.79-6.82,6.65-10.7,8.6c-1.75,0.87-3.5,1.6-5.24,2.18
		s-3.92,1.22-4.83,1.41c-0.84,0.17-2.89,0.48-2.89,0.48l16.16,17.91c1.75,2.03,3.37,3.91,4.88,5.61c1.5,1.7,2.99,3.37,4.44,5.02
		c0.39,0.48,0.8,0.94,1.24,1.38c0.43,0.44,0.85,0.9,1.24,1.39c1.17,1.26,2.4,2.52,3.71,3.78c1.31,1.27,2.69,2.62,4.15,4.08
		c0.87,0.78,1.62,1.48,2.26,2.11c0.63,0.63,1.29,1.24,1.96,1.82 M795.32,538.6c-0.29,0.1-0.56,0.15-0.8,0.15
		c-0.24,0-0.46-0.05-0.65-0.15c-0.29,0-0.56,0-0.8,0c-0.25,0-0.51,0-0.8,0c-0.1,0-0.2,0-0.29,0c-0.1,0-0.2,0-0.29,0
		c-1.84,0-3.62,0.12-5.31,0.36c-1.7,0.25-2.84,0.56-3.42,0.95c-0.87,0.58-1.38,1.36-1.53,2.33c-0.15,0.97-0.22,1.99-0.22,3.06
		c0,0.1,0,0.17,0,0.22c0,0.05,0,0.13,0,0.22v39.31l6.84-0.15c7.67,0,14.27-2.11,19.8-6.34c5.53-4.22,8.25-9.78,8.15-16.67
		c0-0.29,0-0.58,0-0.87c0-0.29,0-0.58,0-0.87c-0.49-5.92-2.6-10.75-6.33-14.49c-3.74-3.73-7.84-5.94-12.3-6.62
		c-0.29-0.1-0.61-0.17-0.95-0.22s-0.7-0.07-1.09-0.07V538.6z"/>
	<path class="st0" d="M1067.86,532.05v23.88l-2.04-5.83c-0.19-0.38-0.36-0.82-0.5-1.31c-0.15-0.48-0.32-0.92-0.51-1.31
		c-0.49-1.36-1-2.54-1.53-3.57c-0.54-1.02-1.39-1.92-2.54-2.7c-0.97-0.58-1.99-0.99-3.06-1.23c-1.07-0.25-2.18-0.41-3.35-0.51
		c-0.39-0.1-0.8-0.15-1.24-0.15s-0.89,0-1.39,0l-14.99-0.15c-0.2,0.1-0.39,0.15-0.58,0.15c-0.2,0-0.44,0-0.73,0
		c-1.17,0-2.31,0.05-3.42,0.15c-1.12,0.1-1.97,0.44-2.55,1.02c-0.38,0.38-0.66,0.85-0.8,1.38c-0.14,0.54-0.21,1.05-0.21,1.53
		c0,0.19,0,0.41,0,0.66c0,0.24,0.05,0.51,0.15,0.8c0,0.09,0,0.19,0,0.29c0,0.09,0,0.19,0,0.28c0,0.2,0,0.36,0,0.51
		c0,0.15,0,0.32,0,0.51v34.8h19.36c0.58,0,1.17,0,1.75,0c0.58,0,1.11,0,1.6,0c1.16,0,2.28-0.07,3.35-0.22
		c1.07-0.15,2.03-0.56,2.91-1.24c0.19-0.19,0.39-0.36,0.58-0.51s0.34-0.31,0.44-0.51c0.29-0.29,0.56-0.58,0.8-0.87
		c0.24-0.29,0.46-0.68,0.66-1.16c0-0.1,0.02-0.2,0.07-0.29c0.05-0.1,0.12-0.19,0.22-0.29l3.06-6.41v34.36l-1.31-3.35
		c-0.19-0.28-0.36-0.65-0.51-1.09c-0.15-0.44-0.27-0.9-0.36-1.39c0-0.09-0.02-0.22-0.07-0.36c-0.05-0.15-0.07-0.27-0.07-0.36
		c-0.58-1.55-1.16-3.03-1.74-4.44c-0.58-1.4-1.46-2.4-2.62-2.98c-0.58-0.29-1.11-0.54-1.6-0.73c-0.49-0.19-1.02-0.34-1.6-0.44
		c-0.58-0.19-1.21-0.29-1.89-0.29c-0.68,0-1.41,0-2.19,0c-0.1,0-0.22,0-0.36,0c-0.15,0-0.27,0-0.36,0h-20.09v36.98
		c0,1.65,0.07,3.08,0.21,4.29c0.15,1.21,0.71,2.41,1.68,3.57c0.58,0.78,1.62,1.44,3.13,1.97c1.5,0.54,3.08,0.99,4.73,1.39
		c0.29,0.09,0.56,0.19,0.8,0.29c0.25,0.09,0.51,0.15,0.8,0.15c0.78,0.19,1.5,0.41,2.19,0.65c0.68,0.25,1.31,0.46,1.89,0.66l3.2,1.17
		h-49.35l3.35-1.02c0.78-0.09,1.67-0.29,2.69-0.58c1.02-0.29,2.06-0.58,3.13-0.87c0.97-0.39,1.94-0.76,2.91-1.09
		c0.97-0.34,1.84-0.7,2.62-1.09c0.48-0.19,0.92-0.44,1.31-0.73c0.39-0.29,0.68-0.53,0.87-0.73c0.29-0.48,0.56-0.94,0.8-1.38
		c0.24-0.44,0.41-0.9,0.51-1.39c0.1-0.48,0.17-0.97,0.22-1.46c0.05-0.48,0.07-0.92,0.07-1.31c0-0.29,0-0.56,0-0.8
		c0-0.25,0-0.46,0-0.66c-0.1-0.29-0.15-0.56-0.15-0.8c0-0.24,0-0.46,0-0.66v-78.91c0-0.38,0-0.85,0-1.38c0-0.54,0-0.99,0-1.39
		c0-0.97-0.07-1.87-0.22-2.7c-0.14-0.82-0.56-1.62-1.24-2.4c-0.2-0.19-0.49-0.44-0.87-0.73c-0.39-0.29-0.83-0.53-1.31-0.73
		c-0.78-0.38-1.65-0.75-2.62-1.09c-0.97-0.34-1.94-0.71-2.91-1.09c-1.07-0.29-2.11-0.58-3.13-0.87c-1.02-0.29-1.92-0.53-2.69-0.73
		l-3.35-1.17H1067.86z"/>
	<path class="st0" d="M1106.74,625.66c0,1.65,0.07,3.08,0.21,4.29s0.71,2.41,1.68,3.57c0.58,0.78,1.62,1.44,3.13,1.97
		c1.5,0.54,3.08,0.99,4.73,1.39c0.29,0.09,0.56,0.19,0.8,0.29c0.25,0.09,0.51,0.15,0.8,0.15c0.78,0.19,1.5,0.41,2.19,0.65
		c0.68,0.25,1.31,0.46,1.89,0.66l3.2,1.17h-49.35l3.35-1.02c0.78-0.09,1.68-0.29,2.7-0.58c1.02-0.29,2.06-0.58,3.13-0.87
		c0.97-0.39,1.94-0.76,2.92-1.09c0.97-0.34,1.84-0.7,2.62-1.09c0.48-0.19,0.92-0.44,1.31-0.73c0.38-0.29,0.68-0.53,0.87-0.73
		c0.28-0.48,0.56-0.94,0.8-1.38c0.25-0.44,0.41-0.9,0.51-1.39c0.1-0.48,0.17-0.97,0.22-1.46c0.05-0.48,0.07-0.92,0.07-1.31
		c0-0.29,0-0.56,0-0.8c0-0.25,0-0.46,0-0.66c-0.1-0.29-0.15-0.56-0.15-0.8c0-0.24,0-0.46,0-0.66v-78.47c0-0.09,0-0.27,0-0.51
		c0-0.24,0.05-0.51,0.15-0.8c0-0.19,0-0.43,0-0.72c0-0.29,0-0.58,0-0.87c0-0.39-0.03-0.75-0.07-1.09c-0.05-0.34-0.12-0.7-0.22-1.09
		c-0.1-0.58-0.24-1.14-0.44-1.67c-0.19-0.54-0.48-1.05-0.87-1.53c-0.2-0.19-0.49-0.44-0.87-0.73c-0.39-0.29-0.83-0.53-1.31-0.73
		c-0.78-0.38-1.65-0.75-2.62-1.09c-0.97-0.34-1.95-0.71-2.92-1.09c-1.07-0.29-2.11-0.58-3.13-0.87c-1.02-0.29-1.92-0.53-2.7-0.73
		l-3.35-1.17h49.35l-3.2,1.31c-0.58,0.39-1.26,0.68-2.03,0.87c-0.78,0.19-1.6,0.39-2.48,0.58c-0.19,0.1-0.39,0.17-0.58,0.22
		c-0.19,0.05-0.38,0.12-0.58,0.22c-1.65,0.38-3.23,0.85-4.73,1.38c-1.5,0.54-2.54,1.15-3.13,1.82c-0.1,0.19-0.22,0.36-0.36,0.5
		c-0.15,0.14-0.27,0.3-0.36,0.5c-0.58,1.05-0.92,2.12-1.02,3.21c-0.09,1.1-0.14,2.31-0.14,3.64V625.66z"/>
	<path class="st0" d="M1205.58,532.05l-0.15,23.88l-2.03-5.83c-0.2-0.38-0.36-0.82-0.51-1.31c-0.15-0.48-0.32-0.92-0.51-1.31
		c-0.48-1.36-0.99-2.54-1.53-3.57c-0.53-1.02-1.38-1.92-2.54-2.7c-0.78-0.48-1.65-0.87-2.62-1.16c-0.97-0.29-1.95-0.48-2.92-0.58
		c-0.58,0-1.14-0.03-1.68-0.07c-0.53-0.05-1.09-0.07-1.67-0.07l-17.91-0.15c-0.2,0.1-0.39,0.15-0.58,0.15c-0.2,0-0.44,0-0.73,0
		c-1.17,0-2.31,0.05-3.42,0.15c-1.12,0.1-1.97,0.44-2.55,1.02c-0.38,0.38-0.63,1.04-0.73,1.96c-0.09,0.92-0.14,1.92-0.14,2.98
		c0,0.1,0,0.2,0,0.29c0,0.1,0,0.22,0,0.36s0,0.27,0,0.36v34.8h20.67c0.58,0,1.17,0,1.75,0c0.58,0,1.16,0,1.74,0
		c1.17,0,2.26-0.07,3.28-0.22c1.01-0.15,1.96-0.56,2.84-1.24c0.19-0.19,0.38-0.36,0.58-0.51c0.19-0.15,0.34-0.31,0.44-0.51
		c0.48-0.38,0.85-0.78,1.09-1.17c0.25-0.38,0.51-0.87,0.8-1.45l3.06-6.41v34.36l-1.31-3.35c-0.1-0.28-0.22-0.63-0.36-1.01
		c-0.15-0.39-0.27-0.78-0.36-1.17c-0.1-0.19-0.17-0.36-0.22-0.51c-0.05-0.15-0.12-0.31-0.22-0.51c-0.48-1.55-1.04-3.03-1.67-4.44
		c-0.64-1.4-1.48-2.4-2.55-2.98c-0.58-0.39-1.17-0.68-1.75-0.87c-0.58-0.19-1.16-0.34-1.74-0.44c-0.58-0.09-1.19-0.15-1.82-0.15
		s-1.33,0-2.11,0c-0.1,0-0.22,0-0.36,0c-0.15,0-0.27,0-0.36,0h-21.4v35.69c0,0.49,0.02,1.02,0.07,1.6c0.05,0.58,0.13,1.12,0.22,1.6
		c0.2,1.07,0.46,2.01,0.8,2.83c0.34,0.83,0.8,1.38,1.39,1.67c0.78,0.38,1.48,0.63,2.11,0.73c0.63,0.09,1.28,0.14,1.96,0.14
		c0.29,0,0.56,0,0.8,0c0.24,0,0.51-0.05,0.8-0.14c0.19,0,0.44,0,0.73,0s0.58,0,0.87,0l23.88-0.15c0.29,0.09,0.58,0.15,0.87,0.15
		s0.58,0,0.87,0c0.19,0.09,0.44,0.14,0.73,0.14c0.29,0,0.58,0,0.87,0c0.49,0,0.97-0.05,1.46-0.14c0.48-0.1,0.97-0.25,1.46-0.44
		c0.78-0.39,1.43-1.17,1.96-2.33c0.54-1.17,1.05-2.47,1.53-3.93c0.1-0.29,0.19-0.6,0.29-0.95c0.09-0.34,0.19-0.66,0.29-0.95
		c0.19-0.58,0.41-1.16,0.66-1.74c0.24-0.58,0.46-1.11,0.66-1.6l1.89-4.66l-0.73,23.59h-77.16l3.35-1.02
		c0.78-0.09,1.68-0.29,2.7-0.58c1.02-0.29,2.06-0.58,3.13-0.87c0.97-0.39,1.94-0.76,2.92-1.09c0.97-0.34,1.84-0.7,2.62-1.09
		c0.48-0.19,0.92-0.44,1.31-0.73c0.38-0.29,0.68-0.53,0.87-0.73c0.48-0.58,0.82-1.23,1.01-1.96c0.19-0.73,0.34-1.48,0.44-2.26
		c0-0.29,0-0.58,0-0.87c0-0.29,0-0.58,0-0.87c0-0.48,0-0.92,0-1.31c0-0.38,0-0.78,0-1.17v-78.91c0-0.38,0-0.85,0-1.38
		c0-0.54,0-0.99,0-1.39c0-0.97-0.07-1.87-0.22-2.7c-0.15-0.82-0.56-1.62-1.23-2.4c-0.2-0.19-0.49-0.44-0.87-0.73
		c-0.39-0.29-0.83-0.53-1.31-0.73c-0.78-0.38-1.65-0.75-2.62-1.09c-0.97-0.34-1.95-0.71-2.92-1.09c-1.07-0.29-2.11-0.58-3.13-0.87
		c-1.02-0.29-1.92-0.53-2.7-0.73l-3.35-1.17H1205.58z"/>
	<path class="st0" d="M1249.7,625.66c0,1.07,0.09,2.09,0.28,3.06c0.2,0.97,0.64,1.8,1.31,2.48c0.58,0.58,1.36,0.97,2.33,1.17
		c0.97,0.19,1.94,0.34,2.91,0.44c0.29,0,0.53,0,0.73,0c0.19,0,0.38,0,0.58,0l17.91-0.15c0.68,0.09,1.39,0.12,2.11,0.07
		c0.73-0.05,1.48-0.17,2.26-0.36c0.97-0.1,1.94-0.29,2.91-0.58c0.97-0.29,1.8-0.68,2.48-1.17c1.36-0.87,2.37-1.99,3.06-3.35
		c0.68-1.36,1.31-2.86,1.9-4.51c0.09-0.39,0.22-0.76,0.36-1.09c0.15-0.34,0.27-0.66,0.36-0.95l1.89-5.39v24.46h-74.11l3.35-1.02
		c0.78-0.09,1.68-0.29,2.7-0.58c1.02-0.29,2.06-0.58,3.13-0.87c0.97-0.39,1.94-0.76,2.92-1.09c0.97-0.34,1.84-0.7,2.62-1.09
		c0.48-0.19,0.92-0.44,1.31-0.73c0.38-0.29,0.68-0.53,0.87-0.73c0.19-0.29,0.36-0.58,0.5-0.87c0.15-0.29,0.32-0.58,0.51-0.87
		c0.19-0.58,0.32-1.17,0.36-1.75s0.07-1.17,0.07-1.75c0-0.38,0-0.8,0-1.23s0-0.9,0-1.39v-79.06c0-0.09,0-0.27,0-0.51
		c0-0.24,0.05-0.51,0.15-0.8c0-0.19,0-0.43,0-0.72c0-0.29,0-0.58,0-0.87c0-0.39-0.03-0.75-0.07-1.09c-0.05-0.34-0.12-0.7-0.22-1.09
		c-0.1-0.58-0.24-1.14-0.44-1.67c-0.19-0.54-0.48-1.05-0.87-1.53c-0.2-0.19-0.49-0.44-0.87-0.73c-0.39-0.29-0.83-0.53-1.31-0.73
		c-0.78-0.38-1.65-0.75-2.62-1.09c-0.97-0.34-1.95-0.71-2.92-1.09c-1.07-0.29-2.11-0.58-3.13-0.87c-1.02-0.29-1.92-0.53-2.7-0.73
		l-3.35-1.17h49.35l-3.2,1.31c-0.58,0.39-1.26,0.68-2.03,0.87c-0.78,0.19-1.6,0.39-2.48,0.58c-0.19,0.1-0.39,0.17-0.58,0.22
		s-0.38,0.12-0.58,0.22c-1.65,0.38-3.23,0.85-4.73,1.38c-1.5,0.54-2.54,1.15-3.13,1.82c-0.1,0.19-0.22,0.36-0.36,0.5
		c-0.15,0.14-0.27,0.3-0.36,0.5c-0.58,1.05-0.92,2.12-1.02,3.21c-0.09,1.1-0.14,2.31-0.14,3.64V625.66z"/>
	<path class="st0" d="M1415.67,579.51c0.09,1.17,0.17,2.28,0.21,3.35c0.05,1.07,0.07,2.14,0.07,3.21c0,11.94-2.72,21.54-8.15,28.82
		c-5.43,7.28-11.41,12.86-17.91,16.75c-4.47,2.72-8.76,4.76-12.88,6.11c-4.13,1.37-7.36,2.19-9.68,2.48
		c-1.36,0.19-2.89,0.36-4.59,0.51c-1.7,0.15-3.47,0.22-5.31,0.22c-0.97,0-1.94-0.03-2.91-0.07c-0.97-0.05-1.94-0.07-2.92-0.07
		c-1.36-0.1-2.72-0.17-4.08-0.22c-1.36-0.05-2.67-0.13-3.93-0.22c-2.13-0.2-4.15-0.34-6.04-0.44c-1.89-0.1-3.47-0.15-4.73-0.15
		h-30.86l3.2-1.17c0.68-0.19,1.46-0.44,2.33-0.73c0.87-0.29,1.75-0.58,2.62-0.87c1.65-0.58,3.23-1.24,4.73-1.97
		c1.5-0.73,2.55-1.48,3.13-2.25c0.19-0.2,0.34-0.39,0.44-0.58c0.09-0.2,0.19-0.34,0.29-0.44c0.58-0.97,0.99-1.92,1.23-2.84
		c0.25-0.92,0.36-1.96,0.36-3.13v-79.49c0-1.26-0.07-2.43-0.22-3.49c-0.15-1.07-0.6-2.09-1.38-3.06c-0.68-0.78-1.78-1.48-3.28-2.11
		c-1.5-0.63-3.08-1.19-4.73-1.67c-0.97-0.39-1.92-0.71-2.84-0.95c-0.92-0.25-1.77-0.51-2.55-0.8l-3.2-1.31h26.5
		c1.27,0.1,2.77,0.1,4.51,0c1.75-0.09,3.69-0.19,5.83-0.29c2.13,0,4.39-0.05,6.77-0.15c2.37-0.09,4.88-0.15,7.5-0.15
		c1.75,0,3.49,0.03,5.24,0.07c1.75,0.05,3.49,0.13,5.24,0.22c1.26,0.1,2.47,0.2,3.64,0.29c1.17,0.1,2.33,0.25,3.49,0.44
		c2.52,0.39,5.34,1.09,8.44,2.11c3.11,1.01,6.31,2.45,9.61,4.29c6.21,3.49,12.02,8.52,17.4,15.06c5.38,6.55,8.52,14.83,9.39,24.83
		V579.51z M1332.68,546.32v78.33c0,1.56,0.19,2.94,0.58,4.15c0.39,1.22,1.21,2.21,2.48,2.99c0.09,0.09,0.22,0.17,0.36,0.22
		c0.15,0.05,0.36,0.07,0.66,0.07c1.26,0.29,3.32,0.58,6.18,0.87c2.86,0.29,5.99,0.44,9.39,0.44c0.78,0,1.53,0,2.26,0
		c0.73,0,1.43-0.05,2.11-0.15c3.11-0.09,6.14-0.38,9.1-0.87c2.96-0.49,5.51-1.21,7.65-2.19c1.65-0.78,3.51-1.62,5.6-2.54
		c2.09-0.92,4.25-2.06,6.48-3.43c4.27-2.71,8.25-6.74,11.94-12.08c3.69-5.33,5.73-13,6.12-23c0-0.19,0-0.36,0-0.51
		c0-0.15,0-0.31,0-0.51c0-0.09,0-0.24,0-0.44c0-0.19,0-0.34,0-0.44c0-10.68-3.33-20.42-9.97-29.26
		c-6.65-8.83-15.65-14.51-27.01-17.04c-1.17-0.28-3.25-0.53-6.26-0.72c-3.02-0.2-6.22-0.25-9.61-0.15c-0.1,0-0.2,0-0.29,0
		c-0.1,0-0.2,0-0.29,0c-3.4,0-6.58,0.12-9.54,0.36c-2.96,0.24-4.98,0.65-6.04,1.23c-0.78,0.39-1.29,1.02-1.53,1.9
		c-0.24,0.87-0.36,1.84-0.36,2.91V546.32z"/>
</g>
<path class="st0" d="M953.72,532.05l2.48,1.31c0.49,0.2,0.97,0.39,1.46,0.58c0.48,0.19,0.97,0.39,1.45,0.58
	c0.1,0,0.19,0.03,0.29,0.07c0.1,0.05,0.24,0.12,0.44,0.22c1.55,0.58,3.03,1.21,4.44,1.89c1.4,0.68,2.35,1.51,2.84,2.48
	c0.38,0.68,0.63,1.82,0.73,3.42c0.1,1.6,0.15,3.37,0.15,5.32c0,0.78,0,1.58,0,2.4c0,0.83,0,1.68,0,2.55c0,0.87,0,1.72,0,2.54
	c0,0.83,0,1.58,0,2.26v62.02c-2.04-1.84-7.55-7.42-16.52-16.74c-8.98-9.32-18.61-19.36-28.9-30.13
	c-5.05-5.24-10.02-10.38-14.92-15.43c-4.9-5.04-9.39-9.66-13.47-13.83c-2.13-2.22-3.87-4.18-5.25-5.92
	c-2.98-4.29-27.29-37.53-67-41.49c-38.56-3.85-54.89,23.38-54.89,23.38s29.99-28.46,68.61-12.71c19.59,7.99,32.5,18.59,40.48,27.1
	v80.39c0,0.97,0,2.03,0,3.2s0,2.33,0,3.49c-0.1,2.52-0.22,4.88-0.36,7.06c-0.15,2.18-0.46,3.71-0.94,4.59
	c-0.58,1.07-1.63,1.99-3.13,2.76c-1.5,0.78-3.08,1.5-4.73,2.18c-0.49,0.2-0.95,0.39-1.38,0.58c-0.44,0.2-0.9,0.34-1.39,0.44
	l-2.48,1.17h38l-4.08-1.31c-0.39-0.09-0.78-0.22-1.17-0.36c-0.39-0.15-0.83-0.31-1.31-0.51c-1.55-0.58-3.04-1.21-4.44-1.89
	c-1.41-0.68-2.36-1.5-2.84-2.48c-0.49-0.97-0.85-2.23-1.09-3.78c-0.24-1.55-0.41-3.1-0.51-4.66c0-0.58,0-1.16,0-1.74s0-1.17,0-1.75
	c0-0.78,0-1.53,0-2.25c0-0.73,0.05-1.39,0.15-1.97c0-0.58,0-1.14,0-1.68c0-0.53,0-0.99,0-1.38v-62.9c3.68,3.59,9.8,9.68,18.34,18.27
	c8.54,8.59,17.57,17.83,27.08,27.73c0.39,0.49,0.82,0.95,1.31,1.39c0.48,0.44,0.92,0.9,1.31,1.39c2.13,2.23,4.22,4.41,6.26,6.55
	c2.04,2.14,4.08,4.27,6.11,6.41c1.84,1.94,3.15,3.3,3.93,4.08c0.78,0.78,1.45,1.46,2.04,2.04c0.97,1.07,2.5,2.74,4.59,5.02
	c2.08,2.29,6.92,7.65,14.48,16.09h6.99v-82.55c0-1.07,0-2.09,0-3.06c0-0.87,0-1.87,0-2.99c0-1.11,0.05-2.25,0.15-3.42
	c0.1-2.04,0.27-3.96,0.51-5.75c0.24-1.8,0.61-2.94,1.09-3.42c0.97-0.97,2.06-1.77,3.27-2.41c1.21-0.63,2.6-1.29,4.15-1.96
	c0.29-0.1,0.56-0.19,0.8-0.29c0.24-0.1,0.51-0.24,0.8-0.44l4.08-1.75H953.72z"/>
<path class="st0" d="M838.34,632.79c0,0,12.91,12.71,30.18,28.59c10.89,10.02,21.07,18.65,38.27,28.07
	c27.54,15.09,35.56,17.2,35.56,17.2s-24.05-3.6-55.27-22.09c-31.21-18.5-56.44-44.21-63.58-52.48"/>
<path class="st0" d="M832.26,632.24"/>
<path class="st0" d="M991.38,464.55"/>
<g class="st1">
	<path id="path1447_2_" class="st0" d="M1018.14,305.18c7.28-10.28,7.96-8.84,6-10.81c-3.46-3.71-3.21-2.89-4.4-6.06
		c-0.15-1.65,0.34-2.01,1.56-1.23c0.73,0.47,2.1,1.38,2.31,1.93c0.21,0.55,0.6,0.65,2.23,2.68c2.32,2.88,3.17,0.82,2.54-0.37
		c-0.63-1.19-1.74-3.17-2.47-4.41c-0.78-1.32-1.08-2.42-0.72-2.68c0.64-0.47,2.56,0.54,4.29,3.24c1.8,2.83,2.46,1.3,1.97-0.33
		c-0.99-3.08-0.69-2.45-1.04-4.29c0.26-0.69,1.89-1.18,3.35,1.53c1.1,2.04,0.96,1.21,1.23,0.56c0.21-0.5,0.15-1.59-0.14-2.42
		c-0.6-1.73-0.14-4.55,0.77-4.67c0.34-0.05,0.93,0.8,1.31,1.88c0.87,2.45,1.74,2.39,2.14-0.14c0.26-1.66,0.43-1.8,1.19-0.98
		c0.79,0.85,0.93,0.76,1.26-0.73c0.25-1.13,0.63-1.49,1.16-1.08c0.61,0.47,1.21,0.36,2.65-0.47c3.21-1.85,5.58-2.44,5.92-1.47
		c0.17,0.47-0.16,1.42-0.72,2.11c-0.56,0.69-0.77,1.38-0.48,1.53c0.3,0.15-0.16,0.36-1.02,0.48c-1.15,0.15-1.35,0.44-0.77,1.07
		c0.66,0.72,0.42,0.85-1.47,0.78c-2.02-0.08-2.09-0.02-0.71,0.51c2.37,0.91,2.11,1.42-0.79,1.55c-3.16,0.14-3.26,0.37-0.32,0.79
		c1.66,0.24,1.99,0.46,1.35,0.92c-0.46,0.34-1.56,0.6-2.44,0.58c-4.12-0.08-6.51,0.16-6.33,0.65c0.1,0.29,0.7,0.47,1.31,0.38
		c1.32-0.18,7.65,1.17,7.83,1.67c0.07,0.19-2.57,0.52-5.85,0.74c-3.29,0.22-5.93,0.53-5.87,0.7c0.18,0.52,4.94,1.44,6.4,1.24
		c0.76-0.1,2.2,0.27,3.2,0.83l1.82,1.02l-3.06,0c-1.68,0-3.74,0.01-4.58,0.01c-0.84,0-2.68-0.01-4.08-0.02
		c-1.66-0.02-3.79,1.53-3.35,1.86c0.37,0.28,1.22,0.44,1.9,0.35s3.57,0.6,6.43,1.54c5.05,1.66,5.12,1.71,2.54,1.76
		c-1.46,0.03-5.26-0.16-8.45-0.41c-3.18-0.26-6.32-0.24-6.97,0.03c-1.15,0.48-2.9,3.06-7.16,9.05L1018.14,305.18z"/>
	<path class="st0" d="M1033.37,501.41c-0.55,0.7-1.52,1.92-2.74,3.38c-0.05,0.07-0.09,0.13-0.15,0.2c-0.01,0-0.01,0-0.02,0
		c-2.06,2.43-4.86,5.43-6.95,7.72c-4.15,4.53-8.48,9.13-8.48,9.13s-7.15,0.35-5.83-0.79c1.32-1.13,6.08-4.77,9.28-7.43
		c2.09-1.74,7.14-6.59,9.88-9.83c0,0,12.24-14.76,10.81-33.2c-1.43-18.44-3.22-34.16-9.95-51.16c-6.73-17-19.72-46.54-21.3-67.13
		c-1.58-20.59,0.37-26.3,4.61-38.11c4.24-11.81,18.49-24.65,18.49-24.65l9.93-7.51c0,0-16.04,12.97-21.68,27.93
		c-5.64,14.96-8.04,27.36-4.58,46.57s22.7,66.68,25.08,77.85c2.38,11.18,6.3,29.47,4.65,36.77
		C1042.76,478.46,1039.23,494.54,1033.37,501.41z"/>
	<path class="st0" d="M1036.37,285.9c0,0-14.97,11.82-21.53,31.04c-3.26,9.61-4.26,21.18-2.51,33.92
		c0.86,6.37,2.38,13.03,4.35,19.85c1.94,6.82,4.34,13.79,6.89,20.79c2.51,6.99,5.16,14,7.65,20.89c2.51,6.89,4.74,13.63,6.61,20.13
		c3.71,12.98,5.48,24.89,5.05,34.85c-0.81,19.93-10.26,32.1-10.26,32.1s8.15-12.41,8.05-32.46c-0.07-10.03-2.25-21.97-6.22-34.97
		c-1.97-6.49-4.41-13.25-6.92-20.12c-2.53-6.87-5.22-13.87-7.76-20.85c-2.5-6.97-4.84-13.93-6.74-20.72
		c-1.86-6.79-3.26-13.43-4.02-19.77c-1.48-12.69-0.09-24.2,3.66-33.77C1020.13,297.67,1036.37,285.9,1036.37,285.9z"/>
	<path id="path1429_11_" class="st0" d="M1014.87,342.29c0.28-0.18,1.04,0.31,1.69,1.08c1.4,1.64,3.01,1.14,2.19-0.68
		c-0.41-0.89-0.21-0.83,1.02,0.36c1.6,1.54,2.75,1.5,2.13-0.07c-0.6-1.49,0.31-1.51,1.39-0.03c1.08,1.47,2.15,1.32,2.02-0.28
		c-0.07-0.82,0.06-0.82,0.89,0.01c1.05,1.04,1.68,0.91,2.01-0.4c0.16-0.66,0.38-0.55,0.99,0.52c0.76,1.3,1.92,1.36,1.86,0.09
		c-0.05-1.06,0.8-1.09,1.42-0.05c0.63,1.06,1.83,0.86,1.52-0.25c-0.1-0.33,0.28-0.17,0.84,0.36c0.61,0.58,1.14,0.74,1.33,0.39
		c0.37-0.67,5.06-0.4,7.03,0.41c0.75,0.31,2.49,1.14,3.86,1.85l2.49,1.29l-1.81-1.94c-1.9-2.03-5-3.89-7.19-4.31
		c-0.71-0.14-1.38-0.55-1.49-0.91c-0.11-0.37-0.48-0.49-0.81-0.28c-0.37,0.24-0.75,0.03-0.97-0.53c-0.25-0.62-0.71-0.81-1.44-0.6
		c-0.78,0.23-0.98,0.14-0.71-0.34c0.52-0.94-0.91-1.13-2.22-0.29c-1.08,0.69-1.09,0.68-0.61-0.46c0.42-1.01,0.34-1.15-0.63-1.02
		c-0.62,0.08-1.72,0.5-2.44,0.95l-1.31,0.81l0.92-1.45c1.16-1.83,0.19-2.08-2.19-0.56l-1.84,1.17l0.51-1.51l0.51-1.51l-2.59,1.9
		l-2.59,1.9l0.3-1.44c0.17-0.79,0.19-1.55,0.06-1.68c-0.38-0.38-2.3,1.01-3.11,2.25c-0.71,1.09-0.73,1.09-0.51-0.15
		c0.33-1.93-0.15-1.99-2.26-0.3c0,0-1.58,0.65-2.04,2.03C1012.59,339.97,1013.37,342.1,1014.87,342.29z"/>
	<path id="path1429_10_" class="st0" d="M1006.08,333.01c-0.31,0.11-0.94-0.53-1.41-1.42c-1-1.91-2.69-1.77-2.28,0.18
		c0.2,0.96,0.02,0.85-0.92-0.57c-1.22-1.85-2.35-2.07-2.09-0.4c0.25,1.59-0.64,1.41-1.37-0.28c-0.73-1.68-1.81-1.76-2.03-0.17
		c-0.11,0.81-0.24,0.78-0.87-0.2c-0.8-1.24-1.44-1.26-2.04-0.05c-0.3,0.6-0.49,0.45-0.85-0.72c-0.45-1.44-1.58-1.75-1.8-0.49
		c-0.18,1.04-1.02,0.88-1.4-0.27c-0.38-1.17-1.6-1.24-1.53-0.09c0.02,0.35-0.32,0.11-0.74-0.53c-0.47-0.7-0.95-0.97-1.21-0.68
		c-0.51,0.58-5.02-0.72-6.77-1.94c-0.67-0.47-2.18-1.66-3.36-2.65l-2.14-1.8l1.35,2.29c1.41,2.4,4.03,4.89,6.06,5.78
		c0.66,0.29,1.23,0.84,1.26,1.22s0.36,0.58,0.73,0.45c0.42-0.15,0.74,0.13,0.83,0.73c0.11,0.66,0.52,0.95,1.28,0.9
		c0.81-0.06,0.98,0.08,0.62,0.49c-0.71,0.81,0.64,1.3,2.1,0.77c1.21-0.44,1.22-0.43,0.5,0.58c-0.64,0.89-0.58,1.04,0.39,1.14
		c0.62,0.06,1.78-0.12,2.59-0.39l1.46-0.5l-1.21,1.22c-1.53,1.54-0.64,1.99,2.02,1.03l2.05-0.74l-0.83,1.36l-0.83,1.36l2.95-1.28
		l2.95-1.28l-0.61,1.34c-0.34,0.74-0.53,1.47-0.43,1.63c0.28,0.46,2.47-0.48,3.53-1.51c0.93-0.91,0.95-0.9,0.47,0.26
		c-0.75,1.81-0.29,1.98,2.14,0.79c0,0,1.68-0.29,2.44-1.53C1007.8,335.77,1007.51,333.52,1006.08,333.01z"/>
	<path id="path1429_9_" class="st0" d="M1015.07,355.68c0.33-0.22,1.26,0.34,2.08,1.25c1.74,1.94,3.68,1.28,2.62-0.89
		c-0.52-1.07-0.28-0.99,1.24,0.4c1.98,1.81,3.37,1.73,2.57-0.15c-0.77-1.79,0.33-1.84,1.69-0.08c1.35,1.75,2.65,1.53,2.43-0.41
		c-0.11-0.99,0.05-0.99,1.08-0.02c1.3,1.22,2.06,1.05,2.41-0.55c0.18-0.8,0.44-0.67,1.22,0.59c0.96,1.55,2.37,1.58,2.25,0.05
		c-0.1-1.28,0.94-1.34,1.72-0.1c0.8,1.26,2.24,0.98,1.83-0.35c-0.13-0.4,0.34-0.22,1.03,0.41c0.75,0.68,1.41,0.85,1.62,0.43
		c0.43-0.83,6.1-0.64,8.52,0.27c0.92,0.35,3.05,1.3,4.72,2.11l3.05,1.48l-2.26-2.29c-2.36-2.39-6.17-4.55-8.83-4.99
		c-0.86-0.14-1.69-0.62-1.84-1.06c-0.15-0.44-0.59-0.58-0.99-0.31c-0.44,0.3-0.91,0.06-1.19-0.61c-0.32-0.75-0.89-0.96-1.76-0.68
		c-0.94,0.31-1.17,0.2-0.87-0.39c0.6-1.16-1.13-1.34-2.69-0.28c-1.29,0.87-1.3,0.86-0.76-0.54c0.48-1.23,0.37-1.4-0.8-1.22
		c-0.75,0.11-2.06,0.66-2.92,1.22l-1.56,1.02l1.06-1.78c1.34-2.26,0.16-2.52-2.67-0.61l-2.19,1.48l0.56-1.84l0.56-1.84l-3.08,2.38
		l-3.08,2.38l0.32-1.75c0.18-0.96,0.19-1.88,0.02-2.04c-0.47-0.45-2.75,1.3-3.69,2.82c-0.82,1.34-0.84,1.34-0.62-0.16
		c0.34-2.34-0.24-2.41-2.74-0.29c0,0-1.89,0.84-2.41,2.52C1012.24,352.95,1013.24,355.51,1015.07,355.68z"/>
	<path id="path1429_5_" class="st0" d="M1005.42,344.77c-0.35,0.19-1.23-0.44-1.96-1.42c-1.57-2.08-3.56-1.59-2.69,0.67
		c0.43,1.11,0.19,1.01-1.21-0.5c-1.82-1.97-3.22-2.01-2.57-0.07c0.61,1.84-0.48,1.8-1.69-0.06c-1.2-1.86-2.51-1.75-2.46,0.2
		c0.03,0.99-0.13,0.98-1.07-0.07c-1.19-1.33-1.96-1.22-2.45,0.34c-0.24,0.78-0.49,0.63-1.16-0.69c-0.82-1.63-2.23-1.78-2.24-0.24
		c-0.01,1.28-1.05,1.26-1.72-0.04c-0.69-1.32-2.15-1.17-1.85,0.2c0.09,0.41-0.36,0.19-0.99-0.49c-0.69-0.74-1.33-0.97-1.58-0.57
		c-0.5,0.79-6.14,0.13-8.46-0.99c-0.89-0.43-2.93-1.55-4.53-2.5l-2.91-1.73l2.06,2.47c2.15,2.58,5.77,5.05,8.38,5.71
		c0.85,0.22,1.63,0.76,1.74,1.21c0.11,0.45,0.54,0.63,0.96,0.39c0.47-0.26,0.91,0.01,1.14,0.71c0.26,0.77,0.8,1.03,1.7,0.82
		c0.96-0.23,1.19-0.1,0.83,0.46c-0.69,1.1,1.02,1.43,2.66,0.51c1.35-0.76,1.37-0.75,0.71,0.6c-0.58,1.19-0.49,1.36,0.69,1.28
		c0.75-0.05,2.11-0.49,3.01-0.97l1.64-0.88l-1.21,1.69c-1.53,2.13-0.37,2.5,2.61,0.83l2.3-1.29l-0.72,1.79l-0.72,1.79l3.26-2.11
		l3.26-2.11l-0.47,1.72c-0.26,0.95-0.34,1.86-0.2,2.03c0.43,0.49,2.85-1.06,3.91-2.5c0.93-1.27,0.95-1.26,0.61,0.22
		c-0.54,2.31,0.04,2.42,2.71,0.52c0,0,1.95-0.68,2.61-2.31S1007.23,345.1,1005.42,344.77z"/>
	<path id="path1421_39_" class="st0" d="M1021.97,375.01c3.05,0.82,3.2,0.78,3.05-1.02c-0.12-1.47-0.02-1.49,1.63-0.29
		c1.95,1.42,3.28,0.89,2.23-0.89c-0.93-1.58,0.88-2.01,1.97-0.46c1,1.41,3.19,1.1,2.48-0.35c-0.79-1.61,0.56-1.99,2.35-0.65
		c1.33,0.99,1.73,1.02,1.81,0.14c0.16-1.74,0.97-2.1,2.37-1.05c0.88,0.66,1.58,0.64,2.28-0.06c0.75-0.75,1.28-0.72,2.07,0.13
		c0.84,0.9,1.21,0.89,1.76-0.04c0.48-0.81,1.12-1.01,2.08-0.66c0.76,0.28,1.49,0.23,1.61-0.11c0.12-0.34,0.77-0.49,1.43-0.32
		s1.33-0.06,1.49-0.5c0.16-0.44,0.55-0.6,0.87-0.36s2.29,0.13,4.38-0.25c2.09-0.38,4.14-0.43,4.55-0.13c0.41,0.31,1,0.33,1.32,0.05
		c0.32-0.28,1.23-0.31,2.04-0.06c1.82,0.56,2.95-0.32,1.65-1.28c-0.53-0.39-2.7-0.72-4.83-0.73s-4.79-0.37-5.91-0.81
		c-1.12-0.44-2.56-0.66-3.21-0.49c-0.87,0.23-1.02,0.05-0.6-0.68c0.42-0.72-0.02-0.78-1.62-0.21c-1.21,0.43-1.86,0.47-1.44,0.08
		c1.3-1.2-0.63-1.84-2.45-0.82c-1.64,0.92-1.7,0.9-1.16-0.48c0.46-1.18,0.32-1.38-0.74-1.06c-0.72,0.22-2.02,1-2.88,1.74l-1.57,1.34
		l0.74-1.75c0.9-2.14-0.23-2.09-2.8,0.13c-1.85,1.6-1.91,1.6-1.49-0.02c0.37-1.45,0.23-1.62-1-1.25c-0.79,0.24-2.16,1.03-3.05,1.75
		c-1.16,0.94-1.37,0.98-0.75,0.14c1.39-1.87-0.68-1.83-2.82,0.06c-1.07,0.95-2.13,1.59-2.35,1.42s-0.13-0.55,0.21-0.85
		s0.38-0.72,0.09-0.94s-1.34,0.31-2.33,1.19c-1.54,1.35-1.91,1.41-2.6,0.42c-0.75-1.09-0.93-1.01-3.03,1.38c0,0-1.42,1.4-1.85,3.87
		C1017.5,372.74,1020.09,374.84,1021.97,375.01z"/>
	<path id="path1421_38_" class="st0" d="M1006.88,359.08c-2.84-1.39-2.99-1.37-3.19,0.42c-0.16,1.47-0.26,1.47-1.65-0.03
		c-1.65-1.76-3.05-1.49-2.36,0.45c0.62,1.73-1.24,1.8-2.02,0.08c-0.71-1.58-2.92-1.68-2.5-0.12c0.47,1.73-0.92,1.84-2.43,0.19
		c-1.12-1.22-1.5-1.33-1.75-0.48c-0.48,1.68-1.34,1.88-2.52,0.59c-0.74-0.82-1.43-0.93-2.25-0.37c-0.88,0.59-1.4,0.46-2.01-0.51
		c-0.66-1.04-1.02-1.1-1.74-0.3c-0.62,0.7-1.29,0.78-2.17,0.26c-0.69-0.42-1.42-0.51-1.6-0.2c-0.19,0.31-0.84,0.33-1.46,0.05
		c-0.62-0.28-1.32-0.19-1.56,0.21c-0.24,0.4-0.66,0.49-0.92,0.19s-2.23-0.56-4.35-0.58c-2.12-0.03-4.14-0.35-4.49-0.73
		c-0.34-0.38-0.92-0.51-1.29-0.3s-1.27,0.07-2.01-0.33c-1.68-0.89-2.95-0.24-1.86,0.95c0.44,0.49,2.52,1.22,4.61,1.63
		c2.09,0.41,4.63,1.27,5.65,1.91c1.02,0.64,2.39,1.13,3.06,1.09c0.89-0.06,1.01,0.14,0.46,0.78c-0.55,0.63-0.13,0.77,1.56,0.51
		c1.27-0.19,1.91-0.11,1.43,0.19c-1.5,0.93,0.27,1.93,2.25,1.27c1.78-0.6,1.84-0.56,1.05,0.69c-0.67,1.07-0.57,1.29,0.53,1.18
		c0.75-0.08,2.17-0.61,3.16-1.17l1.8-1.02l-1.05,1.58c-1.29,1.93-0.17,2.1,2.77,0.4c2.12-1.22,2.18-1.21,1.46,0.3
		c-0.64,1.35-0.53,1.55,0.74,1.41c0.82-0.09,2.31-0.6,3.32-1.14c1.32-0.71,1.53-0.71,0.76,0c-1.72,1.58,0.33,1.92,2.78,0.47
		c1.23-0.73,2.39-1.16,2.58-0.95s0.02,0.56-0.37,0.79c-0.39,0.23-0.51,0.64-0.26,0.91s1.38-0.06,2.51-0.72
		c1.76-1.04,2.15-1.03,2.63,0.08c0.53,1.21,0.73,1.17,3.23-0.78c0,0,1.65-1.11,2.55-3.45S1008.69,359.6,1006.88,359.08z"/>
	<path id="path1421_37_" class="st0" d="M1025.38,391.81l1.18,0.76c1.47,0.95,3.16,0.44,2.52-0.77c-0.78-1.49,0.46-1.93,2.13-0.77
		c1.84,1.29,2.96,0.62,1.91-1.15c-0.7-1.17-0.65-1.2,1.11-0.47c2.31,0.96,3.78,0.21,2.73-1.39c-0.77-1.17-0.73-1.2,1.39-0.7
		c2.95,0.7,3.09,0.65,2.89-1.07c-0.16-1.41-0.07-1.42,1.55-0.32c1.91,1.3,3.17,0.75,2.11-0.92c-0.94-1.49,0.78-1.95,1.87-0.5
		c1,1.32,3.09,0.96,2.37-0.42c-0.8-1.52,0.47-1.92,2.23-0.69c1.3,0.91,1.69,0.93,1.74,0.08c0.1-1.67,0.86-2.04,2.23-1.08
		c0.87,0.61,1.53,0.57,2.18-0.13c0.69-0.74,1.21-0.73,1.99,0.06c0.83,0.83,1.19,0.82,1.69-0.09c0.44-0.79,1.05-1.01,1.97-0.7
		c0.74,0.24,1.43,0.18,1.54-0.15c0.11-0.33,0.72-0.49,1.36-0.35c0.64,0.13,1.27-0.1,1.41-0.53c0.14-0.42,0.51-0.59,0.82-0.37
		c0.31,0.22,2.2,0.05,4.19-0.38c1.99-0.42,3.95-0.54,4.35-0.26c0.4,0.28,0.97,0.28,1.27,0c0.3-0.28,1.17-0.33,1.95-0.12
		c1.76,0.48,2.81-0.39,1.54-1.28c-0.52-0.36-2.61-0.61-4.65-0.55c-2.04,0.06-4.6-0.21-5.69-0.59c-1.09-0.39-2.48-0.55-3.09-0.37
		c-0.82,0.24-0.98,0.08-0.6-0.63c0.38-0.7-0.04-0.74-1.56-0.15c-1.14,0.45-1.76,0.5-1.38,0.12c1.21-1.19-0.66-1.75-2.37-0.71
		c-1.54,0.94-1.6,0.91-1.12-0.43c0.41-1.14,0.26-1.33-0.74-0.99c-0.68,0.23-1.9,1.02-2.71,1.76l-1.47,1.33l0.65-1.7
		c0.8-2.08-0.29-2-2.67,0.21c-1.72,1.59-1.78,1.59-1.43,0.03c0.31-1.4,0.17-1.56-0.99-1.17c-0.75,0.26-2.03,1.05-2.86,1.77
		c-1.09,0.94-1.29,0.98-0.71,0.16c1.27-1.84-0.71-1.73-2.7,0.15c-1,0.94-1.99,1.59-2.21,1.43s-0.14-0.52,0.18-0.82
		c0.32-0.3,0.34-0.71,0.05-0.91c-0.29-0.2-1.28,0.34-2.2,1.21c-1.43,1.34-1.79,1.41-2.48,0.48c-0.75-1.02-0.93-0.94-2.86,1.41
		c-1.95,2.38-2.07,2.43-2.38,1.12c-0.44-1.89-1.75-1.52-3.09,0.88c-1.03,1.84-1.15,1.9-1.51,0.79c-0.62-1.9-2.29-0.85-2.92,1.84
		c-0.59,2.51-0.93,2.66-1.58,0.69c-0.59-1.79-1.93-1-2.41,1.42c0,0-0.22,1.68,0.35,2.93
		C1023.03,390.1,1024.78,391.89,1025.38,391.81z"/>
	<path id="path1421_36_" class="st0" d="M1012.63,376.11l-0.96-1.03c-1.19-1.29-2.95-1.21-2.64,0.11c0.39,1.63-0.92,1.76-2.25,0.21
		c-1.46-1.71-2.71-1.34-2.13,0.64c0.39,1.31,0.33,1.32-1.19,0.18c-2-1.51-3.61-1.15-2.99,0.66c0.45,1.33,0.41,1.34-1.52,0.33
		c-2.68-1.41-2.83-1.4-3.07,0.31c-0.2,1.4-0.29,1.4-1.58-0.07c-1.52-1.74-2.88-1.52-2.27,0.37c0.54,1.68-1.24,1.69-1.94,0.02
		c-0.64-1.53-2.75-1.7-2.39-0.19c0.4,1.68-0.94,1.74-2.33,0.11c-1.03-1.2-1.4-1.32-1.66-0.51c-0.51,1.59-1.34,1.76-2.43,0.49
		c-0.69-0.8-1.34-0.93-2.15-0.42c-0.86,0.54-1.35,0.4-1.91-0.55c-0.6-1.02-0.95-1.09-1.65-0.33c-0.62,0.66-1.26,0.71-2.08,0.18
		c-0.65-0.42-1.34-0.53-1.53-0.24c-0.19,0.29-0.82,0.29-1.4,0c-0.58-0.29-1.26-0.22-1.5,0.16c-0.24,0.38-0.64,0.45-0.89,0.16
		c-0.25-0.29-2.12-0.6-4.15-0.68s-3.96-0.46-4.28-0.83c-0.32-0.37-0.87-0.52-1.23-0.32c-0.36,0.19-1.22,0.03-1.92-0.37
		c-1.58-0.9-2.82-0.32-1.81,0.85c0.41,0.48,2.38,1.24,4.37,1.7c1.99,0.45,4.4,1.35,5.36,2s2.26,1.15,2.9,1.13
		c0.86-0.03,0.97,0.17,0.42,0.76c-0.54,0.59-0.15,0.73,1.48,0.53c1.22-0.15,1.83-0.05,1.36,0.22c-1.47,0.85,0.21,1.86,2.12,1.28
		c1.73-0.52,1.78-0.48,0.98,0.69c-0.68,1-0.59,1.22,0.47,1.14c0.72-0.06,2.1-0.52,3.06-1.03l1.75-0.92l-1.06,1.48
		c-1.3,1.82-0.22,2.01,2.64,0.47c2.07-1.11,2.12-1.1,1.39,0.33c-0.65,1.28-0.55,1.47,0.67,1.38c0.79-0.06,2.23-0.51,3.22-1
		c1.29-0.64,1.49-0.63,0.73,0.03c-1.69,1.46,0.26,1.85,2.65,0.53c1.2-0.66,2.32-1.04,2.5-0.84s0,0.54-0.38,0.75
		c-0.38,0.21-0.51,0.6-0.28,0.86c0.23,0.27,1.32-0.01,2.43-0.62c1.72-0.94,2.09-0.92,2.52,0.15c0.47,1.18,0.66,1.14,3.12-0.65
		c2.49-1.81,2.61-1.84,2.58-0.49c-0.05,1.94,1.31,1.91,3.21-0.08c1.45-1.53,1.59-1.56,1.66-0.39c0.13,2,2.01,1.4,3.29-1.05
		c1.2-2.28,1.57-2.34,1.7-0.28c0.12,1.88,1.61,1.45,2.69-0.78c0,0,0.63-1.57,0.4-2.93C1014.48,378.36,1013.23,376.19,1012.63,376.11
		z"/>
	<path id="path1421_30_" class="st0" d="M1032.68,409.04l1.37,0.88c1.7,1.1,3.65,0.5,2.92-0.89c-0.9-1.72,0.53-2.23,2.46-0.89
		c2.13,1.49,3.42,0.71,2.2-1.33c-0.81-1.36-0.75-1.38,1.28-0.54c2.67,1.11,4.37,0.24,3.16-1.61c-0.89-1.36-0.84-1.38,1.6-0.8
		c3.41,0.8,3.57,0.75,3.34-1.23c-0.18-1.63-0.08-1.65,1.79-0.37c2.21,1.5,3.66,0.87,2.44-1.07c-1.09-1.72,0.9-2.25,2.16-0.58
		c1.16,1.53,3.57,1.11,2.73-0.48c-0.93-1.76,0.55-2.22,2.58-0.8c1.5,1.05,1.95,1.07,2.01,0.09c0.11-1.93,1-2.36,2.58-1.25
		c1,0.7,1.77,0.66,2.52-0.15c0.8-0.86,1.4-0.84,2.3,0.07c0.96,0.96,1.37,0.94,1.95-0.1c0.5-0.91,1.21-1.16,2.28-0.81
		c0.85,0.28,1.65,0.2,1.78-0.18c0.13-0.38,0.83-0.57,1.57-0.41s1.47-0.12,1.63-0.61c0.16-0.49,0.59-0.69,0.95-0.43
		c0.36,0.25,2.54,0.06,4.85-0.43s4.57-0.63,5.03-0.3c0.46,0.32,1.12,0.33,1.46,0.01c0.34-0.32,1.35-0.38,2.25-0.14
		c2.03,0.56,3.25-0.46,1.78-1.48c-0.6-0.42-3.02-0.7-5.38-0.64c-2.36,0.07-5.32-0.24-6.57-0.69c-1.26-0.45-2.86-0.64-3.57-0.43
		c-0.95,0.28-1.13,0.09-0.69-0.73c0.44-0.81-0.05-0.86-1.81-0.17c-1.32,0.52-2.04,0.58-1.59,0.14c1.4-1.37-0.77-2.02-2.74-0.82
		c-1.78,1.08-1.85,1.06-1.3-0.49c0.47-1.32,0.3-1.54-0.86-1.14c-0.79,0.27-2.2,1.18-3.13,2.03l-1.7,1.54l0.75-1.96
		c0.93-2.41-0.33-2.31-3.09,0.24c-1.99,1.84-2.06,1.84-1.65,0.03c0.36-1.62,0.2-1.81-1.15-1.35c-0.86,0.3-2.35,1.21-3.31,2.04
		c-1.26,1.09-1.49,1.14-0.82,0.18c1.47-2.12-0.82-2-3.12,0.17c-1.15,1.09-2.3,1.83-2.55,1.66s-0.16-0.6,0.21-0.95
		c0.37-0.34,0.39-0.82,0.06-1.05c-0.33-0.23-1.48,0.4-2.54,1.4c-1.65,1.55-2.07,1.63-2.86,0.56c-0.87-1.18-1.07-1.08-3.3,1.63
		c-2.26,2.75-2.39,2.81-2.75,1.29c-0.51-2.19-2.02-1.76-3.57,1.02c-1.19,2.13-1.33,2.2-1.75,0.92c-0.72-2.2-2.65-0.98-3.38,2.13
		c-0.68,2.9-1.08,3.07-1.82,0.8c-0.68-2.07-2.23-1.16-2.79,1.65c0,0-0.25,1.94,0.4,3.39S1031.98,409.12,1032.68,409.04z"/>
	<path id="path1421_29_" class="st0" d="M1017.62,391.46l-1.25-1.05c-1.55-1.3-3.56-0.96-3.01,0.51c0.68,1.82-0.81,2.15-2.55,0.57
		c-1.92-1.75-3.3-1.14-2.35,1.04c0.63,1.45,0.57,1.47-1.34,0.38c-2.51-1.44-4.31-0.8-3.34,1.19c0.71,1.46,0.66,1.48-1.69,0.59
		c-3.28-1.23-3.44-1.19-3.47,0.8c-0.03,1.64-0.13,1.64-1.82,0.14c-2-1.77-3.52-1.33-2.55,0.75c0.86,1.84-1.18,2.12-2.22,0.3
		c-0.95-1.66-3.4-1.55-2.77,0.13c0.7,1.86-0.82,2.13-2.66,0.47c-1.36-1.23-1.8-1.31-1.98-0.35c-0.36,1.9-1.29,2.21-2.72,0.91
		c-0.91-0.82-1.67-0.88-2.52-0.18c-0.91,0.75-1.49,0.66-2.27-0.36c-0.83-1.08-1.24-1.11-1.95-0.15c-0.62,0.84-1.35,1-2.36,0.51
		c-0.81-0.39-1.61-0.41-1.79-0.05c-0.17,0.36-0.9,0.45-1.61,0.21c-0.71-0.25-1.47-0.07-1.7,0.4c-0.22,0.47-0.67,0.6-1,0.31
		s-2.51-0.38-4.86-0.19c-2.35,0.19-4.61,0.04-5.03-0.34c-0.42-0.38-1.07-0.47-1.45-0.19c-0.38,0.27-1.39,0.21-2.25-0.15
		c-1.94-0.81-3.28,0.04-1.96,1.24c0.54,0.49,2.9,1.08,5.25,1.32c2.35,0.23,5.24,0.92,6.43,1.52c1.19,0.6,2.76,1,3.49,0.88
		c0.98-0.16,1.13,0.05,0.59,0.81c-0.54,0.75-0.06,0.86,1.77,0.4c1.38-0.35,2.1-0.32,1.6,0.06c-1.56,1.18,0.5,2.1,2.61,1.16
		c1.91-0.85,1.97-0.81,1.23,0.65c-0.63,1.25-0.5,1.49,0.7,1.24c0.82-0.17,2.33-0.9,3.36-1.62l1.88-1.31l-1,1.85
		c-1.22,2.27,0.04,2.33,3.1,0.16c2.21-1.57,2.27-1.57,1.65,0.18c-0.56,1.56-0.42,1.77,0.97,1.48c0.89-0.18,2.49-0.91,3.54-1.61
		c1.38-0.92,1.62-0.94,0.84-0.08c-1.73,1.92,0.56,2.09,3.11,0.23c1.28-0.93,2.52-1.53,2.74-1.32s0.08,0.62-0.33,0.91
		c-0.41,0.29-0.49,0.76-0.19,1.03c0.3,0.27,1.51-0.21,2.7-1.06c1.84-1.33,2.26-1.36,2.91-0.19c0.71,1.28,0.92,1.21,3.48-1.2
		c2.59-2.44,2.73-2.49,2.89-0.93c0.22,2.24,1.78,2,3.67-0.56c1.45-1.96,1.6-2.01,1.85-0.69c0.43,2.27,2.5,1.31,3.62-1.68
		c1.04-2.79,1.46-2.91,1.91-0.56c0.41,2.14,2.06,1.43,2.97-1.28c0,0,0.49-1.89,0.03-3.41
		C1020.07,393.77,1018.32,391.46,1017.62,391.46z"/>
	<path id="path1421_28_" class="st0" d="M1039.65,428.71l1.37,0.88c1.7,1.1,3.65,0.5,2.92-0.89c-0.9-1.72,0.53-2.23,2.46-0.89
		c2.13,1.49,3.42,0.71,2.2-1.33c-0.81-1.36-0.75-1.38,1.28-0.54c2.67,1.11,4.37,0.24,3.16-1.61c-0.89-1.36-0.84-1.38,1.6-0.8
		c3.41,0.8,3.57,0.75,3.34-1.23c-0.18-1.63-0.08-1.65,1.79-0.37c2.21,1.5,3.66,0.87,2.44-1.07c-1.09-1.72,0.9-2.25,2.16-0.58
		c1.16,1.53,3.57,1.11,2.73-0.48c-0.93-1.76,0.55-2.22,2.58-0.8c1.5,1.05,1.95,1.07,2.01,0.09c0.11-1.93,1-2.36,2.58-1.25
		c1,0.7,1.77,0.66,2.52-0.15c0.8-0.86,1.4-0.84,2.3,0.07c0.96,0.96,1.37,0.94,1.95-0.1c0.5-0.91,1.21-1.16,2.28-0.81
		c0.85,0.28,1.65,0.2,1.78-0.18s0.83-0.56,1.57-0.41c0.74,0.16,1.47-0.12,1.63-0.61c0.16-0.49,0.59-0.69,0.95-0.43
		s2.54,0.06,4.85-0.43c2.3-0.49,4.57-0.63,5.03-0.3c0.46,0.32,1.12,0.33,1.46,0.01c0.34-0.32,1.35-0.38,2.25-0.14
		c2.03,0.56,3.25-0.46,1.78-1.48c-0.6-0.42-3.02-0.7-5.38-0.64c-2.36,0.07-5.32-0.24-6.57-0.69c-1.26-0.45-2.86-0.64-3.57-0.43
		c-0.95,0.28-1.13,0.09-0.69-0.73c0.44-0.81-0.05-0.86-1.81-0.17c-1.32,0.52-2.04,0.58-1.59,0.14c1.4-1.37-0.77-2.02-2.74-0.82
		c-1.78,1.08-1.85,1.06-1.3-0.49c0.47-1.32,0.3-1.54-0.86-1.14c-0.79,0.27-2.2,1.18-3.13,2.03l-1.7,1.54l0.75-1.96
		c0.93-2.41-0.33-2.31-3.09,0.24c-1.99,1.84-2.06,1.84-1.65,0.03c0.36-1.62,0.2-1.81-1.15-1.35c-0.86,0.29-2.35,1.21-3.31,2.04
		c-1.26,1.09-1.49,1.14-0.82,0.18c1.47-2.12-0.82-2-3.12,0.17c-1.15,1.09-2.3,1.83-2.55,1.66c-0.25-0.18-0.16-0.6,0.21-0.95
		c0.37-0.34,0.39-0.82,0.06-1.05c-0.33-0.23-1.48,0.4-2.54,1.4c-1.65,1.55-2.07,1.63-2.86,0.56c-0.87-1.18-1.07-1.08-3.3,1.63
		c-2.26,2.75-2.39,2.81-2.75,1.29c-0.51-2.19-2.02-1.76-3.57,1.02c-1.19,2.13-1.33,2.2-1.75,0.92c-0.72-2.2-2.65-0.98-3.38,2.13
		c-0.68,2.9-1.08,3.07-1.82,0.8c-0.68-2.07-2.23-1.16-2.79,1.65c0,0-0.25,1.94,0.4,3.39S1038.95,428.8,1039.65,428.71z"/>
	<path id="path1421_27_" class="st0" d="M1046.46,471.77l1.37,0.88c1.7,1.1,3.65,0.5,2.92-0.89c-0.9-1.72,0.53-2.23,2.46-0.89
		c2.13,1.49,3.42,0.71,2.2-1.33c-0.81-1.36-0.75-1.38,1.28-0.54c2.67,1.11,4.37,0.24,3.16-1.61c-0.89-1.36-0.84-1.38,1.6-0.8
		c3.41,0.8,3.57,0.75,3.34-1.23c-0.18-1.63-0.08-1.65,1.79-0.37c2.21,1.5,3.66,0.87,2.44-1.07c-1.09-1.72,0.9-2.25,2.16-0.58
		c1.16,1.53,3.57,1.11,2.73-0.48c-0.93-1.76,0.55-2.22,2.58-0.8c1.5,1.05,1.95,1.07,2.01,0.09c0.11-1.93,1-2.36,2.58-1.25
		c1,0.7,1.77,0.66,2.52-0.15c0.8-0.86,1.4-0.84,2.3,0.07c0.96,0.96,1.37,0.94,1.95-0.1c0.5-0.91,1.21-1.16,2.28-0.81
		c0.85,0.28,1.65,0.2,1.78-0.18c0.13-0.38,0.83-0.57,1.57-0.41c0.74,0.16,1.47-0.12,1.63-0.61c0.16-0.49,0.59-0.69,0.95-0.43
		c0.36,0.25,2.54,0.06,4.85-0.43c2.3-0.49,4.57-0.63,5.03-0.3c0.46,0.32,1.12,0.33,1.46,0.01c0.34-0.32,1.35-0.38,2.25-0.14
		c2.03,0.56,3.25-0.46,1.78-1.48c-0.6-0.42-3.02-0.7-5.38-0.64c-2.36,0.07-5.32-0.24-6.57-0.69c-1.26-0.45-2.86-0.64-3.57-0.43
		c-0.95,0.28-1.13,0.09-0.69-0.73c0.44-0.81-0.05-0.86-1.81-0.17c-1.32,0.52-2.04,0.58-1.59,0.14c1.4-1.37-0.77-2.02-2.74-0.82
		c-1.78,1.08-1.85,1.06-1.3-0.49c0.47-1.32,0.3-1.54-0.86-1.14c-0.79,0.27-2.2,1.18-3.13,2.03l-1.7,1.54l0.75-1.96
		c0.93-2.41-0.33-2.31-3.09,0.24c-1.99,1.84-2.06,1.84-1.65,0.03c0.36-1.62,0.2-1.81-1.15-1.35c-0.86,0.29-2.35,1.21-3.31,2.04
		c-1.26,1.09-1.49,1.14-0.82,0.18c1.47-2.12-0.82-2-3.12,0.17c-1.15,1.09-2.3,1.83-2.55,1.66c-0.25-0.18-0.16-0.6,0.21-0.95
		c0.37-0.34,0.39-0.82,0.06-1.05c-0.33-0.23-1.48,0.4-2.54,1.4c-1.65,1.55-2.07,1.63-2.86,0.56c-0.87-1.18-1.07-1.08-3.3,1.63
		c-2.26,2.75-2.39,2.81-2.75,1.29c-0.51-2.19-2.02-1.76-3.57,1.02c-1.19,2.13-1.33,2.2-1.75,0.92c-0.72-2.2-2.65-0.98-3.38,2.13
		c-0.68,2.9-1.08,3.07-1.82,0.8c-0.68-2.07-2.23-1.16-2.79,1.65c0,0-0.25,1.94,0.4,3.39S1045.76,471.86,1046.46,471.77z"/>
	<path id="path1421_26_" class="st0" d="M1045.07,449.6l1.37,0.88c1.7,1.1,3.65,0.5,2.92-0.89c-0.9-1.72,0.53-2.23,2.46-0.89
		c2.13,1.49,3.42,0.71,2.2-1.33c-0.81-1.36-0.75-1.38,1.28-0.54c2.67,1.11,4.37,0.24,3.16-1.61c-0.89-1.36-0.84-1.38,1.6-0.8
		c3.41,0.8,3.57,0.75,3.34-1.23c-0.18-1.63-0.08-1.65,1.79-0.37c2.21,1.5,3.66,0.87,2.44-1.07c-1.09-1.72,0.9-2.25,2.16-0.58
		c1.16,1.53,3.57,1.11,2.73-0.48c-0.93-1.76,0.55-2.22,2.58-0.8c1.5,1.05,1.95,1.07,2.01,0.09c0.11-1.93,1-2.36,2.58-1.25
		c1,0.7,1.77,0.66,2.52-0.15c0.8-0.86,1.4-0.84,2.3,0.07c0.96,0.96,1.37,0.94,1.95-0.1c0.5-0.91,1.21-1.16,2.28-0.81
		c0.85,0.28,1.65,0.2,1.78-0.18s0.83-0.56,1.57-0.41s1.47-0.12,1.63-0.61c0.16-0.49,0.59-0.69,0.95-0.43s2.54,0.06,4.85-0.43
		c2.3-0.49,4.57-0.63,5.03-0.3c0.46,0.32,1.12,0.33,1.46,0.01c0.34-0.32,1.35-0.38,2.25-0.14c2.03,0.56,3.25-0.46,1.78-1.48
		c-0.6-0.42-3.02-0.7-5.38-0.64s-5.32-0.24-6.57-0.69c-1.26-0.45-2.86-0.64-3.57-0.43c-0.95,0.28-1.13,0.09-0.69-0.73
		c0.44-0.81-0.05-0.86-1.81-0.17c-1.32,0.52-2.04,0.58-1.59,0.14c1.4-1.37-0.77-2.02-2.74-0.82c-1.78,1.08-1.85,1.06-1.3-0.49
		c0.47-1.32,0.3-1.54-0.86-1.14c-0.79,0.27-2.2,1.18-3.13,2.03l-1.7,1.54l0.75-1.96c0.93-2.41-0.33-2.31-3.09,0.24
		c-1.99,1.84-2.06,1.84-1.65,0.03c0.36-1.62,0.2-1.81-1.15-1.35c-0.86,0.29-2.35,1.21-3.31,2.04c-1.26,1.09-1.49,1.14-0.82,0.18
		c1.47-2.12-0.82-2-3.12,0.17c-1.15,1.09-2.3,1.83-2.55,1.66c-0.25-0.18-0.16-0.6,0.21-0.95c0.37-0.34,0.39-0.82,0.06-1.05
		c-0.33-0.23-1.47,0.4-2.54,1.4c-1.65,1.55-2.07,1.63-2.86,0.56c-0.87-1.18-1.07-1.08-3.3,1.63c-2.26,2.75-2.39,2.81-2.75,1.29
		c-0.51-2.19-2.02-1.76-3.57,1.02c-1.19,2.13-1.33,2.2-1.75,0.92c-0.72-2.2-2.65-0.98-3.38,2.13c-0.68,2.9-1.08,3.07-1.82,0.8
		c-0.68-2.07-2.23-1.16-2.79,1.65c0,0-0.25,1.94,0.4,3.39S1044.37,449.69,1045.07,449.6z"/>
	<path id="path1421_25_" class="st0" d="M1024.13,409.09l-1.4-1.21c-1.74-1.5-4.03-1.14-3.42,0.54c0.75,2.07-0.94,2.43-2.9,0.61
		c-2.16-2.01-3.73-1.34-2.69,1.15c0.7,1.65,0.63,1.67-1.52,0.41c-2.83-1.66-4.88-0.96-3.8,1.31c0.79,1.67,0.73,1.69-1.93,0.65
		c-3.71-1.44-3.89-1.4-3.95,0.86c-0.05,1.86-0.17,1.86-2.07,0.14c-2.25-2.04-3.98-1.55-2.91,0.82c0.95,2.1-1.37,2.39-2.52,0.31
		c-1.06-1.9-3.84-1.8-3.15,0.11c0.77,2.13-0.96,2.41-3.02,0.5c-1.53-1.42-2.02-1.51-2.24-0.42c-0.43,2.15-1.49,2.49-3.1,1
		c-1.02-0.95-1.89-1.02-2.86-0.23c-1.04,0.84-1.7,0.72-2.58-0.43c-0.93-1.23-1.39-1.27-2.21-0.19c-0.71,0.95-1.54,1.12-2.69,0.55
		c-0.91-0.45-1.83-0.49-2.03-0.08s-1.02,0.5-1.83,0.21c-0.8-0.29-1.67-0.1-1.93,0.43c-0.26,0.53-0.77,0.68-1.14,0.34
		s-2.85-0.46-5.52-0.27c-2.67,0.19-5.23-0.01-5.7-0.45c-0.47-0.44-1.21-0.54-1.65-0.24c-0.43,0.31-1.58,0.22-2.55-0.2
		c-2.2-0.94-3.73,0-2.24,1.38c0.61,0.56,3.28,1.27,5.95,1.56c2.66,0.29,5.94,1.11,7.28,1.8c1.34,0.7,3.12,1.17,3.95,1.04
		c1.11-0.17,1.28,0.08,0.66,0.93c-0.62,0.85-0.08,0.97,2,0.48c1.57-0.37,2.38-0.33,1.81,0.09c-1.78,1.32,0.54,2.39,2.95,1.36
		c2.17-0.94,2.25-0.9,1.38,0.76c-0.73,1.41-0.58,1.68,0.78,1.42c0.93-0.18,2.66-0.99,3.84-1.79l2.15-1.47l-1.16,2.09
		c-1.42,2.56,0.01,2.65,3.51,0.22c2.53-1.76,2.6-1.75,1.87,0.22c-0.66,1.76-0.5,2,1.08,1.69c1.02-0.2,2.83-1,4.04-1.78
		c1.58-1.02,1.85-1.04,0.96-0.07c-1.99,2.15,0.61,2.38,3.53,0.3c1.47-1.04,2.88-1.7,3.13-1.46c0.26,0.24,0.08,0.7-0.38,1.03
		c-0.47,0.33-0.57,0.85-0.23,1.17c0.34,0.31,1.72-0.21,3.07-1.17c2.1-1.49,2.58-1.51,3.3-0.18c0.79,1.47,1.03,1.39,3.97-1.32
		c2.97-2.74,3.13-2.79,3.29-1.02c0.23,2.54,1.99,2.29,4.17-0.59c1.67-2.21,1.84-2.27,2.11-0.75c0.46,2.58,2.82,1.52,4.13-1.86
		c1.22-3.15,1.69-3.29,2.17-0.62c0.44,2.44,2.32,1.65,3.39-1.41c0,0,0.59-2.14,0.08-3.88S1024.92,409.1,1024.13,409.09z"/>
	<path id="path1421_24_" class="st0" d="M1036.57,469.21l-1.4-1.21c-1.74-1.5-4.03-1.14-3.42,0.54c0.75,2.07-0.94,2.43-2.9,0.61
		c-2.16-2.01-3.73-1.34-2.69,1.15c0.7,1.65,0.63,1.67-1.52,0.41c-2.83-1.66-4.88-0.96-3.8,1.31c0.79,1.67,0.73,1.69-1.93,0.65
		c-3.71-1.44-3.89-1.4-3.95,0.86c-0.05,1.86-0.17,1.86-2.07,0.14c-2.25-2.04-3.98-1.55-2.91,0.82c0.95,2.1-1.37,2.39-2.52,0.31
		c-1.06-1.9-3.84-1.8-3.15,0.11c0.77,2.13-0.96,2.41-3.02,0.5c-1.53-1.42-2.02-1.51-2.24-0.42c-0.43,2.15-1.49,2.49-3.1,1
		c-1.02-0.95-1.89-1.02-2.86-0.23c-1.04,0.84-1.7,0.72-2.58-0.43c-0.93-1.23-1.39-1.27-2.21-0.19c-0.71,0.95-1.54,1.12-2.69,0.55
		c-0.91-0.45-1.83-0.49-2.03-0.08c-0.2,0.41-1.02,0.5-1.83,0.21c-0.8-0.29-1.67-0.1-1.93,0.43c-0.26,0.53-0.77,0.68-1.14,0.34
		c-0.37-0.34-2.85-0.46-5.52-0.27c-2.67,0.19-5.23-0.01-5.7-0.45c-0.47-0.44-1.21-0.54-1.65-0.24c-0.43,0.31-1.58,0.22-2.55-0.2
		c-2.2-0.94-3.73,0-2.24,1.38c0.61,0.56,3.28,1.27,5.95,1.56s5.94,1.11,7.28,1.8c1.34,0.7,3.12,1.17,3.95,1.04
		c1.11-0.17,1.28,0.08,0.66,0.93c-0.62,0.85-0.08,0.97,2,0.48c1.57-0.37,2.38-0.33,1.81,0.09c-1.78,1.32,0.54,2.39,2.95,1.36
		c2.17-0.94,2.25-0.9,1.38,0.76c-0.73,1.41-0.58,1.68,0.78,1.42c0.93-0.18,2.66-0.99,3.84-1.79l2.15-1.47l-1.16,2.09
		c-1.42,2.56,0.01,2.65,3.51,0.22c2.53-1.76,2.6-1.75,1.87,0.22c-0.66,1.76-0.5,2,1.08,1.69c1.02-0.2,2.83-1,4.04-1.78
		c1.58-1.02,1.85-1.04,0.96-0.07c-1.99,2.15,0.61,2.38,3.53,0.3c1.47-1.04,2.88-1.7,3.13-1.46c0.26,0.24,0.08,0.7-0.38,1.03
		c-0.47,0.33-0.57,0.85-0.23,1.17c0.34,0.31,1.72-0.21,3.07-1.17c2.1-1.49,2.58-1.51,3.3-0.18c0.79,1.47,1.03,1.39,3.97-1.32
		c2.97-2.74,3.13-2.79,3.29-1.02c0.23,2.54,1.99,2.29,4.17-0.59c1.67-2.21,1.84-2.27,2.11-0.75c0.46,2.58,2.82,1.52,4.13-1.86
		c1.22-3.15,1.69-3.29,2.17-0.62c0.44,2.44,2.32,1.65,3.39-1.41c0,0,0.59-2.14,0.08-3.88
		C1039.32,471.86,1037.37,469.22,1036.57,469.21z"/>
	<path id="path1421_23_" class="st0" d="M1030.62,426.75l-1.5-1.29c-1.87-1.61-4.32-1.22-3.67,0.58c0.8,2.23-1.01,2.61-3.11,0.66
		c-2.32-2.15-4.01-1.43-2.88,1.23c0.75,1.77,0.67,1.8-1.64,0.44c-3.04-1.79-5.24-1.03-4.08,1.41c0.85,1.79,0.79,1.81-2.07,0.7
		c-3.98-1.55-4.18-1.5-4.24,0.93c-0.05,1.99-0.18,2-2.22,0.15c-2.41-2.19-4.27-1.66-3.12,0.88c1.02,2.26-1.47,2.57-2.71,0.34
		c-1.14-2.04-4.12-1.94-3.38,0.12c0.82,2.28-1.03,2.59-3.25,0.53c-1.64-1.52-2.17-1.62-2.41-0.45c-0.46,2.31-1.6,2.68-3.33,1.07
		c-1.09-1.01-2.03-1.09-3.07-0.25c-1.11,0.9-1.83,0.78-2.77-0.47c-1-1.33-1.5-1.37-2.37-0.2c-0.76,1.02-1.65,1.2-2.89,0.59
		c-0.98-0.49-1.96-0.52-2.18-0.09c-0.22,0.44-1.1,0.54-1.96,0.23s-1.8-0.11-2.07,0.46c-0.28,0.56-0.83,0.73-1.22,0.36
		c-0.39-0.37-3.06-0.5-5.92-0.29c-2.86,0.2-5.62-0.01-6.12-0.48c-0.51-0.47-1.3-0.58-1.77-0.25c-0.47,0.33-1.7,0.23-2.74-0.21
		c-2.36-1.01-4,0-2.4,1.49c0.65,0.61,3.52,1.36,6.38,1.67c2.86,0.32,6.38,1.19,7.82,1.94s3.35,1.25,4.24,1.12
		c1.19-0.18,1.38,0.08,0.71,1c-0.66,0.91-0.09,1.05,2.15,0.51c1.68-0.4,2.56-0.36,1.95,0.09c-1.92,1.42,0.58,2.57,3.17,1.46
		c2.33-1,2.41-0.96,1.49,0.81c-0.79,1.51-0.63,1.81,0.84,1.52c1-0.19,2.85-1.06,4.12-1.93l2.31-1.58l-1.24,2.24
		c-1.52,2.75,0.01,2.84,3.77,0.23c2.72-1.89,2.79-1.88,2,0.24c-0.7,1.89-0.54,2.15,1.16,1.82c1.09-0.21,3.04-1.07,4.34-1.91
		c1.7-1.1,1.99-1.12,1.03-0.08c-2.13,2.31,0.66,2.55,3.79,0.32c1.57-1.12,3.09-1.82,3.36-1.57c0.27,0.26,0.09,0.75-0.41,1.11
		c-0.5,0.35-0.61,0.92-0.25,1.25c0.36,0.34,1.85-0.23,3.3-1.26c2.26-1.6,2.77-1.62,3.55-0.19c0.85,1.57,1.11,1.49,4.26-1.41
		c3.19-2.94,3.36-2.99,3.53-1.1c0.24,2.73,2.14,2.46,4.48-0.63c1.79-2.37,1.97-2.43,2.26-0.81c0.5,2.77,3.03,1.63,4.43-2
		c1.31-3.38,1.82-3.53,2.33-0.66c0.47,2.62,2.49,1.77,3.64-1.52c0,0,0.63-2.3,0.08-4.16
		C1033.57,429.61,1031.47,426.77,1030.62,426.75z"/>
	<path id="path1421_22_" class="st0" d="M1035.16,447.48l-1.5-1.29c-1.87-1.61-4.32-1.22-3.67,0.58c0.8,2.23-1.01,2.61-3.11,0.66
		c-2.32-2.15-4.01-1.43-2.88,1.23c0.75,1.77,0.67,1.8-1.64,0.44c-3.04-1.79-5.24-1.03-4.08,1.41c0.85,1.79,0.79,1.81-2.07,0.7
		c-3.98-1.55-4.18-1.5-4.24,0.93c-0.05,1.99-0.18,2-2.22,0.15c-2.41-2.19-4.27-1.66-3.12,0.88c1.02,2.26-1.47,2.57-2.71,0.34
		c-1.14-2.04-4.12-1.94-3.38,0.12c0.82,2.28-1.03,2.59-3.25,0.53c-1.64-1.52-2.17-1.62-2.41-0.45c-0.46,2.31-1.6,2.68-3.33,1.07
		c-1.09-1.01-2.03-1.09-3.07-0.25c-1.11,0.9-1.83,0.78-2.77-0.47c-1-1.33-1.5-1.37-2.37-0.2c-0.76,1.02-1.65,1.2-2.89,0.59
		c-0.98-0.49-1.96-0.52-2.18-0.09c-0.22,0.44-1.1,0.54-1.96,0.23s-1.8-0.11-2.07,0.46c-0.28,0.56-0.83,0.73-1.22,0.36
		c-0.39-0.37-3.06-0.5-5.92-0.29c-2.86,0.2-5.62-0.01-6.12-0.48c-0.51-0.47-1.3-0.58-1.77-0.25c-0.47,0.33-1.7,0.23-2.74-0.21
		c-2.36-1.01-4,0-2.4,1.49c0.65,0.61,3.52,1.36,6.38,1.67c2.86,0.32,6.38,1.19,7.82,1.94c1.44,0.75,3.35,1.25,4.24,1.12
		c1.19-0.18,1.38,0.08,0.71,1c-0.66,0.91-0.09,1.05,2.15,0.51c1.68-0.4,2.56-0.36,1.95,0.09c-1.92,1.42,0.58,2.57,3.17,1.46
		c2.33-1,2.41-0.96,1.49,0.81c-0.79,1.51-0.63,1.81,0.84,1.52c1-0.19,2.85-1.06,4.12-1.93l2.31-1.58l-1.24,2.24
		c-1.52,2.75,0.01,2.84,3.77,0.23c2.72-1.89,2.79-1.88,2,0.24c-0.7,1.89-0.54,2.15,1.16,1.82c1.09-0.21,3.04-1.07,4.34-1.91
		c1.7-1.1,1.99-1.12,1.03-0.08c-2.13,2.31,0.66,2.55,3.79,0.32c1.57-1.12,3.09-1.82,3.36-1.57c0.27,0.26,0.09,0.75-0.41,1.11
		c-0.5,0.35-0.61,0.92-0.25,1.25c0.36,0.34,1.85-0.23,3.3-1.26c2.26-1.6,2.77-1.62,3.55-0.19c0.85,1.57,1.11,1.49,4.26-1.41
		c3.19-2.94,3.36-2.99,3.53-1.1c0.24,2.73,2.14,2.46,4.48-0.63c1.79-2.37,1.97-2.43,2.26-0.81c0.5,2.77,3.03,1.63,4.43-2
		c1.31-3.38,1.82-3.53,2.33-0.66c0.47,2.62,2.49,1.77,3.64-1.52c0,0,0.63-2.3,0.08-4.16
		C1038.1,450.33,1036.01,447.49,1035.16,447.48z"/>
	<path id="path1413_11_" class="st0" d="M1022.66,321.79c0.46,0.49,0.67,0.94,0.47,1c-0.65,0.2-1.73-0.3-2.11-0.98
		c-0.21-0.37-0.64-0.71-0.97-0.74c-0.42-0.05-0.35,0.22,0.26,0.96c1.09,1.31,0.43,1.55-1.13,0.41c-1.26-0.93-2.03-1.08-1.04-0.21
		c0.66,0.58,0.17,0.89-0.81,0.51c-1.16-0.45-2.65-3.21-2.32-3.83c0.18-0.32,0.49-1.16,0.71-1.86c0.54-1.76,1.13-1.82,1.65-0.16
		l0.43,1.37l0.76-1.65c0.8-1.74,1.66-2.01,1.59-0.49c-0.06,1.13,0.13,1.07,0.98-0.3c0.79-1.27,1.47-1.6,1.46-0.72
		c-0.06,0.05,0.09,1.15,0.09,1.15l0.31-0.32c0.56-0.54,1.25-0.53,1.25-0.53c1.17-0.13,1.19-0.11,0.66,0.54
		c-0.51,0.62-0.45,0.64,0.95,0.21c1.67-0.52,1.96-0.39,1.23,0.54c-0.44,0.55-0.32,0.57,1.04,0.16c0.84-0.26,1.61-0.33,1.7-0.16
		c0.09,0.17-0.06,0.38-0.34,0.47c-0.28,0.09,0.01,0.21,0.63,0.26c0.89,0.07,1.07,0.2,0.84,0.61s-0.03,0.44,0.89,0.15
		c0.86-0.27,1.11-0.24,0.92,0.1c-0.19,0.34,0,0.55,0.7,0.78c4.08,1.31,6.46,2.58,6.49,3.45c0.01,0.38-0.45,0.25-1.6-0.45
		c-1.67-1.03-4.48,0-5.33,0.6c-0.3,0.21-0.6,0.09-0.87-0.38c-0.36-0.63-0.42-0.63-0.53-0.04c-0.15,0.82-0.94,0.77-1.5-0.09
		c-0.32-0.5-0.39-0.51-0.31-0.06c0.17,0.92-0.51,0.88-1.42-0.09c-0.83-0.88-0.84-0.88-0.79-0.03c0.03,0.7-0.08,0.8-0.59,0.53
		c-0.35-0.18-0.87-0.73-1.17-1.22l-0.54-0.89l-0.04,1.04c0,0,0.05,0.83-0.56,0.9c-0.6,0.07-1.9-1.07-1.9-1.07
		S1022.41,321.42,1022.66,321.79z"/>
	<path id="path1413_10_" class="st0" d="M1007.68,309.47c-0.09-0.66-0.01-1.15,0.19-1.09c0.65,0.21,1.25,1.23,1.18,2.01
		c-0.04,0.42,0.12,0.95,0.37,1.16c0.32,0.28,0.41,0.02,0.33-0.93c-0.15-1.7,0.54-1.52,1.16,0.31c0.51,1.48,1.05,2.05,0.74,0.76
		c-0.21-0.86,0.37-0.83,0.96,0.04c0.7,1.03,0.34,4.15-0.29,4.47c-0.33,0.17-1.07,0.67-1.64,1.12c-1.45,1.14-1.96,0.85-1.44-0.81
		l0.43-1.37l-1.56,0.92c-1.65,0.97-2.51,0.7-1.58-0.5c0.69-0.89,0.51-0.95-0.98-0.31c-1.38,0.59-2.12,0.48-1.61-0.25
		c0.08-0.01,0.58-1,0.58-1l-0.44,0.09c-0.76,0.12-1.33-0.28-1.33-0.28c-1.03-0.56-1.04-0.59-0.23-0.81
		c0.78-0.22,0.73-0.27-0.66-0.71c-1.66-0.53-1.83-0.8-0.7-1.14c0.67-0.2,0.59-0.28-0.77-0.72c-0.84-0.27-1.51-0.65-1.49-0.84
		c0.02-0.19,0.26-0.28,0.54-0.19c0.28,0.08,0.12-0.18-0.37-0.57c-0.69-0.56-0.76-0.78-0.34-0.98c0.42-0.2,0.28-0.34-0.65-0.63
		c-0.86-0.27-1.05-0.44-0.69-0.61c0.35-0.17,0.32-0.45-0.13-1.04c-2.6-3.41-3.83-5.81-3.35-6.54c0.21-0.32,0.51,0.05,1.05,1.28
		c0.79,1.8,3.68,2.55,4.72,2.55c0.37,0,0.54,0.27,0.5,0.81c-0.06,0.72-0.02,0.76,0.41,0.34c0.59-0.59,1.21-0.09,1.18,0.93
		c-0.02,0.59,0.03,0.64,0.22,0.23c0.39-0.85,0.92-0.43,1.12,0.88c0.18,1.2,0.18,1.2,0.64,0.48c0.37-0.59,0.52-0.61,0.79-0.1
		c0.18,0.34,0.3,1.09,0.27,1.67l-0.06,1.04l0.63-0.84c0,0,0.44-0.71,0.97-0.42c0.54,0.28,0.95,1.96,0.95,1.96
		S1007.67,309.91,1007.68,309.47z"/>
	<path id="path1413_9_" class="st0" d="M1021.64,332.16c0.5,0.54,0.73,1.04,0.51,1.1c-0.72,0.22-1.9-0.34-2.32-1.09
		c-0.22-0.41-0.7-0.78-1.06-0.82c-0.47-0.06-0.39,0.24,0.28,1.05c1.19,1.45,0.46,1.71-1.25,0.44c-1.38-1.03-2.23-1.2-1.14-0.24
		c0.72,0.64,0.18,0.98-0.9,0.56c-1.27-0.5-2.89-3.55-2.51-4.23c0.2-0.36,0.55-1.27,0.79-2.03c0.61-1.93,1.25-1.99,1.81-0.16
		l0.46,1.5l0.85-1.8c0.9-1.9,1.84-2.19,1.75-0.53c-0.07,1.24,0.13,1.18,1.08-0.33c0.88-1.39,1.62-1.75,1.61-0.78
		c-0.06,0.05,0.09,1.27,0.09,1.27l0.34-0.35c0.61-0.59,1.38-0.57,1.38-0.57c1.28-0.14,1.31-0.11,0.72,0.59
		c-0.57,0.68-0.5,0.7,1.04,0.23c1.84-0.55,2.16-0.41,1.35,0.6c-0.48,0.6-0.36,0.62,1.14,0.18c0.93-0.27,1.77-0.35,1.87-0.17
		c0.1,0.18-0.07,0.41-0.37,0.51c-0.31,0.1,0,0.23,0.69,0.29c0.97,0.09,1.17,0.23,0.92,0.68s-0.04,0.48,0.98,0.17
		c0.95-0.29,1.22-0.25,1.01,0.12c-0.21,0.37-0.01,0.61,0.76,0.86c4.47,1.48,7.07,2.89,7.1,3.84c0.01,0.42-0.49,0.27-1.75-0.51
		c-1.83-1.14-4.92-0.03-5.86,0.62c-0.34,0.23-0.66,0.09-0.95-0.42c-0.39-0.69-0.46-0.7-0.58-0.05c-0.17,0.9-1.04,0.84-1.64-0.11
		c-0.35-0.55-0.42-0.56-0.34-0.07c0.18,1.01-0.56,0.96-1.56-0.11c-0.91-0.98-0.91-0.98-0.87-0.04c0.03,0.77-0.09,0.88-0.65,0.58
		c-0.38-0.2-0.95-0.8-1.28-1.35l-0.59-0.98l-0.05,1.15c0,0,0.04,0.91-0.62,0.99c-0.66,0.07-2.08-1.19-2.08-1.19
		S1021.37,331.75,1021.64,332.16z"/>
	<path id="path1413_7_" class="st0" d="M1003.49,320.52c-0.25-0.69-0.27-1.24-0.04-1.21c0.75,0.08,1.62,1.05,1.71,1.9
		c0.05,0.46,0.34,0.99,0.66,1.17c0.41,0.23,0.45-0.07,0.15-1.08c-0.54-1.8,0.24-1.75,1.32,0.08c0.88,1.48,1.59,1.97,0.96,0.66
		c-0.42-0.87,0.21-0.98,1.04-0.17c0.98,0.95,1.3,4.39,0.69,4.87c-0.32,0.25-1,0.96-1.51,1.57c-1.31,1.55-1.92,1.35-1.73-0.55
		l0.16-1.57l-1.48,1.34c-1.56,1.41-2.54,1.31-1.82-0.19c0.54-1.11,0.33-1.14-1.12-0.12c-1.35,0.94-2.17,0.99-1.79,0.1
		c0.08-0.03,0.4-1.21,0.4-1.21l-0.45,0.19c-0.79,0.3-1.5,0-1.5,0c-1.24-0.37-1.25-0.4-0.43-0.82c0.79-0.41,0.73-0.45-0.87-0.62
		c-1.91-0.2-2.15-0.45-1.01-1.07c0.68-0.37,0.57-0.44-0.99-0.61c-0.96-0.11-1.77-0.36-1.79-0.57c-0.02-0.21,0.22-0.36,0.54-0.33
		c0.32,0.03,0.08-0.21-0.52-0.53c-0.86-0.45-0.99-0.67-0.59-0.98c0.4-0.31,0.22-0.43-0.84-0.54c-0.98-0.1-1.22-0.24-0.88-0.5
		c0.34-0.26,0.24-0.56-0.37-1.09c-3.56-3.08-5.42-5.39-5.07-6.28c0.15-0.39,0.56-0.06,1.42,1.15c1.25,1.76,4.52,1.93,5.64,1.69
		c0.4-0.09,0.64,0.17,0.71,0.76c0.1,0.79,0.15,0.82,0.52,0.27c0.51-0.76,1.28-0.37,1.47,0.74c0.11,0.64,0.17,0.68,0.28,0.19
		c0.23-1,0.89-0.67,1.4,0.7c0.46,1.25,0.46,1.25,0.79,0.37c0.27-0.72,0.42-0.78,0.82-0.29c0.27,0.33,0.57,1.11,0.66,1.73l0.16,1.13
		l0.49-1.04c0,0,0.31-0.86,0.95-0.67c0.64,0.19,1.46,1.9,1.46,1.9S1003.58,321,1003.49,320.52z"/>
	<path id="path1399_4_" class="st0" d="M1027.06,313.32c-0.75-0.57-0.92-0.61-0.83-0.2c0.15,0.66-0.66,0.33-1.31-0.54
		c-0.39-0.53-0.47-0.55-0.39-0.12c0.05,0.3-0.07,0.54-0.28,0.55c-0.21,0-0.61-0.23-0.9-0.53c-0.29-0.3-0.49-0.36-0.45-0.15
		c0.12,0.62-0.54,0.46-1.18-0.29c-0.47-0.55-0.57-0.58-0.49-0.15c0.13,0.73-0.54,0.7-1.02-0.04c-0.23-0.36-0.59-0.53-0.91-0.42
		c-0.91,0.31-0.36-3.31,0.52-4.17c0.96-0.94,1.73-1.02,1.64-0.18c-0.06,0.58-0.03,0.59,0.83,0.07c0.87-0.53,0.89-0.52,0.82,0.16
		c-0.07,0.7,0.45,0.95,0.77,0.37c0.33-0.61,0.97-0.33,0.85,0.37c-0.11,0.69-0.1,0.69,0.57,0.12c0.76-0.65,1.64-0.48,1.45,0.28
		c-0.11,0.43-0.03,0.43,0.67,0.06c0.61-0.33,0.86-0.35,1.06-0.06l0.14,0.17c1.04-0.5,1.33-0.48,1.18,0.09
		c-0.1,0.37,0.08,0.43,0.81,0.26c0.59-0.13,0.96-0.08,1.01,0.16c0.05,0.22,0.37,0.28,0.82,0.15c0.53-0.15,0.77-0.07,0.85,0.28
		c0.06,0.27,0.37,0.48,0.69,0.48c0.77-0.01,3.04,2.61,3.87,3.46c0.03,0.13-1.01,0.23-2.32,0.22c-1.33-0.01-2.41-0.15-2.45-0.33
		c-0.04-0.18-0.21-0.11-0.37,0.15c-0.25,0.41-0.39,0.39-1.01-0.12c-0.63-0.52-0.7-0.52-0.6-0.07c0.17,0.75-0.6,0.66-1.21-0.15
		c-0.39-0.53-0.49-0.56-0.42-0.15c0,0,0.44,0.4-0.01,0.61c-0.46,0.21-1.23-0.53-1.23-0.53s0.19,0.4-0.05,0.48
		S1027.48,313.65,1027.06,313.32z"/>
	<path id="path1399_3_" class="st0" d="M1012.92,298.19c0.29,0.9,0.41,1.03,0.57,0.64c0.25-0.63,0.73,0.11,0.77,1.19
		c0.02,0.66,0.08,0.72,0.26,0.32c0.13-0.28,0.37-0.41,0.54-0.29c0.17,0.11,0.37,0.54,0.44,0.95c0.07,0.41,0.2,0.58,0.28,0.38
		c0.25-0.58,0.7-0.07,0.8,0.91c0.07,0.72,0.14,0.8,0.32,0.4c0.31-0.67,0.85-0.26,0.81,0.62c-0.02,0.43,0.18,0.77,0.51,0.86
		c0.92,0.26-1.6,2.92-2.81,3.13c-1.32,0.22-2-0.15-1.45-0.79c0.38-0.44,0.36-0.47-0.64-0.53c-1.02-0.07-1.03-0.08-0.59-0.6
		c0.46-0.53,0.17-1.04-0.42-0.74c-0.62,0.31-0.98-0.28-0.48-0.79c0.49-0.5,0.48-0.51-0.4-0.42c-0.99,0.1-1.62-0.54-1.03-1.06
		c0.33-0.29,0.27-0.34-0.52-0.43c-0.69-0.08-0.9-0.21-0.9-0.55l-0.02-0.22c-1.14-0.18-1.37-0.37-0.92-0.75
		c0.29-0.25,0.18-0.4-0.51-0.68c-0.56-0.23-0.83-0.48-0.74-0.7c0.09-0.21-0.14-0.44-0.59-0.6c-0.52-0.18-0.68-0.38-0.54-0.71
		c0.1-0.25-0.03-0.61-0.3-0.78c-0.64-0.43-1.01-3.88-1.2-5.05c0.05-0.12,0.96,0.39,2.03,1.14c1.09,0.76,1.89,1.5,1.82,1.67
		c-0.06,0.17,0.11,0.21,0.39,0.09c0.44-0.19,0.54-0.1,0.76,0.67c0.22,0.78,0.28,0.83,0.45,0.4c0.29-0.72,0.87-0.19,0.9,0.81
		c0.02,0.66,0.08,0.74,0.26,0.36c0,0-0.14-0.58,0.36-0.5s0.71,1.13,0.71,1.13s0.07-0.44,0.32-0.36S1012.76,297.68,1012.92,298.19z"
		/>
	<path id="path1387_4_" class="st0" d="M1020.57,299.44c-0.6-0.09-1.02-0.39-1.01-0.72c0.01-0.31-0.23-0.51-0.53-0.44
		c-0.31,0.07-0.54-0.13-0.53-0.45c0.01-0.32-0.15-0.54-0.37-0.49s-0.7-0.22-1.08-0.6s-0.79-0.76-0.9-0.84
		c-0.6-0.43-1.1-1.41-0.97-1.53c0.08-0.08-0.21-0.21-0.65-0.3c-0.44-0.08-0.24-0.07-0.57-0.56c-0.33-0.5-0.96-1.15-1.38-1.45
		c-1.33-0.94,0-1.75,1.79-0.94c1.86,0.83,2.53,1.02,2.72,1.45c0.11,0.25,1.29,1.02,1.81,1.29s0.93,0.73,0.92,1
		c-0.01,0.27,0.23,0.44,0.54,0.37c0.31-0.07,0.54,0.13,0.53,0.45c-0.01,0.32,0.19,0.53,0.45,0.47c0.26-0.06,0.41,0.1,0.33,0.35
		c-0.08,0.25,0.17,0.51,0.55,0.59c0.52,0.1,0.64,0.33,0.5,0.98C1022.51,299.03,1021.97,299.64,1020.57,299.44z"/>
	<path id="path1387_3_" class="st0" d="M1023.89,304.09c0.52,0.56,1.14,0.78,1.47,0.53c0.32-0.24,0.7-0.13,0.84,0.24
		c0.15,0.37,0.53,0.47,0.85,0.23c0.32-0.24,0.67-0.23,0.77,0.03c0.1,0.26,0.74,0.57,1.41,0.69c0.67,0.12,1.36,0.27,1.52,0.33
		c0.88,0.32,2.26,0.13,2.29-0.1c0.02-0.14,0.37,0.06,0.78,0.46c0.4,0.4,0.24,0.2,1,0.19c0.76-0.01,1.89,0.17,2.51,0.39
		c1.94,0.71,1.82-1.26-0.31-2.54c-2.21-1.33-2.88-1.9-3.47-1.8c-0.34,0.06-1.99-0.61-2.65-0.95c-0.66-0.34-1.43-0.44-1.7-0.24
		c-0.28,0.21-0.62,0.08-0.77-0.29c-0.15-0.37-0.53-0.47-0.85-0.23c-0.32,0.24-0.68,0.18-0.81-0.13c-0.12-0.31-0.39-0.36-0.6-0.1
		c-0.21,0.26-0.66,0.19-1-0.15c-0.48-0.47-0.81-0.43-1.39,0.18C1022.91,301.76,1022.67,302.77,1023.89,304.09z"/>
</g>
<path id="path1447_3_" class="st0" d="M854.12,315.17c-0.14-3.03-0.28-2.81-2.22-2.95c-5.81-0.6-4.97-0.07-8.4-1.93
	c-1.38-1.32-1.22-2,0.42-2.24c0.99-0.14,2.86-0.39,3.46-0.07c0.59,0.32,1.01,0.11,3.97,0.63c4.2,0.74,3.37-1.69,1.92-2.24
	c-1.45-0.56-3.91-1.44-5.47-1.95c-1.67-0.55-2.76-1.28-2.65-1.77c0.2-0.9,2.63-1.47,6.16-0.44c3.7,1.08,3.12-0.74,1.46-1.78
	c-3.19-1.92-2.45-1.6-4.14-2.93c-0.29-0.8,0.74-2.45,4.06-1.21c2.5,0.93,1.75,0.33,1.49-0.45c-0.19-0.59-1.07-1.49-1.96-1.99
	c-1.84-1.05-3.57-3.84-2.87-4.63c0.26-0.29,1.41-0.01,2.55,0.64c2.61,1.47,3.32,0.76,1.74-1.74c-1.03-1.63-0.99-1.89,0.29-1.75
	c1.32,0.14,1.39-0.04,0.55-1.58c-0.64-1.17-0.58-1.77,0.19-1.82c0.88-0.06,1.32-0.6,1.94-2.41c1.39-4.03,3-6.33,4.02-5.76
	c0.5,0.28,0.94,1.35,0.98,2.37c0.04,1.02,0.38,1.78,0.75,1.69c0.37-0.1,0.14,0.44-0.52,1.18c-0.88,1-0.84,1.4,0.14,1.51
	c1.12,0.12,1.01,0.41-0.69,1.78c-1.81,1.46-1.83,1.57-0.23,0.98c2.75-1,2.91-0.37,0.49,1.94c-2.64,2.51-2.54,2.79,0.32,0.92
	c1.62-1.05,2.07-1.11,1.87-0.22c-0.14,0.64-0.9,1.7-1.68,2.35c-3.63,3.04-5.52,5.06-5,5.35c0.31,0.18,0.96-0.12,1.43-0.66
	c1.01-1.15,7.52-4.77,8.05-4.47c0.2,0.11-1.83,2.39-4.52,5.07c-2.68,2.68-4.73,4.95-4.56,5.05c0.55,0.31,5.37-2.49,6.49-3.77
	c0.58-0.66,2.11-1.43,3.4-1.7l2.34-0.49l-2.65,2.32c-1.46,1.27-3.24,2.84-3.97,3.48c-0.73,0.64-2.33,2.02-3.56,3.07
	c-1.46,1.24-2.12,4.19-1.49,4.15c0.53-0.03,1.39-0.55,1.91-1.14c0.52-0.59,3.55-2.18,6.74-3.53c5.64-2.38,5.73-2.39,3.53-0.39
	c-1.25,1.13-4.68,3.84-7.63,6.03c-2.95,2.19-5.66,4.57-6.02,5.3c-0.32,0.64-0.37,1.85-0.23,3.96
	C856.47,319,854.21,317.11,854.12,315.17z"/>
<path class="st0" d="M1012.89,506.55c-0.77,4.73-2.14,11.48-2.43,13.46c0,0,0,0.01,0,0.01c1.44-1.15,3.62-2.85,5.67-4.49
	c0.07-2.03,0.28-7.87,0.41-13.58c0.08-3.57,0.24-8.28,0.18-11.95c0.01-0.01,0.01-0.01,0.02-0.01c-0.01-0.1-0.02-0.19-0.03-0.29
	c-0.04-2.19-0.12-3.98-0.18-5c-0.12-10.4-9.23-27.01-13.32-34.59s-21.33-20.47-31.85-28.36c-10.52-7.89-63.11-34.48-80.64-48.5
	c-17.53-14.03-24.84-26.59-31.26-43.83c-6.43-17.24-2.34-40.61-2.34-40.61l-2.92,14.03c0,0-2.63,21.91,2.63,35.36
	c5.26,13.44,7.89,19.87,24.84,36.52s50.55,32.43,69.25,42.08c18.7,9.64,32.14,21.91,47.34,36.82c15.19,14.9,15.75,36.95,15.75,36.95
	C1014.1,495.44,1013.39,503.47,1012.89,506.55z"/>
<path class="st0" d="M856.03,295.48c0,0-3.97,21.71,4.88,43.34c4.44,10.8,12.33,21.58,23.49,31.3c5.57,4.87,11.92,9.49,18.79,13.91
	c6.84,4.44,14.19,8.68,21.7,12.81c7.46,4.16,15.07,8.23,22.44,12.31c7.39,4.07,14.43,8.23,20.96,12.44
	c13.04,8.45,23.58,17.43,30.75,26.39c14.37,17.89,15.39,35.58,15.39,35.58s-2.32-16.92-17.58-34.22
	c-7.65-8.64-18.58-17.34-31.84-25.6c-6.62-4.14-13.85-8.15-21.22-12.21c-7.39-4.04-15.02-8.07-22.5-12.2
	c-7.44-4.15-14.73-8.41-21.52-12.86c-6.75-4.48-12.99-9.17-18.44-14.1c-10.88-9.88-18.39-20.91-22.38-32.04
	C850.93,318.11,856.03,295.48,856.03,295.48z"/>
<g>
	<path id="path1429_12_" class="st0" d="M880.13,360.77c0.11-0.36,1.13-0.52,2.28-0.34c2.45,0.37,3.48-1.29,1.38-2.24
		c-1.03-0.47-0.81-0.56,1.15-0.46c2.55,0.12,3.52-0.78,1.79-1.66c-1.64-0.84-0.87-1.54,1.19-1.08c2.05,0.46,2.87-0.48,1.54-1.77
		c-0.68-0.66-0.56-0.75,0.78-0.67c1.7,0.11,2.15-0.48,1.43-1.87c-0.35-0.69-0.09-0.76,1.25-0.3c1.64,0.56,2.69-0.28,1.68-1.33
		c-0.84-0.88-0.12-1.55,1.2-1.12c1.35,0.44,2.24-0.64,1.12-1.36c-0.34-0.22,0.11-0.37,1-0.33c0.96,0.04,1.55-0.23,1.45-0.67
		c-0.19-0.87,4.08-4.17,6.4-4.96c0.89-0.3,3.02-0.89,4.74-1.32l3.13-0.77l-3.04-0.31c-3.18-0.32-7.28,0.41-9.49,1.7
		c-0.72,0.42-1.61,0.57-1.99,0.34c-0.37-0.23-0.79-0.06-0.91,0.38c-0.14,0.49-0.62,0.6-1.25,0.28c-0.69-0.35-1.23-0.17-1.7,0.57
		c-0.5,0.8-0.74,0.86-0.87,0.24c-0.26-1.21-1.64-0.29-2.14,1.43c-0.41,1.42-0.43,1.42-0.88,0.06c-0.4-1.2-0.57-1.25-1.32-0.41
		c-0.48,0.54-1.1,1.74-1.39,2.67l-0.53,1.69l-0.31-1.95c-0.39-2.47-1.41-1.95-2.33,1.17l-0.7,2.41l-0.7-1.69l-0.7-1.69l-0.81,3.61
		l-0.81,3.61l-0.83-1.48c-0.46-0.81-1-1.49-1.22-1.51c-0.62-0.05-1.23,2.62-0.99,4.3c0.21,1.48,0.19,1.49-0.56,0.26
		c-1.17-1.92-1.64-1.62-2.18,1.45c0,0-0.88,1.76-0.23,3.31S878.68,361.75,880.13,360.77z"/>
	<path id="path1429_8_" class="st0" d="M865.49,359.37c-0.18,0.33-1.22,0.26-2.3-0.16c-2.31-0.9-3.67,0.5-1.84,1.88
		c0.9,0.68,0.66,0.72-1.23,0.2c-2.46-0.68-3.61-0.01-2.12,1.23c1.42,1.18,0.51,1.7-1.4,0.79c-1.9-0.9-2.9-0.16-1.89,1.39
		c0.52,0.79,0.39,0.86-0.9,0.48c-1.63-0.48-2.2,0-1.81,1.5c0.19,0.75-0.08,0.76-1.29,0.02c-1.48-0.9-2.69-0.32-1.93,0.93
		c0.63,1.04-0.22,1.54-1.41,0.83c-1.22-0.73-2.33,0.13-1.4,1.08c0.28,0.29-0.19,0.33-1.05,0.1c-0.93-0.25-1.56-0.12-1.56,0.33
		c-0.01,0.89-4.9,3.18-7.34,3.44c-0.93,0.1-3.14,0.21-4.91,0.24l-3.22,0.06l2.9,0.97c3.04,1.01,7.19,1.19,9.63,0.42
		c0.79-0.25,1.7-0.2,2.01,0.11c0.31,0.31,0.75,0.23,0.97-0.17c0.25-0.45,0.74-0.44,1.28,0c0.59,0.49,1.17,0.43,1.79-0.19
		c0.66-0.67,0.91-0.68,0.9-0.04c-0.01,1.24,1.54,0.65,2.4-0.92c0.72-1.29,0.73-1.29,0.87,0.13c0.12,1.25,0.28,1.35,1.2,0.69
		c0.58-0.42,1.46-1.45,1.95-2.3l0.89-1.54l-0.13,1.97c-0.16,2.49,0.95,2.21,2.53-0.63l1.22-2.2l0.31,1.8l0.31,1.8l1.58-3.34
		l1.58-3.34l0.48,1.62c0.27,0.89,0.65,1.68,0.86,1.74c0.59,0.18,1.77-2.29,1.91-3.98c0.12-1.49,0.14-1.5,0.6-0.13
		c0.72,2.13,1.24,1.94,2.45-0.93c0,0,1.24-1.52,0.95-3.18C869.07,360.47,867.12,358.74,865.49,359.37z"/>
	<path id="path1429_7_" class="st0" d="M890.43,372.23c0.12-0.44,1.35-0.66,2.75-0.49c2.98,0.37,4.16-1.67,1.6-2.75
		c-1.26-0.53-0.99-0.65,1.38-0.6c3.09,0.07,4.23-1.05,2.12-2.07c-2.02-0.97-1.11-1.84,1.4-1.34c2.49,0.49,3.45-0.67,1.8-2.2
		c-0.84-0.77-0.71-0.89,0.92-0.83c2.05,0.08,2.58-0.65,1.68-2.3c-0.45-0.83-0.13-0.91,1.5-0.41c2,0.62,3.25-0.42,1.99-1.66
		c-1.05-1.03-0.2-1.87,1.41-1.39c1.64,0.49,2.69-0.85,1.32-1.69c-0.41-0.25,0.13-0.45,1.2-0.43c1.17,0.02,1.86-0.32,1.73-0.85
		c-0.25-1.04,4.8-5.18,7.59-6.21c1.06-0.39,3.62-1.18,5.69-1.74l3.76-1.03l-3.68-0.27c-3.86-0.29-8.79,0.73-11.42,2.36
		c-0.85,0.53-1.93,0.74-2.39,0.47s-0.95-0.05-1.09,0.48c-0.16,0.6-0.74,0.74-1.5,0.37c-0.84-0.4-1.5-0.16-2.04,0.75
		c-0.58,0.98-0.87,1.06-1.05,0.32c-0.36-1.46-1.99-0.3-2.55,1.79c-0.46,1.73-0.48,1.73-1.06,0.11c-0.52-1.43-0.73-1.49-1.61-0.45
		c-0.56,0.66-1.28,2.13-1.6,3.27l-0.58,2.06l-0.43-2.35c-0.54-2.97-1.77-2.31-2.78,1.49l-0.78,2.94l-0.9-2.02l-0.9-2.02l-0.87,4.39
		l-0.87,4.39l-1.05-1.76c-0.58-0.97-1.26-1.77-1.52-1.79c-0.75-0.04-1.4,3.21-1.06,5.24c0.3,1.79,0.28,1.8-0.67,0.33
		c-1.48-2.29-2.03-1.9-2.6,1.82c0,0-1,2.16-0.18,4.01C885.91,372,888.71,373.46,890.43,372.23z"/>
	<path id="path1429_6_" class="st0" d="M873.81,370.07c-0.15,0.43-1.4,0.54-2.78,0.26c-2.94-0.62-4.29,1.32-1.83,2.61
		c1.21,0.64,0.93,0.73-1.42,0.48c-3.07-0.33-4.31,0.69-2.28,1.88c1.93,1.13,0.95,1.93-1.51,1.22c-2.44-0.7-3.5,0.38-1.98,2.04
		c0.77,0.84,0.63,0.95-0.98,0.75c-2.04-0.25-2.63,0.43-1.86,2.15c0.38,0.86,0.05,0.92-1.53,0.28c-1.94-0.79-3.27,0.14-2.12,1.49
		c0.96,1.12,0.04,1.88-1.53,1.27c-1.6-0.63-2.75,0.62-1.45,1.57c0.39,0.29-0.16,0.43-1.23,0.33c-1.16-0.12-1.88,0.16-1.8,0.7
		c0.17,1.06-5.22,4.76-8.08,5.55c-1.09,0.3-3.71,0.87-5.82,1.26l-3.83,0.71l3.65,0.58c3.82,0.61,8.82,0.01,11.58-1.39
		c0.9-0.45,1.99-0.58,2.42-0.27c0.44,0.31,0.95,0.13,1.13-0.39c0.21-0.58,0.8-0.68,1.52-0.25c0.8,0.47,1.48,0.29,2.09-0.57
		c0.66-0.93,0.95-0.99,1.07-0.23c0.23,1.48,1.96,0.47,2.69-1.57c0.6-1.68,0.62-1.68,1.07-0.02c0.39,1.47,0.6,1.55,1.57,0.59
		c0.61-0.61,1.46-2.02,1.87-3.12l0.76-2.01l0.23,2.38c0.29,3,1.57,2.45,2.89-1.25l1.02-2.86l0.73,2.09l0.73,2.09l1.23-4.3l1.23-4.3
		l0.9,1.84c0.49,1.01,1.11,1.87,1.37,1.91c0.74,0.1,1.67-3.08,1.5-5.13c-0.15-1.81-0.13-1.81,0.69-0.27
		c1.28,2.41,1.87,2.07,2.74-1.59c0,0,1.18-2.06,0.51-3.98C878.3,370.67,875.63,368.99,873.81,370.07z"/>
	<path id="path1421_21_" class="st0" d="M911.03,383.76c3.27-1.59,3.36-1.74,1.88-3.19c-1.21-1.19-1.15-1.27,1.19-1.48
		c2.76-0.24,3.51-1.71,1.26-2.46c-2-0.67-0.76-2.4,1.36-1.89c1.93,0.47,3.6-1.46,1.88-2.18c-1.9-0.81-1.02-2.14,1.54-2.34
		c1.9-0.14,2.27-0.42,1.67-1.24c-1.18-1.63-0.75-2.55,1.25-2.7c1.27-0.1,1.86-0.64,1.93-1.78c0.08-1.22,0.57-1.59,1.89-1.46
		c1.41,0.14,1.72-0.14,1.5-1.36c-0.2-1.06,0.21-1.73,1.3-2.15c0.87-0.33,1.46-0.92,1.31-1.31c-0.15-0.39,0.3-1,0.99-1.36
		c0.69-0.36,1.1-1.06,0.91-1.56s0.02-0.94,0.48-0.97c0.46-0.03,2.08-1.62,3.61-3.53c1.53-1.91,3.26-3.51,3.84-3.55
		c0.59-0.04,1.12-0.48,1.18-0.96c0.06-0.48,0.84-1.2,1.72-1.59c2-0.89,2.31-2.5,0.46-2.36c-0.76,0.06-2.89,1.42-4.74,3.02
		c-1.85,1.6-4.43,3.3-5.74,3.77s-2.72,1.37-3.15,2c-0.58,0.85-0.85,0.82-1.03-0.14c-0.18-0.94-0.6-0.66-1.56,1.05
		c-0.72,1.28-1.26,1.81-1.18,1.16c0.22-2.02-1.94-1.12-2.74,1.14c-0.72,2.04-0.79,2.06-1.37,0.46c-0.49-1.37-0.77-1.44-1.44-0.36
		c-0.46,0.74-0.99,2.4-1.18,3.69l-0.35,2.35l-0.68-2.07c-0.84-2.54-1.79-1.64-2.33,2.22c-0.39,2.79-0.44,2.83-1.31,1.11
		c-0.77-1.53-1.03-1.58-1.81-0.33c-0.5,0.8-1.09,2.52-1.32,3.82c-0.3,1.7-0.45,1.89-0.54,0.69c-0.21-2.67-1.97-1.07-2.4,2.18
		c-0.21,1.63-0.65,2.99-0.96,3.01c-0.32,0.02-0.52-0.38-0.46-0.9s-0.22-0.91-0.64-0.88c-0.42,0.03-0.93,1.29-1.12,2.79
		c-0.31,2.33-0.59,2.67-1.93,2.33c-1.48-0.38-1.57-0.17-1.58,3.48c0,0-0.17,2.29,1.32,4.76
		C905.45,385.18,909.28,385.04,911.03,383.76z"/>
	<path id="path1421_20_" class="st0" d="M885.91,381.37c-3.51,0.95-3.63,1.08-2.44,2.78c0.97,1.39,0.89,1.46-1.45,1.23
		c-2.76-0.28-3.77,1.02-1.7,2.18c1.84,1.03,0.29,2.5-1.69,1.6c-1.81-0.83-3.81,0.75-2.26,1.79c1.72,1.15,0.6,2.3-1.96,2.01
		c-1.89-0.22-2.31-0.01-1.88,0.91c0.85,1.82,0.25,2.64-1.74,2.42c-1.26-0.14-1.94,0.28-2.23,1.38c-0.31,1.18-0.86,1.46-2.13,1.08
		c-1.36-0.4-1.72-0.18-1.73,1.06c-0.01,1.08-0.53,1.66-1.68,1.86c-0.92,0.16-1.61,0.63-1.54,1.04c0.07,0.41-0.48,0.93-1.23,1.15
		c-0.75,0.22-1.29,0.84-1.19,1.36c0.09,0.53-0.2,0.92-0.66,0.87c-0.46-0.05-2.35,1.2-4.21,2.79c-1.86,1.59-3.86,2.83-4.44,2.76
		c-0.58-0.07-1.19,0.26-1.34,0.72c-0.15,0.46-1.05,1.02-1.99,1.24c-2.13,0.5-2.74,2.02-0.9,2.23c0.75,0.09,3.11-0.85,5.23-2.07
		c2.12-1.23,4.97-2.41,6.34-2.62c1.37-0.21,2.93-0.83,3.47-1.37c0.73-0.73,0.99-0.64,0.99,0.33c0,0.96,0.47,0.76,1.73-0.74
		c0.95-1.13,1.57-1.54,1.38-0.92c-0.6,1.94,1.7,1.47,2.91-0.6c1.09-1.87,1.17-1.88,1.43-0.19c0.22,1.44,0.48,1.56,1.35,0.62
		c0.59-0.64,1.42-2.17,1.86-3.4l0.79-2.25l0.28,2.16c0.34,2.66,1.45,1.94,2.71-1.74c0.91-2.67,0.97-2.7,1.5-0.85
		c0.47,1.65,0.71,1.75,1.71,0.66c0.64-0.69,1.55-2.27,2.01-3.5c0.61-1.61,0.8-1.77,0.66-0.57c-0.3,2.66,1.74,1.42,2.76-1.69
		c0.52-1.56,1.2-2.81,1.51-2.77s0.44,0.47,0.28,0.97c-0.16,0.49,0.04,0.94,0.46,0.99c0.42,0.05,1.15-1.09,1.63-2.53
		c0.74-2.23,1.08-2.51,2.34-1.92c1.38,0.65,1.51,0.46,2.21-3.12c0,0,0.59-2.21-0.4-4.92C891.66,381.04,887.87,380.45,885.91,381.37z
		"/>
	<path id="path1421_19_" class="st0" d="M926.7,395.75l1.6-0.23c2-0.29,3.07-2.01,1.61-2.57c-1.8-0.7-1.07-2.02,1.26-2.27
		c2.57-0.28,3.03-1.71,0.78-2.44c-1.5-0.49-1.47-0.55,0.61-1.24c2.73-0.92,3.44-2.68,1.32-3.27c-1.56-0.43-1.54-0.48,0.68-1.65
		c3.08-1.63,3.16-1.77,1.7-3.12c-1.2-1.1-1.14-1.18,1.1-1.45c2.64-0.32,3.31-1.74,1.13-2.39c-1.94-0.58-0.8-2.28,1.24-1.85
		c1.87,0.39,3.4-1.51,1.74-2.15c-1.85-0.71-1.04-2.02,1.41-2.29c1.81-0.2,2.16-0.47,1.57-1.24c-1.18-1.52-0.8-2.42,1.12-2.63
		c1.21-0.13,1.76-0.67,1.8-1.76c0.04-1.17,0.5-1.54,1.77-1.46c1.35,0.09,1.65-0.19,1.39-1.35c-0.22-1.01,0.15-1.66,1.18-2.1
		c0.82-0.35,1.37-0.93,1.22-1.3c-0.15-0.37,0.25-0.97,0.91-1.33c0.65-0.37,1.03-1.05,0.83-1.53c-0.2-0.47-0.01-0.9,0.43-0.95
		c0.44-0.05,1.94-1.62,3.35-3.5c1.41-1.88,3.01-3.46,3.57-3.52c0.56-0.06,1.06-0.49,1.1-0.95s0.77-1.17,1.6-1.58
		c1.89-0.91,2.14-2.47,0.37-2.28c-0.72,0.08-2.73,1.45-4.45,3.04s-4.15,3.3-5.38,3.79c-1.23,0.49-2.57,1.4-2.96,2.01
		c-0.53,0.83-0.79,0.81-1-0.1c-0.21-0.9-0.6-0.61-1.47,1.05c-0.65,1.25-1.15,1.77-1.1,1.15c0.15-1.94-1.9-1.01-2.59,1.18
		c-0.63,1.98-0.7,2-1.3,0.48c-0.51-1.3-0.78-1.35-1.39-0.3c-0.42,0.72-0.87,2.33-1.02,3.57l-0.26,2.27l-0.72-1.96
		c-0.88-2.41-1.76-1.51-2.16,2.2c-0.29,2.69-0.34,2.73-1.22,1.11c-0.79-1.45-1.04-1.48-1.74-0.26c-0.45,0.79-0.97,2.45-1.14,3.7
		c-0.23,1.64-0.37,1.83-0.5,0.68c-0.29-2.55-1.92-0.96-2.23,2.17c-0.15,1.57-0.53,2.88-0.83,2.91s-0.51-0.35-0.46-0.84
		s-0.24-0.87-0.64-0.83c-0.4,0.04-0.85,1.26-0.99,2.71c-0.22,2.25-0.48,2.58-1.78,2.29c-1.43-0.32-1.51-0.11-1.41,3.39
		c0.11,3.54,0.05,3.68-1.21,2.77c-1.81-1.31-2.66,0-2.01,3.1c0.5,2.37,0.45,2.52-0.71,1.83c-1.98-1.18-2.63,1-1.14,3.8
		c1.39,2.62,1.21,3.01-0.84,1.79c-1.87-1.11-2.43,0.59-1.01,3.06c0,0,1.08,1.62,2.52,2.28C923.37,396.04,926.24,396.27,926.7,395.75
		z"/>
	<path id="path1421_17_" class="st0" d="M903.77,391.78l-1.61-0.17c-2.01-0.22-3.47,1.18-2.2,2.09c1.57,1.12,0.53,2.22-1.79,1.89
		c-2.56-0.37-3.36,0.89-1.37,2.16c1.33,0.85,1.28,0.9-0.9,1.05c-2.87,0.21-4,1.74-2.09,2.84c1.4,0.81,1.37,0.85-1.07,1.43
		c-3.39,0.81-3.51,0.93-2.42,2.59c0.89,1.36,0.81,1.43-1.43,1.13c-2.64-0.35-3.64,0.86-1.69,2.03c1.74,1.04,0.2,2.41-1.67,1.48
		c-1.71-0.85-3.67,0.61-2.22,1.65c1.61,1.15,0.5,2.22-1.94,1.86c-1.81-0.26-2.21-0.08-1.83,0.81c0.76,1.77,0.17,2.54-1.74,2.26
		c-1.21-0.18-1.87,0.21-2.18,1.26c-0.33,1.12-0.87,1.37-2.08,0.97c-1.29-0.43-1.64-0.23-1.69,0.96c-0.04,1.04-0.56,1.57-1.67,1.74
		c-0.89,0.13-1.56,0.56-1.5,0.95c0.06,0.39-0.49,0.87-1.21,1.06c-0.72,0.19-1.26,0.76-1.18,1.27c0.07,0.51-0.22,0.87-0.65,0.81
		c-0.43-0.06-2.29,1.08-4.12,2.55c-1.83,1.46-3.78,2.6-4.34,2.52c-0.56-0.08-1.14,0.21-1.31,0.65c-0.16,0.44-1.03,0.94-1.94,1.13
		c-2.06,0.41-2.69,1.86-0.93,2.11c0.72,0.1,3-0.72,5.07-1.83c2.07-1.11,4.84-2.16,6.16-2.32c1.32-0.16,2.83-0.71,3.37-1.21
		c0.72-0.67,0.96-0.58,0.94,0.34c-0.03,0.92,0.43,0.74,1.68-0.65c0.95-1.05,1.55-1.43,1.35-0.84c-0.63,1.84,1.58,1.46,2.81-0.49
		c1.1-1.76,1.18-1.77,1.38-0.14c0.17,1.38,0.42,1.5,1.27,0.63c0.58-0.59,1.43-2.04,1.88-3.21l0.82-2.13l0.2,2.08
		c0.25,2.55,1.33,1.91,2.64-1.59c0.95-2.53,1.01-2.56,1.46-0.77c0.4,1.6,0.63,1.69,1.62,0.69c0.63-0.65,1.55-2.13,2.03-3.3
		c0.63-1.53,0.82-1.68,0.65-0.53c-0.36,2.54,1.62,1.41,2.7-1.54c0.54-1.48,1.23-2.66,1.53-2.61c0.3,0.04,0.41,0.46,0.24,0.93
		c-0.17,0.47,0.01,0.9,0.41,0.96c0.4,0.06,1.14-1.01,1.64-2.38c0.78-2.12,1.11-2.38,2.3-1.77c1.3,0.66,1.44,0.48,2.21-2.93
		c0.78-3.45,0.88-3.57,1.87-2.38c1.43,1.72,2.58,0.66,2.72-2.5c0.11-2.42,0.2-2.55,1.15-1.59c1.62,1.63,2.8-0.31,2.06-3.4
		c-0.69-2.88-0.41-3.22,1.26-1.53c1.53,1.54,2.5,0.04,1.74-2.71c0,0-0.64-1.84-1.87-2.84S904.35,391.39,903.77,391.78z"/>
	<path id="path1421_16_" class="st0" d="M946.06,405.15l1.85-0.27c2.31-0.34,3.55-2.32,1.86-2.98c-2.08-0.8-1.23-2.33,1.46-2.63
		c2.97-0.32,3.5-1.97,0.91-2.82c-1.73-0.56-1.7-0.63,0.7-1.44c3.15-1.06,3.97-3.1,1.52-3.78c-1.8-0.5-1.78-0.56,0.78-1.91
		c3.56-1.88,3.66-2.05,1.96-3.6c-1.39-1.27-1.31-1.37,1.27-1.68c3.05-0.37,3.83-2.02,1.31-2.77c-2.24-0.67-0.92-2.63,1.44-2.14
		c2.16,0.45,3.93-1.74,2.01-2.49c-2.14-0.82-1.21-2.34,1.63-2.65c2.1-0.23,2.5-0.55,1.81-1.44c-1.36-1.76-0.92-2.8,1.29-3.04
		c1.4-0.15,2.03-0.77,2.08-2.04c0.05-1.35,0.57-1.78,2.04-1.68c1.57,0.11,1.9-0.22,1.61-1.56c-0.25-1.17,0.17-1.92,1.37-2.42
		c0.95-0.4,1.59-1.08,1.41-1.5c-0.18-0.43,0.29-1.12,1.05-1.54c0.76-0.42,1.19-1.22,0.96-1.76c-0.23-0.55-0.01-1.04,0.5-1.1
		s2.25-1.87,3.87-4.04c1.62-2.17,3.48-4,4.13-4.07c0.65-0.07,1.22-0.57,1.27-1.1c0.05-0.54,0.89-1.36,1.85-1.82
		c2.18-1.06,2.47-2.86,0.43-2.63c-0.84,0.09-3.15,1.67-5.14,3.52c-1.99,1.84-4.79,3.81-6.22,4.38c-1.43,0.56-2.97,1.61-3.42,2.33
		c-0.61,0.96-0.91,0.93-1.15-0.11c-0.24-1.04-0.69-0.71-1.7,1.22c-0.75,1.45-1.33,2.05-1.27,1.33c0.17-2.24-2.19-1.17-3,1.36
		c-0.73,2.29-0.81,2.32-1.5,0.56c-0.59-1.5-0.9-1.56-1.61-0.34c-0.48,0.83-1.01,2.69-1.18,4.13l-0.3,2.62l-0.83-2.27
		c-1.02-2.79-2.04-1.75-2.5,2.55c-0.33,3.1-0.39,3.15-1.41,1.28c-0.91-1.67-1.2-1.71-2.01-0.3c-0.52,0.91-1.12,2.83-1.32,4.28
		c-0.27,1.89-0.43,2.11-0.58,0.78c-0.33-2.95-2.22-1.11-2.58,2.5c-0.18,1.81-0.61,3.33-0.96,3.37c-0.35,0.04-0.59-0.4-0.54-0.98
		c0.06-0.58-0.28-1-0.74-0.95c-0.46,0.05-0.98,1.46-1.15,3.13c-0.26,2.6-0.56,2.98-2.06,2.65c-1.65-0.37-1.75-0.13-1.63,3.91
		c0.12,4.09,0.05,4.25-1.4,3.2c-2.1-1.51-3.08,0-2.32,3.58c0.58,2.74,0.51,2.91-0.82,2.12c-2.29-1.36-3.04,1.15-1.32,4.4
		c1.61,3.03,1.39,3.48-0.97,2.07c-2.16-1.28-2.81,0.68-1.17,3.53c0,0,1.25,1.87,2.92,2.63S945.53,405.75,946.06,405.15z"/>
	<path id="path1421_9_" class="st0" d="M919.71,401.31l-1.87,0.03c-2.33,0.04-3.81,1.85-2.22,2.72c1.96,1.06,0.93,2.47-1.78,2.42
		c-2.99-0.06-3.72,1.51-1.26,2.68c1.64,0.78,1.6,0.84-0.88,1.34c-3.26,0.65-4.34,2.57-1.99,3.56c1.72,0.73,1.69,0.78-1.02,1.8
		c-3.77,1.41-3.89,1.57-2.41,3.32c1.21,1.44,1.13,1.52-1.47,1.5c-3.07-0.02-4.05,1.51-1.65,2.58c2.14,0.95,0.58,2.73-1.7,1.94
		c-2.08-0.72-4.12,1.23-2.31,2.21c2.01,1.09,0.9,2.47-1.95,2.42c-2.11-0.04-2.55,0.23-1.98,1.2c1.13,1.92,0.56,2.89-1.67,2.85
		c-1.41-0.03-2.11,0.51-2.32,1.76c-0.22,1.33-0.8,1.7-2.24,1.41c-1.54-0.3-1.91-0.02-1.8,1.35c0.1,1.2-0.41,1.89-1.66,2.23
		c-1,0.28-1.71,0.87-1.59,1.31c0.12,0.44-0.43,1.07-1.24,1.4c-0.8,0.32-1.33,1.06-1.17,1.63c0.16,0.57-0.13,1.03-0.63,1.02
		c-0.51-0.01-2.47,1.57-4.35,3.52c-1.89,1.94-3.96,3.52-4.61,3.51c-0.65-0.01-1.28,0.41-1.4,0.93c-0.12,0.53-1.05,1.23-2.07,1.57
		c-2.3,0.77-2.82,2.52-0.76,2.56c0.84,0.02,3.34-1.26,5.55-2.83c2.21-1.58,5.24-3.17,6.72-3.55s3.15-1.22,3.69-1.87
		c0.73-0.88,1.02-0.81,1.13,0.26c0.1,1.06,0.6,0.79,1.84-0.99c0.93-1.34,1.58-1.86,1.43-1.16c-0.46,2.2,2.03,1.44,3.15-0.97
		c1.01-2.18,1.09-2.19,1.56-0.36c0.4,1.56,0.69,1.67,1.55,0.54c0.58-0.76,1.34-2.54,1.69-3.95l0.63-2.56l0.53,2.36
		c0.66,2.89,1.8,1.99,2.8-2.21c0.73-3.04,0.79-3.08,1.56-1.09c0.69,1.77,0.97,1.85,1.96,0.55c0.63-0.83,1.47-2.67,1.86-4.07
		c0.51-1.84,0.69-2.04,0.67-0.7c-0.05,2.97,2.07,1.38,2.87-2.16c0.41-1.78,1.03-3.23,1.38-3.22s0.54,0.47,0.41,1.04
		s0.15,1.03,0.61,1.04c0.47,0.01,1.16-1.32,1.53-2.96c0.59-2.54,0.93-2.89,2.38-2.36c1.59,0.57,1.72,0.35,2.11-3.67
		c0.4-4.07,0.49-4.22,1.8-2.99c1.89,1.77,3.05,0.39,2.76-3.26c-0.23-2.79-0.14-2.95,1.09-1.99c2.1,1.64,3.16-0.75,1.87-4.19
		c-1.21-3.21-0.94-3.63,1.23-1.93c1.98,1.55,2.87-0.32,1.61-3.36c0,0-1-2.01-2.56-2.98C923.58,401.46,920.32,400.78,919.71,401.31z"
		/>
	<path id="path1421_8_" class="st0" d="M966.99,416.94l1.85-0.27c2.31-0.34,3.55-2.32,1.86-2.98c-2.08-0.8-1.23-2.33,1.46-2.63
		c2.97-0.32,3.5-1.97,0.91-2.82c-1.73-0.56-1.7-0.63,0.7-1.44c3.15-1.06,3.97-3.1,1.52-3.78c-1.8-0.5-1.78-0.56,0.78-1.91
		c3.56-1.88,3.66-2.05,1.96-3.6c-1.39-1.27-1.31-1.37,1.27-1.68c3.05-0.37,3.83-2.02,1.31-2.77c-2.24-0.67-0.92-2.63,1.44-2.14
		c2.16,0.45,3.93-1.74,2.01-2.49c-2.14-0.82-1.21-2.34,1.63-2.65c2.1-0.23,2.5-0.55,1.81-1.44c-1.36-1.76-0.92-2.8,1.29-3.04
		c1.4-0.15,2.03-0.77,2.08-2.04c0.05-1.35,0.57-1.78,2.04-1.68c1.57,0.11,1.9-0.22,1.61-1.56c-0.25-1.17,0.17-1.92,1.37-2.42
		c0.95-0.4,1.59-1.08,1.41-1.5c-0.18-0.43,0.29-1.12,1.05-1.54s1.19-1.22,0.96-1.76c-0.23-0.55-0.01-1.04,0.5-1.1
		s2.25-1.87,3.87-4.04c1.62-2.17,3.48-4,4.13-4.07s1.22-0.57,1.27-1.1s0.89-1.36,1.85-1.82c2.18-1.06,2.47-2.86,0.43-2.63
		c-0.84,0.09-3.15,1.67-5.14,3.52c-1.99,1.84-4.79,3.81-6.22,4.38c-1.43,0.56-2.97,1.61-3.42,2.33c-0.61,0.96-0.91,0.93-1.15-0.11
		c-0.24-1.04-0.69-0.71-1.7,1.22c-0.75,1.45-1.33,2.05-1.27,1.33c0.17-2.24-2.19-1.17-3,1.36c-0.73,2.29-0.81,2.32-1.5,0.56
		c-0.59-1.5-0.9-1.56-1.61-0.34c-0.48,0.83-1.01,2.69-1.18,4.13l-0.3,2.62l-0.83-2.27c-1.02-2.79-2.04-1.75-2.5,2.55
		c-0.33,3.1-0.39,3.15-1.41,1.28c-0.91-1.67-1.2-1.71-2.01-0.3c-0.52,0.91-1.12,2.83-1.32,4.28c-0.27,1.89-0.43,2.11-0.58,0.78
		c-0.33-2.95-2.22-1.11-2.58,2.5c-0.18,1.81-0.61,3.33-0.96,3.37c-0.35,0.04-0.59-0.4-0.54-0.98s-0.28-1-0.74-0.95
		c-0.46,0.05-0.98,1.46-1.15,3.13c-0.26,2.6-0.56,2.98-2.06,2.65c-1.65-0.37-1.75-0.13-1.63,3.91c0.12,4.09,0.05,4.25-1.4,3.2
		c-2.1-1.51-3.08,0-2.32,3.58c0.58,2.74,0.51,2.91-0.82,2.12c-2.29-1.36-3.04,1.15-1.32,4.4c1.61,3.03,1.39,3.48-0.97,2.07
		c-2.16-1.28-2.81,0.68-1.17,3.53c0,0,1.25,1.87,2.92,2.63S966.45,417.54,966.99,416.94z"/>
	<path id="path1421_5_" class="st0" d="M1005.47,449.1l1.85-0.27c2.31-0.34,3.55-2.32,1.86-2.98c-2.08-0.8-1.23-2.33,1.46-2.63
		c2.97-0.32,3.5-1.97,0.91-2.82c-1.73-0.56-1.7-0.63,0.7-1.44c3.15-1.06,3.97-3.1,1.52-3.78c-1.8-0.5-1.78-0.56,0.78-1.91
		c3.56-1.88,3.66-2.05,1.96-3.6c-1.39-1.27-1.31-1.37,1.27-1.68c3.05-0.37,3.83-2.02,1.31-2.77c-2.24-0.67-0.92-2.63,1.44-2.14
		c2.16,0.45,3.93-1.74,2.01-2.49c-2.14-0.82-1.21-2.34,1.63-2.65c2.1-0.23,2.5-0.55,1.81-1.44c-1.36-1.76-0.92-2.8,1.29-3.04
		c1.4-0.15,2.03-0.77,2.08-2.04c0.05-1.35,0.57-1.78,2.04-1.68c1.57,0.11,1.9-0.22,1.61-1.56c-0.25-1.17,0.17-1.92,1.37-2.42
		c0.95-0.4,1.59-1.08,1.41-1.5c-0.18-0.43,0.29-1.12,1.05-1.54c0.76-0.42,1.19-1.22,0.96-1.76c-0.23-0.55-0.01-1.04,0.5-1.1
		c0.5-0.05,2.25-1.87,3.87-4.04c1.62-2.17,3.48-4,4.13-4.07c0.65-0.07,1.22-0.57,1.27-1.1s0.89-1.36,1.85-1.82
		c2.18-1.06,2.47-2.86,0.43-2.63c-0.84,0.09-3.15,1.67-5.14,3.52c-1.99,1.84-4.79,3.81-6.22,4.38c-1.43,0.56-2.97,1.61-3.42,2.33
		c-0.61,0.96-0.91,0.93-1.15-0.11c-0.24-1.04-0.69-0.71-1.7,1.22c-0.75,1.45-1.33,2.05-1.27,1.33c0.17-2.24-2.19-1.17-3,1.36
		c-0.73,2.29-0.81,2.32-1.5,0.56c-0.59-1.5-0.9-1.56-1.61-0.34c-0.48,0.83-1.01,2.69-1.18,4.13l-0.3,2.62l-0.83-2.27
		c-1.02-2.79-2.04-1.75-2.5,2.55c-0.33,3.1-0.39,3.15-1.41,1.28c-0.91-1.67-1.2-1.71-2.01-0.3c-0.52,0.91-1.12,2.83-1.32,4.28
		c-0.27,1.89-0.43,2.11-0.58,0.78c-0.33-2.95-2.22-1.11-2.58,2.5c-0.18,1.81-0.61,3.33-0.96,3.37c-0.35,0.04-0.59-0.4-0.54-0.98
		s-0.28-1-0.74-0.95c-0.46,0.05-0.98,1.46-1.15,3.13c-0.26,2.6-0.56,2.98-2.06,2.65c-1.65-0.37-1.75-0.13-1.63,3.91
		c0.12,4.09,0.05,4.25-1.4,3.2c-2.1-1.51-3.08,0-2.32,3.58c0.58,2.74,0.51,2.91-0.82,2.12c-2.29-1.36-3.04,1.15-1.32,4.4
		c1.61,3.03,1.39,3.48-0.97,2.07c-2.16-1.28-2.81,0.68-1.17,3.53c0,0,1.25,1.87,2.92,2.63
		C1001.62,449.44,1004.94,449.7,1005.47,449.1z"/>
	<path id="path1421_2_" class="st0" d="M987.49,430.94l1.85-0.27c2.31-0.34,3.55-2.32,1.86-2.98c-2.08-0.8-1.23-2.33,1.46-2.63
		c2.97-0.32,3.5-1.97,0.91-2.82c-1.73-0.56-1.7-0.63,0.7-1.44c3.15-1.06,3.97-3.1,1.52-3.78c-1.8-0.5-1.78-0.56,0.78-1.91
		c3.56-1.88,3.66-2.05,1.96-3.6c-1.39-1.27-1.31-1.37,1.27-1.68c3.05-0.37,3.83-2.02,1.31-2.77c-2.24-0.67-0.92-2.63,1.44-2.14
		c2.16,0.45,3.93-1.74,2.01-2.49c-2.14-0.82-1.21-2.34,1.63-2.65c2.1-0.23,2.5-0.55,1.81-1.44c-1.36-1.76-0.92-2.8,1.29-3.04
		c1.4-0.15,2.03-0.77,2.08-2.04c0.05-1.35,0.57-1.78,2.04-1.68c1.57,0.11,1.9-0.22,1.61-1.56c-0.25-1.17,0.17-1.92,1.37-2.42
		c0.95-0.4,1.59-1.08,1.41-1.5c-0.18-0.43,0.29-1.12,1.05-1.54s1.19-1.22,0.96-1.76c-0.23-0.55-0.01-1.04,0.5-1.1
		s2.25-1.87,3.87-4.04c1.62-2.17,3.48-4,4.13-4.07c0.65-0.07,1.22-0.57,1.27-1.1c0.05-0.54,0.89-1.36,1.85-1.82
		c2.18-1.06,2.47-2.86,0.43-2.63c-0.84,0.09-3.15,1.67-5.14,3.52c-1.99,1.84-4.79,3.81-6.22,4.38c-1.43,0.56-2.97,1.61-3.42,2.33
		c-0.61,0.96-0.91,0.93-1.15-0.11c-0.24-1.04-0.69-0.71-1.7,1.22c-0.75,1.45-1.33,2.05-1.27,1.33c0.17-2.24-2.19-1.17-3,1.36
		c-0.73,2.29-0.81,2.32-1.5,0.56c-0.59-1.5-0.9-1.56-1.61-0.34c-0.48,0.83-1.01,2.69-1.18,4.13l-0.3,2.62l-0.83-2.27
		c-1.02-2.79-2.04-1.75-2.5,2.55c-0.33,3.1-0.39,3.15-1.41,1.28c-0.91-1.67-1.2-1.71-2.01-0.3c-0.52,0.91-1.12,2.83-1.32,4.28
		c-0.27,1.89-0.43,2.11-0.58,0.78c-0.33-2.95-2.22-1.11-2.58,2.5c-0.18,1.81-0.61,3.33-0.96,3.37c-0.35,0.04-0.59-0.4-0.54-0.98
		s-0.28-1-0.74-0.95c-0.46,0.05-0.98,1.46-1.15,3.13c-0.26,2.6-0.56,2.98-2.06,2.65c-1.65-0.37-1.75-0.13-1.63,3.91
		c0.12,4.09,0.05,4.25-1.4,3.2c-2.1-1.51-3.08,0-2.32,3.58c0.58,2.74,0.51,2.91-0.82,2.12c-2.29-1.36-3.04,1.15-1.32,4.4
		c1.61,3.03,1.39,3.48-0.97,2.07c-2.16-1.28-2.81,0.68-1.17,3.53c0,0,1.25,1.87,2.92,2.63S986.95,431.54,987.49,430.94z"/>
	<path id="path1421_6_" class="st0" d="M938.69,411.66l-2.13,0.01c-2.65,0.02-4.35,2.06-2.56,3.05c2.22,1.23,1.02,2.82-2.05,2.72
		c-3.39-0.1-4.25,1.67-1.46,3.02c1.86,0.9,1.81,0.98-1.01,1.51c-3.71,0.7-4.95,2.86-2.3,4.01c1.95,0.85,1.91,0.91-1.18,2.02
		c-4.3,1.56-4.43,1.73-2.77,3.74c1.36,1.65,1.26,1.74-1.69,1.69c-3.49-0.06-4.62,1.67-1.9,2.9c2.42,1.1,0.63,3.11-1.95,2.18
		c-2.36-0.85-4.69,1.34-2.65,2.48c2.27,1.26,0.99,2.82-2.25,2.72c-2.39-0.07-2.9,0.22-2.26,1.33c1.25,2.19,0.6,3.29-1.93,3.21
		c-1.6-0.05-2.41,0.55-2.66,1.96c-0.27,1.51-0.93,1.91-2.56,1.57c-1.74-0.36-2.17-0.05-2.06,1.51c0.1,1.36-0.49,2.13-1.92,2.51
		c-1.13,0.3-1.95,0.96-1.82,1.47c0.13,0.51-0.51,1.21-1.42,1.57s-1.52,1.18-1.35,1.83c0.17,0.65-0.16,1.17-0.73,1.15
		c-0.58-0.02-2.82,1.75-4.99,3.94c-2.17,2.18-4.54,3.95-5.28,3.93c-0.74-0.02-1.46,0.45-1.61,1.04c-0.14,0.59-1.21,1.39-2.36,1.76
		c-2.62,0.84-3.23,2.82-0.89,2.89c0.95,0.03,3.8-1.39,6.33-3.15c2.53-1.76,5.99-3.54,7.68-3.95c1.69-0.41,3.59-1.35,4.21-2.08
		c0.84-0.99,1.17-0.91,1.28,0.31c0.1,1.2,0.67,0.91,2.1-1.1c1.08-1.51,1.81-2.09,1.64-1.3c-0.55,2.5,2.28,1.66,3.58-1.06
		c1.18-2.46,1.27-2.48,1.77-0.39c0.43,1.78,0.77,1.9,1.75,0.64c0.67-0.86,1.56-2.87,1.97-4.46l0.75-2.9l0.58,2.68
		c0.71,3.29,2.01,2.29,3.21-2.47c0.86-3.44,0.93-3.48,1.79-1.22c0.76,2.02,1.08,2.11,2.22,0.65c0.73-0.94,1.7-3.01,2.16-4.6
		c0.6-2.09,0.81-2.31,0.77-0.79c-0.09,3.37,2.33,1.6,3.29-2.41c0.48-2.01,1.21-3.65,1.61-3.64c0.4,0.01,0.6,0.54,0.45,1.18
		c-0.15,0.64,0.15,1.17,0.68,1.19s1.33-1.49,1.78-3.34c0.7-2.88,1.1-3.27,2.73-2.65c1.8,0.67,1.94,0.42,2.44-4.14
		c0.51-4.62,0.61-4.79,2.08-3.38c2.12,2.03,3.46,0.48,3.17-3.66c-0.22-3.17-0.12-3.35,1.26-2.25c2.36,1.89,3.6-0.82,2.17-4.74
		c-1.33-3.65-1.02-4.13,1.42-2.18c2.22,1.78,3.26-0.32,1.87-3.79c0,0-1.11-2.3-2.86-3.42S939.39,411.07,938.69,411.66z"/>
	<path id="path1421_3_" class="st0" d="M994.96,454.36l-2.13,0.01c-2.65,0.02-4.35,2.06-2.56,3.05c2.22,1.23,1.02,2.82-2.05,2.72
		c-3.39-0.1-4.25,1.67-1.46,3.02c1.86,0.9,1.81,0.98-1.01,1.51c-3.71,0.7-4.95,2.86-2.3,4.01c1.95,0.85,1.91,0.91-1.18,2.02
		c-4.3,1.56-4.43,1.73-2.77,3.74c1.36,1.65,1.26,1.74-1.69,1.69c-3.49-0.06-4.62,1.67-1.9,2.9c2.42,1.1,0.63,3.11-1.95,2.18
		c-2.36-0.85-4.69,1.34-2.65,2.48c2.27,1.26,0.99,2.82-2.25,2.72c-2.39-0.07-2.9,0.22-2.26,1.33c1.25,2.19,0.6,3.29-1.93,3.21
		c-1.6-0.05-2.41,0.55-2.66,1.96c-0.27,1.51-0.93,1.91-2.56,1.57c-1.74-0.36-2.17-0.05-2.06,1.51c0.1,1.36-0.49,2.13-1.92,2.51
		c-1.13,0.3-1.95,0.96-1.82,1.47c0.13,0.51-0.51,1.21-1.42,1.57c-0.92,0.36-1.52,1.18-1.35,1.83s-0.16,1.17-0.73,1.15
		s-2.82,1.75-4.99,3.94c-2.17,2.18-4.54,3.95-5.28,3.93c-0.74-0.02-1.46,0.45-1.61,1.04c-0.14,0.59-1.21,1.39-2.36,1.76
		c-2.62,0.84-3.23,2.82-0.89,2.89c0.95,0.03,3.8-1.39,6.33-3.15c2.53-1.76,5.99-3.54,7.68-3.95c1.69-0.41,3.59-1.35,4.21-2.08
		c0.84-0.99,1.17-0.91,1.28,0.31c0.1,1.2,0.67,0.91,2.1-1.1c1.08-1.51,1.81-2.09,1.64-1.3c-0.55,2.5,2.28,1.66,3.58-1.06
		c1.18-2.46,1.27-2.48,1.77-0.39c0.43,1.78,0.77,1.9,1.75,0.64c0.67-0.86,1.56-2.87,1.97-4.46l0.75-2.9l0.58,2.68
		c0.71,3.29,2.01,2.29,3.21-2.47c0.86-3.44,0.93-3.48,1.79-1.22c0.76,2.02,1.08,2.11,2.22,0.65c0.73-0.94,1.7-3.01,2.16-4.6
		c0.6-2.09,0.81-2.31,0.77-0.79c-0.09,3.37,2.33,1.6,3.29-2.41c0.48-2.01,1.21-3.65,1.61-3.64c0.4,0.01,0.6,0.54,0.45,1.18
		c-0.15,0.64,0.15,1.17,0.68,1.19c0.53,0.02,1.33-1.49,1.78-3.34c0.7-2.88,1.1-3.27,2.73-2.65c1.8,0.67,1.94,0.42,2.44-4.14
		c0.51-4.62,0.61-4.79,2.08-3.38c2.12,2.03,3.46,0.48,3.17-3.66c-0.22-3.17-0.12-3.35,1.26-2.25c2.36,1.89,3.6-0.82,2.17-4.74
		c-1.33-3.65-1.02-4.13,1.42-2.18c2.22,1.78,3.26-0.32,1.87-3.79c0,0-1.11-2.3-2.86-3.42C999.35,454.58,995.66,453.77,994.96,454.36
		z"/>
	<path id="path1421_4_" class="st0" d="M957.68,422.06l-2.28,0.02c-2.84,0.02-4.67,2.21-2.74,3.28c2.38,1.32,1.1,3.03-2.2,2.92
		c-3.64-0.11-4.56,1.79-1.57,3.25c1.99,0.97,1.94,1.05-1.09,1.62c-3.99,0.75-5.32,3.07-2.47,4.31c2.09,0.91,2.05,0.97-1.26,2.17
		c-4.62,1.67-4.76,1.86-2.98,4.02c1.46,1.77,1.36,1.87-1.82,1.81c-3.74-0.07-4.96,1.79-2.04,3.12c2.6,1.18,0.67,3.33-2.09,2.34
		c-2.53-0.91-5.04,1.44-2.84,2.66c2.44,1.35,1.06,3.02-2.41,2.92c-2.57-0.08-3.11,0.24-2.43,1.43c1.35,2.35,0.64,3.53-2.07,3.45
		c-1.72-0.05-2.58,0.59-2.85,2.11c-0.29,1.62-0.99,2.06-2.75,1.69c-1.87-0.39-2.33-0.05-2.21,1.62c0.11,1.46-0.53,2.29-2.06,2.7
		c-1.22,0.32-2.1,1.03-1.95,1.57s-0.54,1.3-1.53,1.68c-0.98,0.38-1.64,1.27-1.45,1.97c0.19,0.7-0.17,1.26-0.79,1.24
		c-0.62-0.02-3.03,1.88-5.35,4.23c-2.33,2.34-4.88,4.24-5.67,4.22c-0.79-0.02-1.57,0.48-1.72,1.12c-0.15,0.64-1.3,1.49-2.54,1.89
		c-2.81,0.91-3.47,3.03-0.96,3.11c1.02,0.03,4.08-1.49,6.8-3.38c2.72-1.89,6.43-3.8,8.24-4.24c1.82-0.44,3.85-1.45,4.52-2.23
		c0.9-1.06,1.26-0.97,1.37,0.33c0.11,1.29,0.71,0.97,2.25-1.19c1.15-1.62,1.95-2.25,1.76-1.39c-0.59,2.68,2.45,1.78,3.85-1.14
		c1.26-2.64,1.36-2.66,1.9-0.42c0.46,1.91,0.82,2.04,1.88,0.68c0.72-0.92,1.67-3.08,2.12-4.79l0.81-3.11l0.62,2.88
		c0.76,3.53,2.16,2.46,3.45-2.65c0.93-3.69,1-3.74,1.92-1.31c0.82,2.17,1.16,2.27,2.38,0.7c0.78-1.01,1.83-3.23,2.32-4.94
		c0.64-2.24,0.87-2.47,0.83-0.85c-0.1,3.62,2.5,1.71,3.53-2.59c0.52-2.16,1.3-3.92,1.73-3.9c0.43,0.01,0.65,0.58,0.48,1.27
		c-0.17,0.68,0.16,1.26,0.73,1.28c0.57,0.02,1.43-1.6,1.91-3.59c0.75-3.09,1.18-3.51,2.93-2.85c1.93,0.72,2.09,0.45,2.62-4.45
		c0.54-4.96,0.65-5.14,2.23-3.62c2.27,2.18,3.72,0.52,3.41-3.93c-0.24-3.41-0.13-3.6,1.35-2.42c2.53,2.03,3.86-0.88,2.33-5.08
		c-1.43-3.92-1.09-4.43,1.52-2.34c2.39,1.91,3.5-0.35,2.01-4.07c0,0-1.19-2.47-3.07-3.67C962.39,422.31,958.43,421.43,957.68,422.06
		z"/>
	<path id="path1421_1_" class="st0" d="M977.29,436.6l-2.28,0.02c-2.84,0.02-4.67,2.21-2.74,3.28c2.38,1.32,1.1,3.03-2.2,2.92
		c-3.64-0.11-4.56,1.79-1.57,3.25c1.99,0.97,1.94,1.05-1.09,1.62c-3.99,0.75-5.32,3.07-2.47,4.31c2.09,0.91,2.05,0.97-1.26,2.17
		c-4.62,1.67-4.76,1.86-2.98,4.02c1.46,1.77,1.36,1.87-1.82,1.81c-3.74-0.07-4.96,1.79-2.04,3.12c2.6,1.18,0.67,3.33-2.09,2.34
		c-2.53-0.91-5.04,1.44-2.84,2.66c2.44,1.35,1.06,3.02-2.41,2.92c-2.57-0.08-3.11,0.24-2.43,1.43c1.35,2.35,0.64,3.53-2.07,3.45
		c-1.72-0.05-2.58,0.59-2.85,2.11c-0.29,1.62-0.99,2.06-2.75,1.69c-1.87-0.39-2.33-0.05-2.21,1.62c0.11,1.46-0.53,2.29-2.06,2.7
		c-1.22,0.32-2.1,1.03-1.95,1.57c0.14,0.54-0.54,1.3-1.53,1.68c-0.98,0.38-1.64,1.27-1.45,1.97c0.19,0.7-0.17,1.26-0.79,1.24
		s-3.03,1.88-5.35,4.23c-2.33,2.34-4.88,4.24-5.67,4.22c-0.79-0.02-1.57,0.48-1.72,1.12c-0.15,0.64-1.3,1.49-2.54,1.89
		c-2.81,0.91-3.47,3.03-0.96,3.11c1.02,0.03,4.08-1.49,6.8-3.38c2.72-1.89,6.43-3.8,8.24-4.24c1.82-0.44,3.85-1.45,4.52-2.23
		c0.9-1.06,1.26-0.97,1.37,0.33c0.11,1.29,0.71,0.97,2.25-1.19c1.15-1.62,1.95-2.25,1.76-1.39c-0.59,2.68,2.45,1.78,3.85-1.14
		c1.26-2.64,1.36-2.66,1.9-0.42c0.46,1.91,0.82,2.04,1.88,0.68c0.72-0.92,1.67-3.08,2.12-4.79l0.81-3.11l0.62,2.88
		c0.76,3.53,2.16,2.46,3.45-2.65c0.93-3.69,1-3.74,1.92-1.31c0.82,2.17,1.16,2.27,2.38,0.7c0.79-1.01,1.83-3.23,2.32-4.94
		c0.64-2.24,0.87-2.47,0.83-0.85c-0.1,3.62,2.5,1.71,3.53-2.59c0.52-2.16,1.3-3.92,1.73-3.9c0.43,0.01,0.65,0.58,0.48,1.27
		c-0.17,0.68,0.16,1.26,0.73,1.28c0.57,0.02,1.43-1.6,1.91-3.59c0.75-3.09,1.18-3.51,2.93-2.85c1.93,0.72,2.09,0.45,2.62-4.45
		c0.54-4.96,0.65-5.14,2.23-3.62c2.27,2.18,3.72,0.52,3.41-3.93c-0.24-3.41-0.13-3.6,1.35-2.42c2.53,2.03,3.86-0.88,2.33-5.08
		c-1.43-3.92-1.09-4.43,1.52-2.34c2.39,1.91,3.5-0.35,2.01-4.07c0,0-1.19-2.47-3.07-3.67C982,436.84,978.04,435.96,977.29,436.6z"/>
	<path id="path1413_12_" class="st0" d="M871.36,337.11c0.77,0.08,1.29,0.31,1.16,0.51c-0.41,0.67-1.73,1.05-2.58,0.75
		c-0.46-0.17-1.09-0.13-1.4,0.09c-0.41,0.28-0.14,0.46,0.95,0.63c1.94,0.31,1.54,1.02-0.68,1.21c-1.79,0.15-2.58,0.6-1.06,0.61
		c1.01,0,0.82,0.65-0.31,1.06c-1.34,0.49-4.73-0.78-4.91-1.57c-0.09-0.41-0.45-1.38-0.79-2.14c-0.87-1.94-0.4-2.43,1.31-1.38
		l1.4,0.86l-0.59-2c-0.62-2.11-0.07-3,1-1.63c0.8,1.02,0.92,0.83,0.62-1.01c-0.27-1.7,0.06-2.5,0.73-1.73
		c-0.01,0.09,0.95,0.93,0.95,0.93l0.02-0.51c0.07-0.89,0.69-1.41,0.69-1.41c0.91-1,0.95-1,0.97-0.03c0.03,0.93,0.1,0.89,0.98-0.54
		c1.05-1.71,1.41-1.82,1.47-0.46c0.04,0.81,0.15,0.74,1.02-0.65c0.54-0.86,1.15-1.5,1.35-1.43c0.21,0.07,0.23,0.37,0.06,0.66
		s0.16,0.18,0.74-0.25c0.82-0.61,1.08-0.63,1.19-0.11s0.3,0.4,0.89-0.54c0.54-0.88,0.78-1.05,0.87-0.61s0.42,0.48,1.19,0.15
		c4.53-1.95,7.55-2.65,8.24-1.91c0.3,0.32-0.2,0.56-1.73,0.82c-2.23,0.38-3.88,3.39-4.16,4.55c-0.1,0.42-0.46,0.53-1.04,0.33
		c-0.79-0.27-0.84-0.23-0.49,0.37c0.49,0.83-0.23,1.38-1.37,1.05c-0.65-0.19-0.72-0.15-0.31,0.18c0.84,0.67,0.23,1.15-1.3,1
		c-1.39-0.14-1.39-0.13-0.71,0.58c0.56,0.58,0.54,0.75-0.1,0.91c-0.44,0.11-1.31,0.03-1.93-0.17l-1.14-0.36l0.76,0.93
		c0,0,0.67,0.69,0.2,1.21c-0.47,0.52-2.45,0.51-2.45,0.51S870.87,336.97,871.36,337.11z"/>
	<path id="path1413_8_" class="st0" d="M849.06,337.76c-0.58-0.5-0.88-0.99-0.66-1.09c0.72-0.31,2.02,0.12,2.54,0.86
		c0.28,0.4,0.82,0.73,1.2,0.73c0.49,0,0.37-0.29-0.42-1.06c-1.42-1.36-0.68-1.72,1.25-0.61c1.56,0.9,2.46,0.98,1.22,0.1
		c-0.83-0.58-0.31-1,0.86-0.69c1.38,0.37,3.44,3.34,3.13,4.09c-0.16,0.39-0.42,1.39-0.57,2.21c-0.39,2.09-1.06,2.22-1.86,0.39
		l-0.66-1.51l-0.66,1.98c-0.7,2.09-1.65,2.5-1.75,0.76c-0.08-1.3-0.28-1.21-1.09,0.47c-0.75,1.55-1.47,2.02-1.58,1.01
		c0.06-0.06-0.25-1.31-0.25-1.31l-0.31,0.41c-0.57,0.69-1.37,0.76-1.37,0.76c-1.32,0.3-1.35,0.28-0.82-0.53
		c0.51-0.78,0.43-0.79-1.11-0.11c-1.84,0.8-2.19,0.69-1.47-0.46c0.43-0.69,0.29-0.69-1.21-0.05c-0.93,0.4-1.8,0.58-1.93,0.4
		c-0.13-0.18,0.02-0.44,0.33-0.58c0.31-0.14-0.03-0.24-0.75-0.22c-1.02,0.03-1.25-0.1-1.04-0.59c0.21-0.49-0.02-0.5-1.04-0.06
		c-0.95,0.41-1.24,0.41-1.06,0c0.18-0.42-0.07-0.63-0.9-0.8c-4.83-0.99-7.71-2.14-7.85-3.13c-0.06-0.44,0.48-0.35,1.89,0.31
		c2.04,0.96,5.12-0.57,6.02-1.36c0.32-0.28,0.68-0.17,1.04,0.32c0.49,0.67,0.56,0.67,0.61-0.02c0.07-0.96,0.98-1,1.72-0.08
		c0.43,0.53,0.51,0.54,0.36,0.03c-0.31-1.03,0.47-1.07,1.64-0.08c1.06,0.91,1.07,0.9,0.91-0.07c-0.13-0.8-0.01-0.92,0.6-0.69
		c0.42,0.16,1.09,0.72,1.49,1.24l0.73,0.95l-0.09-1.2c0,0-0.16-0.94,0.52-1.1s2.3,0.98,2.3,0.98S849.39,338.15,849.06,337.76z"/>
	<path id="path1413_6_" class="st0" d="M878.33,346.87c0.84,0.09,1.41,0.35,1.27,0.57c-0.46,0.73-1.91,1.14-2.84,0.8
		c-0.5-0.19-1.2-0.15-1.54,0.08c-0.45,0.3-0.16,0.5,1.04,0.7c2.13,0.36,1.69,1.14-0.75,1.32c-1.97,0.15-2.84,0.64-1.17,0.66
		c1.11,0.01,0.9,0.72-0.35,1.16c-1.48,0.53-5.19-0.89-5.38-1.76c-0.1-0.46-0.48-1.52-0.85-2.36c-0.94-2.13-0.42-2.67,1.45-1.51
		l1.54,0.96l-0.63-2.2c-0.66-2.33-0.06-3.29,1.11-1.78c0.87,1.13,1,0.92,0.69-1.1c-0.29-1.87,0.08-2.74,0.81-1.9
		c-0.01,0.1,1.04,1.03,1.04,1.03l0.03-0.56c0.09-0.97,0.76-1.54,0.76-1.54c1.01-1.09,1.05-1.09,1.07-0.03
		c0.02,1.02,0.1,0.98,1.08-0.59c1.17-1.87,1.56-1.99,1.62-0.5c0.04,0.89,0.16,0.81,1.13-0.71c0.6-0.94,1.27-1.64,1.5-1.56
		c0.22,0.08,0.25,0.41,0.06,0.73s0.18,0.2,0.82-0.27c0.91-0.66,1.19-0.68,1.31-0.11c0.12,0.57,0.33,0.45,0.98-0.59
		c0.6-0.96,0.87-1.14,0.96-0.66c0.1,0.49,0.45,0.53,1.31,0.17c4.99-2.1,8.32-2.85,9.06-2.04c0.33,0.36-0.22,0.61-1.9,0.89
		c-2.45,0.4-4.29,3.69-4.61,4.97c-0.12,0.46-0.5,0.58-1.15,0.35c-0.87-0.3-0.92-0.26-0.54,0.4c0.53,0.91-0.27,1.51-1.51,1.15
		c-0.72-0.21-0.8-0.17-0.34,0.2c0.92,0.74,0.24,1.26-1.43,1.09c-1.53-0.16-1.53-0.16-0.78,0.63c0.61,0.64,0.59,0.83-0.12,1
		c-0.48,0.11-1.43,0.02-2.12-0.2l-1.25-0.41l0.82,1.03c0,0,0.73,0.76,0.21,1.33c-0.52,0.57-2.7,0.54-2.7,0.54
		S877.79,346.71,878.33,346.87z"/>
	<path id="path1413_4_" class="st0" d="M853.79,350.51c-0.74-0.41-1.17-0.87-0.96-1.02c0.71-0.5,2.2-0.32,2.93,0.35
		c0.39,0.36,1.05,0.6,1.45,0.51c0.53-0.11,0.34-0.4-0.69-1.05c-1.83-1.15-1.12-1.7,1.2-0.93c1.88,0.62,2.87,0.5,1.33-0.16
		c-1.02-0.44-0.55-1.01,0.77-0.94c1.57,0.09,4.44,2.82,4.28,3.7c-0.08,0.46-0.14,1.59-0.12,2.51c0.04,2.33-0.64,2.63-1.92,0.83
		l-1.05-1.47l-0.27,2.28c-0.29,2.4-1.22,3.06-1.71,1.21c-0.37-1.38-0.57-1.24-1.06,0.75c-0.46,1.84-1.13,2.5-1.48,1.44
		c0.05-0.08-0.56-1.35-0.56-1.35l-0.24,0.51c-0.46,0.86-1.3,1.13-1.3,1.13c-1.35,0.61-1.39,0.6-1-0.39
		c0.37-0.95,0.29-0.94-1.22,0.13c-1.8,1.27-2.21,1.23-1.69-0.17c0.31-0.83,0.16-0.81-1.32,0.22c-0.91,0.64-1.81,1.03-1.98,0.86
		c-0.18-0.16-0.08-0.48,0.22-0.7c0.3-0.22-0.09-0.25-0.86-0.07c-1.09,0.26-1.36,0.17-1.25-0.4c0.12-0.57-0.13-0.54-1.13,0.17
		c-0.93,0.66-1.24,0.72-1.14,0.23c0.1-0.49-0.21-0.67-1.14-0.66c-5.41,0.02-8.77-0.57-9.15-1.61c-0.16-0.46,0.44-0.48,2.1-0.08
		c2.41,0.58,5.38-1.75,6.17-2.81c0.28-0.38,0.69-0.34,1.19,0.12c0.68,0.61,0.75,0.6,0.65-0.16c-0.14-1.04,0.83-1.29,1.84-0.47
		c0.58,0.47,0.67,0.46,0.39-0.05c-0.56-1.04,0.27-1.26,1.74-0.45c1.35,0.74,1.35,0.73,0.97-0.28c-0.31-0.83-0.22-0.99,0.5-0.87
		c0.49,0.08,1.33,0.53,1.88,1l1,0.86l-0.36-1.27c0,0-0.38-0.98,0.32-1.3c0.7-0.32,2.7,0.54,2.7,0.54S854.23,350.86,853.79,350.51z"
		/>
	<path id="path1399_6_" class="st0" d="M868.78,326.44c-1.08,0.07-1.26,0.17-0.87,0.45c0.63,0.46-0.33,0.79-1.54,0.53
		c-0.74-0.16-0.83-0.12-0.43,0.2c0.27,0.22,0.35,0.52,0.18,0.68s-0.71,0.26-1.18,0.22c-0.48-0.04-0.7,0.06-0.5,0.21
		c0.58,0.45-0.12,0.8-1.24,0.64c-0.82-0.12-0.93-0.07-0.53,0.24c0.67,0.53,0.06,1.02-0.92,0.73c-0.47-0.14-0.91-0.01-1.11,0.33
		c-0.55,0.96-2.81-2.6-2.7-4.01c0.12-1.53,0.73-2.2,1.29-1.4c0.39,0.55,0.42,0.53,0.77-0.57c0.36-1.12,0.38-1.13,0.83-0.49
		c0.47,0.66,1.11,0.48,0.94-0.26c-0.17-0.78,0.59-1.02,1.02-0.32c0.42,0.68,0.43,0.68,0.58-0.33c0.17-1.14,1.06-1.66,1.47-0.85
		c0.23,0.45,0.31,0.4,0.63-0.46c0.28-0.75,0.48-0.95,0.87-0.85l0.25,0.04c0.52-1.22,0.79-1.42,1.09-0.82
		c0.2,0.39,0.39,0.31,0.9-0.38c0.41-0.56,0.77-0.79,0.99-0.63c0.21,0.15,0.53-0.04,0.83-0.49c0.34-0.53,0.62-0.65,0.95-0.41
		c0.25,0.19,0.69,0.14,0.96-0.11c0.66-0.59,4.61-0.04,5.97,0.07c0.12,0.09-0.71,0.96-1.84,1.95c-1.15,1-2.2,1.69-2.38,1.57
		c-0.17-0.12-0.26,0.06-0.21,0.41c0.09,0.54-0.04,0.63-0.97,0.66c-0.93,0.03-1.01,0.08-0.57,0.4c0.72,0.52-0.03,1.03-1.16,0.78
		c-0.74-0.16-0.85-0.12-0.47,0.19c0,0,0.69,0.01,0.45,0.54c-0.24,0.53-1.46,0.47-1.46,0.47s0.47,0.2,0.32,0.46
		C869.83,326.07,869.39,326.4,868.78,326.44z"/>
	<path id="path1399_5_" class="st0" d="M845.07,324.02c0.93,0.56,1.13,0.58,0.97,0.12c-0.26-0.74,0.72-0.46,1.57,0.45
		c0.52,0.55,0.61,0.57,0.47,0.08c-0.1-0.33,0.01-0.63,0.24-0.66c0.23-0.03,0.73,0.19,1.09,0.49c0.37,0.3,0.61,0.35,0.53,0.11
		c-0.22-0.69,0.56-0.59,1.38,0.18c0.6,0.57,0.72,0.59,0.58,0.11c-0.24-0.82,0.53-0.87,1.17-0.08c0.31,0.38,0.74,0.53,1.1,0.36
		c1-0.47,0.83,3.74-0.07,4.84c-0.97,1.19-1.85,1.39-1.86,0.42c-0.01-0.68-0.04-0.67-0.96,0.03c-0.93,0.71-0.95,0.71-0.96-0.07
		c-0.01-0.81-0.63-1.03-0.92-0.32c-0.31,0.74-1.06,0.5-1.02-0.32c0.04-0.8,0.03-0.8-0.66-0.06c-0.79,0.84-1.82,0.76-1.69-0.14
		c0.07-0.5-0.03-0.5-0.78,0.02c-0.66,0.46-0.94,0.5-1.2,0.2l-0.18-0.18c-1.12,0.7-1.46,0.72-1.37,0.05c0.06-0.44-0.14-0.48-0.96-0.2
		c-0.66,0.23-1.09,0.21-1.18-0.05c-0.09-0.25-0.46-0.28-0.96-0.07c-0.58,0.24-0.88,0.18-1.01-0.21c-0.1-0.3-0.49-0.5-0.85-0.46
		c-0.88,0.11-3.81-2.59-4.86-3.46c-0.05-0.14,1.13-0.39,2.62-0.55c1.52-0.16,2.77-0.13,2.85,0.07c0.07,0.2,0.25,0.1,0.4-0.22
		c0.23-0.5,0.39-0.5,1.17,0.01c0.78,0.51,0.87,0.51,0.7,0c-0.29-0.84,0.61-0.83,1.4,0.02c0.52,0.55,0.63,0.58,0.49,0.12
		c0,0-0.56-0.4-0.06-0.7c0.5-0.3,1.47,0.45,1.47,0.45s-0.27-0.43,0-0.56C843.99,323.72,844.55,323.7,845.07,324.02z"/>
	<path id="path1387_6_" class="st0" d="M852.64,319.32c-0.58,0.38-1.18,0.44-1.42,0.14c-0.23-0.28-0.58-0.27-0.8,0.02
		c-0.21,0.29-0.57,0.3-0.8,0.01c-0.23-0.28-0.54-0.35-0.69-0.14c-0.15,0.21-0.78,0.34-1.4,0.3c-0.62-0.04-1.26-0.06-1.41-0.05
		c-0.85,0.09-2.02-0.39-2-0.6c0.01-0.13-0.34-0.03-0.79,0.23s-0.25,0.12-0.92-0.06c-0.67-0.18-1.7-0.28-2.3-0.21
		c-1.86,0.19-1.33-1.51,0.84-2.17c2.24-0.68,2.96-1.03,3.45-0.81c0.29,0.13,1.89-0.1,2.55-0.25c0.66-0.15,1.36-0.07,1.55,0.17
		s0.53,0.21,0.74-0.09c0.21-0.29,0.57-0.3,0.8-0.01c0.23,0.28,0.56,0.31,0.74,0.07s0.43-0.23,0.55,0.05s0.54,0.32,0.92,0.09
		c0.53-0.31,0.81-0.2,1.18,0.47C854.02,317.5,854.01,318.44,852.64,319.32z"/>
	<path id="path1387_5_" class="st0" d="M859.04,320.83c0.88,0.09,1.58-0.18,1.68-0.65c0.09-0.45,0.5-0.64,0.91-0.43
		c0.41,0.21,0.82,0.01,0.91-0.44c0.09-0.45,0.41-0.7,0.69-0.56c0.29,0.15,1.07-0.06,1.75-0.47c0.68-0.4,1.38-0.79,1.57-0.86
		c1-0.39,2.05-1.6,1.91-1.82c-0.09-0.14,0.37-0.23,1.02-0.19c0.65,0.04,0.36-0.01,1.01-0.59s1.76-1.28,2.47-1.56
		c2.21-0.85,0.63-2.47-2.19-1.96c-2.92,0.51-3.93,0.54-4.36,1.07c-0.25,0.31-2.19,0.97-3.01,1.18c-0.83,0.21-1.57,0.7-1.66,1.09
		s-0.48,0.54-0.89,0.33c-0.41-0.21-0.82-0.01-0.91,0.44c-0.09,0.45-0.45,0.68-0.8,0.5c-0.34-0.18-0.61-0.01-0.59,0.37
		c0.02,0.38-0.43,0.66-0.98,0.63c-0.77-0.05-1.03,0.24-1.06,1.21C856.44,319.56,856.99,320.61,859.04,320.83z"/>
</g>
</svg>
