<?xml version="1.0" encoding="utf-8"?>
<!-- Generator: Adobe Illustrator 24.1.2, SVG Export Plug-In . SVG Version: 6.00 Build 0)  -->
<svg version="1.1" id="Layer_1" xmlns="http://www.w3.org/2000/svg" xmlns:xlink="http://www.w3.org/1999/xlink" x="0px" y="0px"
	 viewBox="0 0 1920 1080" style="enable-background:new 0 0 1920 1080;" xml:space="preserve">
<style type="text/css">
	.st0{fill:#FFFFFF;}
</style>
<g>
	<g>
		<g>
			<path class="st0" d="M1076.79,838.92c0.11,0.05,0.21,0.1,0.29,0.08c0,0-0.1-0.05-0.13-0.13L1076.79,838.92z"/>
		</g>
		<g>
			<path class="st0" d="M849.71,265.37c1.35,129.26,2.18,354.79,3.5,490c14.25,6.29,29.13,11.37,44.55,15.13
				c-0.64-138.26-0.84-383.12-1.5-521.48C880.11,253.04,864.56,258.56,849.71,265.37z"/>
		</g>
		<g>
			<polygon class="st0" points="839.92,749.04 839.92,749.04 839.91,749.04 			"/>
			<path class="st0" d="M760.48,601.5V331.54c-17.36,19.59-31.89,41.74-42.98,65.81v212.34h-0.16v11.68
				c0.06,0.12,0.11,0.25,0.16,0.38c4.07,8.85,8.65,17.41,13.63,25.71c25.94,43.25,63.65,78.62,108.78,101.59l0,0v-59.26
				C806.17,668.05,778.62,637.56,760.48,601.5z"/>
		</g>
		<g>
			<path class="st0" d="M1033.14,511.65c0.2-25.94,0.31-30.5,0.51-56.59c-23.78-4.63-35.74-6.03-59.05-7.44
				c0.03-44.98,0.07-112.28,0.11-157.26c32.32,2.31,45.81,4.19,76.65,15.97c0.26-21.6,0.39-31.85,0.65-49.68
				c-3.24-1.16-6.5-2.28-9.79-3.31c-5.48-1.58-10.91-3.1-16.32-4.53c-20.63-5.08-42.18-7.82-64.39-7.82
				c-10.76,0-21.36,0.71-31.79,1.94c0.14,137.12,0.17,390.84,0.3,533.35c10.34,1.21,20.83,1.9,31.49,1.9c4.33,0,8.62-0.12,12.9-0.33
				c0.06-64.64,0.09-217.13,0.13-269.68C997.75,508.4,1009.59,509.03,1033.14,511.65z"/>
		</g>
		<path class="st0" d="M1071.39,264.33c68.54,29.07,118.36,107.71,118.36,107.83c8.92,13.15,12.91,26.9,10.45,39.5
			c-4.59,23.53-30.57,39.91-65.92,45.24c30.78-5.85,51.26-17.26,52.36-31.77c1.33-17.52-30.27-52.45-67.39-80.81
			c-0.78,38.89-1.18,83.14-1.97,125.88c24.3,11.37,36.17,18.25,58.37,34.98c-0.16,17.99-0.24,27.04-0.4,45.04
			c-22.73-11.76-34.68-16.53-58.99-24.25l-0.91,152.73c42.33-31.9,68.72-63.28,67.39-80.81c-1.1-14.51-21.57-25.92-52.36-31.77
			c35.35,5.33,61.33,21.7,65.92,45.24c2.46,12.59-1.53,26.35-10.45,39.5l-0.48,0.58c0,0.12-49.34,80.17-113.92,105.09
			C1071.44,756.53,1071.08,396.04,1071.39,264.33z"/>
	</g>
	<path class="st0" d="M760.47,331.48l82.75,53.13l-82.69-44.56c-1.41-0.74-4.84,3.23-4.12,1.8L760.47,331.48z"/>
	<polygon class="st0" points="1071.64,756.48 983.61,707 1072.42,747.5 	"/>
	<polygon class="st0" points="888.58,767.85 927.71,709.82 897.18,770.54 	"/>
	<path class="st0" d="M896.48,249.05l46.69,47.98l-46.62-39.41c-1.41-0.74-4.84,3.23-4.12,1.8L896.48,249.05z"/>
	<path class="st0" d="M1051.41,306.19l-72.9,66l64.62-68.18c1.09-1.17-1.86-5.51-0.66-4.45L1051.41,306.19z"/>
	<polygon class="st0" points="1076.14,267.55 1052.39,285.18 1071.32,264.19 	"/>
	<path class="st0" d="M1033.25,511.36l-53.76,34.76l45.48-36.94c1.09-1.17-1.86-5.51-0.66-4.45L1033.25,511.36z"/>
</g>
</svg>
